%TF.GenerationSoftware,KiCad,Pcbnew,(5.1.7)-1*%
%TF.CreationDate,2020-11-09T22:40:43+01:00*%
%TF.ProjectId,LED_Chain,4c45445f-4368-4616-996e-2e6b69636164,rev?*%
%TF.SameCoordinates,Original*%
%TF.FileFunction,Legend,Bot*%
%TF.FilePolarity,Positive*%
%FSLAX46Y46*%
G04 Gerber Fmt 4.6, Leading zero omitted, Abs format (unit mm)*
G04 Created by KiCad (PCBNEW (5.1.7)-1) date 2020-11-09 22:40:43*
%MOMM*%
%LPD*%
G01*
G04 APERTURE LIST*
%ADD10C,0.127000*%
%ADD11C,0.150000*%
%ADD12C,0.010000*%
%ADD13C,0.100000*%
G04 APERTURE END LIST*
D10*
X145063164Y-95219714D02*
X145426021Y-95219714D01*
X145426021Y-94457714D01*
X144809164Y-94820571D02*
X144555164Y-94820571D01*
X144446307Y-95219714D02*
X144809164Y-95219714D01*
X144809164Y-94457714D01*
X144446307Y-94457714D01*
X144119735Y-95219714D02*
X144119735Y-94457714D01*
X143938307Y-94457714D01*
X143829450Y-94494000D01*
X143756878Y-94566571D01*
X143720592Y-94639142D01*
X143684307Y-94784285D01*
X143684307Y-94893142D01*
X143720592Y-95038285D01*
X143756878Y-95110857D01*
X143829450Y-95183428D01*
X143938307Y-95219714D01*
X144119735Y-95219714D01*
X142341735Y-95147142D02*
X142378021Y-95183428D01*
X142486878Y-95219714D01*
X142559450Y-95219714D01*
X142668307Y-95183428D01*
X142740878Y-95110857D01*
X142777164Y-95038285D01*
X142813450Y-94893142D01*
X142813450Y-94784285D01*
X142777164Y-94639142D01*
X142740878Y-94566571D01*
X142668307Y-94494000D01*
X142559450Y-94457714D01*
X142486878Y-94457714D01*
X142378021Y-94494000D01*
X142341735Y-94530285D01*
X142015164Y-95219714D02*
X142015164Y-94457714D01*
X141688592Y-95219714D02*
X141688592Y-94820571D01*
X141724878Y-94748000D01*
X141797450Y-94711714D01*
X141906307Y-94711714D01*
X141978878Y-94748000D01*
X142015164Y-94784285D01*
X140999164Y-95219714D02*
X140999164Y-94820571D01*
X141035450Y-94748000D01*
X141108021Y-94711714D01*
X141253164Y-94711714D01*
X141325735Y-94748000D01*
X140999164Y-95183428D02*
X141071735Y-95219714D01*
X141253164Y-95219714D01*
X141325735Y-95183428D01*
X141362021Y-95110857D01*
X141362021Y-95038285D01*
X141325735Y-94965714D01*
X141253164Y-94929428D01*
X141071735Y-94929428D01*
X140999164Y-94893142D01*
X140636307Y-95219714D02*
X140636307Y-94711714D01*
X140636307Y-94457714D02*
X140672592Y-94494000D01*
X140636307Y-94530285D01*
X140600021Y-94494000D01*
X140636307Y-94457714D01*
X140636307Y-94530285D01*
X140273450Y-94711714D02*
X140273450Y-95219714D01*
X140273450Y-94784285D02*
X140237164Y-94748000D01*
X140164592Y-94711714D01*
X140055735Y-94711714D01*
X139983164Y-94748000D01*
X139946878Y-94820571D01*
X139946878Y-95219714D01*
X139003450Y-95219714D02*
X139003450Y-94457714D01*
X138822021Y-94457714D01*
X138713164Y-94494000D01*
X138640592Y-94566571D01*
X138604307Y-94639142D01*
X138568021Y-94784285D01*
X138568021Y-94893142D01*
X138604307Y-95038285D01*
X138640592Y-95110857D01*
X138713164Y-95183428D01*
X138822021Y-95219714D01*
X139003450Y-95219714D01*
X138241450Y-95219714D02*
X138241450Y-94711714D01*
X138241450Y-94856857D02*
X138205164Y-94784285D01*
X138168878Y-94748000D01*
X138096307Y-94711714D01*
X138023735Y-94711714D01*
X137769735Y-95219714D02*
X137769735Y-94711714D01*
X137769735Y-94457714D02*
X137806021Y-94494000D01*
X137769735Y-94530285D01*
X137733450Y-94494000D01*
X137769735Y-94457714D01*
X137769735Y-94530285D01*
X137479450Y-94711714D02*
X137298021Y-95219714D01*
X137116592Y-94711714D01*
X136536021Y-95183428D02*
X136608592Y-95219714D01*
X136753735Y-95219714D01*
X136826307Y-95183428D01*
X136862592Y-95110857D01*
X136862592Y-94820571D01*
X136826307Y-94748000D01*
X136753735Y-94711714D01*
X136608592Y-94711714D01*
X136536021Y-94748000D01*
X136499735Y-94820571D01*
X136499735Y-94893142D01*
X136862592Y-94965714D01*
X136173164Y-95219714D02*
X136173164Y-94711714D01*
X136173164Y-94856857D02*
X136136878Y-94784285D01*
X136100592Y-94748000D01*
X136028021Y-94711714D01*
X135955450Y-94711714D01*
X144990592Y-96489714D02*
X145244592Y-96126857D01*
X145426021Y-96489714D02*
X145426021Y-95727714D01*
X145135735Y-95727714D01*
X145063164Y-95764000D01*
X145026878Y-95800285D01*
X144990592Y-95872857D01*
X144990592Y-95981714D01*
X145026878Y-96054285D01*
X145063164Y-96090571D01*
X145135735Y-96126857D01*
X145426021Y-96126857D01*
X144373735Y-96453428D02*
X144446307Y-96489714D01*
X144591450Y-96489714D01*
X144664021Y-96453428D01*
X144700307Y-96380857D01*
X144700307Y-96090571D01*
X144664021Y-96018000D01*
X144591450Y-95981714D01*
X144446307Y-95981714D01*
X144373735Y-96018000D01*
X144337450Y-96090571D01*
X144337450Y-96163142D01*
X144700307Y-96235714D01*
X144083450Y-95981714D02*
X143902021Y-96489714D01*
X143720592Y-95981714D01*
X142886021Y-95800285D02*
X142849735Y-95764000D01*
X142777164Y-95727714D01*
X142595735Y-95727714D01*
X142523164Y-95764000D01*
X142486878Y-95800285D01*
X142450592Y-95872857D01*
X142450592Y-95945428D01*
X142486878Y-96054285D01*
X142922307Y-96489714D01*
X142450592Y-96489714D01*
X141761164Y-96489714D02*
X142124021Y-96489714D01*
X142124021Y-95727714D01*
X141688592Y-96562285D02*
X141108021Y-96562285D01*
X140527450Y-96489714D02*
X140962878Y-96489714D01*
X140745164Y-96489714D02*
X140745164Y-95727714D01*
X140817735Y-95836571D01*
X140890307Y-95909142D01*
X140962878Y-95945428D01*
X151114285Y-102387000D02*
X150751428Y-102387000D01*
X151186857Y-102604714D02*
X150932857Y-101842714D01*
X150678857Y-102604714D01*
X150062000Y-101842714D02*
X150424857Y-101842714D01*
X150461142Y-102205571D01*
X150424857Y-102169285D01*
X150352285Y-102133000D01*
X150170857Y-102133000D01*
X150098285Y-102169285D01*
X150062000Y-102205571D01*
X150025714Y-102278142D01*
X150025714Y-102459571D01*
X150062000Y-102532142D01*
X150098285Y-102568428D01*
X150170857Y-102604714D01*
X150352285Y-102604714D01*
X150424857Y-102568428D01*
X150461142Y-102532142D01*
X153624285Y-102367000D02*
X153261428Y-102367000D01*
X153696857Y-102584714D02*
X153442857Y-101822714D01*
X153188857Y-102584714D01*
X152608285Y-101822714D02*
X152753428Y-101822714D01*
X152826000Y-101859000D01*
X152862285Y-101895285D01*
X152934857Y-102004142D01*
X152971142Y-102149285D01*
X152971142Y-102439571D01*
X152934857Y-102512142D01*
X152898571Y-102548428D01*
X152826000Y-102584714D01*
X152680857Y-102584714D01*
X152608285Y-102548428D01*
X152572000Y-102512142D01*
X152535714Y-102439571D01*
X152535714Y-102258142D01*
X152572000Y-102185571D01*
X152608285Y-102149285D01*
X152680857Y-102113000D01*
X152826000Y-102113000D01*
X152898571Y-102149285D01*
X152934857Y-102185571D01*
X152971142Y-102258142D01*
X156184285Y-102367000D02*
X155821428Y-102367000D01*
X156256857Y-102584714D02*
X156002857Y-101822714D01*
X155748857Y-102584714D01*
X155567428Y-101822714D02*
X155059428Y-101822714D01*
X155386000Y-102584714D01*
X149143000Y-101075571D02*
X149397000Y-101075571D01*
X149397000Y-101474714D02*
X149397000Y-100712714D01*
X149034142Y-100712714D01*
X148489857Y-101075571D02*
X148743857Y-101075571D01*
X148743857Y-101474714D02*
X148743857Y-100712714D01*
X148381000Y-100712714D01*
X148090714Y-101402142D02*
X148054428Y-101438428D01*
X148090714Y-101474714D01*
X148127000Y-101438428D01*
X148090714Y-101402142D01*
X148090714Y-101474714D01*
X147292428Y-101474714D02*
X147546428Y-101111857D01*
X147727857Y-101474714D02*
X147727857Y-100712714D01*
X147437571Y-100712714D01*
X147365000Y-100749000D01*
X147328714Y-100785285D01*
X147292428Y-100857857D01*
X147292428Y-100966714D01*
X147328714Y-101039285D01*
X147365000Y-101075571D01*
X147437571Y-101111857D01*
X147727857Y-101111857D01*
X147002142Y-101438428D02*
X146893285Y-101474714D01*
X146711857Y-101474714D01*
X146639285Y-101438428D01*
X146603000Y-101402142D01*
X146566714Y-101329571D01*
X146566714Y-101257000D01*
X146603000Y-101184428D01*
X146639285Y-101148142D01*
X146711857Y-101111857D01*
X146857000Y-101075571D01*
X146929571Y-101039285D01*
X146965857Y-101003000D01*
X147002142Y-100930428D01*
X147002142Y-100857857D01*
X146965857Y-100785285D01*
X146929571Y-100749000D01*
X146857000Y-100712714D01*
X146675571Y-100712714D01*
X146566714Y-100749000D01*
X148594285Y-102367000D02*
X148231428Y-102367000D01*
X148666857Y-102584714D02*
X148412857Y-101822714D01*
X148158857Y-102584714D01*
X147578285Y-102076714D02*
X147578285Y-102584714D01*
X147759714Y-101786428D02*
X147941142Y-102330714D01*
X147469428Y-102330714D01*
X154214285Y-88557000D02*
X153851428Y-88557000D01*
X154286857Y-88774714D02*
X154032857Y-88012714D01*
X153778857Y-88774714D01*
X153561142Y-88085285D02*
X153524857Y-88049000D01*
X153452285Y-88012714D01*
X153270857Y-88012714D01*
X153198285Y-88049000D01*
X153162000Y-88085285D01*
X153125714Y-88157857D01*
X153125714Y-88230428D01*
X153162000Y-88339285D01*
X153597428Y-88774714D01*
X153125714Y-88774714D01*
X156764285Y-88537000D02*
X156401428Y-88537000D01*
X156836857Y-88754714D02*
X156582857Y-87992714D01*
X156328857Y-88754714D01*
X156147428Y-87992714D02*
X155675714Y-87992714D01*
X155929714Y-88283000D01*
X155820857Y-88283000D01*
X155748285Y-88319285D01*
X155712000Y-88355571D01*
X155675714Y-88428142D01*
X155675714Y-88609571D01*
X155712000Y-88682142D01*
X155748285Y-88718428D01*
X155820857Y-88754714D01*
X156038571Y-88754714D01*
X156111142Y-88718428D01*
X156147428Y-88682142D01*
X151634285Y-88557000D02*
X151271428Y-88557000D01*
X151706857Y-88774714D02*
X151452857Y-88012714D01*
X151198857Y-88774714D01*
X150545714Y-88774714D02*
X150981142Y-88774714D01*
X150763428Y-88774714D02*
X150763428Y-88012714D01*
X150836000Y-88121571D01*
X150908571Y-88194142D01*
X150981142Y-88230428D01*
X151271978Y-89565571D02*
X151525978Y-89565571D01*
X151525978Y-89964714D02*
X151525978Y-89202714D01*
X151163121Y-89202714D01*
X150618835Y-89565571D02*
X150872835Y-89565571D01*
X150872835Y-89964714D02*
X150872835Y-89202714D01*
X150509978Y-89202714D01*
X150219692Y-89892142D02*
X150183407Y-89928428D01*
X150219692Y-89964714D01*
X150255978Y-89928428D01*
X150219692Y-89892142D01*
X150219692Y-89964714D01*
X149893121Y-89928428D02*
X149784264Y-89964714D01*
X149602835Y-89964714D01*
X149530264Y-89928428D01*
X149493978Y-89892142D01*
X149457692Y-89819571D01*
X149457692Y-89747000D01*
X149493978Y-89674428D01*
X149530264Y-89638142D01*
X149602835Y-89601857D01*
X149747978Y-89565571D01*
X149820550Y-89529285D01*
X149856835Y-89493000D01*
X149893121Y-89420428D01*
X149893121Y-89347857D01*
X149856835Y-89275285D01*
X149820550Y-89239000D01*
X149747978Y-89202714D01*
X149566550Y-89202714D01*
X149457692Y-89239000D01*
X149131121Y-89565571D02*
X148877121Y-89565571D01*
X148768264Y-89964714D02*
X149131121Y-89964714D01*
X149131121Y-89202714D01*
X148768264Y-89202714D01*
X148550550Y-89202714D02*
X148115121Y-89202714D01*
X148332835Y-89964714D02*
X148332835Y-89202714D01*
X154359428Y-89475571D02*
X154613428Y-89475571D01*
X154613428Y-89874714D02*
X154613428Y-89112714D01*
X154250571Y-89112714D01*
X153706285Y-89475571D02*
X153960285Y-89475571D01*
X153960285Y-89874714D02*
X153960285Y-89112714D01*
X153597428Y-89112714D01*
X153307142Y-89802142D02*
X153270857Y-89838428D01*
X153307142Y-89874714D01*
X153343428Y-89838428D01*
X153307142Y-89802142D01*
X153307142Y-89874714D01*
X152726571Y-89112714D02*
X152726571Y-89657000D01*
X152762857Y-89765857D01*
X152835428Y-89838428D01*
X152944285Y-89874714D01*
X153016857Y-89874714D01*
X157522021Y-89545571D02*
X157776021Y-89545571D01*
X157776021Y-89944714D02*
X157776021Y-89182714D01*
X157413164Y-89182714D01*
X156868878Y-89545571D02*
X157122878Y-89545571D01*
X157122878Y-89944714D02*
X157122878Y-89182714D01*
X156760021Y-89182714D01*
X156469735Y-89872142D02*
X156433450Y-89908428D01*
X156469735Y-89944714D01*
X156506021Y-89908428D01*
X156469735Y-89872142D01*
X156469735Y-89944714D01*
X156106878Y-89944714D02*
X156106878Y-89182714D01*
X155671450Y-89944714D02*
X155998021Y-89509285D01*
X155671450Y-89182714D02*
X156106878Y-89618142D01*
X167923571Y-82977142D02*
X167959857Y-83013428D01*
X168068714Y-83049714D01*
X168141285Y-83049714D01*
X168250142Y-83013428D01*
X168322714Y-82940857D01*
X168359000Y-82868285D01*
X168395285Y-82723142D01*
X168395285Y-82614285D01*
X168359000Y-82469142D01*
X168322714Y-82396571D01*
X168250142Y-82324000D01*
X168141285Y-82287714D01*
X168068714Y-82287714D01*
X167959857Y-82324000D01*
X167923571Y-82360285D01*
X167234142Y-83049714D02*
X167597000Y-83049714D01*
X167597000Y-82287714D01*
X166980142Y-83049714D02*
X166980142Y-82287714D01*
X166544714Y-83049714D02*
X166871285Y-82614285D01*
X166544714Y-82287714D02*
X166980142Y-82723142D01*
X167778428Y-83920571D02*
X167669571Y-83956857D01*
X167633285Y-83993142D01*
X167597000Y-84065714D01*
X167597000Y-84174571D01*
X167633285Y-84247142D01*
X167669571Y-84283428D01*
X167742142Y-84319714D01*
X168032428Y-84319714D01*
X168032428Y-83557714D01*
X167778428Y-83557714D01*
X167705857Y-83594000D01*
X167669571Y-83630285D01*
X167633285Y-83702857D01*
X167633285Y-83775428D01*
X167669571Y-83848000D01*
X167705857Y-83884285D01*
X167778428Y-83920571D01*
X168032428Y-83920571D01*
X167125285Y-83557714D02*
X167052714Y-83557714D01*
X166980142Y-83594000D01*
X166943857Y-83630285D01*
X166907571Y-83702857D01*
X166871285Y-83848000D01*
X166871285Y-84029428D01*
X166907571Y-84174571D01*
X166943857Y-84247142D01*
X166980142Y-84283428D01*
X167052714Y-84319714D01*
X167125285Y-84319714D01*
X167197857Y-84283428D01*
X167234142Y-84247142D01*
X167270428Y-84174571D01*
X167306714Y-84029428D01*
X167306714Y-83848000D01*
X167270428Y-83702857D01*
X167234142Y-83630285D01*
X167197857Y-83594000D01*
X167125285Y-83557714D01*
X165178428Y-83895571D02*
X165069571Y-83931857D01*
X165033285Y-83968142D01*
X164997000Y-84040714D01*
X164997000Y-84149571D01*
X165033285Y-84222142D01*
X165069571Y-84258428D01*
X165142142Y-84294714D01*
X165432428Y-84294714D01*
X165432428Y-83532714D01*
X165178428Y-83532714D01*
X165105857Y-83569000D01*
X165069571Y-83605285D01*
X165033285Y-83677857D01*
X165033285Y-83750428D01*
X165069571Y-83823000D01*
X165105857Y-83859285D01*
X165178428Y-83895571D01*
X165432428Y-83895571D01*
X164271285Y-84294714D02*
X164706714Y-84294714D01*
X164489000Y-84294714D02*
X164489000Y-83532714D01*
X164561571Y-83641571D01*
X164634142Y-83714142D01*
X164706714Y-83750428D01*
X162668428Y-83895571D02*
X162559571Y-83931857D01*
X162523285Y-83968142D01*
X162487000Y-84040714D01*
X162487000Y-84149571D01*
X162523285Y-84222142D01*
X162559571Y-84258428D01*
X162632142Y-84294714D01*
X162922428Y-84294714D01*
X162922428Y-83532714D01*
X162668428Y-83532714D01*
X162595857Y-83569000D01*
X162559571Y-83605285D01*
X162523285Y-83677857D01*
X162523285Y-83750428D01*
X162559571Y-83823000D01*
X162595857Y-83859285D01*
X162668428Y-83895571D01*
X162922428Y-83895571D01*
X162196714Y-83605285D02*
X162160428Y-83569000D01*
X162087857Y-83532714D01*
X161906428Y-83532714D01*
X161833857Y-83569000D01*
X161797571Y-83605285D01*
X161761285Y-83677857D01*
X161761285Y-83750428D01*
X161797571Y-83859285D01*
X162233000Y-84294714D01*
X161761285Y-84294714D01*
X160078428Y-83955571D02*
X159969571Y-83991857D01*
X159933285Y-84028142D01*
X159897000Y-84100714D01*
X159897000Y-84209571D01*
X159933285Y-84282142D01*
X159969571Y-84318428D01*
X160042142Y-84354714D01*
X160332428Y-84354714D01*
X160332428Y-83592714D01*
X160078428Y-83592714D01*
X160005857Y-83629000D01*
X159969571Y-83665285D01*
X159933285Y-83737857D01*
X159933285Y-83810428D01*
X159969571Y-83883000D01*
X160005857Y-83919285D01*
X160078428Y-83955571D01*
X160332428Y-83955571D01*
X159643000Y-83592714D02*
X159171285Y-83592714D01*
X159425285Y-83883000D01*
X159316428Y-83883000D01*
X159243857Y-83919285D01*
X159207571Y-83955571D01*
X159171285Y-84028142D01*
X159171285Y-84209571D01*
X159207571Y-84282142D01*
X159243857Y-84318428D01*
X159316428Y-84354714D01*
X159534142Y-84354714D01*
X159606714Y-84318428D01*
X159643000Y-84282142D01*
D11*
X125329879Y-103922381D02*
X124996546Y-104922381D01*
X124663212Y-103922381D01*
X123901308Y-104922381D02*
X123901308Y-103922381D01*
X123901308Y-104874762D02*
X123996546Y-104922381D01*
X124187022Y-104922381D01*
X124282260Y-104874762D01*
X124329879Y-104827143D01*
X124377498Y-104731905D01*
X124377498Y-104446191D01*
X124329879Y-104350953D01*
X124282260Y-104303334D01*
X124187022Y-104255715D01*
X123996546Y-104255715D01*
X123901308Y-104303334D01*
X122996546Y-104922381D02*
X122996546Y-103922381D01*
X122996546Y-104874762D02*
X123091784Y-104922381D01*
X123282260Y-104922381D01*
X123377498Y-104874762D01*
X123425117Y-104827143D01*
X123472736Y-104731905D01*
X123472736Y-104446191D01*
X123425117Y-104350953D01*
X123377498Y-104303334D01*
X123282260Y-104255715D01*
X123091784Y-104255715D01*
X122996546Y-104303334D01*
X124644165Y-86370000D02*
X124739403Y-86322380D01*
X124882260Y-86322380D01*
X125025117Y-86370000D01*
X125120355Y-86465238D01*
X125167974Y-86560476D01*
X125215593Y-86750952D01*
X125215593Y-86893809D01*
X125167974Y-87084285D01*
X125120355Y-87179523D01*
X125025117Y-87274761D01*
X124882260Y-87322380D01*
X124787022Y-87322380D01*
X124644165Y-87274761D01*
X124596546Y-87227142D01*
X124596546Y-86893809D01*
X124787022Y-86893809D01*
X124167974Y-87322380D02*
X124167974Y-86322380D01*
X123596546Y-87322380D01*
X123596546Y-86322380D01*
X123120355Y-87322380D02*
X123120355Y-86322380D01*
X122882260Y-86322380D01*
X122739403Y-86370000D01*
X122644165Y-86465238D01*
X122596546Y-86560476D01*
X122548927Y-86750952D01*
X122548927Y-86893809D01*
X122596546Y-87084285D01*
X122644165Y-87179523D01*
X122739403Y-87274761D01*
X122882260Y-87322380D01*
X123120355Y-87322380D01*
X124687022Y-89824761D02*
X124544165Y-89872380D01*
X124306070Y-89872380D01*
X124210831Y-89824761D01*
X124163212Y-89777142D01*
X124115593Y-89681904D01*
X124115593Y-89586666D01*
X124163212Y-89491428D01*
X124210831Y-89443809D01*
X124306070Y-89396190D01*
X124496546Y-89348571D01*
X124591784Y-89300952D01*
X124639403Y-89253333D01*
X124687022Y-89158095D01*
X124687022Y-89062857D01*
X124639403Y-88967619D01*
X124591784Y-88920000D01*
X124496546Y-88872380D01*
X124258451Y-88872380D01*
X124115593Y-88920000D01*
X123687022Y-89348571D02*
X123353689Y-89348571D01*
X123210831Y-89872380D02*
X123687022Y-89872380D01*
X123687022Y-88872380D01*
X123210831Y-88872380D01*
X122925117Y-88872380D02*
X122353689Y-88872380D01*
X122639403Y-89872380D02*
X122639403Y-88872380D01*
X126372736Y-97522382D02*
X126706070Y-97046192D01*
X126944165Y-97522382D02*
X126944165Y-96522382D01*
X126563212Y-96522382D01*
X126467974Y-96570002D01*
X126420355Y-96617621D01*
X126372736Y-96712859D01*
X126372736Y-96855716D01*
X126420355Y-96950954D01*
X126467974Y-96998573D01*
X126563212Y-97046192D01*
X126944165Y-97046192D01*
X125944165Y-96998573D02*
X125610831Y-96998573D01*
X125467974Y-97522382D02*
X125944165Y-97522382D01*
X125944165Y-96522382D01*
X125467974Y-96522382D01*
X125087022Y-97474763D02*
X124944165Y-97522382D01*
X124706070Y-97522382D01*
X124610831Y-97474763D01*
X124563212Y-97427144D01*
X124515593Y-97331906D01*
X124515593Y-97236668D01*
X124563212Y-97141430D01*
X124610831Y-97093811D01*
X124706070Y-97046192D01*
X124896546Y-96998573D01*
X124991784Y-96950954D01*
X125039403Y-96903335D01*
X125087022Y-96808097D01*
X125087022Y-96712859D01*
X125039403Y-96617621D01*
X124991784Y-96570002D01*
X124896546Y-96522382D01*
X124658451Y-96522382D01*
X124515593Y-96570002D01*
X124087022Y-96998573D02*
X123753689Y-96998573D01*
X123610831Y-97522382D02*
X124087022Y-97522382D01*
X124087022Y-96522382D01*
X123610831Y-96522382D01*
X123325117Y-96522382D02*
X122753689Y-96522382D01*
X123039403Y-97522382D02*
X123039403Y-96522382D01*
X123220354Y-94872379D02*
X123220354Y-93872379D01*
X122648926Y-94872379D02*
X123077497Y-94300951D01*
X122648926Y-93872379D02*
X123220354Y-94443808D01*
X124658451Y-99877139D02*
X124706070Y-99924758D01*
X124848927Y-99972377D01*
X124944165Y-99972377D01*
X125087022Y-99924758D01*
X125182260Y-99829520D01*
X125229879Y-99734282D01*
X125277498Y-99543806D01*
X125277498Y-99400949D01*
X125229879Y-99210473D01*
X125182260Y-99115235D01*
X125087022Y-99019997D01*
X124944165Y-98972377D01*
X124848927Y-98972377D01*
X124706070Y-99019997D01*
X124658451Y-99067616D01*
X123753689Y-99972377D02*
X124229879Y-99972377D01*
X124229879Y-98972377D01*
X123420355Y-99972377D02*
X123420355Y-98972377D01*
X122848927Y-99972377D02*
X123277498Y-99400949D01*
X122848927Y-98972377D02*
X123420355Y-99543806D01*
X122596545Y-91322380D02*
X122596545Y-92036666D01*
X122644164Y-92179523D01*
X122739402Y-92274761D01*
X122882259Y-92322380D01*
X122977497Y-92322380D01*
X125329878Y-101522381D02*
X124996545Y-102522381D01*
X124663211Y-101522381D01*
X123901307Y-102522381D02*
X123901307Y-101522381D01*
X123901307Y-102474762D02*
X123996545Y-102522381D01*
X124187021Y-102522381D01*
X124282259Y-102474762D01*
X124329878Y-102427143D01*
X124377497Y-102331905D01*
X124377497Y-102046191D01*
X124329878Y-101950953D01*
X124282259Y-101903334D01*
X124187021Y-101855715D01*
X123996545Y-101855715D01*
X123901307Y-101903334D01*
X122996545Y-102522381D02*
X122996545Y-101522381D01*
X122996545Y-102474762D02*
X123091783Y-102522381D01*
X123282259Y-102522381D01*
X123377497Y-102474762D01*
X123425116Y-102427143D01*
X123472735Y-102331905D01*
X123472735Y-102046191D01*
X123425116Y-101950953D01*
X123377497Y-101903334D01*
X123282259Y-101855715D01*
X123091783Y-101855715D01*
X122996545Y-101903334D01*
D12*
%TO.C,REF\u002A\u002A\u002A*%
G36*
X179201371Y-110059066D02*
G01*
X179161889Y-110059467D01*
X179046200Y-110062259D01*
X178949311Y-110070550D01*
X178867919Y-110085232D01*
X178798723Y-110107193D01*
X178738420Y-110137322D01*
X178683708Y-110176510D01*
X178664167Y-110193532D01*
X178631750Y-110233363D01*
X178602520Y-110287413D01*
X178579991Y-110347323D01*
X178567679Y-110404739D01*
X178566400Y-110425956D01*
X178574417Y-110484769D01*
X178595899Y-110549013D01*
X178626999Y-110609821D01*
X178663866Y-110658330D01*
X178669854Y-110664182D01*
X178720579Y-110705321D01*
X178776125Y-110737435D01*
X178839696Y-110761365D01*
X178914494Y-110777953D01*
X179003722Y-110788041D01*
X179110582Y-110792469D01*
X179159528Y-110792845D01*
X179221762Y-110792545D01*
X179265528Y-110791292D01*
X179294931Y-110788554D01*
X179314079Y-110783801D01*
X179327077Y-110776501D01*
X179334045Y-110770267D01*
X179340626Y-110762694D01*
X179345788Y-110752924D01*
X179349703Y-110738340D01*
X179352543Y-110716326D01*
X179354480Y-110684264D01*
X179355684Y-110639536D01*
X179356328Y-110579526D01*
X179356583Y-110501617D01*
X179356622Y-110425956D01*
X179356870Y-110325041D01*
X179356817Y-110244427D01*
X179355857Y-110205822D01*
X179209867Y-110205822D01*
X179209867Y-110646089D01*
X179116734Y-110646004D01*
X179060693Y-110644396D01*
X179001999Y-110640256D01*
X178953028Y-110634464D01*
X178951538Y-110634226D01*
X178872392Y-110615090D01*
X178811002Y-110585287D01*
X178764305Y-110542878D01*
X178734635Y-110496961D01*
X178716353Y-110446026D01*
X178717771Y-110398200D01*
X178738988Y-110346933D01*
X178780489Y-110293899D01*
X178837998Y-110254600D01*
X178912750Y-110228331D01*
X178962708Y-110219035D01*
X179019416Y-110212507D01*
X179079519Y-110207782D01*
X179130639Y-110205817D01*
X179133667Y-110205808D01*
X179209867Y-110205822D01*
X179355857Y-110205822D01*
X179355260Y-110181851D01*
X179350998Y-110135055D01*
X179342830Y-110101778D01*
X179329556Y-110079759D01*
X179309974Y-110066739D01*
X179282883Y-110060457D01*
X179247082Y-110058653D01*
X179201371Y-110059066D01*
G37*
X179201371Y-110059066D02*
X179161889Y-110059467D01*
X179046200Y-110062259D01*
X178949311Y-110070550D01*
X178867919Y-110085232D01*
X178798723Y-110107193D01*
X178738420Y-110137322D01*
X178683708Y-110176510D01*
X178664167Y-110193532D01*
X178631750Y-110233363D01*
X178602520Y-110287413D01*
X178579991Y-110347323D01*
X178567679Y-110404739D01*
X178566400Y-110425956D01*
X178574417Y-110484769D01*
X178595899Y-110549013D01*
X178626999Y-110609821D01*
X178663866Y-110658330D01*
X178669854Y-110664182D01*
X178720579Y-110705321D01*
X178776125Y-110737435D01*
X178839696Y-110761365D01*
X178914494Y-110777953D01*
X179003722Y-110788041D01*
X179110582Y-110792469D01*
X179159528Y-110792845D01*
X179221762Y-110792545D01*
X179265528Y-110791292D01*
X179294931Y-110788554D01*
X179314079Y-110783801D01*
X179327077Y-110776501D01*
X179334045Y-110770267D01*
X179340626Y-110762694D01*
X179345788Y-110752924D01*
X179349703Y-110738340D01*
X179352543Y-110716326D01*
X179354480Y-110684264D01*
X179355684Y-110639536D01*
X179356328Y-110579526D01*
X179356583Y-110501617D01*
X179356622Y-110425956D01*
X179356870Y-110325041D01*
X179356817Y-110244427D01*
X179355857Y-110205822D01*
X179209867Y-110205822D01*
X179209867Y-110646089D01*
X179116734Y-110646004D01*
X179060693Y-110644396D01*
X179001999Y-110640256D01*
X178953028Y-110634464D01*
X178951538Y-110634226D01*
X178872392Y-110615090D01*
X178811002Y-110585287D01*
X178764305Y-110542878D01*
X178734635Y-110496961D01*
X178716353Y-110446026D01*
X178717771Y-110398200D01*
X178738988Y-110346933D01*
X178780489Y-110293899D01*
X178837998Y-110254600D01*
X178912750Y-110228331D01*
X178962708Y-110219035D01*
X179019416Y-110212507D01*
X179079519Y-110207782D01*
X179130639Y-110205817D01*
X179133667Y-110205808D01*
X179209867Y-110205822D01*
X179355857Y-110205822D01*
X179355260Y-110181851D01*
X179350998Y-110135055D01*
X179342830Y-110101778D01*
X179329556Y-110079759D01*
X179309974Y-110066739D01*
X179282883Y-110060457D01*
X179247082Y-110058653D01*
X179201371Y-110059066D01*
G36*
X177792794Y-110059146D02*
G01*
X177723386Y-110059518D01*
X177670997Y-110060385D01*
X177632847Y-110061946D01*
X177606159Y-110064403D01*
X177588153Y-110067957D01*
X177576049Y-110072810D01*
X177567069Y-110079161D01*
X177563818Y-110082084D01*
X177544043Y-110113142D01*
X177540482Y-110148828D01*
X177553491Y-110180510D01*
X177559506Y-110186913D01*
X177569235Y-110193121D01*
X177584901Y-110197910D01*
X177609408Y-110201514D01*
X177645661Y-110204164D01*
X177696565Y-110206095D01*
X177765026Y-110207539D01*
X177827617Y-110208418D01*
X178075334Y-110211467D01*
X178078719Y-110276378D01*
X178082105Y-110341289D01*
X177913958Y-110341289D01*
X177840959Y-110341919D01*
X177787517Y-110344553D01*
X177750628Y-110350309D01*
X177727288Y-110360304D01*
X177714494Y-110375656D01*
X177709242Y-110397482D01*
X177708445Y-110417738D01*
X177710923Y-110442592D01*
X177720277Y-110460906D01*
X177739383Y-110473637D01*
X177771118Y-110481741D01*
X177818359Y-110486176D01*
X177883983Y-110487899D01*
X177919801Y-110488045D01*
X178080978Y-110488045D01*
X178080978Y-110646089D01*
X177832622Y-110646089D01*
X177751213Y-110646202D01*
X177689342Y-110646712D01*
X177643968Y-110647870D01*
X177612054Y-110649930D01*
X177590559Y-110653146D01*
X177576443Y-110657772D01*
X177566668Y-110664059D01*
X177561689Y-110668667D01*
X177544610Y-110695560D01*
X177539111Y-110719467D01*
X177546963Y-110748667D01*
X177561689Y-110770267D01*
X177569546Y-110777066D01*
X177579688Y-110782346D01*
X177594844Y-110786298D01*
X177617741Y-110789113D01*
X177651109Y-110790982D01*
X177697675Y-110792098D01*
X177760167Y-110792651D01*
X177841314Y-110792833D01*
X177883422Y-110792845D01*
X177973598Y-110792765D01*
X178043924Y-110792398D01*
X178097129Y-110791552D01*
X178135940Y-110790036D01*
X178163087Y-110787659D01*
X178181298Y-110784229D01*
X178193300Y-110779554D01*
X178201822Y-110773444D01*
X178205156Y-110770267D01*
X178211755Y-110762670D01*
X178216927Y-110752870D01*
X178220846Y-110738239D01*
X178223684Y-110716152D01*
X178225615Y-110683982D01*
X178226812Y-110639103D01*
X178227448Y-110578889D01*
X178227697Y-110500713D01*
X178227734Y-110427923D01*
X178227700Y-110334707D01*
X178227465Y-110261431D01*
X178226830Y-110205458D01*
X178225594Y-110164151D01*
X178223556Y-110134872D01*
X178220517Y-110114984D01*
X178216277Y-110101850D01*
X178210635Y-110092832D01*
X178203391Y-110085293D01*
X178201606Y-110083612D01*
X178192945Y-110076172D01*
X178182882Y-110070409D01*
X178168625Y-110066112D01*
X178147383Y-110063064D01*
X178116364Y-110061051D01*
X178072777Y-110059860D01*
X178013831Y-110059275D01*
X177936734Y-110059083D01*
X177882001Y-110059067D01*
X177792794Y-110059146D01*
G37*
X177792794Y-110059146D02*
X177723386Y-110059518D01*
X177670997Y-110060385D01*
X177632847Y-110061946D01*
X177606159Y-110064403D01*
X177588153Y-110067957D01*
X177576049Y-110072810D01*
X177567069Y-110079161D01*
X177563818Y-110082084D01*
X177544043Y-110113142D01*
X177540482Y-110148828D01*
X177553491Y-110180510D01*
X177559506Y-110186913D01*
X177569235Y-110193121D01*
X177584901Y-110197910D01*
X177609408Y-110201514D01*
X177645661Y-110204164D01*
X177696565Y-110206095D01*
X177765026Y-110207539D01*
X177827617Y-110208418D01*
X178075334Y-110211467D01*
X178078719Y-110276378D01*
X178082105Y-110341289D01*
X177913958Y-110341289D01*
X177840959Y-110341919D01*
X177787517Y-110344553D01*
X177750628Y-110350309D01*
X177727288Y-110360304D01*
X177714494Y-110375656D01*
X177709242Y-110397482D01*
X177708445Y-110417738D01*
X177710923Y-110442592D01*
X177720277Y-110460906D01*
X177739383Y-110473637D01*
X177771118Y-110481741D01*
X177818359Y-110486176D01*
X177883983Y-110487899D01*
X177919801Y-110488045D01*
X178080978Y-110488045D01*
X178080978Y-110646089D01*
X177832622Y-110646089D01*
X177751213Y-110646202D01*
X177689342Y-110646712D01*
X177643968Y-110647870D01*
X177612054Y-110649930D01*
X177590559Y-110653146D01*
X177576443Y-110657772D01*
X177566668Y-110664059D01*
X177561689Y-110668667D01*
X177544610Y-110695560D01*
X177539111Y-110719467D01*
X177546963Y-110748667D01*
X177561689Y-110770267D01*
X177569546Y-110777066D01*
X177579688Y-110782346D01*
X177594844Y-110786298D01*
X177617741Y-110789113D01*
X177651109Y-110790982D01*
X177697675Y-110792098D01*
X177760167Y-110792651D01*
X177841314Y-110792833D01*
X177883422Y-110792845D01*
X177973598Y-110792765D01*
X178043924Y-110792398D01*
X178097129Y-110791552D01*
X178135940Y-110790036D01*
X178163087Y-110787659D01*
X178181298Y-110784229D01*
X178193300Y-110779554D01*
X178201822Y-110773444D01*
X178205156Y-110770267D01*
X178211755Y-110762670D01*
X178216927Y-110752870D01*
X178220846Y-110738239D01*
X178223684Y-110716152D01*
X178225615Y-110683982D01*
X178226812Y-110639103D01*
X178227448Y-110578889D01*
X178227697Y-110500713D01*
X178227734Y-110427923D01*
X178227700Y-110334707D01*
X178227465Y-110261431D01*
X178226830Y-110205458D01*
X178225594Y-110164151D01*
X178223556Y-110134872D01*
X178220517Y-110114984D01*
X178216277Y-110101850D01*
X178210635Y-110092832D01*
X178203391Y-110085293D01*
X178201606Y-110083612D01*
X178192945Y-110076172D01*
X178182882Y-110070409D01*
X178168625Y-110066112D01*
X178147383Y-110063064D01*
X178116364Y-110061051D01*
X178072777Y-110059860D01*
X178013831Y-110059275D01*
X177936734Y-110059083D01*
X177882001Y-110059067D01*
X177792794Y-110059146D01*
G36*
X176771703Y-110060351D02*
G01*
X176696888Y-110065581D01*
X176627306Y-110073750D01*
X176567002Y-110084550D01*
X176520020Y-110097673D01*
X176490406Y-110112813D01*
X176485860Y-110117269D01*
X176470054Y-110151850D01*
X176474847Y-110187351D01*
X176499364Y-110217725D01*
X176500534Y-110218596D01*
X176514954Y-110227954D01*
X176530008Y-110232876D01*
X176551005Y-110233473D01*
X176583257Y-110229861D01*
X176632073Y-110222154D01*
X176636000Y-110221505D01*
X176708739Y-110212569D01*
X176787217Y-110208161D01*
X176865927Y-110208119D01*
X176939361Y-110212279D01*
X177002011Y-110220479D01*
X177048370Y-110232557D01*
X177051416Y-110233771D01*
X177085048Y-110252615D01*
X177096864Y-110271685D01*
X177087614Y-110290439D01*
X177058047Y-110308337D01*
X177008911Y-110324837D01*
X176940957Y-110339396D01*
X176895645Y-110346406D01*
X176801456Y-110359889D01*
X176726544Y-110372214D01*
X176667717Y-110384449D01*
X176621785Y-110397661D01*
X176585555Y-110412917D01*
X176555838Y-110431285D01*
X176529442Y-110453831D01*
X176508230Y-110475971D01*
X176483065Y-110506819D01*
X176470681Y-110533345D01*
X176466808Y-110566026D01*
X176466667Y-110577995D01*
X176469576Y-110617712D01*
X176481202Y-110647259D01*
X176501323Y-110673486D01*
X176542216Y-110713576D01*
X176587817Y-110744149D01*
X176641513Y-110766203D01*
X176706692Y-110780735D01*
X176786744Y-110788741D01*
X176885057Y-110791218D01*
X176901289Y-110791177D01*
X176966849Y-110789818D01*
X177031866Y-110786730D01*
X177089252Y-110782356D01*
X177131922Y-110777140D01*
X177135372Y-110776541D01*
X177177796Y-110766491D01*
X177213780Y-110753796D01*
X177234150Y-110742190D01*
X177253107Y-110711572D01*
X177254427Y-110675918D01*
X177238085Y-110644144D01*
X177234429Y-110640551D01*
X177219315Y-110629876D01*
X177200415Y-110625276D01*
X177171162Y-110626059D01*
X177135651Y-110630127D01*
X177095970Y-110633762D01*
X177040345Y-110636828D01*
X176975406Y-110639053D01*
X176907785Y-110640164D01*
X176890000Y-110640237D01*
X176822128Y-110639964D01*
X176772454Y-110638646D01*
X176736610Y-110635827D01*
X176710224Y-110631050D01*
X176688926Y-110623857D01*
X176676126Y-110617867D01*
X176648000Y-110601233D01*
X176630068Y-110586168D01*
X176627447Y-110581897D01*
X176632976Y-110564263D01*
X176659260Y-110547192D01*
X176704478Y-110531458D01*
X176766808Y-110517838D01*
X176785171Y-110514804D01*
X176881090Y-110499738D01*
X176957641Y-110487146D01*
X177017780Y-110476111D01*
X177064460Y-110465720D01*
X177100637Y-110455056D01*
X177129265Y-110443205D01*
X177153298Y-110429251D01*
X177175692Y-110412281D01*
X177199402Y-110391378D01*
X177207380Y-110384049D01*
X177235353Y-110356699D01*
X177250160Y-110335029D01*
X177255952Y-110310232D01*
X177256889Y-110278983D01*
X177246575Y-110217705D01*
X177215752Y-110165640D01*
X177164595Y-110122958D01*
X177093283Y-110089825D01*
X177042400Y-110074964D01*
X176987100Y-110065366D01*
X176920853Y-110059936D01*
X176847706Y-110058367D01*
X176771703Y-110060351D01*
G37*
X176771703Y-110060351D02*
X176696888Y-110065581D01*
X176627306Y-110073750D01*
X176567002Y-110084550D01*
X176520020Y-110097673D01*
X176490406Y-110112813D01*
X176485860Y-110117269D01*
X176470054Y-110151850D01*
X176474847Y-110187351D01*
X176499364Y-110217725D01*
X176500534Y-110218596D01*
X176514954Y-110227954D01*
X176530008Y-110232876D01*
X176551005Y-110233473D01*
X176583257Y-110229861D01*
X176632073Y-110222154D01*
X176636000Y-110221505D01*
X176708739Y-110212569D01*
X176787217Y-110208161D01*
X176865927Y-110208119D01*
X176939361Y-110212279D01*
X177002011Y-110220479D01*
X177048370Y-110232557D01*
X177051416Y-110233771D01*
X177085048Y-110252615D01*
X177096864Y-110271685D01*
X177087614Y-110290439D01*
X177058047Y-110308337D01*
X177008911Y-110324837D01*
X176940957Y-110339396D01*
X176895645Y-110346406D01*
X176801456Y-110359889D01*
X176726544Y-110372214D01*
X176667717Y-110384449D01*
X176621785Y-110397661D01*
X176585555Y-110412917D01*
X176555838Y-110431285D01*
X176529442Y-110453831D01*
X176508230Y-110475971D01*
X176483065Y-110506819D01*
X176470681Y-110533345D01*
X176466808Y-110566026D01*
X176466667Y-110577995D01*
X176469576Y-110617712D01*
X176481202Y-110647259D01*
X176501323Y-110673486D01*
X176542216Y-110713576D01*
X176587817Y-110744149D01*
X176641513Y-110766203D01*
X176706692Y-110780735D01*
X176786744Y-110788741D01*
X176885057Y-110791218D01*
X176901289Y-110791177D01*
X176966849Y-110789818D01*
X177031866Y-110786730D01*
X177089252Y-110782356D01*
X177131922Y-110777140D01*
X177135372Y-110776541D01*
X177177796Y-110766491D01*
X177213780Y-110753796D01*
X177234150Y-110742190D01*
X177253107Y-110711572D01*
X177254427Y-110675918D01*
X177238085Y-110644144D01*
X177234429Y-110640551D01*
X177219315Y-110629876D01*
X177200415Y-110625276D01*
X177171162Y-110626059D01*
X177135651Y-110630127D01*
X177095970Y-110633762D01*
X177040345Y-110636828D01*
X176975406Y-110639053D01*
X176907785Y-110640164D01*
X176890000Y-110640237D01*
X176822128Y-110639964D01*
X176772454Y-110638646D01*
X176736610Y-110635827D01*
X176710224Y-110631050D01*
X176688926Y-110623857D01*
X176676126Y-110617867D01*
X176648000Y-110601233D01*
X176630068Y-110586168D01*
X176627447Y-110581897D01*
X176632976Y-110564263D01*
X176659260Y-110547192D01*
X176704478Y-110531458D01*
X176766808Y-110517838D01*
X176785171Y-110514804D01*
X176881090Y-110499738D01*
X176957641Y-110487146D01*
X177017780Y-110476111D01*
X177064460Y-110465720D01*
X177100637Y-110455056D01*
X177129265Y-110443205D01*
X177153298Y-110429251D01*
X177175692Y-110412281D01*
X177199402Y-110391378D01*
X177207380Y-110384049D01*
X177235353Y-110356699D01*
X177250160Y-110335029D01*
X177255952Y-110310232D01*
X177256889Y-110278983D01*
X177246575Y-110217705D01*
X177215752Y-110165640D01*
X177164595Y-110122958D01*
X177093283Y-110089825D01*
X177042400Y-110074964D01*
X176987100Y-110065366D01*
X176920853Y-110059936D01*
X176847706Y-110058367D01*
X176771703Y-110060351D01*
G36*
X176003822Y-110081645D02*
G01*
X175997242Y-110089218D01*
X175992079Y-110098987D01*
X175988164Y-110113571D01*
X175985324Y-110135585D01*
X175983387Y-110167648D01*
X175982183Y-110212375D01*
X175981539Y-110272385D01*
X175981284Y-110350294D01*
X175981245Y-110425956D01*
X175981314Y-110519802D01*
X175981638Y-110593689D01*
X175982386Y-110650232D01*
X175983732Y-110692049D01*
X175985846Y-110721757D01*
X175988900Y-110741973D01*
X175993066Y-110755314D01*
X175998516Y-110764398D01*
X176003822Y-110770267D01*
X176036826Y-110789947D01*
X176071991Y-110788181D01*
X176103455Y-110766717D01*
X176110684Y-110758337D01*
X176116334Y-110748614D01*
X176120599Y-110734861D01*
X176123673Y-110714389D01*
X176125752Y-110684512D01*
X176127030Y-110642541D01*
X176127701Y-110585789D01*
X176127959Y-110511567D01*
X176128000Y-110427537D01*
X176128000Y-110114485D01*
X176100291Y-110086776D01*
X176066137Y-110063463D01*
X176033006Y-110062623D01*
X176003822Y-110081645D01*
G37*
X176003822Y-110081645D02*
X175997242Y-110089218D01*
X175992079Y-110098987D01*
X175988164Y-110113571D01*
X175985324Y-110135585D01*
X175983387Y-110167648D01*
X175982183Y-110212375D01*
X175981539Y-110272385D01*
X175981284Y-110350294D01*
X175981245Y-110425956D01*
X175981314Y-110519802D01*
X175981638Y-110593689D01*
X175982386Y-110650232D01*
X175983732Y-110692049D01*
X175985846Y-110721757D01*
X175988900Y-110741973D01*
X175993066Y-110755314D01*
X175998516Y-110764398D01*
X176003822Y-110770267D01*
X176036826Y-110789947D01*
X176071991Y-110788181D01*
X176103455Y-110766717D01*
X176110684Y-110758337D01*
X176116334Y-110748614D01*
X176120599Y-110734861D01*
X176123673Y-110714389D01*
X176125752Y-110684512D01*
X176127030Y-110642541D01*
X176127701Y-110585789D01*
X176127959Y-110511567D01*
X176128000Y-110427537D01*
X176128000Y-110114485D01*
X176100291Y-110086776D01*
X176066137Y-110063463D01*
X176033006Y-110062623D01*
X176003822Y-110081645D01*
G36*
X175030081Y-110064599D02*
G01*
X174961565Y-110076095D01*
X174908943Y-110093967D01*
X174874708Y-110117499D01*
X174865379Y-110130924D01*
X174855893Y-110162148D01*
X174862277Y-110190395D01*
X174882430Y-110217182D01*
X174913745Y-110229713D01*
X174959183Y-110228696D01*
X174994326Y-110221906D01*
X175072419Y-110208971D01*
X175152226Y-110207742D01*
X175241555Y-110218241D01*
X175266229Y-110222690D01*
X175349291Y-110246108D01*
X175414273Y-110280945D01*
X175460461Y-110326604D01*
X175487145Y-110382494D01*
X175492663Y-110411388D01*
X175489051Y-110470012D01*
X175465729Y-110521879D01*
X175424824Y-110565978D01*
X175368459Y-110601299D01*
X175298760Y-110626829D01*
X175217852Y-110641559D01*
X175127860Y-110644478D01*
X175030910Y-110634575D01*
X175025436Y-110633641D01*
X174986875Y-110626459D01*
X174965494Y-110619521D01*
X174956227Y-110609227D01*
X174954006Y-110591976D01*
X174953956Y-110582841D01*
X174953956Y-110544489D01*
X175022431Y-110544489D01*
X175082900Y-110540347D01*
X175124165Y-110527147D01*
X175148175Y-110503730D01*
X175156877Y-110468936D01*
X175156983Y-110464394D01*
X175151892Y-110434654D01*
X175134433Y-110413419D01*
X175101939Y-110399366D01*
X175051743Y-110391173D01*
X175003123Y-110388161D01*
X174932456Y-110386433D01*
X174881198Y-110389070D01*
X174846239Y-110398800D01*
X174824470Y-110418353D01*
X174812780Y-110450456D01*
X174808060Y-110497838D01*
X174807200Y-110560071D01*
X174808609Y-110629535D01*
X174812848Y-110676786D01*
X174819936Y-110702012D01*
X174821311Y-110703988D01*
X174860228Y-110735508D01*
X174917286Y-110760470D01*
X174988869Y-110778340D01*
X175071358Y-110788586D01*
X175161139Y-110790673D01*
X175254592Y-110784068D01*
X175309556Y-110775956D01*
X175395766Y-110751554D01*
X175475892Y-110711662D01*
X175542977Y-110659887D01*
X175553173Y-110649539D01*
X175586302Y-110606035D01*
X175616194Y-110552118D01*
X175639357Y-110495592D01*
X175652298Y-110444259D01*
X175653858Y-110424544D01*
X175647218Y-110383419D01*
X175629568Y-110332252D01*
X175604297Y-110278394D01*
X175574789Y-110229195D01*
X175548719Y-110196334D01*
X175487765Y-110147452D01*
X175408969Y-110108545D01*
X175315157Y-110080494D01*
X175209150Y-110064179D01*
X175112000Y-110060192D01*
X175030081Y-110064599D01*
G37*
X175030081Y-110064599D02*
X174961565Y-110076095D01*
X174908943Y-110093967D01*
X174874708Y-110117499D01*
X174865379Y-110130924D01*
X174855893Y-110162148D01*
X174862277Y-110190395D01*
X174882430Y-110217182D01*
X174913745Y-110229713D01*
X174959183Y-110228696D01*
X174994326Y-110221906D01*
X175072419Y-110208971D01*
X175152226Y-110207742D01*
X175241555Y-110218241D01*
X175266229Y-110222690D01*
X175349291Y-110246108D01*
X175414273Y-110280945D01*
X175460461Y-110326604D01*
X175487145Y-110382494D01*
X175492663Y-110411388D01*
X175489051Y-110470012D01*
X175465729Y-110521879D01*
X175424824Y-110565978D01*
X175368459Y-110601299D01*
X175298760Y-110626829D01*
X175217852Y-110641559D01*
X175127860Y-110644478D01*
X175030910Y-110634575D01*
X175025436Y-110633641D01*
X174986875Y-110626459D01*
X174965494Y-110619521D01*
X174956227Y-110609227D01*
X174954006Y-110591976D01*
X174953956Y-110582841D01*
X174953956Y-110544489D01*
X175022431Y-110544489D01*
X175082900Y-110540347D01*
X175124165Y-110527147D01*
X175148175Y-110503730D01*
X175156877Y-110468936D01*
X175156983Y-110464394D01*
X175151892Y-110434654D01*
X175134433Y-110413419D01*
X175101939Y-110399366D01*
X175051743Y-110391173D01*
X175003123Y-110388161D01*
X174932456Y-110386433D01*
X174881198Y-110389070D01*
X174846239Y-110398800D01*
X174824470Y-110418353D01*
X174812780Y-110450456D01*
X174808060Y-110497838D01*
X174807200Y-110560071D01*
X174808609Y-110629535D01*
X174812848Y-110676786D01*
X174819936Y-110702012D01*
X174821311Y-110703988D01*
X174860228Y-110735508D01*
X174917286Y-110760470D01*
X174988869Y-110778340D01*
X175071358Y-110788586D01*
X175161139Y-110790673D01*
X175254592Y-110784068D01*
X175309556Y-110775956D01*
X175395766Y-110751554D01*
X175475892Y-110711662D01*
X175542977Y-110659887D01*
X175553173Y-110649539D01*
X175586302Y-110606035D01*
X175616194Y-110552118D01*
X175639357Y-110495592D01*
X175652298Y-110444259D01*
X175653858Y-110424544D01*
X175647218Y-110383419D01*
X175629568Y-110332252D01*
X175604297Y-110278394D01*
X175574789Y-110229195D01*
X175548719Y-110196334D01*
X175487765Y-110147452D01*
X175408969Y-110108545D01*
X175315157Y-110080494D01*
X175209150Y-110064179D01*
X175112000Y-110060192D01*
X175030081Y-110064599D01*
G36*
X174380114Y-110063448D02*
G01*
X174356548Y-110077273D01*
X174325735Y-110099881D01*
X174286078Y-110132338D01*
X174235980Y-110175708D01*
X174173843Y-110231058D01*
X174098072Y-110299451D01*
X174011334Y-110378084D01*
X173830711Y-110541878D01*
X173825067Y-110322029D01*
X173823029Y-110246351D01*
X173821063Y-110189994D01*
X173818734Y-110149706D01*
X173815606Y-110122235D01*
X173811245Y-110104329D01*
X173805216Y-110092737D01*
X173797084Y-110084208D01*
X173792772Y-110080623D01*
X173758241Y-110061670D01*
X173725383Y-110064441D01*
X173699318Y-110080633D01*
X173672667Y-110102199D01*
X173669352Y-110417151D01*
X173668435Y-110509779D01*
X173667968Y-110582544D01*
X173668113Y-110638161D01*
X173669032Y-110679342D01*
X173670887Y-110708803D01*
X173673839Y-110729255D01*
X173678050Y-110743413D01*
X173683682Y-110753991D01*
X173689927Y-110762474D01*
X173703439Y-110778207D01*
X173716883Y-110788636D01*
X173732124Y-110792639D01*
X173751026Y-110789094D01*
X173775455Y-110776879D01*
X173807273Y-110754871D01*
X173848348Y-110721949D01*
X173900542Y-110676991D01*
X173965722Y-110618875D01*
X174039556Y-110552099D01*
X174304845Y-110311458D01*
X174310489Y-110530589D01*
X174312531Y-110606128D01*
X174314502Y-110662354D01*
X174316839Y-110702524D01*
X174319981Y-110729896D01*
X174324364Y-110747728D01*
X174330424Y-110759279D01*
X174338600Y-110767807D01*
X174342784Y-110771282D01*
X174379765Y-110790372D01*
X174414708Y-110787493D01*
X174445136Y-110763100D01*
X174452097Y-110753286D01*
X174457523Y-110741826D01*
X174461603Y-110725968D01*
X174464529Y-110702963D01*
X174466492Y-110670062D01*
X174467683Y-110624516D01*
X174468292Y-110563573D01*
X174468511Y-110484486D01*
X174468534Y-110425956D01*
X174468460Y-110334407D01*
X174468113Y-110262687D01*
X174467301Y-110208045D01*
X174465833Y-110167732D01*
X174463519Y-110138998D01*
X174460167Y-110119093D01*
X174455588Y-110105268D01*
X174449589Y-110094772D01*
X174445136Y-110088811D01*
X174433850Y-110074691D01*
X174423301Y-110064029D01*
X174411893Y-110057892D01*
X174398030Y-110057343D01*
X174380114Y-110063448D01*
G37*
X174380114Y-110063448D02*
X174356548Y-110077273D01*
X174325735Y-110099881D01*
X174286078Y-110132338D01*
X174235980Y-110175708D01*
X174173843Y-110231058D01*
X174098072Y-110299451D01*
X174011334Y-110378084D01*
X173830711Y-110541878D01*
X173825067Y-110322029D01*
X173823029Y-110246351D01*
X173821063Y-110189994D01*
X173818734Y-110149706D01*
X173815606Y-110122235D01*
X173811245Y-110104329D01*
X173805216Y-110092737D01*
X173797084Y-110084208D01*
X173792772Y-110080623D01*
X173758241Y-110061670D01*
X173725383Y-110064441D01*
X173699318Y-110080633D01*
X173672667Y-110102199D01*
X173669352Y-110417151D01*
X173668435Y-110509779D01*
X173667968Y-110582544D01*
X173668113Y-110638161D01*
X173669032Y-110679342D01*
X173670887Y-110708803D01*
X173673839Y-110729255D01*
X173678050Y-110743413D01*
X173683682Y-110753991D01*
X173689927Y-110762474D01*
X173703439Y-110778207D01*
X173716883Y-110788636D01*
X173732124Y-110792639D01*
X173751026Y-110789094D01*
X173775455Y-110776879D01*
X173807273Y-110754871D01*
X173848348Y-110721949D01*
X173900542Y-110676991D01*
X173965722Y-110618875D01*
X174039556Y-110552099D01*
X174304845Y-110311458D01*
X174310489Y-110530589D01*
X174312531Y-110606128D01*
X174314502Y-110662354D01*
X174316839Y-110702524D01*
X174319981Y-110729896D01*
X174324364Y-110747728D01*
X174330424Y-110759279D01*
X174338600Y-110767807D01*
X174342784Y-110771282D01*
X174379765Y-110790372D01*
X174414708Y-110787493D01*
X174445136Y-110763100D01*
X174452097Y-110753286D01*
X174457523Y-110741826D01*
X174461603Y-110725968D01*
X174464529Y-110702963D01*
X174466492Y-110670062D01*
X174467683Y-110624516D01*
X174468292Y-110563573D01*
X174468511Y-110484486D01*
X174468534Y-110425956D01*
X174468460Y-110334407D01*
X174468113Y-110262687D01*
X174467301Y-110208045D01*
X174465833Y-110167732D01*
X174463519Y-110138998D01*
X174460167Y-110119093D01*
X174455588Y-110105268D01*
X174449589Y-110094772D01*
X174445136Y-110088811D01*
X174433850Y-110074691D01*
X174423301Y-110064029D01*
X174411893Y-110057892D01*
X174398030Y-110057343D01*
X174380114Y-110063448D01*
G36*
X172849657Y-110059260D02*
G01*
X172773299Y-110060174D01*
X172714783Y-110062311D01*
X172671745Y-110066175D01*
X172641817Y-110072267D01*
X172622632Y-110081090D01*
X172611824Y-110093146D01*
X172607027Y-110108939D01*
X172605873Y-110128970D01*
X172605867Y-110131335D01*
X172606869Y-110153992D01*
X172611604Y-110171503D01*
X172622667Y-110184574D01*
X172642652Y-110193913D01*
X172674154Y-110200227D01*
X172719768Y-110204222D01*
X172782087Y-110206606D01*
X172863707Y-110208086D01*
X172888723Y-110208414D01*
X173130800Y-110211467D01*
X173134186Y-110276378D01*
X173137571Y-110341289D01*
X172969424Y-110341289D01*
X172903734Y-110341531D01*
X172856828Y-110342556D01*
X172824917Y-110344811D01*
X172804209Y-110348742D01*
X172790916Y-110354798D01*
X172781245Y-110363424D01*
X172781183Y-110363493D01*
X172763644Y-110397112D01*
X172764278Y-110433448D01*
X172782686Y-110464423D01*
X172786329Y-110467607D01*
X172799259Y-110475812D01*
X172816976Y-110481521D01*
X172843430Y-110485162D01*
X172882568Y-110487167D01*
X172938338Y-110487964D01*
X172974006Y-110488045D01*
X173136445Y-110488045D01*
X173136445Y-110646089D01*
X172889839Y-110646089D01*
X172808420Y-110646231D01*
X172746590Y-110646814D01*
X172701363Y-110648068D01*
X172669752Y-110650227D01*
X172648769Y-110653523D01*
X172635427Y-110658189D01*
X172626739Y-110664457D01*
X172624550Y-110666733D01*
X172608386Y-110698280D01*
X172607203Y-110734168D01*
X172620464Y-110765285D01*
X172630957Y-110775271D01*
X172641871Y-110780769D01*
X172658783Y-110785022D01*
X172684367Y-110788180D01*
X172721299Y-110790392D01*
X172772254Y-110791806D01*
X172839906Y-110792572D01*
X172926931Y-110792838D01*
X172946606Y-110792845D01*
X173035089Y-110792787D01*
X173103773Y-110792467D01*
X173155436Y-110791667D01*
X173192855Y-110790167D01*
X173218810Y-110787749D01*
X173236078Y-110784194D01*
X173247438Y-110779282D01*
X173255668Y-110772795D01*
X173260183Y-110768138D01*
X173266979Y-110759889D01*
X173272288Y-110749669D01*
X173276294Y-110734800D01*
X173279179Y-110712602D01*
X173281126Y-110680393D01*
X173282319Y-110635496D01*
X173282939Y-110575228D01*
X173283171Y-110496911D01*
X173283200Y-110430994D01*
X173283129Y-110338628D01*
X173282792Y-110266117D01*
X173282002Y-110210737D01*
X173280574Y-110169765D01*
X173278321Y-110140478D01*
X173275057Y-110120153D01*
X173270596Y-110106066D01*
X173264752Y-110095495D01*
X173259803Y-110088811D01*
X173236406Y-110059067D01*
X172946226Y-110059067D01*
X172849657Y-110059260D01*
G37*
X172849657Y-110059260D02*
X172773299Y-110060174D01*
X172714783Y-110062311D01*
X172671745Y-110066175D01*
X172641817Y-110072267D01*
X172622632Y-110081090D01*
X172611824Y-110093146D01*
X172607027Y-110108939D01*
X172605873Y-110128970D01*
X172605867Y-110131335D01*
X172606869Y-110153992D01*
X172611604Y-110171503D01*
X172622667Y-110184574D01*
X172642652Y-110193913D01*
X172674154Y-110200227D01*
X172719768Y-110204222D01*
X172782087Y-110206606D01*
X172863707Y-110208086D01*
X172888723Y-110208414D01*
X173130800Y-110211467D01*
X173134186Y-110276378D01*
X173137571Y-110341289D01*
X172969424Y-110341289D01*
X172903734Y-110341531D01*
X172856828Y-110342556D01*
X172824917Y-110344811D01*
X172804209Y-110348742D01*
X172790916Y-110354798D01*
X172781245Y-110363424D01*
X172781183Y-110363493D01*
X172763644Y-110397112D01*
X172764278Y-110433448D01*
X172782686Y-110464423D01*
X172786329Y-110467607D01*
X172799259Y-110475812D01*
X172816976Y-110481521D01*
X172843430Y-110485162D01*
X172882568Y-110487167D01*
X172938338Y-110487964D01*
X172974006Y-110488045D01*
X173136445Y-110488045D01*
X173136445Y-110646089D01*
X172889839Y-110646089D01*
X172808420Y-110646231D01*
X172746590Y-110646814D01*
X172701363Y-110648068D01*
X172669752Y-110650227D01*
X172648769Y-110653523D01*
X172635427Y-110658189D01*
X172626739Y-110664457D01*
X172624550Y-110666733D01*
X172608386Y-110698280D01*
X172607203Y-110734168D01*
X172620464Y-110765285D01*
X172630957Y-110775271D01*
X172641871Y-110780769D01*
X172658783Y-110785022D01*
X172684367Y-110788180D01*
X172721299Y-110790392D01*
X172772254Y-110791806D01*
X172839906Y-110792572D01*
X172926931Y-110792838D01*
X172946606Y-110792845D01*
X173035089Y-110792787D01*
X173103773Y-110792467D01*
X173155436Y-110791667D01*
X173192855Y-110790167D01*
X173218810Y-110787749D01*
X173236078Y-110784194D01*
X173247438Y-110779282D01*
X173255668Y-110772795D01*
X173260183Y-110768138D01*
X173266979Y-110759889D01*
X173272288Y-110749669D01*
X173276294Y-110734800D01*
X173279179Y-110712602D01*
X173281126Y-110680393D01*
X173282319Y-110635496D01*
X173282939Y-110575228D01*
X173283171Y-110496911D01*
X173283200Y-110430994D01*
X173283129Y-110338628D01*
X173282792Y-110266117D01*
X173282002Y-110210737D01*
X173280574Y-110169765D01*
X173278321Y-110140478D01*
X173275057Y-110120153D01*
X173270596Y-110106066D01*
X173264752Y-110095495D01*
X173259803Y-110088811D01*
X173236406Y-110059067D01*
X172946226Y-110059067D01*
X172849657Y-110059260D01*
G36*
X172061691Y-110059275D02*
G01*
X171932712Y-110063636D01*
X171823009Y-110076861D01*
X171730774Y-110099741D01*
X171654198Y-110133070D01*
X171591473Y-110177638D01*
X171540788Y-110234236D01*
X171500337Y-110303658D01*
X171499541Y-110305351D01*
X171475399Y-110367483D01*
X171466797Y-110422509D01*
X171473769Y-110477887D01*
X171496346Y-110541073D01*
X171500628Y-110550689D01*
X171529828Y-110606966D01*
X171562644Y-110650451D01*
X171604998Y-110687417D01*
X171662810Y-110724135D01*
X171666169Y-110726052D01*
X171716496Y-110750227D01*
X171773379Y-110768282D01*
X171840473Y-110780839D01*
X171921435Y-110788522D01*
X172019918Y-110791953D01*
X172054714Y-110792251D01*
X172220406Y-110792845D01*
X172243803Y-110763100D01*
X172250743Y-110753319D01*
X172256158Y-110741897D01*
X172260235Y-110726095D01*
X172263163Y-110703175D01*
X172265133Y-110670396D01*
X172265775Y-110646089D01*
X172109156Y-110646089D01*
X172015274Y-110646089D01*
X171960336Y-110644483D01*
X171903940Y-110640255D01*
X171857655Y-110634292D01*
X171854861Y-110633790D01*
X171772652Y-110611736D01*
X171708886Y-110578600D01*
X171661548Y-110532847D01*
X171628618Y-110472939D01*
X171622892Y-110457061D01*
X171617279Y-110432333D01*
X171619709Y-110407902D01*
X171631533Y-110375400D01*
X171638660Y-110359434D01*
X171662000Y-110317006D01*
X171690120Y-110287240D01*
X171721060Y-110266511D01*
X171783034Y-110239537D01*
X171862349Y-110219998D01*
X171954747Y-110208746D01*
X172021667Y-110206270D01*
X172109156Y-110205822D01*
X172109156Y-110646089D01*
X172265775Y-110646089D01*
X172266332Y-110625021D01*
X172266950Y-110564311D01*
X172267175Y-110485526D01*
X172267200Y-110423920D01*
X172267200Y-110114485D01*
X172239491Y-110086776D01*
X172227194Y-110075544D01*
X172213897Y-110067853D01*
X172195328Y-110063040D01*
X172167214Y-110060446D01*
X172125283Y-110059410D01*
X172065263Y-110059270D01*
X172061691Y-110059275D01*
G37*
X172061691Y-110059275D02*
X171932712Y-110063636D01*
X171823009Y-110076861D01*
X171730774Y-110099741D01*
X171654198Y-110133070D01*
X171591473Y-110177638D01*
X171540788Y-110234236D01*
X171500337Y-110303658D01*
X171499541Y-110305351D01*
X171475399Y-110367483D01*
X171466797Y-110422509D01*
X171473769Y-110477887D01*
X171496346Y-110541073D01*
X171500628Y-110550689D01*
X171529828Y-110606966D01*
X171562644Y-110650451D01*
X171604998Y-110687417D01*
X171662810Y-110724135D01*
X171666169Y-110726052D01*
X171716496Y-110750227D01*
X171773379Y-110768282D01*
X171840473Y-110780839D01*
X171921435Y-110788522D01*
X172019918Y-110791953D01*
X172054714Y-110792251D01*
X172220406Y-110792845D01*
X172243803Y-110763100D01*
X172250743Y-110753319D01*
X172256158Y-110741897D01*
X172260235Y-110726095D01*
X172263163Y-110703175D01*
X172265133Y-110670396D01*
X172265775Y-110646089D01*
X172109156Y-110646089D01*
X172015274Y-110646089D01*
X171960336Y-110644483D01*
X171903940Y-110640255D01*
X171857655Y-110634292D01*
X171854861Y-110633790D01*
X171772652Y-110611736D01*
X171708886Y-110578600D01*
X171661548Y-110532847D01*
X171628618Y-110472939D01*
X171622892Y-110457061D01*
X171617279Y-110432333D01*
X171619709Y-110407902D01*
X171631533Y-110375400D01*
X171638660Y-110359434D01*
X171662000Y-110317006D01*
X171690120Y-110287240D01*
X171721060Y-110266511D01*
X171783034Y-110239537D01*
X171862349Y-110219998D01*
X171954747Y-110208746D01*
X172021667Y-110206270D01*
X172109156Y-110205822D01*
X172109156Y-110646089D01*
X172265775Y-110646089D01*
X172266332Y-110625021D01*
X172266950Y-110564311D01*
X172267175Y-110485526D01*
X172267200Y-110423920D01*
X172267200Y-110114485D01*
X172239491Y-110086776D01*
X172227194Y-110075544D01*
X172213897Y-110067853D01*
X172195328Y-110063040D01*
X172167214Y-110060446D01*
X172125283Y-110059410D01*
X172065263Y-110059270D01*
X172061691Y-110059275D01*
G36*
X169335335Y-110061034D02*
G01*
X169315745Y-110068035D01*
X169314990Y-110068377D01*
X169288387Y-110088678D01*
X169273730Y-110109561D01*
X169270862Y-110119352D01*
X169271004Y-110132361D01*
X169275039Y-110150895D01*
X169283854Y-110177257D01*
X169298331Y-110213752D01*
X169319355Y-110262687D01*
X169347812Y-110326365D01*
X169384585Y-110407093D01*
X169404825Y-110451216D01*
X169441375Y-110529985D01*
X169475685Y-110602423D01*
X169506448Y-110665880D01*
X169532352Y-110717708D01*
X169552090Y-110755259D01*
X169564350Y-110775884D01*
X169566776Y-110778733D01*
X169597817Y-110791302D01*
X169632879Y-110789619D01*
X169661000Y-110774332D01*
X169662146Y-110773089D01*
X169673332Y-110756154D01*
X169692096Y-110723170D01*
X169716125Y-110678380D01*
X169743103Y-110626032D01*
X169752799Y-110606742D01*
X169825986Y-110460150D01*
X169905760Y-110619393D01*
X169934233Y-110674415D01*
X169960650Y-110722132D01*
X169982852Y-110758893D01*
X169998681Y-110781044D01*
X170004046Y-110785741D01*
X170045743Y-110792102D01*
X170080151Y-110778733D01*
X170090272Y-110764446D01*
X170107786Y-110732692D01*
X170131265Y-110686597D01*
X170159280Y-110629285D01*
X170190401Y-110563880D01*
X170223201Y-110493507D01*
X170256250Y-110421291D01*
X170288119Y-110350355D01*
X170317381Y-110283825D01*
X170342605Y-110224826D01*
X170362364Y-110176481D01*
X170375228Y-110141915D01*
X170379769Y-110124253D01*
X170379723Y-110123613D01*
X170368674Y-110101388D01*
X170346590Y-110078753D01*
X170345290Y-110077768D01*
X170318147Y-110062425D01*
X170293042Y-110062574D01*
X170283632Y-110065466D01*
X170272166Y-110071718D01*
X170259990Y-110084014D01*
X170245643Y-110104908D01*
X170227664Y-110136949D01*
X170204593Y-110182688D01*
X170174970Y-110244677D01*
X170148255Y-110301898D01*
X170117520Y-110368226D01*
X170089979Y-110427874D01*
X170067062Y-110477725D01*
X170050202Y-110514664D01*
X170040827Y-110535573D01*
X170039460Y-110538845D01*
X170033311Y-110533497D01*
X170019178Y-110511109D01*
X169998943Y-110474946D01*
X169974485Y-110428277D01*
X169964752Y-110409022D01*
X169931783Y-110344004D01*
X169906357Y-110296654D01*
X169886388Y-110264219D01*
X169869790Y-110243946D01*
X169854476Y-110233082D01*
X169838360Y-110228875D01*
X169827857Y-110228400D01*
X169809330Y-110230042D01*
X169793096Y-110236831D01*
X169776965Y-110251566D01*
X169758749Y-110277044D01*
X169736261Y-110316061D01*
X169707311Y-110371414D01*
X169691338Y-110402903D01*
X169665430Y-110453087D01*
X169642833Y-110494704D01*
X169625542Y-110524242D01*
X169615550Y-110538189D01*
X169614191Y-110538770D01*
X169607739Y-110527793D01*
X169593292Y-110499290D01*
X169572297Y-110456244D01*
X169546203Y-110401638D01*
X169516454Y-110338454D01*
X169501820Y-110307071D01*
X169463750Y-110226078D01*
X169433095Y-110163756D01*
X169408263Y-110118071D01*
X169387663Y-110086989D01*
X169369702Y-110068478D01*
X169352790Y-110060504D01*
X169335335Y-110061034D01*
G37*
X169335335Y-110061034D02*
X169315745Y-110068035D01*
X169314990Y-110068377D01*
X169288387Y-110088678D01*
X169273730Y-110109561D01*
X169270862Y-110119352D01*
X169271004Y-110132361D01*
X169275039Y-110150895D01*
X169283854Y-110177257D01*
X169298331Y-110213752D01*
X169319355Y-110262687D01*
X169347812Y-110326365D01*
X169384585Y-110407093D01*
X169404825Y-110451216D01*
X169441375Y-110529985D01*
X169475685Y-110602423D01*
X169506448Y-110665880D01*
X169532352Y-110717708D01*
X169552090Y-110755259D01*
X169564350Y-110775884D01*
X169566776Y-110778733D01*
X169597817Y-110791302D01*
X169632879Y-110789619D01*
X169661000Y-110774332D01*
X169662146Y-110773089D01*
X169673332Y-110756154D01*
X169692096Y-110723170D01*
X169716125Y-110678380D01*
X169743103Y-110626032D01*
X169752799Y-110606742D01*
X169825986Y-110460150D01*
X169905760Y-110619393D01*
X169934233Y-110674415D01*
X169960650Y-110722132D01*
X169982852Y-110758893D01*
X169998681Y-110781044D01*
X170004046Y-110785741D01*
X170045743Y-110792102D01*
X170080151Y-110778733D01*
X170090272Y-110764446D01*
X170107786Y-110732692D01*
X170131265Y-110686597D01*
X170159280Y-110629285D01*
X170190401Y-110563880D01*
X170223201Y-110493507D01*
X170256250Y-110421291D01*
X170288119Y-110350355D01*
X170317381Y-110283825D01*
X170342605Y-110224826D01*
X170362364Y-110176481D01*
X170375228Y-110141915D01*
X170379769Y-110124253D01*
X170379723Y-110123613D01*
X170368674Y-110101388D01*
X170346590Y-110078753D01*
X170345290Y-110077768D01*
X170318147Y-110062425D01*
X170293042Y-110062574D01*
X170283632Y-110065466D01*
X170272166Y-110071718D01*
X170259990Y-110084014D01*
X170245643Y-110104908D01*
X170227664Y-110136949D01*
X170204593Y-110182688D01*
X170174970Y-110244677D01*
X170148255Y-110301898D01*
X170117520Y-110368226D01*
X170089979Y-110427874D01*
X170067062Y-110477725D01*
X170050202Y-110514664D01*
X170040827Y-110535573D01*
X170039460Y-110538845D01*
X170033311Y-110533497D01*
X170019178Y-110511109D01*
X169998943Y-110474946D01*
X169974485Y-110428277D01*
X169964752Y-110409022D01*
X169931783Y-110344004D01*
X169906357Y-110296654D01*
X169886388Y-110264219D01*
X169869790Y-110243946D01*
X169854476Y-110233082D01*
X169838360Y-110228875D01*
X169827857Y-110228400D01*
X169809330Y-110230042D01*
X169793096Y-110236831D01*
X169776965Y-110251566D01*
X169758749Y-110277044D01*
X169736261Y-110316061D01*
X169707311Y-110371414D01*
X169691338Y-110402903D01*
X169665430Y-110453087D01*
X169642833Y-110494704D01*
X169625542Y-110524242D01*
X169615550Y-110538189D01*
X169614191Y-110538770D01*
X169607739Y-110527793D01*
X169593292Y-110499290D01*
X169572297Y-110456244D01*
X169546203Y-110401638D01*
X169516454Y-110338454D01*
X169501820Y-110307071D01*
X169463750Y-110226078D01*
X169433095Y-110163756D01*
X169408263Y-110118071D01*
X169387663Y-110086989D01*
X169369702Y-110068478D01*
X169352790Y-110060504D01*
X169335335Y-110061034D01*
G36*
X168891386Y-110065877D02*
G01*
X168867673Y-110080647D01*
X168841022Y-110102227D01*
X168841022Y-110423773D01*
X168841107Y-110517830D01*
X168841471Y-110591932D01*
X168842276Y-110648704D01*
X168843687Y-110690768D01*
X168845867Y-110720748D01*
X168848979Y-110741267D01*
X168853186Y-110754949D01*
X168858652Y-110764416D01*
X168862528Y-110769082D01*
X168893966Y-110789575D01*
X168929767Y-110788739D01*
X168961127Y-110771264D01*
X168987778Y-110749684D01*
X168987778Y-110102227D01*
X168961127Y-110080647D01*
X168935406Y-110064949D01*
X168914400Y-110059067D01*
X168891386Y-110065877D01*
G37*
X168891386Y-110065877D02*
X168867673Y-110080647D01*
X168841022Y-110102227D01*
X168841022Y-110423773D01*
X168841107Y-110517830D01*
X168841471Y-110591932D01*
X168842276Y-110648704D01*
X168843687Y-110690768D01*
X168845867Y-110720748D01*
X168848979Y-110741267D01*
X168853186Y-110754949D01*
X168858652Y-110764416D01*
X168862528Y-110769082D01*
X168893966Y-110789575D01*
X168929767Y-110788739D01*
X168961127Y-110771264D01*
X168987778Y-110749684D01*
X168987778Y-110102227D01*
X168961127Y-110080647D01*
X168935406Y-110064949D01*
X168914400Y-110059067D01*
X168891386Y-110065877D01*
G36*
X168116935Y-110059163D02*
G01*
X168038228Y-110059542D01*
X167977137Y-110060333D01*
X167931183Y-110061670D01*
X167897886Y-110063683D01*
X167874764Y-110066506D01*
X167859338Y-110070269D01*
X167849129Y-110075105D01*
X167844187Y-110078822D01*
X167818543Y-110111358D01*
X167815441Y-110145138D01*
X167831289Y-110175826D01*
X167841652Y-110188089D01*
X167852804Y-110196450D01*
X167868965Y-110201657D01*
X167894358Y-110204457D01*
X167933202Y-110205596D01*
X167989720Y-110205821D01*
X168000820Y-110205822D01*
X168146756Y-110205822D01*
X168146756Y-110476756D01*
X168146852Y-110562154D01*
X168147289Y-110627864D01*
X168148288Y-110676774D01*
X168150072Y-110711773D01*
X168152863Y-110735749D01*
X168156883Y-110751593D01*
X168162355Y-110762191D01*
X168169334Y-110770267D01*
X168202266Y-110790112D01*
X168236646Y-110788548D01*
X168267824Y-110765906D01*
X168270114Y-110763100D01*
X168277571Y-110752492D01*
X168283253Y-110740081D01*
X168287399Y-110722850D01*
X168290250Y-110697784D01*
X168292046Y-110661867D01*
X168293028Y-110612083D01*
X168293436Y-110545417D01*
X168293511Y-110469589D01*
X168293511Y-110205822D01*
X168432873Y-110205822D01*
X168492678Y-110205418D01*
X168534082Y-110203840D01*
X168561252Y-110200547D01*
X168578354Y-110194992D01*
X168589557Y-110186631D01*
X168590917Y-110185178D01*
X168607275Y-110151939D01*
X168605828Y-110114362D01*
X168587022Y-110081645D01*
X168579750Y-110075298D01*
X168570373Y-110070266D01*
X168556391Y-110066396D01*
X168535304Y-110063537D01*
X168504611Y-110061535D01*
X168461811Y-110060239D01*
X168404405Y-110059498D01*
X168329890Y-110059158D01*
X168235767Y-110059068D01*
X168215740Y-110059067D01*
X168116935Y-110059163D01*
G37*
X168116935Y-110059163D02*
X168038228Y-110059542D01*
X167977137Y-110060333D01*
X167931183Y-110061670D01*
X167897886Y-110063683D01*
X167874764Y-110066506D01*
X167859338Y-110070269D01*
X167849129Y-110075105D01*
X167844187Y-110078822D01*
X167818543Y-110111358D01*
X167815441Y-110145138D01*
X167831289Y-110175826D01*
X167841652Y-110188089D01*
X167852804Y-110196450D01*
X167868965Y-110201657D01*
X167894358Y-110204457D01*
X167933202Y-110205596D01*
X167989720Y-110205821D01*
X168000820Y-110205822D01*
X168146756Y-110205822D01*
X168146756Y-110476756D01*
X168146852Y-110562154D01*
X168147289Y-110627864D01*
X168148288Y-110676774D01*
X168150072Y-110711773D01*
X168152863Y-110735749D01*
X168156883Y-110751593D01*
X168162355Y-110762191D01*
X168169334Y-110770267D01*
X168202266Y-110790112D01*
X168236646Y-110788548D01*
X168267824Y-110765906D01*
X168270114Y-110763100D01*
X168277571Y-110752492D01*
X168283253Y-110740081D01*
X168287399Y-110722850D01*
X168290250Y-110697784D01*
X168292046Y-110661867D01*
X168293028Y-110612083D01*
X168293436Y-110545417D01*
X168293511Y-110469589D01*
X168293511Y-110205822D01*
X168432873Y-110205822D01*
X168492678Y-110205418D01*
X168534082Y-110203840D01*
X168561252Y-110200547D01*
X168578354Y-110194992D01*
X168589557Y-110186631D01*
X168590917Y-110185178D01*
X168607275Y-110151939D01*
X168605828Y-110114362D01*
X168587022Y-110081645D01*
X168579750Y-110075298D01*
X168570373Y-110070266D01*
X168556391Y-110066396D01*
X168535304Y-110063537D01*
X168504611Y-110061535D01*
X168461811Y-110060239D01*
X168404405Y-110059498D01*
X168329890Y-110059158D01*
X168235767Y-110059068D01*
X168215740Y-110059067D01*
X168116935Y-110059163D01*
G36*
X166851177Y-110064533D02*
G01*
X166819798Y-110086776D01*
X166792089Y-110114485D01*
X166792089Y-110423920D01*
X166792162Y-110515799D01*
X166792505Y-110587840D01*
X166793308Y-110642780D01*
X166794759Y-110683360D01*
X166797048Y-110712317D01*
X166800364Y-110732391D01*
X166804895Y-110746321D01*
X166810831Y-110756845D01*
X166815486Y-110763100D01*
X166846217Y-110787673D01*
X166881504Y-110790341D01*
X166913755Y-110775271D01*
X166924412Y-110766374D01*
X166931536Y-110754557D01*
X166935833Y-110735526D01*
X166938009Y-110704992D01*
X166938772Y-110658662D01*
X166938845Y-110622871D01*
X166938845Y-110488045D01*
X167435556Y-110488045D01*
X167435556Y-110610700D01*
X167436069Y-110666787D01*
X167438124Y-110705333D01*
X167442492Y-110731361D01*
X167449944Y-110749897D01*
X167458953Y-110763100D01*
X167489856Y-110787604D01*
X167524804Y-110790506D01*
X167558262Y-110773089D01*
X167567396Y-110763959D01*
X167573848Y-110751855D01*
X167578103Y-110733001D01*
X167580648Y-110703620D01*
X167581971Y-110659937D01*
X167582557Y-110598175D01*
X167582625Y-110584000D01*
X167583109Y-110467631D01*
X167583359Y-110371727D01*
X167583277Y-110294177D01*
X167582769Y-110232869D01*
X167581738Y-110185690D01*
X167580087Y-110150530D01*
X167577721Y-110125276D01*
X167574543Y-110107817D01*
X167570456Y-110096041D01*
X167565366Y-110087835D01*
X167559734Y-110081645D01*
X167527872Y-110061844D01*
X167494643Y-110064533D01*
X167463265Y-110086776D01*
X167450567Y-110101126D01*
X167442474Y-110116978D01*
X167437958Y-110139554D01*
X167435994Y-110174078D01*
X167435556Y-110225776D01*
X167435556Y-110341289D01*
X166938845Y-110341289D01*
X166938845Y-110222756D01*
X166938338Y-110168148D01*
X166936302Y-110131275D01*
X166931965Y-110107307D01*
X166924553Y-110091415D01*
X166916267Y-110081645D01*
X166884406Y-110061844D01*
X166851177Y-110064533D01*
G37*
X166851177Y-110064533D02*
X166819798Y-110086776D01*
X166792089Y-110114485D01*
X166792089Y-110423920D01*
X166792162Y-110515799D01*
X166792505Y-110587840D01*
X166793308Y-110642780D01*
X166794759Y-110683360D01*
X166797048Y-110712317D01*
X166800364Y-110732391D01*
X166804895Y-110746321D01*
X166810831Y-110756845D01*
X166815486Y-110763100D01*
X166846217Y-110787673D01*
X166881504Y-110790341D01*
X166913755Y-110775271D01*
X166924412Y-110766374D01*
X166931536Y-110754557D01*
X166935833Y-110735526D01*
X166938009Y-110704992D01*
X166938772Y-110658662D01*
X166938845Y-110622871D01*
X166938845Y-110488045D01*
X167435556Y-110488045D01*
X167435556Y-110610700D01*
X167436069Y-110666787D01*
X167438124Y-110705333D01*
X167442492Y-110731361D01*
X167449944Y-110749897D01*
X167458953Y-110763100D01*
X167489856Y-110787604D01*
X167524804Y-110790506D01*
X167558262Y-110773089D01*
X167567396Y-110763959D01*
X167573848Y-110751855D01*
X167578103Y-110733001D01*
X167580648Y-110703620D01*
X167581971Y-110659937D01*
X167582557Y-110598175D01*
X167582625Y-110584000D01*
X167583109Y-110467631D01*
X167583359Y-110371727D01*
X167583277Y-110294177D01*
X167582769Y-110232869D01*
X167581738Y-110185690D01*
X167580087Y-110150530D01*
X167577721Y-110125276D01*
X167574543Y-110107817D01*
X167570456Y-110096041D01*
X167565366Y-110087835D01*
X167559734Y-110081645D01*
X167527872Y-110061844D01*
X167494643Y-110064533D01*
X167463265Y-110086776D01*
X167450567Y-110101126D01*
X167442474Y-110116978D01*
X167437958Y-110139554D01*
X167435994Y-110174078D01*
X167435556Y-110225776D01*
X167435556Y-110341289D01*
X166938845Y-110341289D01*
X166938845Y-110222756D01*
X166938338Y-110168148D01*
X166936302Y-110131275D01*
X166931965Y-110107307D01*
X166924553Y-110091415D01*
X166916267Y-110081645D01*
X166884406Y-110061844D01*
X166851177Y-110064533D01*
G36*
X176026400Y-105279054D02*
G01*
X176015535Y-105392993D01*
X175983918Y-105500616D01*
X175933015Y-105599615D01*
X175864293Y-105687684D01*
X175779219Y-105762516D01*
X175682232Y-105820384D01*
X175575964Y-105860005D01*
X175468950Y-105878573D01*
X175363300Y-105877434D01*
X175261125Y-105857930D01*
X175164534Y-105821406D01*
X175075638Y-105769205D01*
X174996546Y-105702673D01*
X174929369Y-105623152D01*
X174876217Y-105531987D01*
X174839199Y-105430523D01*
X174820427Y-105320102D01*
X174818489Y-105270206D01*
X174818489Y-105182267D01*
X174766560Y-105182267D01*
X174730253Y-105185111D01*
X174703355Y-105196911D01*
X174676249Y-105220649D01*
X174637867Y-105259031D01*
X174637867Y-107450602D01*
X174637876Y-107712739D01*
X174637908Y-107953241D01*
X174637972Y-108173048D01*
X174638076Y-108373101D01*
X174638227Y-108554344D01*
X174638434Y-108717716D01*
X174638706Y-108864160D01*
X174639050Y-108994617D01*
X174639474Y-109110029D01*
X174639987Y-109211338D01*
X174640597Y-109299484D01*
X174641312Y-109375410D01*
X174642140Y-109440057D01*
X174643089Y-109494367D01*
X174644167Y-109539280D01*
X174645383Y-109575740D01*
X174646745Y-109604687D01*
X174648261Y-109627063D01*
X174649938Y-109643809D01*
X174651786Y-109655868D01*
X174653813Y-109664180D01*
X174656025Y-109669687D01*
X174657108Y-109671537D01*
X174661271Y-109678549D01*
X174664805Y-109684996D01*
X174668635Y-109690900D01*
X174673682Y-109696286D01*
X174680871Y-109701178D01*
X174691123Y-109705598D01*
X174705364Y-109709572D01*
X174724514Y-109713121D01*
X174749499Y-109716270D01*
X174781240Y-109719042D01*
X174820662Y-109721461D01*
X174868686Y-109723551D01*
X174926237Y-109725335D01*
X174994237Y-109726837D01*
X175073610Y-109728080D01*
X175165279Y-109729089D01*
X175270166Y-109729885D01*
X175389196Y-109730494D01*
X175523290Y-109730939D01*
X175673373Y-109731243D01*
X175840367Y-109731430D01*
X176025196Y-109731524D01*
X176228783Y-109731548D01*
X176452050Y-109731525D01*
X176695922Y-109731480D01*
X176961321Y-109731437D01*
X176999704Y-109731432D01*
X177266682Y-109731389D01*
X177512002Y-109731318D01*
X177736583Y-109731213D01*
X177941345Y-109731066D01*
X178127206Y-109730869D01*
X178295088Y-109730616D01*
X178445908Y-109730300D01*
X178580587Y-109729913D01*
X178700044Y-109729447D01*
X178805199Y-109728897D01*
X178896971Y-109728253D01*
X178976279Y-109727511D01*
X179044043Y-109726661D01*
X179101182Y-109725697D01*
X179148617Y-109724611D01*
X179187266Y-109723397D01*
X179218049Y-109722047D01*
X179241885Y-109720555D01*
X179259694Y-109718911D01*
X179272395Y-109717111D01*
X179280908Y-109715145D01*
X179285266Y-109713477D01*
X179293728Y-109709906D01*
X179301497Y-109707270D01*
X179308602Y-109704634D01*
X179315073Y-109701062D01*
X179320939Y-109695621D01*
X179326229Y-109687375D01*
X179330974Y-109675390D01*
X179335202Y-109658731D01*
X179338943Y-109636463D01*
X179342227Y-109607652D01*
X179345083Y-109571363D01*
X179347540Y-109526661D01*
X179349629Y-109472611D01*
X179351378Y-109408279D01*
X179352817Y-109332730D01*
X179353976Y-109245030D01*
X179354883Y-109144243D01*
X179355569Y-109029434D01*
X179356063Y-108899670D01*
X179356395Y-108754015D01*
X179356593Y-108591535D01*
X179356687Y-108411295D01*
X179356708Y-108212360D01*
X179356685Y-107993796D01*
X179356646Y-107754668D01*
X179356622Y-107494040D01*
X179356622Y-107451889D01*
X179356636Y-107188992D01*
X179356661Y-106947732D01*
X179356671Y-106727165D01*
X179356642Y-106526352D01*
X179356548Y-106344349D01*
X179356362Y-106180216D01*
X179356059Y-106033011D01*
X179355614Y-105901792D01*
X179355034Y-105791867D01*
X179052197Y-105791867D01*
X179012407Y-105849711D01*
X179001236Y-105865479D01*
X178991166Y-105879441D01*
X178982138Y-105892784D01*
X178974097Y-105906693D01*
X178966986Y-105922356D01*
X178960747Y-105940958D01*
X178955325Y-105963686D01*
X178950662Y-105991727D01*
X178946701Y-106026267D01*
X178943385Y-106068492D01*
X178940659Y-106119589D01*
X178938464Y-106180744D01*
X178936745Y-106253144D01*
X178935444Y-106337975D01*
X178934505Y-106436422D01*
X178933870Y-106549674D01*
X178933484Y-106678916D01*
X178933288Y-106825334D01*
X178933227Y-106990116D01*
X178933243Y-107174447D01*
X178933280Y-107379513D01*
X178933289Y-107502133D01*
X178933265Y-107719082D01*
X178933231Y-107914642D01*
X178933243Y-108089999D01*
X178933358Y-108246341D01*
X178933630Y-108384857D01*
X178934118Y-108506734D01*
X178934876Y-108613160D01*
X178935962Y-108705322D01*
X178937431Y-108784409D01*
X178939340Y-108851608D01*
X178941744Y-108908107D01*
X178944701Y-108955093D01*
X178948266Y-108993755D01*
X178952495Y-109025280D01*
X178957446Y-109050855D01*
X178963173Y-109071670D01*
X178969733Y-109088911D01*
X178977183Y-109103765D01*
X178985579Y-109117422D01*
X178994976Y-109131069D01*
X179005432Y-109145893D01*
X179011523Y-109154783D01*
X179050296Y-109212400D01*
X178518732Y-109212400D01*
X178395483Y-109212365D01*
X178292987Y-109212215D01*
X178209420Y-109211878D01*
X178142956Y-109211286D01*
X178091771Y-109210367D01*
X178054041Y-109209051D01*
X178027940Y-109207269D01*
X178011644Y-109204951D01*
X178003328Y-109202026D01*
X178001168Y-109198424D01*
X178003339Y-109194075D01*
X178004535Y-109192645D01*
X178029685Y-109155573D01*
X178055583Y-109102772D01*
X178079192Y-109040770D01*
X178087461Y-109014357D01*
X178092078Y-108996416D01*
X178095979Y-108975355D01*
X178099248Y-108949089D01*
X178101966Y-108915532D01*
X178104215Y-108872599D01*
X178106077Y-108818204D01*
X178107636Y-108750262D01*
X178108972Y-108666688D01*
X178110169Y-108565395D01*
X178111308Y-108444300D01*
X178111685Y-108399600D01*
X178112702Y-108274449D01*
X178113460Y-108170082D01*
X178113903Y-108084707D01*
X178113970Y-108016533D01*
X178113605Y-107963765D01*
X178112748Y-107924614D01*
X178111341Y-107897285D01*
X178109325Y-107879986D01*
X178106643Y-107870926D01*
X178103236Y-107868312D01*
X178099044Y-107870351D01*
X178094571Y-107874667D01*
X178084216Y-107887602D01*
X178062158Y-107916676D01*
X178029957Y-107959759D01*
X177989174Y-108014718D01*
X177941370Y-108079423D01*
X177888105Y-108151742D01*
X177830940Y-108229544D01*
X177771437Y-108310698D01*
X177711155Y-108393072D01*
X177651655Y-108474536D01*
X177594498Y-108552957D01*
X177541245Y-108626204D01*
X177493457Y-108692147D01*
X177452693Y-108748654D01*
X177420516Y-108793593D01*
X177398485Y-108824834D01*
X177393917Y-108831466D01*
X177370996Y-108868369D01*
X177344188Y-108916359D01*
X177318789Y-108965897D01*
X177315568Y-108972577D01*
X177293890Y-109020772D01*
X177281304Y-109058334D01*
X177275574Y-109094160D01*
X177274456Y-109136200D01*
X177275090Y-109212400D01*
X176120651Y-109212400D01*
X176211815Y-109118669D01*
X176258612Y-109068775D01*
X176308899Y-109012295D01*
X176354944Y-108958026D01*
X176375369Y-108932673D01*
X176405807Y-108893128D01*
X176445862Y-108839916D01*
X176494361Y-108774667D01*
X176550135Y-108699011D01*
X176612011Y-108614577D01*
X176678819Y-108522994D01*
X176749387Y-108425892D01*
X176822545Y-108324901D01*
X176897121Y-108221650D01*
X176971944Y-108117768D01*
X177045843Y-108014885D01*
X177117646Y-107914631D01*
X177186184Y-107818636D01*
X177250284Y-107728527D01*
X177308775Y-107645936D01*
X177360486Y-107572492D01*
X177404247Y-107509824D01*
X177438885Y-107459561D01*
X177463230Y-107423334D01*
X177476111Y-107402771D01*
X177477869Y-107398668D01*
X177469910Y-107387342D01*
X177449115Y-107360162D01*
X177416847Y-107318829D01*
X177374470Y-107265044D01*
X177323347Y-107200506D01*
X177264841Y-107126918D01*
X177200314Y-107045978D01*
X177131131Y-106959388D01*
X177058653Y-106868848D01*
X176984246Y-106776060D01*
X176924517Y-106701702D01*
X175913511Y-106701702D01*
X175907602Y-106714659D01*
X175893272Y-106736908D01*
X175892225Y-106738391D01*
X175873438Y-106768544D01*
X175853791Y-106805375D01*
X175849892Y-106813511D01*
X175846356Y-106821940D01*
X175843230Y-106832059D01*
X175840486Y-106845260D01*
X175838092Y-106862938D01*
X175836019Y-106886484D01*
X175834235Y-106917293D01*
X175832712Y-106956757D01*
X175831419Y-107006269D01*
X175830326Y-107067223D01*
X175829403Y-107141011D01*
X175828619Y-107229028D01*
X175827945Y-107332665D01*
X175827350Y-107453316D01*
X175826805Y-107592374D01*
X175826279Y-107751232D01*
X175825745Y-107930089D01*
X175825206Y-108115207D01*
X175824772Y-108279145D01*
X175824509Y-108423303D01*
X175824484Y-108549079D01*
X175824765Y-108657871D01*
X175825419Y-108751077D01*
X175826514Y-108830097D01*
X175828118Y-108896328D01*
X175830297Y-108951170D01*
X175833119Y-108996021D01*
X175836651Y-109032278D01*
X175840961Y-109061341D01*
X175846117Y-109084609D01*
X175852185Y-109103479D01*
X175859233Y-109119351D01*
X175867329Y-109133622D01*
X175876540Y-109147691D01*
X175885040Y-109160158D01*
X175902176Y-109186452D01*
X175912322Y-109204037D01*
X175913511Y-109207257D01*
X175902604Y-109208334D01*
X175871411Y-109209335D01*
X175822223Y-109210235D01*
X175757333Y-109211010D01*
X175679030Y-109211637D01*
X175589607Y-109212091D01*
X175491356Y-109212349D01*
X175422445Y-109212400D01*
X175317452Y-109212180D01*
X175220610Y-109211548D01*
X175134107Y-109210549D01*
X175060132Y-109209227D01*
X175000874Y-109207626D01*
X174958520Y-109205791D01*
X174935260Y-109203765D01*
X174931378Y-109202493D01*
X174939076Y-109187591D01*
X174947074Y-109179560D01*
X174960246Y-109162434D01*
X174977485Y-109132183D01*
X174989407Y-109107622D01*
X175016045Y-109048711D01*
X175019120Y-107871845D01*
X175022195Y-106694978D01*
X175467853Y-106694978D01*
X175565670Y-106695142D01*
X175656064Y-106695611D01*
X175736630Y-106696347D01*
X175804962Y-106697316D01*
X175858656Y-106698480D01*
X175895305Y-106699803D01*
X175912504Y-106701249D01*
X175913511Y-106701702D01*
X176924517Y-106701702D01*
X176909270Y-106682722D01*
X176835090Y-106590537D01*
X176763069Y-106501204D01*
X176694569Y-106416424D01*
X176630955Y-106337898D01*
X176573588Y-106267326D01*
X176523833Y-106206409D01*
X176483052Y-106156847D01*
X176465888Y-106136178D01*
X176379596Y-106035516D01*
X176302997Y-105952259D01*
X176234183Y-105884438D01*
X176171248Y-105830089D01*
X176161867Y-105822722D01*
X176122356Y-105792117D01*
X177254116Y-105791867D01*
X177248827Y-105839844D01*
X177252130Y-105897188D01*
X177273661Y-105965463D01*
X177313635Y-106045212D01*
X177358943Y-106117495D01*
X177375161Y-106140140D01*
X177403214Y-106177696D01*
X177441430Y-106228021D01*
X177488137Y-106288973D01*
X177541661Y-106358411D01*
X177600331Y-106434194D01*
X177662475Y-106514180D01*
X177726421Y-106596228D01*
X177790495Y-106678196D01*
X177853027Y-106757943D01*
X177912343Y-106833327D01*
X177966771Y-106902207D01*
X178014639Y-106962442D01*
X178054275Y-107011889D01*
X178084006Y-107048408D01*
X178102161Y-107069858D01*
X178105220Y-107073156D01*
X178108079Y-107065149D01*
X178110293Y-107034855D01*
X178111857Y-106982556D01*
X178112767Y-106908531D01*
X178113020Y-106813063D01*
X178112613Y-106696434D01*
X178111704Y-106576445D01*
X178110382Y-106444333D01*
X178108857Y-106332594D01*
X178106881Y-106239025D01*
X178104206Y-106161419D01*
X178100582Y-106097574D01*
X178095761Y-106045283D01*
X178089494Y-106002344D01*
X178081532Y-105966551D01*
X178071627Y-105935700D01*
X178059531Y-105907586D01*
X178044993Y-105880005D01*
X178030311Y-105854966D01*
X177992314Y-105791867D01*
X179052197Y-105791867D01*
X179355034Y-105791867D01*
X179355001Y-105785617D01*
X179354195Y-105683544D01*
X179353170Y-105594633D01*
X179351900Y-105517941D01*
X179350360Y-105452527D01*
X179348524Y-105397449D01*
X179346367Y-105351765D01*
X179343863Y-105314534D01*
X179340987Y-105284813D01*
X179337713Y-105261662D01*
X179334015Y-105244139D01*
X179329869Y-105231301D01*
X179325247Y-105222208D01*
X179320126Y-105215918D01*
X179314478Y-105211488D01*
X179308279Y-105207978D01*
X179301504Y-105204445D01*
X179295508Y-105200876D01*
X179290275Y-105198300D01*
X179282099Y-105195972D01*
X179269886Y-105193878D01*
X179252541Y-105192007D01*
X179228969Y-105190347D01*
X179198077Y-105188884D01*
X179158768Y-105187608D01*
X179109950Y-105186504D01*
X179050527Y-105185561D01*
X178979404Y-105184767D01*
X178895488Y-105184109D01*
X178797683Y-105183575D01*
X178684894Y-105183153D01*
X178556029Y-105182829D01*
X178409991Y-105182592D01*
X178245686Y-105182430D01*
X178062020Y-105182330D01*
X177857897Y-105182280D01*
X177646753Y-105182267D01*
X176026400Y-105182267D01*
X176026400Y-105279054D01*
G37*
X176026400Y-105279054D02*
X176015535Y-105392993D01*
X175983918Y-105500616D01*
X175933015Y-105599615D01*
X175864293Y-105687684D01*
X175779219Y-105762516D01*
X175682232Y-105820384D01*
X175575964Y-105860005D01*
X175468950Y-105878573D01*
X175363300Y-105877434D01*
X175261125Y-105857930D01*
X175164534Y-105821406D01*
X175075638Y-105769205D01*
X174996546Y-105702673D01*
X174929369Y-105623152D01*
X174876217Y-105531987D01*
X174839199Y-105430523D01*
X174820427Y-105320102D01*
X174818489Y-105270206D01*
X174818489Y-105182267D01*
X174766560Y-105182267D01*
X174730253Y-105185111D01*
X174703355Y-105196911D01*
X174676249Y-105220649D01*
X174637867Y-105259031D01*
X174637867Y-107450602D01*
X174637876Y-107712739D01*
X174637908Y-107953241D01*
X174637972Y-108173048D01*
X174638076Y-108373101D01*
X174638227Y-108554344D01*
X174638434Y-108717716D01*
X174638706Y-108864160D01*
X174639050Y-108994617D01*
X174639474Y-109110029D01*
X174639987Y-109211338D01*
X174640597Y-109299484D01*
X174641312Y-109375410D01*
X174642140Y-109440057D01*
X174643089Y-109494367D01*
X174644167Y-109539280D01*
X174645383Y-109575740D01*
X174646745Y-109604687D01*
X174648261Y-109627063D01*
X174649938Y-109643809D01*
X174651786Y-109655868D01*
X174653813Y-109664180D01*
X174656025Y-109669687D01*
X174657108Y-109671537D01*
X174661271Y-109678549D01*
X174664805Y-109684996D01*
X174668635Y-109690900D01*
X174673682Y-109696286D01*
X174680871Y-109701178D01*
X174691123Y-109705598D01*
X174705364Y-109709572D01*
X174724514Y-109713121D01*
X174749499Y-109716270D01*
X174781240Y-109719042D01*
X174820662Y-109721461D01*
X174868686Y-109723551D01*
X174926237Y-109725335D01*
X174994237Y-109726837D01*
X175073610Y-109728080D01*
X175165279Y-109729089D01*
X175270166Y-109729885D01*
X175389196Y-109730494D01*
X175523290Y-109730939D01*
X175673373Y-109731243D01*
X175840367Y-109731430D01*
X176025196Y-109731524D01*
X176228783Y-109731548D01*
X176452050Y-109731525D01*
X176695922Y-109731480D01*
X176961321Y-109731437D01*
X176999704Y-109731432D01*
X177266682Y-109731389D01*
X177512002Y-109731318D01*
X177736583Y-109731213D01*
X177941345Y-109731066D01*
X178127206Y-109730869D01*
X178295088Y-109730616D01*
X178445908Y-109730300D01*
X178580587Y-109729913D01*
X178700044Y-109729447D01*
X178805199Y-109728897D01*
X178896971Y-109728253D01*
X178976279Y-109727511D01*
X179044043Y-109726661D01*
X179101182Y-109725697D01*
X179148617Y-109724611D01*
X179187266Y-109723397D01*
X179218049Y-109722047D01*
X179241885Y-109720555D01*
X179259694Y-109718911D01*
X179272395Y-109717111D01*
X179280908Y-109715145D01*
X179285266Y-109713477D01*
X179293728Y-109709906D01*
X179301497Y-109707270D01*
X179308602Y-109704634D01*
X179315073Y-109701062D01*
X179320939Y-109695621D01*
X179326229Y-109687375D01*
X179330974Y-109675390D01*
X179335202Y-109658731D01*
X179338943Y-109636463D01*
X179342227Y-109607652D01*
X179345083Y-109571363D01*
X179347540Y-109526661D01*
X179349629Y-109472611D01*
X179351378Y-109408279D01*
X179352817Y-109332730D01*
X179353976Y-109245030D01*
X179354883Y-109144243D01*
X179355569Y-109029434D01*
X179356063Y-108899670D01*
X179356395Y-108754015D01*
X179356593Y-108591535D01*
X179356687Y-108411295D01*
X179356708Y-108212360D01*
X179356685Y-107993796D01*
X179356646Y-107754668D01*
X179356622Y-107494040D01*
X179356622Y-107451889D01*
X179356636Y-107188992D01*
X179356661Y-106947732D01*
X179356671Y-106727165D01*
X179356642Y-106526352D01*
X179356548Y-106344349D01*
X179356362Y-106180216D01*
X179356059Y-106033011D01*
X179355614Y-105901792D01*
X179355034Y-105791867D01*
X179052197Y-105791867D01*
X179012407Y-105849711D01*
X179001236Y-105865479D01*
X178991166Y-105879441D01*
X178982138Y-105892784D01*
X178974097Y-105906693D01*
X178966986Y-105922356D01*
X178960747Y-105940958D01*
X178955325Y-105963686D01*
X178950662Y-105991727D01*
X178946701Y-106026267D01*
X178943385Y-106068492D01*
X178940659Y-106119589D01*
X178938464Y-106180744D01*
X178936745Y-106253144D01*
X178935444Y-106337975D01*
X178934505Y-106436422D01*
X178933870Y-106549674D01*
X178933484Y-106678916D01*
X178933288Y-106825334D01*
X178933227Y-106990116D01*
X178933243Y-107174447D01*
X178933280Y-107379513D01*
X178933289Y-107502133D01*
X178933265Y-107719082D01*
X178933231Y-107914642D01*
X178933243Y-108089999D01*
X178933358Y-108246341D01*
X178933630Y-108384857D01*
X178934118Y-108506734D01*
X178934876Y-108613160D01*
X178935962Y-108705322D01*
X178937431Y-108784409D01*
X178939340Y-108851608D01*
X178941744Y-108908107D01*
X178944701Y-108955093D01*
X178948266Y-108993755D01*
X178952495Y-109025280D01*
X178957446Y-109050855D01*
X178963173Y-109071670D01*
X178969733Y-109088911D01*
X178977183Y-109103765D01*
X178985579Y-109117422D01*
X178994976Y-109131069D01*
X179005432Y-109145893D01*
X179011523Y-109154783D01*
X179050296Y-109212400D01*
X178518732Y-109212400D01*
X178395483Y-109212365D01*
X178292987Y-109212215D01*
X178209420Y-109211878D01*
X178142956Y-109211286D01*
X178091771Y-109210367D01*
X178054041Y-109209051D01*
X178027940Y-109207269D01*
X178011644Y-109204951D01*
X178003328Y-109202026D01*
X178001168Y-109198424D01*
X178003339Y-109194075D01*
X178004535Y-109192645D01*
X178029685Y-109155573D01*
X178055583Y-109102772D01*
X178079192Y-109040770D01*
X178087461Y-109014357D01*
X178092078Y-108996416D01*
X178095979Y-108975355D01*
X178099248Y-108949089D01*
X178101966Y-108915532D01*
X178104215Y-108872599D01*
X178106077Y-108818204D01*
X178107636Y-108750262D01*
X178108972Y-108666688D01*
X178110169Y-108565395D01*
X178111308Y-108444300D01*
X178111685Y-108399600D01*
X178112702Y-108274449D01*
X178113460Y-108170082D01*
X178113903Y-108084707D01*
X178113970Y-108016533D01*
X178113605Y-107963765D01*
X178112748Y-107924614D01*
X178111341Y-107897285D01*
X178109325Y-107879986D01*
X178106643Y-107870926D01*
X178103236Y-107868312D01*
X178099044Y-107870351D01*
X178094571Y-107874667D01*
X178084216Y-107887602D01*
X178062158Y-107916676D01*
X178029957Y-107959759D01*
X177989174Y-108014718D01*
X177941370Y-108079423D01*
X177888105Y-108151742D01*
X177830940Y-108229544D01*
X177771437Y-108310698D01*
X177711155Y-108393072D01*
X177651655Y-108474536D01*
X177594498Y-108552957D01*
X177541245Y-108626204D01*
X177493457Y-108692147D01*
X177452693Y-108748654D01*
X177420516Y-108793593D01*
X177398485Y-108824834D01*
X177393917Y-108831466D01*
X177370996Y-108868369D01*
X177344188Y-108916359D01*
X177318789Y-108965897D01*
X177315568Y-108972577D01*
X177293890Y-109020772D01*
X177281304Y-109058334D01*
X177275574Y-109094160D01*
X177274456Y-109136200D01*
X177275090Y-109212400D01*
X176120651Y-109212400D01*
X176211815Y-109118669D01*
X176258612Y-109068775D01*
X176308899Y-109012295D01*
X176354944Y-108958026D01*
X176375369Y-108932673D01*
X176405807Y-108893128D01*
X176445862Y-108839916D01*
X176494361Y-108774667D01*
X176550135Y-108699011D01*
X176612011Y-108614577D01*
X176678819Y-108522994D01*
X176749387Y-108425892D01*
X176822545Y-108324901D01*
X176897121Y-108221650D01*
X176971944Y-108117768D01*
X177045843Y-108014885D01*
X177117646Y-107914631D01*
X177186184Y-107818636D01*
X177250284Y-107728527D01*
X177308775Y-107645936D01*
X177360486Y-107572492D01*
X177404247Y-107509824D01*
X177438885Y-107459561D01*
X177463230Y-107423334D01*
X177476111Y-107402771D01*
X177477869Y-107398668D01*
X177469910Y-107387342D01*
X177449115Y-107360162D01*
X177416847Y-107318829D01*
X177374470Y-107265044D01*
X177323347Y-107200506D01*
X177264841Y-107126918D01*
X177200314Y-107045978D01*
X177131131Y-106959388D01*
X177058653Y-106868848D01*
X176984246Y-106776060D01*
X176924517Y-106701702D01*
X175913511Y-106701702D01*
X175907602Y-106714659D01*
X175893272Y-106736908D01*
X175892225Y-106738391D01*
X175873438Y-106768544D01*
X175853791Y-106805375D01*
X175849892Y-106813511D01*
X175846356Y-106821940D01*
X175843230Y-106832059D01*
X175840486Y-106845260D01*
X175838092Y-106862938D01*
X175836019Y-106886484D01*
X175834235Y-106917293D01*
X175832712Y-106956757D01*
X175831419Y-107006269D01*
X175830326Y-107067223D01*
X175829403Y-107141011D01*
X175828619Y-107229028D01*
X175827945Y-107332665D01*
X175827350Y-107453316D01*
X175826805Y-107592374D01*
X175826279Y-107751232D01*
X175825745Y-107930089D01*
X175825206Y-108115207D01*
X175824772Y-108279145D01*
X175824509Y-108423303D01*
X175824484Y-108549079D01*
X175824765Y-108657871D01*
X175825419Y-108751077D01*
X175826514Y-108830097D01*
X175828118Y-108896328D01*
X175830297Y-108951170D01*
X175833119Y-108996021D01*
X175836651Y-109032278D01*
X175840961Y-109061341D01*
X175846117Y-109084609D01*
X175852185Y-109103479D01*
X175859233Y-109119351D01*
X175867329Y-109133622D01*
X175876540Y-109147691D01*
X175885040Y-109160158D01*
X175902176Y-109186452D01*
X175912322Y-109204037D01*
X175913511Y-109207257D01*
X175902604Y-109208334D01*
X175871411Y-109209335D01*
X175822223Y-109210235D01*
X175757333Y-109211010D01*
X175679030Y-109211637D01*
X175589607Y-109212091D01*
X175491356Y-109212349D01*
X175422445Y-109212400D01*
X175317452Y-109212180D01*
X175220610Y-109211548D01*
X175134107Y-109210549D01*
X175060132Y-109209227D01*
X175000874Y-109207626D01*
X174958520Y-109205791D01*
X174935260Y-109203765D01*
X174931378Y-109202493D01*
X174939076Y-109187591D01*
X174947074Y-109179560D01*
X174960246Y-109162434D01*
X174977485Y-109132183D01*
X174989407Y-109107622D01*
X175016045Y-109048711D01*
X175019120Y-107871845D01*
X175022195Y-106694978D01*
X175467853Y-106694978D01*
X175565670Y-106695142D01*
X175656064Y-106695611D01*
X175736630Y-106696347D01*
X175804962Y-106697316D01*
X175858656Y-106698480D01*
X175895305Y-106699803D01*
X175912504Y-106701249D01*
X175913511Y-106701702D01*
X176924517Y-106701702D01*
X176909270Y-106682722D01*
X176835090Y-106590537D01*
X176763069Y-106501204D01*
X176694569Y-106416424D01*
X176630955Y-106337898D01*
X176573588Y-106267326D01*
X176523833Y-106206409D01*
X176483052Y-106156847D01*
X176465888Y-106136178D01*
X176379596Y-106035516D01*
X176302997Y-105952259D01*
X176234183Y-105884438D01*
X176171248Y-105830089D01*
X176161867Y-105822722D01*
X176122356Y-105792117D01*
X177254116Y-105791867D01*
X177248827Y-105839844D01*
X177252130Y-105897188D01*
X177273661Y-105965463D01*
X177313635Y-106045212D01*
X177358943Y-106117495D01*
X177375161Y-106140140D01*
X177403214Y-106177696D01*
X177441430Y-106228021D01*
X177488137Y-106288973D01*
X177541661Y-106358411D01*
X177600331Y-106434194D01*
X177662475Y-106514180D01*
X177726421Y-106596228D01*
X177790495Y-106678196D01*
X177853027Y-106757943D01*
X177912343Y-106833327D01*
X177966771Y-106902207D01*
X178014639Y-106962442D01*
X178054275Y-107011889D01*
X178084006Y-107048408D01*
X178102161Y-107069858D01*
X178105220Y-107073156D01*
X178108079Y-107065149D01*
X178110293Y-107034855D01*
X178111857Y-106982556D01*
X178112767Y-106908531D01*
X178113020Y-106813063D01*
X178112613Y-106696434D01*
X178111704Y-106576445D01*
X178110382Y-106444333D01*
X178108857Y-106332594D01*
X178106881Y-106239025D01*
X178104206Y-106161419D01*
X178100582Y-106097574D01*
X178095761Y-106045283D01*
X178089494Y-106002344D01*
X178081532Y-105966551D01*
X178071627Y-105935700D01*
X178059531Y-105907586D01*
X178044993Y-105880005D01*
X178030311Y-105854966D01*
X177992314Y-105791867D01*
X179052197Y-105791867D01*
X179355034Y-105791867D01*
X179355001Y-105785617D01*
X179354195Y-105683544D01*
X179353170Y-105594633D01*
X179351900Y-105517941D01*
X179350360Y-105452527D01*
X179348524Y-105397449D01*
X179346367Y-105351765D01*
X179343863Y-105314534D01*
X179340987Y-105284813D01*
X179337713Y-105261662D01*
X179334015Y-105244139D01*
X179329869Y-105231301D01*
X179325247Y-105222208D01*
X179320126Y-105215918D01*
X179314478Y-105211488D01*
X179308279Y-105207978D01*
X179301504Y-105204445D01*
X179295508Y-105200876D01*
X179290275Y-105198300D01*
X179282099Y-105195972D01*
X179269886Y-105193878D01*
X179252541Y-105192007D01*
X179228969Y-105190347D01*
X179198077Y-105188884D01*
X179158768Y-105187608D01*
X179109950Y-105186504D01*
X179050527Y-105185561D01*
X178979404Y-105184767D01*
X178895488Y-105184109D01*
X178797683Y-105183575D01*
X178684894Y-105183153D01*
X178556029Y-105182829D01*
X178409991Y-105182592D01*
X178245686Y-105182430D01*
X178062020Y-105182330D01*
X177857897Y-105182280D01*
X177646753Y-105182267D01*
X176026400Y-105182267D01*
X176026400Y-105279054D01*
G36*
X172751571Y-105739071D02*
G01*
X172591430Y-105760245D01*
X172427490Y-105800385D01*
X172257687Y-105859889D01*
X172079957Y-105939154D01*
X172068690Y-105944699D01*
X172010995Y-105972725D01*
X171959448Y-105996802D01*
X171917809Y-106015249D01*
X171889838Y-106026386D01*
X171880267Y-106028933D01*
X171861050Y-106033941D01*
X171856439Y-106038147D01*
X171861542Y-106048580D01*
X171877582Y-106074868D01*
X171902712Y-106114257D01*
X171935086Y-106163991D01*
X171972857Y-106221315D01*
X172014178Y-106283476D01*
X172057202Y-106347718D01*
X172100083Y-106411285D01*
X172140974Y-106471425D01*
X172178029Y-106525380D01*
X172209400Y-106570397D01*
X172233241Y-106603721D01*
X172247706Y-106622597D01*
X172249691Y-106624787D01*
X172259809Y-106620138D01*
X172282150Y-106602962D01*
X172312720Y-106576440D01*
X172328464Y-106561964D01*
X172424953Y-106486682D01*
X172531664Y-106431241D01*
X172647168Y-106396141D01*
X172770038Y-106381880D01*
X172839439Y-106383051D01*
X172960577Y-106400212D01*
X173069795Y-106436094D01*
X173167418Y-106490959D01*
X173253772Y-106565070D01*
X173329185Y-106658688D01*
X173393982Y-106772076D01*
X173431399Y-106858667D01*
X173475252Y-106994366D01*
X173507572Y-107141850D01*
X173528443Y-107297314D01*
X173537949Y-107456956D01*
X173536173Y-107616973D01*
X173523197Y-107773561D01*
X173499106Y-107922918D01*
X173463982Y-108061240D01*
X173417908Y-108184724D01*
X173401627Y-108218978D01*
X173333380Y-108333064D01*
X173252921Y-108429557D01*
X173161430Y-108507670D01*
X173060089Y-108566617D01*
X172950080Y-108605612D01*
X172832585Y-108623868D01*
X172791117Y-108625211D01*
X172669559Y-108614290D01*
X172549122Y-108581474D01*
X172431334Y-108527439D01*
X172317723Y-108452865D01*
X172226315Y-108374539D01*
X172179785Y-108330008D01*
X171998517Y-108627271D01*
X171953420Y-108701433D01*
X171912181Y-108769646D01*
X171876265Y-108829459D01*
X171847134Y-108878420D01*
X171826250Y-108914079D01*
X171815076Y-108933984D01*
X171813625Y-108937079D01*
X171821854Y-108946718D01*
X171847433Y-108963999D01*
X171887127Y-108987283D01*
X171937703Y-109014934D01*
X171995926Y-109045315D01*
X172058563Y-109076790D01*
X172122379Y-109107722D01*
X172184140Y-109136473D01*
X172240612Y-109161408D01*
X172288562Y-109180889D01*
X172312014Y-109189318D01*
X172445779Y-109227133D01*
X172583673Y-109252136D01*
X172731378Y-109265140D01*
X172858167Y-109267468D01*
X172926122Y-109266373D01*
X172991723Y-109264275D01*
X173049153Y-109261434D01*
X173092597Y-109258106D01*
X173106702Y-109256422D01*
X173245716Y-109227587D01*
X173387243Y-109182468D01*
X173524725Y-109123750D01*
X173651606Y-109054120D01*
X173729111Y-109001441D01*
X173856519Y-108893239D01*
X173974822Y-108766671D01*
X174081828Y-108624866D01*
X174175348Y-108470951D01*
X174253190Y-108308053D01*
X174297044Y-108190756D01*
X174347292Y-108007128D01*
X174380791Y-107812581D01*
X174397551Y-107611325D01*
X174397584Y-107407568D01*
X174380899Y-107205521D01*
X174347507Y-107009392D01*
X174297420Y-106823391D01*
X174293603Y-106811803D01*
X174230719Y-106649750D01*
X174153972Y-106501832D01*
X174060758Y-106363865D01*
X173948473Y-106231661D01*
X173904608Y-106186399D01*
X173768466Y-106062457D01*
X173628509Y-105959915D01*
X173482589Y-105877656D01*
X173328558Y-105814564D01*
X173164268Y-105769523D01*
X173068711Y-105752033D01*
X172909977Y-105736466D01*
X172751571Y-105739071D01*
G37*
X172751571Y-105739071D02*
X172591430Y-105760245D01*
X172427490Y-105800385D01*
X172257687Y-105859889D01*
X172079957Y-105939154D01*
X172068690Y-105944699D01*
X172010995Y-105972725D01*
X171959448Y-105996802D01*
X171917809Y-106015249D01*
X171889838Y-106026386D01*
X171880267Y-106028933D01*
X171861050Y-106033941D01*
X171856439Y-106038147D01*
X171861542Y-106048580D01*
X171877582Y-106074868D01*
X171902712Y-106114257D01*
X171935086Y-106163991D01*
X171972857Y-106221315D01*
X172014178Y-106283476D01*
X172057202Y-106347718D01*
X172100083Y-106411285D01*
X172140974Y-106471425D01*
X172178029Y-106525380D01*
X172209400Y-106570397D01*
X172233241Y-106603721D01*
X172247706Y-106622597D01*
X172249691Y-106624787D01*
X172259809Y-106620138D01*
X172282150Y-106602962D01*
X172312720Y-106576440D01*
X172328464Y-106561964D01*
X172424953Y-106486682D01*
X172531664Y-106431241D01*
X172647168Y-106396141D01*
X172770038Y-106381880D01*
X172839439Y-106383051D01*
X172960577Y-106400212D01*
X173069795Y-106436094D01*
X173167418Y-106490959D01*
X173253772Y-106565070D01*
X173329185Y-106658688D01*
X173393982Y-106772076D01*
X173431399Y-106858667D01*
X173475252Y-106994366D01*
X173507572Y-107141850D01*
X173528443Y-107297314D01*
X173537949Y-107456956D01*
X173536173Y-107616973D01*
X173523197Y-107773561D01*
X173499106Y-107922918D01*
X173463982Y-108061240D01*
X173417908Y-108184724D01*
X173401627Y-108218978D01*
X173333380Y-108333064D01*
X173252921Y-108429557D01*
X173161430Y-108507670D01*
X173060089Y-108566617D01*
X172950080Y-108605612D01*
X172832585Y-108623868D01*
X172791117Y-108625211D01*
X172669559Y-108614290D01*
X172549122Y-108581474D01*
X172431334Y-108527439D01*
X172317723Y-108452865D01*
X172226315Y-108374539D01*
X172179785Y-108330008D01*
X171998517Y-108627271D01*
X171953420Y-108701433D01*
X171912181Y-108769646D01*
X171876265Y-108829459D01*
X171847134Y-108878420D01*
X171826250Y-108914079D01*
X171815076Y-108933984D01*
X171813625Y-108937079D01*
X171821854Y-108946718D01*
X171847433Y-108963999D01*
X171887127Y-108987283D01*
X171937703Y-109014934D01*
X171995926Y-109045315D01*
X172058563Y-109076790D01*
X172122379Y-109107722D01*
X172184140Y-109136473D01*
X172240612Y-109161408D01*
X172288562Y-109180889D01*
X172312014Y-109189318D01*
X172445779Y-109227133D01*
X172583673Y-109252136D01*
X172731378Y-109265140D01*
X172858167Y-109267468D01*
X172926122Y-109266373D01*
X172991723Y-109264275D01*
X173049153Y-109261434D01*
X173092597Y-109258106D01*
X173106702Y-109256422D01*
X173245716Y-109227587D01*
X173387243Y-109182468D01*
X173524725Y-109123750D01*
X173651606Y-109054120D01*
X173729111Y-109001441D01*
X173856519Y-108893239D01*
X173974822Y-108766671D01*
X174081828Y-108624866D01*
X174175348Y-108470951D01*
X174253190Y-108308053D01*
X174297044Y-108190756D01*
X174347292Y-108007128D01*
X174380791Y-107812581D01*
X174397551Y-107611325D01*
X174397584Y-107407568D01*
X174380899Y-107205521D01*
X174347507Y-107009392D01*
X174297420Y-106823391D01*
X174293603Y-106811803D01*
X174230719Y-106649750D01*
X174153972Y-106501832D01*
X174060758Y-106363865D01*
X173948473Y-106231661D01*
X173904608Y-106186399D01*
X173768466Y-106062457D01*
X173628509Y-105959915D01*
X173482589Y-105877656D01*
X173328558Y-105814564D01*
X173164268Y-105769523D01*
X173068711Y-105752033D01*
X172909977Y-105736466D01*
X172751571Y-105739071D01*
G36*
X170406426Y-106656552D02*
G01*
X170254508Y-106676567D01*
X170119244Y-106710202D01*
X169999761Y-106757725D01*
X169895185Y-106819405D01*
X169817576Y-106882965D01*
X169748735Y-106957099D01*
X169694994Y-107036871D01*
X169652090Y-107129091D01*
X169636616Y-107172161D01*
X169623756Y-107211142D01*
X169612554Y-107247289D01*
X169602880Y-107282434D01*
X169594604Y-107318410D01*
X169587597Y-107357050D01*
X169581728Y-107400185D01*
X169576869Y-107449649D01*
X169572890Y-107507273D01*
X169569660Y-107574891D01*
X169567051Y-107654334D01*
X169564933Y-107747436D01*
X169563176Y-107856027D01*
X169561651Y-107981942D01*
X169560228Y-108127012D01*
X169558975Y-108269778D01*
X169557649Y-108425968D01*
X169556444Y-108561239D01*
X169555234Y-108677246D01*
X169553894Y-108775645D01*
X169552300Y-108858093D01*
X169550325Y-108926246D01*
X169547844Y-108981760D01*
X169544731Y-109026292D01*
X169540862Y-109061498D01*
X169536111Y-109089034D01*
X169530352Y-109110556D01*
X169523461Y-109127722D01*
X169515311Y-109142186D01*
X169505777Y-109155606D01*
X169494734Y-109169638D01*
X169490434Y-109175071D01*
X169474614Y-109197910D01*
X169467578Y-109213463D01*
X169467556Y-109213922D01*
X169478433Y-109216121D01*
X169509418Y-109218147D01*
X169558043Y-109219942D01*
X169621837Y-109221451D01*
X169698331Y-109222616D01*
X169785056Y-109223380D01*
X169879543Y-109223686D01*
X169890450Y-109223689D01*
X170313343Y-109223689D01*
X170316605Y-109127622D01*
X170319867Y-109031556D01*
X170381956Y-109082543D01*
X170479286Y-109150057D01*
X170589187Y-109204749D01*
X170675651Y-109234978D01*
X170744722Y-109249666D01*
X170828075Y-109259659D01*
X170917841Y-109264646D01*
X171006155Y-109264313D01*
X171085149Y-109258351D01*
X171121378Y-109252638D01*
X171261397Y-109214776D01*
X171387822Y-109159932D01*
X171499740Y-109088924D01*
X171596238Y-109002568D01*
X171676400Y-108901679D01*
X171739313Y-108787076D01*
X171783688Y-108660984D01*
X171796022Y-108604401D01*
X171803632Y-108542202D01*
X171807261Y-108467363D01*
X171807755Y-108433467D01*
X171807690Y-108430282D01*
X171047752Y-108430282D01*
X171038459Y-108505333D01*
X171010272Y-108569160D01*
X170961803Y-108624798D01*
X170956746Y-108629211D01*
X170908452Y-108664037D01*
X170856743Y-108686620D01*
X170796011Y-108698540D01*
X170720648Y-108701383D01*
X170702541Y-108700978D01*
X170648722Y-108698325D01*
X170608692Y-108692909D01*
X170573676Y-108682745D01*
X170534897Y-108665850D01*
X170524255Y-108660672D01*
X170463604Y-108624844D01*
X170416785Y-108582212D01*
X170404048Y-108566973D01*
X170359378Y-108510462D01*
X170359378Y-108314586D01*
X170359914Y-108235939D01*
X170361604Y-108177988D01*
X170364572Y-108138875D01*
X170368943Y-108116741D01*
X170373028Y-108110274D01*
X170388953Y-108107111D01*
X170422736Y-108104488D01*
X170469660Y-108102655D01*
X170525007Y-108101857D01*
X170533894Y-108101842D01*
X170654670Y-108107096D01*
X170757340Y-108123263D01*
X170843894Y-108150961D01*
X170916319Y-108190808D01*
X170971249Y-108237758D01*
X171015796Y-108295645D01*
X171040520Y-108358693D01*
X171047752Y-108430282D01*
X171807690Y-108430282D01*
X171805822Y-108339712D01*
X171797478Y-108260812D01*
X171781232Y-108189590D01*
X171755595Y-108118864D01*
X171731599Y-108066493D01*
X171672980Y-107971196D01*
X171594883Y-107883170D01*
X171499685Y-107804017D01*
X171389762Y-107735340D01*
X171267490Y-107678741D01*
X171135245Y-107635821D01*
X171070578Y-107620882D01*
X170934396Y-107598777D01*
X170785951Y-107584194D01*
X170634495Y-107577813D01*
X170507936Y-107579445D01*
X170346050Y-107586224D01*
X170353470Y-107527245D01*
X170372762Y-107428092D01*
X170403896Y-107347372D01*
X170447731Y-107284466D01*
X170505129Y-107238756D01*
X170576952Y-107209622D01*
X170664059Y-107196447D01*
X170767314Y-107198611D01*
X170805289Y-107202612D01*
X170946480Y-107227780D01*
X171083293Y-107268814D01*
X171177822Y-107306815D01*
X171222982Y-107326190D01*
X171261415Y-107341760D01*
X171287766Y-107351405D01*
X171295454Y-107353452D01*
X171305198Y-107344374D01*
X171321917Y-107315405D01*
X171345768Y-107266217D01*
X171376907Y-107196484D01*
X171415493Y-107105879D01*
X171422090Y-107090089D01*
X171452147Y-107017772D01*
X171479126Y-106952425D01*
X171501864Y-106896906D01*
X171519194Y-106854072D01*
X171529952Y-106826781D01*
X171533059Y-106817942D01*
X171523060Y-106813187D01*
X171496783Y-106807910D01*
X171468511Y-106804231D01*
X171438354Y-106799474D01*
X171390567Y-106790028D01*
X171329388Y-106776820D01*
X171259054Y-106760776D01*
X171183806Y-106742820D01*
X171155245Y-106735797D01*
X171050184Y-106710209D01*
X170962520Y-106690147D01*
X170887932Y-106674969D01*
X170822097Y-106664035D01*
X170760693Y-106656704D01*
X170699398Y-106652335D01*
X170633890Y-106650287D01*
X170575872Y-106649889D01*
X170406426Y-106656552D01*
G37*
X170406426Y-106656552D02*
X170254508Y-106676567D01*
X170119244Y-106710202D01*
X169999761Y-106757725D01*
X169895185Y-106819405D01*
X169817576Y-106882965D01*
X169748735Y-106957099D01*
X169694994Y-107036871D01*
X169652090Y-107129091D01*
X169636616Y-107172161D01*
X169623756Y-107211142D01*
X169612554Y-107247289D01*
X169602880Y-107282434D01*
X169594604Y-107318410D01*
X169587597Y-107357050D01*
X169581728Y-107400185D01*
X169576869Y-107449649D01*
X169572890Y-107507273D01*
X169569660Y-107574891D01*
X169567051Y-107654334D01*
X169564933Y-107747436D01*
X169563176Y-107856027D01*
X169561651Y-107981942D01*
X169560228Y-108127012D01*
X169558975Y-108269778D01*
X169557649Y-108425968D01*
X169556444Y-108561239D01*
X169555234Y-108677246D01*
X169553894Y-108775645D01*
X169552300Y-108858093D01*
X169550325Y-108926246D01*
X169547844Y-108981760D01*
X169544731Y-109026292D01*
X169540862Y-109061498D01*
X169536111Y-109089034D01*
X169530352Y-109110556D01*
X169523461Y-109127722D01*
X169515311Y-109142186D01*
X169505777Y-109155606D01*
X169494734Y-109169638D01*
X169490434Y-109175071D01*
X169474614Y-109197910D01*
X169467578Y-109213463D01*
X169467556Y-109213922D01*
X169478433Y-109216121D01*
X169509418Y-109218147D01*
X169558043Y-109219942D01*
X169621837Y-109221451D01*
X169698331Y-109222616D01*
X169785056Y-109223380D01*
X169879543Y-109223686D01*
X169890450Y-109223689D01*
X170313343Y-109223689D01*
X170316605Y-109127622D01*
X170319867Y-109031556D01*
X170381956Y-109082543D01*
X170479286Y-109150057D01*
X170589187Y-109204749D01*
X170675651Y-109234978D01*
X170744722Y-109249666D01*
X170828075Y-109259659D01*
X170917841Y-109264646D01*
X171006155Y-109264313D01*
X171085149Y-109258351D01*
X171121378Y-109252638D01*
X171261397Y-109214776D01*
X171387822Y-109159932D01*
X171499740Y-109088924D01*
X171596238Y-109002568D01*
X171676400Y-108901679D01*
X171739313Y-108787076D01*
X171783688Y-108660984D01*
X171796022Y-108604401D01*
X171803632Y-108542202D01*
X171807261Y-108467363D01*
X171807755Y-108433467D01*
X171807690Y-108430282D01*
X171047752Y-108430282D01*
X171038459Y-108505333D01*
X171010272Y-108569160D01*
X170961803Y-108624798D01*
X170956746Y-108629211D01*
X170908452Y-108664037D01*
X170856743Y-108686620D01*
X170796011Y-108698540D01*
X170720648Y-108701383D01*
X170702541Y-108700978D01*
X170648722Y-108698325D01*
X170608692Y-108692909D01*
X170573676Y-108682745D01*
X170534897Y-108665850D01*
X170524255Y-108660672D01*
X170463604Y-108624844D01*
X170416785Y-108582212D01*
X170404048Y-108566973D01*
X170359378Y-108510462D01*
X170359378Y-108314586D01*
X170359914Y-108235939D01*
X170361604Y-108177988D01*
X170364572Y-108138875D01*
X170368943Y-108116741D01*
X170373028Y-108110274D01*
X170388953Y-108107111D01*
X170422736Y-108104488D01*
X170469660Y-108102655D01*
X170525007Y-108101857D01*
X170533894Y-108101842D01*
X170654670Y-108107096D01*
X170757340Y-108123263D01*
X170843894Y-108150961D01*
X170916319Y-108190808D01*
X170971249Y-108237758D01*
X171015796Y-108295645D01*
X171040520Y-108358693D01*
X171047752Y-108430282D01*
X171807690Y-108430282D01*
X171805822Y-108339712D01*
X171797478Y-108260812D01*
X171781232Y-108189590D01*
X171755595Y-108118864D01*
X171731599Y-108066493D01*
X171672980Y-107971196D01*
X171594883Y-107883170D01*
X171499685Y-107804017D01*
X171389762Y-107735340D01*
X171267490Y-107678741D01*
X171135245Y-107635821D01*
X171070578Y-107620882D01*
X170934396Y-107598777D01*
X170785951Y-107584194D01*
X170634495Y-107577813D01*
X170507936Y-107579445D01*
X170346050Y-107586224D01*
X170353470Y-107527245D01*
X170372762Y-107428092D01*
X170403896Y-107347372D01*
X170447731Y-107284466D01*
X170505129Y-107238756D01*
X170576952Y-107209622D01*
X170664059Y-107196447D01*
X170767314Y-107198611D01*
X170805289Y-107202612D01*
X170946480Y-107227780D01*
X171083293Y-107268814D01*
X171177822Y-107306815D01*
X171222982Y-107326190D01*
X171261415Y-107341760D01*
X171287766Y-107351405D01*
X171295454Y-107353452D01*
X171305198Y-107344374D01*
X171321917Y-107315405D01*
X171345768Y-107266217D01*
X171376907Y-107196484D01*
X171415493Y-107105879D01*
X171422090Y-107090089D01*
X171452147Y-107017772D01*
X171479126Y-106952425D01*
X171501864Y-106896906D01*
X171519194Y-106854072D01*
X171529952Y-106826781D01*
X171533059Y-106817942D01*
X171523060Y-106813187D01*
X171496783Y-106807910D01*
X171468511Y-106804231D01*
X171438354Y-106799474D01*
X171390567Y-106790028D01*
X171329388Y-106776820D01*
X171259054Y-106760776D01*
X171183806Y-106742820D01*
X171155245Y-106735797D01*
X171050184Y-106710209D01*
X170962520Y-106690147D01*
X170887932Y-106674969D01*
X170822097Y-106664035D01*
X170760693Y-106656704D01*
X170699398Y-106652335D01*
X170633890Y-106650287D01*
X170575872Y-106649889D01*
X170406426Y-106656552D01*
G36*
X166893493Y-107262245D02*
G01*
X166893474Y-107496662D01*
X166893448Y-107709603D01*
X166893375Y-107902168D01*
X166893218Y-108075459D01*
X166892936Y-108230576D01*
X166892491Y-108368620D01*
X166891844Y-108490692D01*
X166890955Y-108597894D01*
X166889787Y-108691326D01*
X166888299Y-108772090D01*
X166886454Y-108841286D01*
X166884211Y-108900015D01*
X166881531Y-108949379D01*
X166878377Y-108990478D01*
X166874708Y-109024413D01*
X166870487Y-109052286D01*
X166865673Y-109075198D01*
X166860227Y-109094249D01*
X166854112Y-109110540D01*
X166847288Y-109125173D01*
X166839715Y-109139249D01*
X166831355Y-109153868D01*
X166826161Y-109162974D01*
X166791896Y-109223689D01*
X167650045Y-109223689D01*
X167650045Y-109127733D01*
X167650776Y-109084370D01*
X167652728Y-109051205D01*
X167655537Y-109033424D01*
X167656779Y-109031778D01*
X167668201Y-109038662D01*
X167690916Y-109056505D01*
X167713615Y-109075879D01*
X167768200Y-109116614D01*
X167837679Y-109157617D01*
X167914730Y-109195123D01*
X167992035Y-109225364D01*
X168022887Y-109235012D01*
X168091384Y-109249578D01*
X168174236Y-109259539D01*
X168263629Y-109264583D01*
X168351752Y-109264396D01*
X168430793Y-109258666D01*
X168468489Y-109252858D01*
X168606586Y-109214797D01*
X168733887Y-109157073D01*
X168849708Y-109080211D01*
X168953363Y-108984739D01*
X169044167Y-108871179D01*
X169110969Y-108760381D01*
X169165836Y-108643625D01*
X169207837Y-108524276D01*
X169237833Y-108398283D01*
X169256689Y-108261594D01*
X169265268Y-108110158D01*
X169265994Y-108032711D01*
X169263900Y-107975934D01*
X168434783Y-107975934D01*
X168434576Y-108069002D01*
X168431663Y-108156692D01*
X168426000Y-108233772D01*
X168417545Y-108295009D01*
X168414962Y-108307350D01*
X168383160Y-108414633D01*
X168341502Y-108501658D01*
X168289637Y-108568642D01*
X168227219Y-108615805D01*
X168153900Y-108643365D01*
X168069331Y-108651541D01*
X167973165Y-108640551D01*
X167909689Y-108624829D01*
X167860546Y-108606639D01*
X167806417Y-108580791D01*
X167765756Y-108557089D01*
X167695200Y-108510721D01*
X167695200Y-107360530D01*
X167762608Y-107316962D01*
X167841133Y-107276040D01*
X167925319Y-107249389D01*
X168010443Y-107237465D01*
X168091784Y-107240722D01*
X168164620Y-107259615D01*
X168196574Y-107275184D01*
X168254499Y-107318181D01*
X168303456Y-107374953D01*
X168344610Y-107447575D01*
X168379126Y-107538121D01*
X168408167Y-107648666D01*
X168409448Y-107654533D01*
X168419619Y-107716788D01*
X168427261Y-107794594D01*
X168432330Y-107882720D01*
X168434783Y-107975934D01*
X169263900Y-107975934D01*
X169258143Y-107819895D01*
X169236198Y-107624059D01*
X169200214Y-107445332D01*
X169150241Y-107283845D01*
X169086332Y-107139726D01*
X169008538Y-107013106D01*
X168916911Y-106904115D01*
X168811503Y-106812883D01*
X168766338Y-106781932D01*
X168665389Y-106725785D01*
X168562099Y-106686174D01*
X168452011Y-106662014D01*
X168330670Y-106652219D01*
X168238164Y-106653265D01*
X168108510Y-106664231D01*
X167995916Y-106686046D01*
X167897125Y-106719714D01*
X167808879Y-106766236D01*
X167760014Y-106800448D01*
X167730647Y-106822362D01*
X167708957Y-106837333D01*
X167700747Y-106841733D01*
X167699132Y-106830904D01*
X167697841Y-106800251D01*
X167696862Y-106752526D01*
X167696183Y-106690479D01*
X167695790Y-106616862D01*
X167695670Y-106534427D01*
X167695812Y-106445925D01*
X167696203Y-106354107D01*
X167696829Y-106261724D01*
X167697680Y-106171528D01*
X167698740Y-106086271D01*
X167699999Y-106008703D01*
X167701444Y-105941576D01*
X167703062Y-105887641D01*
X167704839Y-105849650D01*
X167705331Y-105842667D01*
X167712908Y-105772251D01*
X167724469Y-105717102D01*
X167742208Y-105669981D01*
X167768318Y-105623647D01*
X167774585Y-105614067D01*
X167799017Y-105577378D01*
X166893689Y-105577378D01*
X166893493Y-107262245D01*
G37*
X166893493Y-107262245D02*
X166893474Y-107496662D01*
X166893448Y-107709603D01*
X166893375Y-107902168D01*
X166893218Y-108075459D01*
X166892936Y-108230576D01*
X166892491Y-108368620D01*
X166891844Y-108490692D01*
X166890955Y-108597894D01*
X166889787Y-108691326D01*
X166888299Y-108772090D01*
X166886454Y-108841286D01*
X166884211Y-108900015D01*
X166881531Y-108949379D01*
X166878377Y-108990478D01*
X166874708Y-109024413D01*
X166870487Y-109052286D01*
X166865673Y-109075198D01*
X166860227Y-109094249D01*
X166854112Y-109110540D01*
X166847288Y-109125173D01*
X166839715Y-109139249D01*
X166831355Y-109153868D01*
X166826161Y-109162974D01*
X166791896Y-109223689D01*
X167650045Y-109223689D01*
X167650045Y-109127733D01*
X167650776Y-109084370D01*
X167652728Y-109051205D01*
X167655537Y-109033424D01*
X167656779Y-109031778D01*
X167668201Y-109038662D01*
X167690916Y-109056505D01*
X167713615Y-109075879D01*
X167768200Y-109116614D01*
X167837679Y-109157617D01*
X167914730Y-109195123D01*
X167992035Y-109225364D01*
X168022887Y-109235012D01*
X168091384Y-109249578D01*
X168174236Y-109259539D01*
X168263629Y-109264583D01*
X168351752Y-109264396D01*
X168430793Y-109258666D01*
X168468489Y-109252858D01*
X168606586Y-109214797D01*
X168733887Y-109157073D01*
X168849708Y-109080211D01*
X168953363Y-108984739D01*
X169044167Y-108871179D01*
X169110969Y-108760381D01*
X169165836Y-108643625D01*
X169207837Y-108524276D01*
X169237833Y-108398283D01*
X169256689Y-108261594D01*
X169265268Y-108110158D01*
X169265994Y-108032711D01*
X169263900Y-107975934D01*
X168434783Y-107975934D01*
X168434576Y-108069002D01*
X168431663Y-108156692D01*
X168426000Y-108233772D01*
X168417545Y-108295009D01*
X168414962Y-108307350D01*
X168383160Y-108414633D01*
X168341502Y-108501658D01*
X168289637Y-108568642D01*
X168227219Y-108615805D01*
X168153900Y-108643365D01*
X168069331Y-108651541D01*
X167973165Y-108640551D01*
X167909689Y-108624829D01*
X167860546Y-108606639D01*
X167806417Y-108580791D01*
X167765756Y-108557089D01*
X167695200Y-108510721D01*
X167695200Y-107360530D01*
X167762608Y-107316962D01*
X167841133Y-107276040D01*
X167925319Y-107249389D01*
X168010443Y-107237465D01*
X168091784Y-107240722D01*
X168164620Y-107259615D01*
X168196574Y-107275184D01*
X168254499Y-107318181D01*
X168303456Y-107374953D01*
X168344610Y-107447575D01*
X168379126Y-107538121D01*
X168408167Y-107648666D01*
X168409448Y-107654533D01*
X168419619Y-107716788D01*
X168427261Y-107794594D01*
X168432330Y-107882720D01*
X168434783Y-107975934D01*
X169263900Y-107975934D01*
X169258143Y-107819895D01*
X169236198Y-107624059D01*
X169200214Y-107445332D01*
X169150241Y-107283845D01*
X169086332Y-107139726D01*
X169008538Y-107013106D01*
X168916911Y-106904115D01*
X168811503Y-106812883D01*
X168766338Y-106781932D01*
X168665389Y-106725785D01*
X168562099Y-106686174D01*
X168452011Y-106662014D01*
X168330670Y-106652219D01*
X168238164Y-106653265D01*
X168108510Y-106664231D01*
X167995916Y-106686046D01*
X167897125Y-106719714D01*
X167808879Y-106766236D01*
X167760014Y-106800448D01*
X167730647Y-106822362D01*
X167708957Y-106837333D01*
X167700747Y-106841733D01*
X167699132Y-106830904D01*
X167697841Y-106800251D01*
X167696862Y-106752526D01*
X167696183Y-106690479D01*
X167695790Y-106616862D01*
X167695670Y-106534427D01*
X167695812Y-106445925D01*
X167696203Y-106354107D01*
X167696829Y-106261724D01*
X167697680Y-106171528D01*
X167698740Y-106086271D01*
X167699999Y-106008703D01*
X167701444Y-105941576D01*
X167703062Y-105887641D01*
X167704839Y-105849650D01*
X167705331Y-105842667D01*
X167712908Y-105772251D01*
X167724469Y-105717102D01*
X167742208Y-105669981D01*
X167768318Y-105623647D01*
X167774585Y-105614067D01*
X167799017Y-105577378D01*
X166893689Y-105577378D01*
X166893493Y-107262245D01*
G36*
X175353043Y-104816571D02*
G01*
X175256768Y-104840809D01*
X175170184Y-104883641D01*
X175095373Y-104943419D01*
X175034418Y-105018494D01*
X174989399Y-105107220D01*
X174963136Y-105203530D01*
X174957286Y-105300795D01*
X174972140Y-105394654D01*
X175005840Y-105482511D01*
X175056528Y-105561770D01*
X175122345Y-105629836D01*
X175201434Y-105684112D01*
X175291934Y-105722002D01*
X175343200Y-105734426D01*
X175387698Y-105741947D01*
X175421999Y-105744919D01*
X175454960Y-105743094D01*
X175495434Y-105736225D01*
X175528531Y-105729250D01*
X175621947Y-105697741D01*
X175705619Y-105646617D01*
X175777665Y-105577429D01*
X175836200Y-105491728D01*
X175850148Y-105464489D01*
X175866586Y-105428122D01*
X175876894Y-105397582D01*
X175882460Y-105365450D01*
X175884669Y-105324307D01*
X175884948Y-105278222D01*
X175880861Y-105193865D01*
X175867446Y-105124586D01*
X175842256Y-105063961D01*
X175802846Y-105005567D01*
X175764298Y-104961302D01*
X175692406Y-104895484D01*
X175617313Y-104850053D01*
X175534562Y-104822850D01*
X175456928Y-104812576D01*
X175353043Y-104816571D01*
G37*
X175353043Y-104816571D02*
X175256768Y-104840809D01*
X175170184Y-104883641D01*
X175095373Y-104943419D01*
X175034418Y-105018494D01*
X174989399Y-105107220D01*
X174963136Y-105203530D01*
X174957286Y-105300795D01*
X174972140Y-105394654D01*
X175005840Y-105482511D01*
X175056528Y-105561770D01*
X175122345Y-105629836D01*
X175201434Y-105684112D01*
X175291934Y-105722002D01*
X175343200Y-105734426D01*
X175387698Y-105741947D01*
X175421999Y-105744919D01*
X175454960Y-105743094D01*
X175495434Y-105736225D01*
X175528531Y-105729250D01*
X175621947Y-105697741D01*
X175705619Y-105646617D01*
X175777665Y-105577429D01*
X175836200Y-105491728D01*
X175850148Y-105464489D01*
X175866586Y-105428122D01*
X175876894Y-105397582D01*
X175882460Y-105365450D01*
X175884669Y-105324307D01*
X175884948Y-105278222D01*
X175880861Y-105193865D01*
X175867446Y-105124586D01*
X175842256Y-105063961D01*
X175802846Y-105005567D01*
X175764298Y-104961302D01*
X175692406Y-104895484D01*
X175617313Y-104850053D01*
X175534562Y-104822850D01*
X175456928Y-104812576D01*
X175353043Y-104816571D01*
D13*
%TO.C,G\u002A\u002A\u002A*%
G36*
X146375622Y-93596418D02*
G01*
X146377762Y-94190076D01*
X146378000Y-94374945D01*
X146379968Y-95015217D01*
X146386635Y-95505453D01*
X146399144Y-95864914D01*
X146418639Y-96112861D01*
X146446265Y-96268554D01*
X146483165Y-96351252D01*
X146496169Y-96364670D01*
X146663404Y-96436142D01*
X146801333Y-96466474D01*
X146801333Y-96012748D01*
X146801333Y-94419371D01*
X146805389Y-93898909D01*
X146816750Y-93449332D01*
X146834205Y-93095665D01*
X146856547Y-92862937D01*
X146880725Y-92776926D01*
X146992173Y-92746092D01*
X147234448Y-92699619D01*
X147570507Y-92644095D01*
X147917892Y-92592485D01*
X148546360Y-92530536D01*
X149273949Y-92502245D01*
X150043863Y-92506497D01*
X150799308Y-92542179D01*
X151483486Y-92608176D01*
X151881333Y-92670237D01*
X152431667Y-92774859D01*
X152454634Y-94396143D01*
X152477601Y-96017426D01*
X151904301Y-96108198D01*
X151568387Y-96160928D01*
X151263576Y-96208002D01*
X151077000Y-96236091D01*
X150836831Y-96253739D01*
X150465475Y-96260161D01*
X150000617Y-96256617D01*
X149479943Y-96244364D01*
X148941138Y-96224660D01*
X148421888Y-96198761D01*
X147959878Y-96167926D01*
X147592794Y-96133412D01*
X147457500Y-96115306D01*
X146801333Y-96012748D01*
X146801333Y-96466474D01*
X146972725Y-96504166D01*
X147396887Y-96566037D01*
X147908644Y-96619051D01*
X148480751Y-96660504D01*
X149085961Y-96687692D01*
X149697031Y-96697910D01*
X149849333Y-96697483D01*
X150334331Y-96692260D01*
X150773111Y-96684201D01*
X151131846Y-96674183D01*
X151376708Y-96663080D01*
X151458000Y-96655816D01*
X151964572Y-96572236D01*
X152372361Y-96489708D01*
X152657538Y-96413632D01*
X152791500Y-96353674D01*
X152828535Y-96275849D01*
X152856694Y-96100790D01*
X152876802Y-95813075D01*
X152889683Y-95397284D01*
X152896163Y-94837996D01*
X152897333Y-94374945D01*
X152896382Y-93758599D01*
X152892423Y-93290164D01*
X152883800Y-92948224D01*
X152868856Y-92711362D01*
X152845934Y-92558160D01*
X152813378Y-92467203D01*
X152769532Y-92417073D01*
X152744688Y-92401597D01*
X152478800Y-92308179D01*
X152073239Y-92228175D01*
X151557227Y-92162830D01*
X150959985Y-92113389D01*
X150310736Y-92081099D01*
X149638702Y-92067204D01*
X148973104Y-92072950D01*
X148343166Y-92099582D01*
X147778109Y-92148346D01*
X147539807Y-92179783D01*
X147174342Y-92231423D01*
X146894238Y-92276352D01*
X146688234Y-92335847D01*
X146545071Y-92431182D01*
X146453488Y-92583632D01*
X146402225Y-92814471D01*
X146380023Y-93144975D01*
X146375622Y-93596418D01*
G37*
X146375622Y-93596418D02*
X146377762Y-94190076D01*
X146378000Y-94374945D01*
X146379968Y-95015217D01*
X146386635Y-95505453D01*
X146399144Y-95864914D01*
X146418639Y-96112861D01*
X146446265Y-96268554D01*
X146483165Y-96351252D01*
X146496169Y-96364670D01*
X146663404Y-96436142D01*
X146801333Y-96466474D01*
X146801333Y-96012748D01*
X146801333Y-94419371D01*
X146805389Y-93898909D01*
X146816750Y-93449332D01*
X146834205Y-93095665D01*
X146856547Y-92862937D01*
X146880725Y-92776926D01*
X146992173Y-92746092D01*
X147234448Y-92699619D01*
X147570507Y-92644095D01*
X147917892Y-92592485D01*
X148546360Y-92530536D01*
X149273949Y-92502245D01*
X150043863Y-92506497D01*
X150799308Y-92542179D01*
X151483486Y-92608176D01*
X151881333Y-92670237D01*
X152431667Y-92774859D01*
X152454634Y-94396143D01*
X152477601Y-96017426D01*
X151904301Y-96108198D01*
X151568387Y-96160928D01*
X151263576Y-96208002D01*
X151077000Y-96236091D01*
X150836831Y-96253739D01*
X150465475Y-96260161D01*
X150000617Y-96256617D01*
X149479943Y-96244364D01*
X148941138Y-96224660D01*
X148421888Y-96198761D01*
X147959878Y-96167926D01*
X147592794Y-96133412D01*
X147457500Y-96115306D01*
X146801333Y-96012748D01*
X146801333Y-96466474D01*
X146972725Y-96504166D01*
X147396887Y-96566037D01*
X147908644Y-96619051D01*
X148480751Y-96660504D01*
X149085961Y-96687692D01*
X149697031Y-96697910D01*
X149849333Y-96697483D01*
X150334331Y-96692260D01*
X150773111Y-96684201D01*
X151131846Y-96674183D01*
X151376708Y-96663080D01*
X151458000Y-96655816D01*
X151964572Y-96572236D01*
X152372361Y-96489708D01*
X152657538Y-96413632D01*
X152791500Y-96353674D01*
X152828535Y-96275849D01*
X152856694Y-96100790D01*
X152876802Y-95813075D01*
X152889683Y-95397284D01*
X152896163Y-94837996D01*
X152897333Y-94374945D01*
X152896382Y-93758599D01*
X152892423Y-93290164D01*
X152883800Y-92948224D01*
X152868856Y-92711362D01*
X152845934Y-92558160D01*
X152813378Y-92467203D01*
X152769532Y-92417073D01*
X152744688Y-92401597D01*
X152478800Y-92308179D01*
X152073239Y-92228175D01*
X151557227Y-92162830D01*
X150959985Y-92113389D01*
X150310736Y-92081099D01*
X149638702Y-92067204D01*
X148973104Y-92072950D01*
X148343166Y-92099582D01*
X147778109Y-92148346D01*
X147539807Y-92179783D01*
X147174342Y-92231423D01*
X146894238Y-92276352D01*
X146688234Y-92335847D01*
X146545071Y-92431182D01*
X146453488Y-92583632D01*
X146402225Y-92814471D01*
X146380023Y-93144975D01*
X146375622Y-93596418D01*
G36*
X149337330Y-94741396D02*
G01*
X149384811Y-95124950D01*
X149549553Y-95474481D01*
X149823839Y-95743811D01*
X149965097Y-95817168D01*
X150153433Y-95867105D01*
X150424285Y-95898878D01*
X150813089Y-95917742D01*
X151034667Y-95923393D01*
X151431061Y-95927691D01*
X151769353Y-95923729D01*
X152011130Y-95912450D01*
X152114167Y-95896953D01*
X152203029Y-95779885D01*
X152211116Y-95601760D01*
X152143306Y-95447596D01*
X152086075Y-95407391D01*
X151947273Y-95385378D01*
X151683201Y-95368077D01*
X151337907Y-95357813D01*
X151112409Y-95356000D01*
X150630865Y-95340429D01*
X150294329Y-95286481D01*
X150080728Y-95183299D01*
X149967987Y-95020028D01*
X149934033Y-94785811D01*
X149934000Y-94776455D01*
X150000498Y-94512492D01*
X150205142Y-94325644D01*
X150555658Y-94210320D01*
X150757076Y-94180904D01*
X151032639Y-94145063D01*
X151179307Y-94099056D01*
X151237127Y-94021255D01*
X151246333Y-93916666D01*
X151235369Y-93802268D01*
X151177036Y-93735955D01*
X151033176Y-93701166D01*
X150765631Y-93681341D01*
X150696000Y-93677817D01*
X150279720Y-93681844D01*
X149980020Y-93746245D01*
X149885721Y-93788786D01*
X149589058Y-94033094D01*
X149405837Y-94364037D01*
X149337330Y-94741396D01*
G37*
X149337330Y-94741396D02*
X149384811Y-95124950D01*
X149549553Y-95474481D01*
X149823839Y-95743811D01*
X149965097Y-95817168D01*
X150153433Y-95867105D01*
X150424285Y-95898878D01*
X150813089Y-95917742D01*
X151034667Y-95923393D01*
X151431061Y-95927691D01*
X151769353Y-95923729D01*
X152011130Y-95912450D01*
X152114167Y-95896953D01*
X152203029Y-95779885D01*
X152211116Y-95601760D01*
X152143306Y-95447596D01*
X152086075Y-95407391D01*
X151947273Y-95385378D01*
X151683201Y-95368077D01*
X151337907Y-95357813D01*
X151112409Y-95356000D01*
X150630865Y-95340429D01*
X150294329Y-95286481D01*
X150080728Y-95183299D01*
X149967987Y-95020028D01*
X149934033Y-94785811D01*
X149934000Y-94776455D01*
X150000498Y-94512492D01*
X150205142Y-94325644D01*
X150555658Y-94210320D01*
X150757076Y-94180904D01*
X151032639Y-94145063D01*
X151179307Y-94099056D01*
X151237127Y-94021255D01*
X151246333Y-93916666D01*
X151235369Y-93802268D01*
X151177036Y-93735955D01*
X151033176Y-93701166D01*
X150765631Y-93681341D01*
X150696000Y-93677817D01*
X150279720Y-93681844D01*
X149980020Y-93746245D01*
X149885721Y-93788786D01*
X149589058Y-94033094D01*
X149405837Y-94364037D01*
X149337330Y-94741396D01*
G36*
X147140932Y-94832399D02*
G01*
X147160862Y-95355157D01*
X147221661Y-95718069D01*
X147322706Y-95919846D01*
X147463376Y-95959203D01*
X147631067Y-95847066D01*
X147684318Y-95701488D01*
X147718314Y-95394882D01*
X147732324Y-94934537D01*
X147732667Y-94835050D01*
X147741236Y-94437735D01*
X147764370Y-94085407D01*
X147798210Y-93823877D01*
X147826759Y-93718124D01*
X147970325Y-93548654D01*
X148204672Y-93401565D01*
X148250092Y-93382284D01*
X148471162Y-93271786D01*
X148565993Y-93145972D01*
X148579333Y-93040685D01*
X148515361Y-92864243D01*
X148347431Y-92780667D01*
X148111525Y-92787481D01*
X147843626Y-92882205D01*
X147579716Y-93062361D01*
X147525722Y-93113255D01*
X147374440Y-93289985D01*
X147267784Y-93489797D01*
X147198483Y-93745186D01*
X147159263Y-94088649D01*
X147142851Y-94552682D01*
X147140932Y-94832399D01*
G37*
X147140932Y-94832399D02*
X147160862Y-95355157D01*
X147221661Y-95718069D01*
X147322706Y-95919846D01*
X147463376Y-95959203D01*
X147631067Y-95847066D01*
X147684318Y-95701488D01*
X147718314Y-95394882D01*
X147732324Y-94934537D01*
X147732667Y-94835050D01*
X147741236Y-94437735D01*
X147764370Y-94085407D01*
X147798210Y-93823877D01*
X147826759Y-93718124D01*
X147970325Y-93548654D01*
X148204672Y-93401565D01*
X148250092Y-93382284D01*
X148471162Y-93271786D01*
X148565993Y-93145972D01*
X148579333Y-93040685D01*
X148515361Y-92864243D01*
X148347431Y-92780667D01*
X148111525Y-92787481D01*
X147843626Y-92882205D01*
X147579716Y-93062361D01*
X147525722Y-93113255D01*
X147374440Y-93289985D01*
X147267784Y-93489797D01*
X147198483Y-93745186D01*
X147159263Y-94088649D01*
X147142851Y-94552682D01*
X147140932Y-94832399D01*
G36*
X148484801Y-94466520D02*
G01*
X148508826Y-94763519D01*
X148560783Y-94973327D01*
X148621667Y-95047951D01*
X148813695Y-95078023D01*
X148934143Y-94981621D01*
X148992889Y-94744874D01*
X149002667Y-94512909D01*
X149037746Y-94017412D01*
X149145015Y-93667937D01*
X149327521Y-93455931D01*
X149391865Y-93420336D01*
X149569306Y-93377401D01*
X149864414Y-93344319D01*
X150225592Y-93326058D01*
X150392233Y-93324000D01*
X150783858Y-93329548D01*
X151048654Y-93351080D01*
X151228902Y-93395927D01*
X151366886Y-93471422D01*
X151404249Y-93499478D01*
X151583246Y-93728739D01*
X151620798Y-93991950D01*
X151513614Y-94238950D01*
X151456688Y-94298854D01*
X151233794Y-94413454D01*
X150884358Y-94484508D01*
X150800521Y-94492644D01*
X150436152Y-94549077D01*
X150235352Y-94646606D01*
X150197192Y-94786155D01*
X150320743Y-94968647D01*
X150321048Y-94968952D01*
X150518147Y-95066949D01*
X150840777Y-95084715D01*
X151300879Y-95022860D01*
X151317249Y-95019719D01*
X151696998Y-94873080D01*
X151975444Y-94621501D01*
X152148504Y-94298686D01*
X152212099Y-93938335D01*
X152162146Y-93574151D01*
X151994565Y-93239837D01*
X151705274Y-92969094D01*
X151574472Y-92895569D01*
X151391140Y-92816187D01*
X151207711Y-92765824D01*
X150982663Y-92739875D01*
X150674472Y-92733734D01*
X150241616Y-92742796D01*
X150206509Y-92743852D01*
X149713514Y-92766266D01*
X149355565Y-92806823D01*
X149098477Y-92877716D01*
X148908068Y-92991137D01*
X148750155Y-93159277D01*
X148652375Y-93298171D01*
X148572495Y-93498154D01*
X148517418Y-93789259D01*
X148487926Y-94126907D01*
X148484801Y-94466520D01*
G37*
X148484801Y-94466520D02*
X148508826Y-94763519D01*
X148560783Y-94973327D01*
X148621667Y-95047951D01*
X148813695Y-95078023D01*
X148934143Y-94981621D01*
X148992889Y-94744874D01*
X149002667Y-94512909D01*
X149037746Y-94017412D01*
X149145015Y-93667937D01*
X149327521Y-93455931D01*
X149391865Y-93420336D01*
X149569306Y-93377401D01*
X149864414Y-93344319D01*
X150225592Y-93326058D01*
X150392233Y-93324000D01*
X150783858Y-93329548D01*
X151048654Y-93351080D01*
X151228902Y-93395927D01*
X151366886Y-93471422D01*
X151404249Y-93499478D01*
X151583246Y-93728739D01*
X151620798Y-93991950D01*
X151513614Y-94238950D01*
X151456688Y-94298854D01*
X151233794Y-94413454D01*
X150884358Y-94484508D01*
X150800521Y-94492644D01*
X150436152Y-94549077D01*
X150235352Y-94646606D01*
X150197192Y-94786155D01*
X150320743Y-94968647D01*
X150321048Y-94968952D01*
X150518147Y-95066949D01*
X150840777Y-95084715D01*
X151300879Y-95022860D01*
X151317249Y-95019719D01*
X151696998Y-94873080D01*
X151975444Y-94621501D01*
X152148504Y-94298686D01*
X152212099Y-93938335D01*
X152162146Y-93574151D01*
X151994565Y-93239837D01*
X151705274Y-92969094D01*
X151574472Y-92895569D01*
X151391140Y-92816187D01*
X151207711Y-92765824D01*
X150982663Y-92739875D01*
X150674472Y-92733734D01*
X150241616Y-92742796D01*
X150206509Y-92743852D01*
X149713514Y-92766266D01*
X149355565Y-92806823D01*
X149098477Y-92877716D01*
X148908068Y-92991137D01*
X148750155Y-93159277D01*
X148652375Y-93298171D01*
X148572495Y-93498154D01*
X148517418Y-93789259D01*
X148487926Y-94126907D01*
X148484801Y-94466520D01*
%TD*%
M02*
