%TF.GenerationSoftware,KiCad,Pcbnew,(5.1.7)-1*%
%TF.CreationDate,2020-11-09T22:40:43+01:00*%
%TF.ProjectId,LED_Chain,4c45445f-4368-4616-996e-2e6b69636164,rev?*%
%TF.SameCoordinates,Original*%
%TF.FileFunction,Copper,L2,Bot*%
%TF.FilePolarity,Positive*%
%FSLAX46Y46*%
G04 Gerber Fmt 4.6, Leading zero omitted, Abs format (unit mm)*
G04 Created by KiCad (PCBNEW (5.1.7)-1) date 2020-11-09 22:40:43*
%MOMM*%
%LPD*%
G01*
G04 APERTURE LIST*
%TA.AperFunction,ComponentPad*%
%ADD10R,3.000000X3.000000*%
%TD*%
%TA.AperFunction,ComponentPad*%
%ADD11C,3.000000*%
%TD*%
%TA.AperFunction,ComponentPad*%
%ADD12R,1.700000X1.700000*%
%TD*%
%TA.AperFunction,ComponentPad*%
%ADD13O,1.700000X1.700000*%
%TD*%
%TA.AperFunction,ViaPad*%
%ADD14C,0.685800*%
%TD*%
%TA.AperFunction,Conductor*%
%ADD15C,0.609600*%
%TD*%
%TA.AperFunction,Conductor*%
%ADD16C,1.219200*%
%TD*%
%TA.AperFunction,Conductor*%
%ADD17C,0.304800*%
%TD*%
%TA.AperFunction,Conductor*%
%ADD18C,0.152400*%
%TD*%
%TA.AperFunction,Conductor*%
%ADD19C,0.076200*%
%TD*%
G04 APERTURE END LIST*
D10*
%TO.P,J7,1*%
%TO.N,/LED1*%
X175370000Y-92120000D03*
D11*
%TO.P,J7,2*%
%TO.N,/LED2*%
X175370000Y-87040000D03*
%TD*%
D12*
%TO.P,J6,1*%
%TO.N,/5V*%
X167894000Y-98044000D03*
D13*
%TO.P,J6,2*%
%TO.N,GND*%
X167894000Y-100584000D03*
%TD*%
D12*
%TO.P,J5,1*%
%TO.N,/B0*%
X167386000Y-86233000D03*
D13*
%TO.P,J5,2*%
%TO.N,N/C*%
X164846000Y-86233000D03*
%TO.P,J5,3*%
X162306000Y-86233000D03*
%TO.P,J5,4*%
X159766000Y-86233000D03*
%TD*%
D12*
%TO.P,J4,1*%
%TO.N,/A4*%
X148000000Y-104500000D03*
D13*
%TO.P,J4,2*%
%TO.N,N/C*%
X150540000Y-104500000D03*
%TO.P,J4,3*%
X153080000Y-104500000D03*
%TO.P,J4,4*%
X155620000Y-104500000D03*
%TD*%
D12*
%TO.P,J3,1*%
%TO.N,/A3*%
X156210000Y-86233000D03*
D13*
%TO.P,J3,2*%
%TO.N,/A2*%
X153670000Y-86233000D03*
%TO.P,J3,3*%
%TO.N,/A1*%
X151130000Y-86233000D03*
%TD*%
D12*
%TO.P,J2,1*%
%TO.N,/Vbb*%
X131160000Y-107060000D03*
D13*
%TO.P,J2,2*%
%TO.N,/5V*%
X128620000Y-107060000D03*
%TD*%
D12*
%TO.P,J1,1*%
%TO.N,/5V*%
X120630000Y-104520000D03*
D13*
%TO.P,J1,2*%
%TO.N,/Vbb*%
X120630000Y-101980000D03*
%TO.P,J1,3*%
%TO.N,/B0*%
X120630000Y-99440000D03*
%TO.P,J1,4*%
%TO.N,/A4*%
X120630000Y-96900000D03*
%TO.P,J1,5*%
%TO.N,/A3*%
X120630000Y-94360000D03*
%TO.P,J1,6*%
%TO.N,/A2*%
X120630000Y-91820000D03*
%TO.P,J1,7*%
%TO.N,/A1*%
X120630000Y-89280000D03*
%TO.P,J1,8*%
%TO.N,GND*%
X120630000Y-86740000D03*
%TD*%
D14*
%TO.N,GND*%
X144110000Y-94060000D03*
X142500000Y-96840000D03*
%TO.N,/Vbb*%
X132360000Y-95420000D03*
X130190000Y-91730000D03*
X143920000Y-102800000D03*
%TO.N,/5V*%
X153540000Y-95810000D03*
X153410000Y-91670000D03*
%TD*%
D15*
%TO.N,GND*%
X144110000Y-95230000D02*
X142500000Y-96840000D01*
X144110000Y-94060000D02*
X144110000Y-95230000D01*
D16*
%TO.N,/5V*%
X167894000Y-98044000D02*
X167894000Y-97824000D01*
X167894000Y-97824000D02*
X155948000Y-109770000D01*
X128620000Y-108262081D02*
X128620000Y-107060000D01*
X130127919Y-109770000D02*
X128620000Y-108262081D01*
X155948000Y-109770000D02*
X130127919Y-109770000D01*
D17*
%TO.N,/A4*%
X120630000Y-96900000D02*
X127950000Y-104220000D01*
X147720000Y-104220000D02*
X148000000Y-104500000D01*
X127950000Y-104220000D02*
X147720000Y-104220000D01*
%TD*%
D18*
%TO.N,/5V*%
X179856401Y-111116400D02*
X146466200Y-111116400D01*
X146466200Y-104601000D01*
X146920294Y-104601000D01*
X146920294Y-105350000D01*
X146924708Y-105394813D01*
X146937779Y-105437905D01*
X146959006Y-105477618D01*
X146987573Y-105512427D01*
X147022382Y-105540994D01*
X147062095Y-105562221D01*
X147105187Y-105575292D01*
X147150000Y-105579706D01*
X148850000Y-105579706D01*
X148894813Y-105575292D01*
X148937905Y-105562221D01*
X148977618Y-105540994D01*
X149012427Y-105512427D01*
X149040994Y-105477618D01*
X149062221Y-105437905D01*
X149075292Y-105394813D01*
X149079706Y-105350000D01*
X149079706Y-104393767D01*
X149461400Y-104393767D01*
X149461400Y-104606233D01*
X149502850Y-104814616D01*
X149584157Y-105010909D01*
X149702197Y-105187567D01*
X149852433Y-105337803D01*
X150029091Y-105455843D01*
X150225384Y-105537150D01*
X150433767Y-105578600D01*
X150646233Y-105578600D01*
X150854616Y-105537150D01*
X151050909Y-105455843D01*
X151227567Y-105337803D01*
X151377803Y-105187567D01*
X151495843Y-105010909D01*
X151577150Y-104814616D01*
X151618600Y-104606233D01*
X151618600Y-104393767D01*
X152001400Y-104393767D01*
X152001400Y-104606233D01*
X152042850Y-104814616D01*
X152124157Y-105010909D01*
X152242197Y-105187567D01*
X152392433Y-105337803D01*
X152569091Y-105455843D01*
X152765384Y-105537150D01*
X152973767Y-105578600D01*
X153186233Y-105578600D01*
X153394616Y-105537150D01*
X153590909Y-105455843D01*
X153767567Y-105337803D01*
X153917803Y-105187567D01*
X154035843Y-105010909D01*
X154117150Y-104814616D01*
X154158600Y-104606233D01*
X154158600Y-104393767D01*
X154541400Y-104393767D01*
X154541400Y-104606233D01*
X154582850Y-104814616D01*
X154664157Y-105010909D01*
X154782197Y-105187567D01*
X154932433Y-105337803D01*
X155109091Y-105455843D01*
X155305384Y-105537150D01*
X155513767Y-105578600D01*
X155726233Y-105578600D01*
X155934616Y-105537150D01*
X156130909Y-105455843D01*
X156307567Y-105337803D01*
X156457803Y-105187567D01*
X156575843Y-105010909D01*
X156657150Y-104814616D01*
X156698600Y-104606233D01*
X156698600Y-104393767D01*
X156657150Y-104185384D01*
X156575843Y-103989091D01*
X156457803Y-103812433D01*
X156307567Y-103662197D01*
X156130909Y-103544157D01*
X155934616Y-103462850D01*
X155726233Y-103421400D01*
X155513767Y-103421400D01*
X155305384Y-103462850D01*
X155109091Y-103544157D01*
X154932433Y-103662197D01*
X154782197Y-103812433D01*
X154664157Y-103989091D01*
X154582850Y-104185384D01*
X154541400Y-104393767D01*
X154158600Y-104393767D01*
X154117150Y-104185384D01*
X154035843Y-103989091D01*
X153917803Y-103812433D01*
X153767567Y-103662197D01*
X153590909Y-103544157D01*
X153394616Y-103462850D01*
X153186233Y-103421400D01*
X152973767Y-103421400D01*
X152765384Y-103462850D01*
X152569091Y-103544157D01*
X152392433Y-103662197D01*
X152242197Y-103812433D01*
X152124157Y-103989091D01*
X152042850Y-104185384D01*
X152001400Y-104393767D01*
X151618600Y-104393767D01*
X151577150Y-104185384D01*
X151495843Y-103989091D01*
X151377803Y-103812433D01*
X151227567Y-103662197D01*
X151050909Y-103544157D01*
X150854616Y-103462850D01*
X150646233Y-103421400D01*
X150433767Y-103421400D01*
X150225384Y-103462850D01*
X150029091Y-103544157D01*
X149852433Y-103662197D01*
X149702197Y-103812433D01*
X149584157Y-103989091D01*
X149502850Y-104185384D01*
X149461400Y-104393767D01*
X149079706Y-104393767D01*
X149079706Y-103650000D01*
X149075292Y-103605187D01*
X149062221Y-103562095D01*
X149040994Y-103522382D01*
X149012427Y-103487573D01*
X148977618Y-103459006D01*
X148937905Y-103437779D01*
X148894813Y-103424708D01*
X148850000Y-103420294D01*
X147150000Y-103420294D01*
X147105187Y-103424708D01*
X147062095Y-103437779D01*
X147022382Y-103459006D01*
X146987573Y-103487573D01*
X146959006Y-103522382D01*
X146937779Y-103562095D01*
X146924708Y-103605187D01*
X146920294Y-103650000D01*
X146920294Y-103839000D01*
X146466200Y-103839000D01*
X146466200Y-100477767D01*
X166815400Y-100477767D01*
X166815400Y-100690233D01*
X166856850Y-100898616D01*
X166938157Y-101094909D01*
X167056197Y-101271567D01*
X167206433Y-101421803D01*
X167383091Y-101539843D01*
X167579384Y-101621150D01*
X167787767Y-101662600D01*
X168000233Y-101662600D01*
X168208616Y-101621150D01*
X168404909Y-101539843D01*
X168581567Y-101421803D01*
X168731803Y-101271567D01*
X168849843Y-101094909D01*
X168931150Y-100898616D01*
X168972600Y-100690233D01*
X168972600Y-100477767D01*
X168931150Y-100269384D01*
X168849843Y-100073091D01*
X168731803Y-99896433D01*
X168581567Y-99746197D01*
X168404909Y-99628157D01*
X168208616Y-99546850D01*
X168000233Y-99505400D01*
X167787767Y-99505400D01*
X167579384Y-99546850D01*
X167383091Y-99628157D01*
X167206433Y-99746197D01*
X167056197Y-99896433D01*
X166938157Y-100073091D01*
X166856850Y-100269384D01*
X166815400Y-100477767D01*
X146466200Y-100477767D01*
X146466200Y-98894000D01*
X166661157Y-98894000D01*
X166668513Y-98968689D01*
X166690299Y-99040508D01*
X166725678Y-99106696D01*
X166773289Y-99164711D01*
X166831304Y-99212322D01*
X166897492Y-99247701D01*
X166969311Y-99269487D01*
X167044000Y-99276843D01*
X167722550Y-99275000D01*
X167817800Y-99179750D01*
X167817800Y-98120200D01*
X167970200Y-98120200D01*
X167970200Y-99179750D01*
X168065450Y-99275000D01*
X168744000Y-99276843D01*
X168818689Y-99269487D01*
X168890508Y-99247701D01*
X168956696Y-99212322D01*
X169014711Y-99164711D01*
X169062322Y-99106696D01*
X169097701Y-99040508D01*
X169119487Y-98968689D01*
X169126843Y-98894000D01*
X169125000Y-98215450D01*
X169029750Y-98120200D01*
X167970200Y-98120200D01*
X167817800Y-98120200D01*
X166758250Y-98120200D01*
X166663000Y-98215450D01*
X166661157Y-98894000D01*
X146466200Y-98894000D01*
X146466200Y-97194000D01*
X166661157Y-97194000D01*
X166663000Y-97872550D01*
X166758250Y-97967800D01*
X167817800Y-97967800D01*
X167817800Y-96908250D01*
X167970200Y-96908250D01*
X167970200Y-97967800D01*
X169029750Y-97967800D01*
X169125000Y-97872550D01*
X169126843Y-97194000D01*
X169119487Y-97119311D01*
X169097701Y-97047492D01*
X169062322Y-96981304D01*
X169014711Y-96923289D01*
X168956696Y-96875678D01*
X168890508Y-96840299D01*
X168818689Y-96818513D01*
X168744000Y-96811157D01*
X168065450Y-96813000D01*
X167970200Y-96908250D01*
X167817800Y-96908250D01*
X167722550Y-96813000D01*
X167044000Y-96811157D01*
X166969311Y-96818513D01*
X166897492Y-96840299D01*
X166831304Y-96875678D01*
X166773289Y-96923289D01*
X166725678Y-96981304D01*
X166690299Y-97047492D01*
X166668513Y-97119311D01*
X166661157Y-97194000D01*
X146466200Y-97194000D01*
X146466200Y-90620000D01*
X173640294Y-90620000D01*
X173640294Y-93620000D01*
X173644708Y-93664813D01*
X173657779Y-93707905D01*
X173679006Y-93747618D01*
X173707573Y-93782427D01*
X173742382Y-93810994D01*
X173782095Y-93832221D01*
X173825187Y-93845292D01*
X173870000Y-93849706D01*
X176870000Y-93849706D01*
X176914813Y-93845292D01*
X176957905Y-93832221D01*
X176997618Y-93810994D01*
X177032427Y-93782427D01*
X177060994Y-93747618D01*
X177082221Y-93707905D01*
X177095292Y-93664813D01*
X177099706Y-93620000D01*
X177099706Y-90620000D01*
X177095292Y-90575187D01*
X177082221Y-90532095D01*
X177060994Y-90492382D01*
X177032427Y-90457573D01*
X176997618Y-90429006D01*
X176957905Y-90407779D01*
X176914813Y-90394708D01*
X176870000Y-90390294D01*
X173870000Y-90390294D01*
X173825187Y-90394708D01*
X173782095Y-90407779D01*
X173742382Y-90429006D01*
X173707573Y-90457573D01*
X173679006Y-90492382D01*
X173657779Y-90532095D01*
X173644708Y-90575187D01*
X173640294Y-90620000D01*
X146466200Y-90620000D01*
X146466200Y-86126767D01*
X150051400Y-86126767D01*
X150051400Y-86339233D01*
X150092850Y-86547616D01*
X150174157Y-86743909D01*
X150292197Y-86920567D01*
X150442433Y-87070803D01*
X150619091Y-87188843D01*
X150815384Y-87270150D01*
X151023767Y-87311600D01*
X151236233Y-87311600D01*
X151444616Y-87270150D01*
X151640909Y-87188843D01*
X151817567Y-87070803D01*
X151967803Y-86920567D01*
X152085843Y-86743909D01*
X152167150Y-86547616D01*
X152208600Y-86339233D01*
X152208600Y-86126767D01*
X152591400Y-86126767D01*
X152591400Y-86339233D01*
X152632850Y-86547616D01*
X152714157Y-86743909D01*
X152832197Y-86920567D01*
X152982433Y-87070803D01*
X153159091Y-87188843D01*
X153355384Y-87270150D01*
X153563767Y-87311600D01*
X153776233Y-87311600D01*
X153984616Y-87270150D01*
X154180909Y-87188843D01*
X154357567Y-87070803D01*
X154507803Y-86920567D01*
X154625843Y-86743909D01*
X154707150Y-86547616D01*
X154748600Y-86339233D01*
X154748600Y-86126767D01*
X154707150Y-85918384D01*
X154625843Y-85722091D01*
X154507803Y-85545433D01*
X154357567Y-85395197D01*
X154339314Y-85383000D01*
X155130294Y-85383000D01*
X155130294Y-87083000D01*
X155134708Y-87127813D01*
X155147779Y-87170905D01*
X155169006Y-87210618D01*
X155197573Y-87245427D01*
X155232382Y-87273994D01*
X155272095Y-87295221D01*
X155315187Y-87308292D01*
X155360000Y-87312706D01*
X157060000Y-87312706D01*
X157104813Y-87308292D01*
X157147905Y-87295221D01*
X157187618Y-87273994D01*
X157222427Y-87245427D01*
X157250994Y-87210618D01*
X157272221Y-87170905D01*
X157285292Y-87127813D01*
X157289706Y-87083000D01*
X157289706Y-86126767D01*
X158687400Y-86126767D01*
X158687400Y-86339233D01*
X158728850Y-86547616D01*
X158810157Y-86743909D01*
X158928197Y-86920567D01*
X159078433Y-87070803D01*
X159255091Y-87188843D01*
X159451384Y-87270150D01*
X159659767Y-87311600D01*
X159872233Y-87311600D01*
X160080616Y-87270150D01*
X160276909Y-87188843D01*
X160453567Y-87070803D01*
X160603803Y-86920567D01*
X160721843Y-86743909D01*
X160803150Y-86547616D01*
X160844600Y-86339233D01*
X160844600Y-86126767D01*
X161227400Y-86126767D01*
X161227400Y-86339233D01*
X161268850Y-86547616D01*
X161350157Y-86743909D01*
X161468197Y-86920567D01*
X161618433Y-87070803D01*
X161795091Y-87188843D01*
X161991384Y-87270150D01*
X162199767Y-87311600D01*
X162412233Y-87311600D01*
X162620616Y-87270150D01*
X162816909Y-87188843D01*
X162993567Y-87070803D01*
X163143803Y-86920567D01*
X163261843Y-86743909D01*
X163343150Y-86547616D01*
X163384600Y-86339233D01*
X163384600Y-86126767D01*
X163767400Y-86126767D01*
X163767400Y-86339233D01*
X163808850Y-86547616D01*
X163890157Y-86743909D01*
X164008197Y-86920567D01*
X164158433Y-87070803D01*
X164335091Y-87188843D01*
X164531384Y-87270150D01*
X164739767Y-87311600D01*
X164952233Y-87311600D01*
X165160616Y-87270150D01*
X165356909Y-87188843D01*
X165533567Y-87070803D01*
X165683803Y-86920567D01*
X165801843Y-86743909D01*
X165883150Y-86547616D01*
X165924600Y-86339233D01*
X165924600Y-86126767D01*
X165883150Y-85918384D01*
X165801843Y-85722091D01*
X165683803Y-85545433D01*
X165533567Y-85395197D01*
X165515314Y-85383000D01*
X166306294Y-85383000D01*
X166306294Y-87083000D01*
X166310708Y-87127813D01*
X166323779Y-87170905D01*
X166345006Y-87210618D01*
X166373573Y-87245427D01*
X166408382Y-87273994D01*
X166448095Y-87295221D01*
X166491187Y-87308292D01*
X166536000Y-87312706D01*
X168236000Y-87312706D01*
X168280813Y-87308292D01*
X168323905Y-87295221D01*
X168363618Y-87273994D01*
X168398427Y-87245427D01*
X168426994Y-87210618D01*
X168448221Y-87170905D01*
X168461292Y-87127813D01*
X168465706Y-87083000D01*
X168465706Y-86869748D01*
X173641400Y-86869748D01*
X173641400Y-87210252D01*
X173707829Y-87544214D01*
X173838135Y-87858799D01*
X174027309Y-88141918D01*
X174268082Y-88382691D01*
X174551201Y-88571865D01*
X174865786Y-88702171D01*
X175199748Y-88768600D01*
X175540252Y-88768600D01*
X175874214Y-88702171D01*
X176188799Y-88571865D01*
X176471918Y-88382691D01*
X176712691Y-88141918D01*
X176901865Y-87858799D01*
X177032171Y-87544214D01*
X177098600Y-87210252D01*
X177098600Y-86869748D01*
X177032171Y-86535786D01*
X176901865Y-86221201D01*
X176712691Y-85938082D01*
X176471918Y-85697309D01*
X176188799Y-85508135D01*
X175874214Y-85377829D01*
X175540252Y-85311400D01*
X175199748Y-85311400D01*
X174865786Y-85377829D01*
X174551201Y-85508135D01*
X174268082Y-85697309D01*
X174027309Y-85938082D01*
X173838135Y-86221201D01*
X173707829Y-86535786D01*
X173641400Y-86869748D01*
X168465706Y-86869748D01*
X168465706Y-85383000D01*
X168461292Y-85338187D01*
X168448221Y-85295095D01*
X168426994Y-85255382D01*
X168398427Y-85220573D01*
X168363618Y-85192006D01*
X168323905Y-85170779D01*
X168280813Y-85157708D01*
X168236000Y-85153294D01*
X166536000Y-85153294D01*
X166491187Y-85157708D01*
X166448095Y-85170779D01*
X166408382Y-85192006D01*
X166373573Y-85220573D01*
X166345006Y-85255382D01*
X166323779Y-85295095D01*
X166310708Y-85338187D01*
X166306294Y-85383000D01*
X165515314Y-85383000D01*
X165356909Y-85277157D01*
X165160616Y-85195850D01*
X164952233Y-85154400D01*
X164739767Y-85154400D01*
X164531384Y-85195850D01*
X164335091Y-85277157D01*
X164158433Y-85395197D01*
X164008197Y-85545433D01*
X163890157Y-85722091D01*
X163808850Y-85918384D01*
X163767400Y-86126767D01*
X163384600Y-86126767D01*
X163343150Y-85918384D01*
X163261843Y-85722091D01*
X163143803Y-85545433D01*
X162993567Y-85395197D01*
X162816909Y-85277157D01*
X162620616Y-85195850D01*
X162412233Y-85154400D01*
X162199767Y-85154400D01*
X161991384Y-85195850D01*
X161795091Y-85277157D01*
X161618433Y-85395197D01*
X161468197Y-85545433D01*
X161350157Y-85722091D01*
X161268850Y-85918384D01*
X161227400Y-86126767D01*
X160844600Y-86126767D01*
X160803150Y-85918384D01*
X160721843Y-85722091D01*
X160603803Y-85545433D01*
X160453567Y-85395197D01*
X160276909Y-85277157D01*
X160080616Y-85195850D01*
X159872233Y-85154400D01*
X159659767Y-85154400D01*
X159451384Y-85195850D01*
X159255091Y-85277157D01*
X159078433Y-85395197D01*
X158928197Y-85545433D01*
X158810157Y-85722091D01*
X158728850Y-85918384D01*
X158687400Y-86126767D01*
X157289706Y-86126767D01*
X157289706Y-85383000D01*
X157285292Y-85338187D01*
X157272221Y-85295095D01*
X157250994Y-85255382D01*
X157222427Y-85220573D01*
X157187618Y-85192006D01*
X157147905Y-85170779D01*
X157104813Y-85157708D01*
X157060000Y-85153294D01*
X155360000Y-85153294D01*
X155315187Y-85157708D01*
X155272095Y-85170779D01*
X155232382Y-85192006D01*
X155197573Y-85220573D01*
X155169006Y-85255382D01*
X155147779Y-85295095D01*
X155134708Y-85338187D01*
X155130294Y-85383000D01*
X154339314Y-85383000D01*
X154180909Y-85277157D01*
X153984616Y-85195850D01*
X153776233Y-85154400D01*
X153563767Y-85154400D01*
X153355384Y-85195850D01*
X153159091Y-85277157D01*
X152982433Y-85395197D01*
X152832197Y-85545433D01*
X152714157Y-85722091D01*
X152632850Y-85918384D01*
X152591400Y-86126767D01*
X152208600Y-86126767D01*
X152167150Y-85918384D01*
X152085843Y-85722091D01*
X151967803Y-85545433D01*
X151817567Y-85395197D01*
X151640909Y-85277157D01*
X151444616Y-85195850D01*
X151236233Y-85154400D01*
X151023767Y-85154400D01*
X150815384Y-85195850D01*
X150619091Y-85277157D01*
X150442433Y-85395197D01*
X150292197Y-85545433D01*
X150174157Y-85722091D01*
X150092850Y-85918384D01*
X150051400Y-86126767D01*
X146466200Y-86126767D01*
X146466200Y-80173600D01*
X179856400Y-80173600D01*
X179856401Y-111116400D01*
%TA.AperFunction,Conductor*%
D19*
G36*
X179856401Y-111116400D02*
G01*
X146466200Y-111116400D01*
X146466200Y-104601000D01*
X146920294Y-104601000D01*
X146920294Y-105350000D01*
X146924708Y-105394813D01*
X146937779Y-105437905D01*
X146959006Y-105477618D01*
X146987573Y-105512427D01*
X147022382Y-105540994D01*
X147062095Y-105562221D01*
X147105187Y-105575292D01*
X147150000Y-105579706D01*
X148850000Y-105579706D01*
X148894813Y-105575292D01*
X148937905Y-105562221D01*
X148977618Y-105540994D01*
X149012427Y-105512427D01*
X149040994Y-105477618D01*
X149062221Y-105437905D01*
X149075292Y-105394813D01*
X149079706Y-105350000D01*
X149079706Y-104393767D01*
X149461400Y-104393767D01*
X149461400Y-104606233D01*
X149502850Y-104814616D01*
X149584157Y-105010909D01*
X149702197Y-105187567D01*
X149852433Y-105337803D01*
X150029091Y-105455843D01*
X150225384Y-105537150D01*
X150433767Y-105578600D01*
X150646233Y-105578600D01*
X150854616Y-105537150D01*
X151050909Y-105455843D01*
X151227567Y-105337803D01*
X151377803Y-105187567D01*
X151495843Y-105010909D01*
X151577150Y-104814616D01*
X151618600Y-104606233D01*
X151618600Y-104393767D01*
X152001400Y-104393767D01*
X152001400Y-104606233D01*
X152042850Y-104814616D01*
X152124157Y-105010909D01*
X152242197Y-105187567D01*
X152392433Y-105337803D01*
X152569091Y-105455843D01*
X152765384Y-105537150D01*
X152973767Y-105578600D01*
X153186233Y-105578600D01*
X153394616Y-105537150D01*
X153590909Y-105455843D01*
X153767567Y-105337803D01*
X153917803Y-105187567D01*
X154035843Y-105010909D01*
X154117150Y-104814616D01*
X154158600Y-104606233D01*
X154158600Y-104393767D01*
X154541400Y-104393767D01*
X154541400Y-104606233D01*
X154582850Y-104814616D01*
X154664157Y-105010909D01*
X154782197Y-105187567D01*
X154932433Y-105337803D01*
X155109091Y-105455843D01*
X155305384Y-105537150D01*
X155513767Y-105578600D01*
X155726233Y-105578600D01*
X155934616Y-105537150D01*
X156130909Y-105455843D01*
X156307567Y-105337803D01*
X156457803Y-105187567D01*
X156575843Y-105010909D01*
X156657150Y-104814616D01*
X156698600Y-104606233D01*
X156698600Y-104393767D01*
X156657150Y-104185384D01*
X156575843Y-103989091D01*
X156457803Y-103812433D01*
X156307567Y-103662197D01*
X156130909Y-103544157D01*
X155934616Y-103462850D01*
X155726233Y-103421400D01*
X155513767Y-103421400D01*
X155305384Y-103462850D01*
X155109091Y-103544157D01*
X154932433Y-103662197D01*
X154782197Y-103812433D01*
X154664157Y-103989091D01*
X154582850Y-104185384D01*
X154541400Y-104393767D01*
X154158600Y-104393767D01*
X154117150Y-104185384D01*
X154035843Y-103989091D01*
X153917803Y-103812433D01*
X153767567Y-103662197D01*
X153590909Y-103544157D01*
X153394616Y-103462850D01*
X153186233Y-103421400D01*
X152973767Y-103421400D01*
X152765384Y-103462850D01*
X152569091Y-103544157D01*
X152392433Y-103662197D01*
X152242197Y-103812433D01*
X152124157Y-103989091D01*
X152042850Y-104185384D01*
X152001400Y-104393767D01*
X151618600Y-104393767D01*
X151577150Y-104185384D01*
X151495843Y-103989091D01*
X151377803Y-103812433D01*
X151227567Y-103662197D01*
X151050909Y-103544157D01*
X150854616Y-103462850D01*
X150646233Y-103421400D01*
X150433767Y-103421400D01*
X150225384Y-103462850D01*
X150029091Y-103544157D01*
X149852433Y-103662197D01*
X149702197Y-103812433D01*
X149584157Y-103989091D01*
X149502850Y-104185384D01*
X149461400Y-104393767D01*
X149079706Y-104393767D01*
X149079706Y-103650000D01*
X149075292Y-103605187D01*
X149062221Y-103562095D01*
X149040994Y-103522382D01*
X149012427Y-103487573D01*
X148977618Y-103459006D01*
X148937905Y-103437779D01*
X148894813Y-103424708D01*
X148850000Y-103420294D01*
X147150000Y-103420294D01*
X147105187Y-103424708D01*
X147062095Y-103437779D01*
X147022382Y-103459006D01*
X146987573Y-103487573D01*
X146959006Y-103522382D01*
X146937779Y-103562095D01*
X146924708Y-103605187D01*
X146920294Y-103650000D01*
X146920294Y-103839000D01*
X146466200Y-103839000D01*
X146466200Y-100477767D01*
X166815400Y-100477767D01*
X166815400Y-100690233D01*
X166856850Y-100898616D01*
X166938157Y-101094909D01*
X167056197Y-101271567D01*
X167206433Y-101421803D01*
X167383091Y-101539843D01*
X167579384Y-101621150D01*
X167787767Y-101662600D01*
X168000233Y-101662600D01*
X168208616Y-101621150D01*
X168404909Y-101539843D01*
X168581567Y-101421803D01*
X168731803Y-101271567D01*
X168849843Y-101094909D01*
X168931150Y-100898616D01*
X168972600Y-100690233D01*
X168972600Y-100477767D01*
X168931150Y-100269384D01*
X168849843Y-100073091D01*
X168731803Y-99896433D01*
X168581567Y-99746197D01*
X168404909Y-99628157D01*
X168208616Y-99546850D01*
X168000233Y-99505400D01*
X167787767Y-99505400D01*
X167579384Y-99546850D01*
X167383091Y-99628157D01*
X167206433Y-99746197D01*
X167056197Y-99896433D01*
X166938157Y-100073091D01*
X166856850Y-100269384D01*
X166815400Y-100477767D01*
X146466200Y-100477767D01*
X146466200Y-98894000D01*
X166661157Y-98894000D01*
X166668513Y-98968689D01*
X166690299Y-99040508D01*
X166725678Y-99106696D01*
X166773289Y-99164711D01*
X166831304Y-99212322D01*
X166897492Y-99247701D01*
X166969311Y-99269487D01*
X167044000Y-99276843D01*
X167722550Y-99275000D01*
X167817800Y-99179750D01*
X167817800Y-98120200D01*
X167970200Y-98120200D01*
X167970200Y-99179750D01*
X168065450Y-99275000D01*
X168744000Y-99276843D01*
X168818689Y-99269487D01*
X168890508Y-99247701D01*
X168956696Y-99212322D01*
X169014711Y-99164711D01*
X169062322Y-99106696D01*
X169097701Y-99040508D01*
X169119487Y-98968689D01*
X169126843Y-98894000D01*
X169125000Y-98215450D01*
X169029750Y-98120200D01*
X167970200Y-98120200D01*
X167817800Y-98120200D01*
X166758250Y-98120200D01*
X166663000Y-98215450D01*
X166661157Y-98894000D01*
X146466200Y-98894000D01*
X146466200Y-97194000D01*
X166661157Y-97194000D01*
X166663000Y-97872550D01*
X166758250Y-97967800D01*
X167817800Y-97967800D01*
X167817800Y-96908250D01*
X167970200Y-96908250D01*
X167970200Y-97967800D01*
X169029750Y-97967800D01*
X169125000Y-97872550D01*
X169126843Y-97194000D01*
X169119487Y-97119311D01*
X169097701Y-97047492D01*
X169062322Y-96981304D01*
X169014711Y-96923289D01*
X168956696Y-96875678D01*
X168890508Y-96840299D01*
X168818689Y-96818513D01*
X168744000Y-96811157D01*
X168065450Y-96813000D01*
X167970200Y-96908250D01*
X167817800Y-96908250D01*
X167722550Y-96813000D01*
X167044000Y-96811157D01*
X166969311Y-96818513D01*
X166897492Y-96840299D01*
X166831304Y-96875678D01*
X166773289Y-96923289D01*
X166725678Y-96981304D01*
X166690299Y-97047492D01*
X166668513Y-97119311D01*
X166661157Y-97194000D01*
X146466200Y-97194000D01*
X146466200Y-90620000D01*
X173640294Y-90620000D01*
X173640294Y-93620000D01*
X173644708Y-93664813D01*
X173657779Y-93707905D01*
X173679006Y-93747618D01*
X173707573Y-93782427D01*
X173742382Y-93810994D01*
X173782095Y-93832221D01*
X173825187Y-93845292D01*
X173870000Y-93849706D01*
X176870000Y-93849706D01*
X176914813Y-93845292D01*
X176957905Y-93832221D01*
X176997618Y-93810994D01*
X177032427Y-93782427D01*
X177060994Y-93747618D01*
X177082221Y-93707905D01*
X177095292Y-93664813D01*
X177099706Y-93620000D01*
X177099706Y-90620000D01*
X177095292Y-90575187D01*
X177082221Y-90532095D01*
X177060994Y-90492382D01*
X177032427Y-90457573D01*
X176997618Y-90429006D01*
X176957905Y-90407779D01*
X176914813Y-90394708D01*
X176870000Y-90390294D01*
X173870000Y-90390294D01*
X173825187Y-90394708D01*
X173782095Y-90407779D01*
X173742382Y-90429006D01*
X173707573Y-90457573D01*
X173679006Y-90492382D01*
X173657779Y-90532095D01*
X173644708Y-90575187D01*
X173640294Y-90620000D01*
X146466200Y-90620000D01*
X146466200Y-86126767D01*
X150051400Y-86126767D01*
X150051400Y-86339233D01*
X150092850Y-86547616D01*
X150174157Y-86743909D01*
X150292197Y-86920567D01*
X150442433Y-87070803D01*
X150619091Y-87188843D01*
X150815384Y-87270150D01*
X151023767Y-87311600D01*
X151236233Y-87311600D01*
X151444616Y-87270150D01*
X151640909Y-87188843D01*
X151817567Y-87070803D01*
X151967803Y-86920567D01*
X152085843Y-86743909D01*
X152167150Y-86547616D01*
X152208600Y-86339233D01*
X152208600Y-86126767D01*
X152591400Y-86126767D01*
X152591400Y-86339233D01*
X152632850Y-86547616D01*
X152714157Y-86743909D01*
X152832197Y-86920567D01*
X152982433Y-87070803D01*
X153159091Y-87188843D01*
X153355384Y-87270150D01*
X153563767Y-87311600D01*
X153776233Y-87311600D01*
X153984616Y-87270150D01*
X154180909Y-87188843D01*
X154357567Y-87070803D01*
X154507803Y-86920567D01*
X154625843Y-86743909D01*
X154707150Y-86547616D01*
X154748600Y-86339233D01*
X154748600Y-86126767D01*
X154707150Y-85918384D01*
X154625843Y-85722091D01*
X154507803Y-85545433D01*
X154357567Y-85395197D01*
X154339314Y-85383000D01*
X155130294Y-85383000D01*
X155130294Y-87083000D01*
X155134708Y-87127813D01*
X155147779Y-87170905D01*
X155169006Y-87210618D01*
X155197573Y-87245427D01*
X155232382Y-87273994D01*
X155272095Y-87295221D01*
X155315187Y-87308292D01*
X155360000Y-87312706D01*
X157060000Y-87312706D01*
X157104813Y-87308292D01*
X157147905Y-87295221D01*
X157187618Y-87273994D01*
X157222427Y-87245427D01*
X157250994Y-87210618D01*
X157272221Y-87170905D01*
X157285292Y-87127813D01*
X157289706Y-87083000D01*
X157289706Y-86126767D01*
X158687400Y-86126767D01*
X158687400Y-86339233D01*
X158728850Y-86547616D01*
X158810157Y-86743909D01*
X158928197Y-86920567D01*
X159078433Y-87070803D01*
X159255091Y-87188843D01*
X159451384Y-87270150D01*
X159659767Y-87311600D01*
X159872233Y-87311600D01*
X160080616Y-87270150D01*
X160276909Y-87188843D01*
X160453567Y-87070803D01*
X160603803Y-86920567D01*
X160721843Y-86743909D01*
X160803150Y-86547616D01*
X160844600Y-86339233D01*
X160844600Y-86126767D01*
X161227400Y-86126767D01*
X161227400Y-86339233D01*
X161268850Y-86547616D01*
X161350157Y-86743909D01*
X161468197Y-86920567D01*
X161618433Y-87070803D01*
X161795091Y-87188843D01*
X161991384Y-87270150D01*
X162199767Y-87311600D01*
X162412233Y-87311600D01*
X162620616Y-87270150D01*
X162816909Y-87188843D01*
X162993567Y-87070803D01*
X163143803Y-86920567D01*
X163261843Y-86743909D01*
X163343150Y-86547616D01*
X163384600Y-86339233D01*
X163384600Y-86126767D01*
X163767400Y-86126767D01*
X163767400Y-86339233D01*
X163808850Y-86547616D01*
X163890157Y-86743909D01*
X164008197Y-86920567D01*
X164158433Y-87070803D01*
X164335091Y-87188843D01*
X164531384Y-87270150D01*
X164739767Y-87311600D01*
X164952233Y-87311600D01*
X165160616Y-87270150D01*
X165356909Y-87188843D01*
X165533567Y-87070803D01*
X165683803Y-86920567D01*
X165801843Y-86743909D01*
X165883150Y-86547616D01*
X165924600Y-86339233D01*
X165924600Y-86126767D01*
X165883150Y-85918384D01*
X165801843Y-85722091D01*
X165683803Y-85545433D01*
X165533567Y-85395197D01*
X165515314Y-85383000D01*
X166306294Y-85383000D01*
X166306294Y-87083000D01*
X166310708Y-87127813D01*
X166323779Y-87170905D01*
X166345006Y-87210618D01*
X166373573Y-87245427D01*
X166408382Y-87273994D01*
X166448095Y-87295221D01*
X166491187Y-87308292D01*
X166536000Y-87312706D01*
X168236000Y-87312706D01*
X168280813Y-87308292D01*
X168323905Y-87295221D01*
X168363618Y-87273994D01*
X168398427Y-87245427D01*
X168426994Y-87210618D01*
X168448221Y-87170905D01*
X168461292Y-87127813D01*
X168465706Y-87083000D01*
X168465706Y-86869748D01*
X173641400Y-86869748D01*
X173641400Y-87210252D01*
X173707829Y-87544214D01*
X173838135Y-87858799D01*
X174027309Y-88141918D01*
X174268082Y-88382691D01*
X174551201Y-88571865D01*
X174865786Y-88702171D01*
X175199748Y-88768600D01*
X175540252Y-88768600D01*
X175874214Y-88702171D01*
X176188799Y-88571865D01*
X176471918Y-88382691D01*
X176712691Y-88141918D01*
X176901865Y-87858799D01*
X177032171Y-87544214D01*
X177098600Y-87210252D01*
X177098600Y-86869748D01*
X177032171Y-86535786D01*
X176901865Y-86221201D01*
X176712691Y-85938082D01*
X176471918Y-85697309D01*
X176188799Y-85508135D01*
X175874214Y-85377829D01*
X175540252Y-85311400D01*
X175199748Y-85311400D01*
X174865786Y-85377829D01*
X174551201Y-85508135D01*
X174268082Y-85697309D01*
X174027309Y-85938082D01*
X173838135Y-86221201D01*
X173707829Y-86535786D01*
X173641400Y-86869748D01*
X168465706Y-86869748D01*
X168465706Y-85383000D01*
X168461292Y-85338187D01*
X168448221Y-85295095D01*
X168426994Y-85255382D01*
X168398427Y-85220573D01*
X168363618Y-85192006D01*
X168323905Y-85170779D01*
X168280813Y-85157708D01*
X168236000Y-85153294D01*
X166536000Y-85153294D01*
X166491187Y-85157708D01*
X166448095Y-85170779D01*
X166408382Y-85192006D01*
X166373573Y-85220573D01*
X166345006Y-85255382D01*
X166323779Y-85295095D01*
X166310708Y-85338187D01*
X166306294Y-85383000D01*
X165515314Y-85383000D01*
X165356909Y-85277157D01*
X165160616Y-85195850D01*
X164952233Y-85154400D01*
X164739767Y-85154400D01*
X164531384Y-85195850D01*
X164335091Y-85277157D01*
X164158433Y-85395197D01*
X164008197Y-85545433D01*
X163890157Y-85722091D01*
X163808850Y-85918384D01*
X163767400Y-86126767D01*
X163384600Y-86126767D01*
X163343150Y-85918384D01*
X163261843Y-85722091D01*
X163143803Y-85545433D01*
X162993567Y-85395197D01*
X162816909Y-85277157D01*
X162620616Y-85195850D01*
X162412233Y-85154400D01*
X162199767Y-85154400D01*
X161991384Y-85195850D01*
X161795091Y-85277157D01*
X161618433Y-85395197D01*
X161468197Y-85545433D01*
X161350157Y-85722091D01*
X161268850Y-85918384D01*
X161227400Y-86126767D01*
X160844600Y-86126767D01*
X160803150Y-85918384D01*
X160721843Y-85722091D01*
X160603803Y-85545433D01*
X160453567Y-85395197D01*
X160276909Y-85277157D01*
X160080616Y-85195850D01*
X159872233Y-85154400D01*
X159659767Y-85154400D01*
X159451384Y-85195850D01*
X159255091Y-85277157D01*
X159078433Y-85395197D01*
X158928197Y-85545433D01*
X158810157Y-85722091D01*
X158728850Y-85918384D01*
X158687400Y-86126767D01*
X157289706Y-86126767D01*
X157289706Y-85383000D01*
X157285292Y-85338187D01*
X157272221Y-85295095D01*
X157250994Y-85255382D01*
X157222427Y-85220573D01*
X157187618Y-85192006D01*
X157147905Y-85170779D01*
X157104813Y-85157708D01*
X157060000Y-85153294D01*
X155360000Y-85153294D01*
X155315187Y-85157708D01*
X155272095Y-85170779D01*
X155232382Y-85192006D01*
X155197573Y-85220573D01*
X155169006Y-85255382D01*
X155147779Y-85295095D01*
X155134708Y-85338187D01*
X155130294Y-85383000D01*
X154339314Y-85383000D01*
X154180909Y-85277157D01*
X153984616Y-85195850D01*
X153776233Y-85154400D01*
X153563767Y-85154400D01*
X153355384Y-85195850D01*
X153159091Y-85277157D01*
X152982433Y-85395197D01*
X152832197Y-85545433D01*
X152714157Y-85722091D01*
X152632850Y-85918384D01*
X152591400Y-86126767D01*
X152208600Y-86126767D01*
X152167150Y-85918384D01*
X152085843Y-85722091D01*
X151967803Y-85545433D01*
X151817567Y-85395197D01*
X151640909Y-85277157D01*
X151444616Y-85195850D01*
X151236233Y-85154400D01*
X151023767Y-85154400D01*
X150815384Y-85195850D01*
X150619091Y-85277157D01*
X150442433Y-85395197D01*
X150292197Y-85545433D01*
X150174157Y-85722091D01*
X150092850Y-85918384D01*
X150051400Y-86126767D01*
X146466200Y-86126767D01*
X146466200Y-80173600D01*
X179856400Y-80173600D01*
X179856401Y-111116400D01*
G37*
%TD.AperFunction*%
%TD*%
D18*
%TO.N,/Vbb*%
X145903800Y-103839000D02*
X128107815Y-103839000D01*
X121613340Y-97344526D01*
X121667150Y-97214616D01*
X121708600Y-97006233D01*
X121708600Y-96793767D01*
X121706600Y-96783712D01*
X141928500Y-96783712D01*
X141928500Y-96896288D01*
X141950463Y-97006700D01*
X141993543Y-97110707D01*
X142056087Y-97204310D01*
X142135690Y-97283913D01*
X142229293Y-97346457D01*
X142333300Y-97389537D01*
X142443712Y-97411500D01*
X142556288Y-97411500D01*
X142666700Y-97389537D01*
X142770707Y-97346457D01*
X142864310Y-97283913D01*
X142943913Y-97204310D01*
X143006457Y-97110707D01*
X143022595Y-97071746D01*
X144468645Y-95625696D01*
X144488995Y-95608995D01*
X144555651Y-95527775D01*
X144605181Y-95435111D01*
X144635681Y-95334565D01*
X144643400Y-95256195D01*
X144643400Y-95256187D01*
X144645979Y-95230000D01*
X144643400Y-95203813D01*
X144643400Y-94265659D01*
X144659537Y-94226700D01*
X144681500Y-94116288D01*
X144681500Y-94003712D01*
X144659537Y-93893300D01*
X144616457Y-93789293D01*
X144553913Y-93695690D01*
X144474310Y-93616087D01*
X144380707Y-93553543D01*
X144276700Y-93510463D01*
X144166288Y-93488500D01*
X144053712Y-93488500D01*
X143943300Y-93510463D01*
X143839293Y-93553543D01*
X143745690Y-93616087D01*
X143666087Y-93695690D01*
X143603543Y-93789293D01*
X143560463Y-93893300D01*
X143538500Y-94003712D01*
X143538500Y-94116288D01*
X143560463Y-94226700D01*
X143576600Y-94265660D01*
X143576601Y-95009058D01*
X142268254Y-96317405D01*
X142229293Y-96333543D01*
X142135690Y-96396087D01*
X142056087Y-96475690D01*
X141993543Y-96569293D01*
X141950463Y-96673300D01*
X141928500Y-96783712D01*
X121706600Y-96783712D01*
X121667150Y-96585384D01*
X121585843Y-96389091D01*
X121467803Y-96212433D01*
X121317567Y-96062197D01*
X121140909Y-95944157D01*
X120944616Y-95862850D01*
X120736233Y-95821400D01*
X120523767Y-95821400D01*
X120315384Y-95862850D01*
X120119091Y-95944157D01*
X119942433Y-96062197D01*
X119792197Y-96212433D01*
X119674157Y-96389091D01*
X119592850Y-96585384D01*
X119551400Y-96793767D01*
X119551400Y-97006233D01*
X119592850Y-97214616D01*
X119674157Y-97410909D01*
X119792197Y-97587567D01*
X119942433Y-97737803D01*
X120119091Y-97855843D01*
X120315384Y-97937150D01*
X120523767Y-97978600D01*
X120736233Y-97978600D01*
X120944616Y-97937150D01*
X121074526Y-97883340D01*
X127667359Y-104476174D01*
X127679289Y-104490711D01*
X127693824Y-104502639D01*
X127737303Y-104538322D01*
X127760359Y-104550645D01*
X127803492Y-104573701D01*
X127875311Y-104595487D01*
X127931287Y-104601000D01*
X127931296Y-104601000D01*
X127949999Y-104602842D01*
X127968702Y-104601000D01*
X145903800Y-104601000D01*
X145903800Y-108931800D01*
X130475112Y-108931800D01*
X129458200Y-107914888D01*
X129458200Y-107910000D01*
X129927157Y-107910000D01*
X129934513Y-107984689D01*
X129956299Y-108056508D01*
X129991678Y-108122696D01*
X130039289Y-108180711D01*
X130097304Y-108228322D01*
X130163492Y-108263701D01*
X130235311Y-108285487D01*
X130310000Y-108292843D01*
X130988550Y-108291000D01*
X131083800Y-108195750D01*
X131083800Y-107136200D01*
X131236200Y-107136200D01*
X131236200Y-108195750D01*
X131331450Y-108291000D01*
X132010000Y-108292843D01*
X132084689Y-108285487D01*
X132156508Y-108263701D01*
X132222696Y-108228322D01*
X132280711Y-108180711D01*
X132328322Y-108122696D01*
X132363701Y-108056508D01*
X132385487Y-107984689D01*
X132392843Y-107910000D01*
X132391000Y-107231450D01*
X132295750Y-107136200D01*
X131236200Y-107136200D01*
X131083800Y-107136200D01*
X130024250Y-107136200D01*
X129929000Y-107231450D01*
X129927157Y-107910000D01*
X129458200Y-107910000D01*
X129458200Y-107746973D01*
X129575843Y-107570909D01*
X129657150Y-107374616D01*
X129698600Y-107166233D01*
X129698600Y-106953767D01*
X129657150Y-106745384D01*
X129575843Y-106549091D01*
X129457803Y-106372433D01*
X129307567Y-106222197D01*
X129289314Y-106210000D01*
X129927157Y-106210000D01*
X129929000Y-106888550D01*
X130024250Y-106983800D01*
X131083800Y-106983800D01*
X131083800Y-105924250D01*
X131236200Y-105924250D01*
X131236200Y-106983800D01*
X132295750Y-106983800D01*
X132391000Y-106888550D01*
X132392843Y-106210000D01*
X132385487Y-106135311D01*
X132363701Y-106063492D01*
X132328322Y-105997304D01*
X132280711Y-105939289D01*
X132222696Y-105891678D01*
X132156508Y-105856299D01*
X132084689Y-105834513D01*
X132010000Y-105827157D01*
X131331450Y-105829000D01*
X131236200Y-105924250D01*
X131083800Y-105924250D01*
X130988550Y-105829000D01*
X130310000Y-105827157D01*
X130235311Y-105834513D01*
X130163492Y-105856299D01*
X130097304Y-105891678D01*
X130039289Y-105939289D01*
X129991678Y-105997304D01*
X129956299Y-106063492D01*
X129934513Y-106135311D01*
X129927157Y-106210000D01*
X129289314Y-106210000D01*
X129130909Y-106104157D01*
X128934616Y-106022850D01*
X128726233Y-105981400D01*
X128513767Y-105981400D01*
X128305384Y-106022850D01*
X128109091Y-106104157D01*
X127932433Y-106222197D01*
X127782197Y-106372433D01*
X127664157Y-106549091D01*
X127582850Y-106745384D01*
X127541400Y-106953767D01*
X127541400Y-107166233D01*
X127582850Y-107374616D01*
X127664157Y-107570909D01*
X127781800Y-107746974D01*
X127781800Y-108220918D01*
X127777746Y-108262081D01*
X127781800Y-108303244D01*
X127781800Y-108303250D01*
X127793929Y-108426396D01*
X127841858Y-108584397D01*
X127919691Y-108730012D01*
X128024436Y-108857645D01*
X128056418Y-108883892D01*
X129506108Y-110333582D01*
X129532355Y-110365564D01*
X129659987Y-110470309D01*
X129805602Y-110548142D01*
X129963603Y-110596071D01*
X130086749Y-110608200D01*
X130127919Y-110612255D01*
X130169089Y-110608200D01*
X145903800Y-110608200D01*
X145903800Y-111116400D01*
X116803600Y-111116400D01*
X116803600Y-103670000D01*
X119550294Y-103670000D01*
X119550294Y-105370000D01*
X119554708Y-105414813D01*
X119567779Y-105457905D01*
X119589006Y-105497618D01*
X119617573Y-105532427D01*
X119652382Y-105560994D01*
X119692095Y-105582221D01*
X119735187Y-105595292D01*
X119780000Y-105599706D01*
X121480000Y-105599706D01*
X121524813Y-105595292D01*
X121567905Y-105582221D01*
X121607618Y-105560994D01*
X121642427Y-105532427D01*
X121670994Y-105497618D01*
X121692221Y-105457905D01*
X121705292Y-105414813D01*
X121709706Y-105370000D01*
X121709706Y-103670000D01*
X121705292Y-103625187D01*
X121692221Y-103582095D01*
X121670994Y-103542382D01*
X121642427Y-103507573D01*
X121607618Y-103479006D01*
X121567905Y-103457779D01*
X121524813Y-103444708D01*
X121480000Y-103440294D01*
X119780000Y-103440294D01*
X119735187Y-103444708D01*
X119692095Y-103457779D01*
X119652382Y-103479006D01*
X119617573Y-103507573D01*
X119589006Y-103542382D01*
X119567779Y-103582095D01*
X119554708Y-103625187D01*
X119550294Y-103670000D01*
X116803600Y-103670000D01*
X116803600Y-102247463D01*
X119428408Y-102247463D01*
X119482314Y-102425182D01*
X119591217Y-102640530D01*
X119740040Y-102830495D01*
X119923064Y-102987776D01*
X120133255Y-103106328D01*
X120362536Y-103181596D01*
X120553800Y-103113393D01*
X120553800Y-102056200D01*
X120706200Y-102056200D01*
X120706200Y-103113393D01*
X120897464Y-103181596D01*
X121126745Y-103106328D01*
X121336936Y-102987776D01*
X121519960Y-102830495D01*
X121668783Y-102640530D01*
X121777686Y-102425182D01*
X121831592Y-102247463D01*
X121763191Y-102056200D01*
X120706200Y-102056200D01*
X120553800Y-102056200D01*
X119496809Y-102056200D01*
X119428408Y-102247463D01*
X116803600Y-102247463D01*
X116803600Y-101712537D01*
X119428408Y-101712537D01*
X119496809Y-101903800D01*
X120553800Y-101903800D01*
X120553800Y-100846607D01*
X120706200Y-100846607D01*
X120706200Y-101903800D01*
X121763191Y-101903800D01*
X121831592Y-101712537D01*
X121777686Y-101534818D01*
X121668783Y-101319470D01*
X121519960Y-101129505D01*
X121336936Y-100972224D01*
X121126745Y-100853672D01*
X120897464Y-100778404D01*
X120706200Y-100846607D01*
X120553800Y-100846607D01*
X120362536Y-100778404D01*
X120133255Y-100853672D01*
X119923064Y-100972224D01*
X119740040Y-101129505D01*
X119591217Y-101319470D01*
X119482314Y-101534818D01*
X119428408Y-101712537D01*
X116803600Y-101712537D01*
X116803600Y-99333767D01*
X119551400Y-99333767D01*
X119551400Y-99546233D01*
X119592850Y-99754616D01*
X119674157Y-99950909D01*
X119792197Y-100127567D01*
X119942433Y-100277803D01*
X120119091Y-100395843D01*
X120315384Y-100477150D01*
X120523767Y-100518600D01*
X120736233Y-100518600D01*
X120944616Y-100477150D01*
X121140909Y-100395843D01*
X121317567Y-100277803D01*
X121467803Y-100127567D01*
X121585843Y-99950909D01*
X121667150Y-99754616D01*
X121708600Y-99546233D01*
X121708600Y-99333767D01*
X121667150Y-99125384D01*
X121585843Y-98929091D01*
X121467803Y-98752433D01*
X121317567Y-98602197D01*
X121140909Y-98484157D01*
X120944616Y-98402850D01*
X120736233Y-98361400D01*
X120523767Y-98361400D01*
X120315384Y-98402850D01*
X120119091Y-98484157D01*
X119942433Y-98602197D01*
X119792197Y-98752433D01*
X119674157Y-98929091D01*
X119592850Y-99125384D01*
X119551400Y-99333767D01*
X116803600Y-99333767D01*
X116803600Y-94253767D01*
X119551400Y-94253767D01*
X119551400Y-94466233D01*
X119592850Y-94674616D01*
X119674157Y-94870909D01*
X119792197Y-95047567D01*
X119942433Y-95197803D01*
X120119091Y-95315843D01*
X120315384Y-95397150D01*
X120523767Y-95438600D01*
X120736233Y-95438600D01*
X120944616Y-95397150D01*
X121140909Y-95315843D01*
X121317567Y-95197803D01*
X121467803Y-95047567D01*
X121585843Y-94870909D01*
X121667150Y-94674616D01*
X121708600Y-94466233D01*
X121708600Y-94253767D01*
X121667150Y-94045384D01*
X121585843Y-93849091D01*
X121467803Y-93672433D01*
X121317567Y-93522197D01*
X121140909Y-93404157D01*
X120944616Y-93322850D01*
X120736233Y-93281400D01*
X120523767Y-93281400D01*
X120315384Y-93322850D01*
X120119091Y-93404157D01*
X119942433Y-93522197D01*
X119792197Y-93672433D01*
X119674157Y-93849091D01*
X119592850Y-94045384D01*
X119551400Y-94253767D01*
X116803600Y-94253767D01*
X116803600Y-91713767D01*
X119551400Y-91713767D01*
X119551400Y-91926233D01*
X119592850Y-92134616D01*
X119674157Y-92330909D01*
X119792197Y-92507567D01*
X119942433Y-92657803D01*
X120119091Y-92775843D01*
X120315384Y-92857150D01*
X120523767Y-92898600D01*
X120736233Y-92898600D01*
X120944616Y-92857150D01*
X121140909Y-92775843D01*
X121317567Y-92657803D01*
X121467803Y-92507567D01*
X121585843Y-92330909D01*
X121667150Y-92134616D01*
X121708600Y-91926233D01*
X121708600Y-91713767D01*
X121667150Y-91505384D01*
X121585843Y-91309091D01*
X121467803Y-91132433D01*
X121317567Y-90982197D01*
X121140909Y-90864157D01*
X120944616Y-90782850D01*
X120736233Y-90741400D01*
X120523767Y-90741400D01*
X120315384Y-90782850D01*
X120119091Y-90864157D01*
X119942433Y-90982197D01*
X119792197Y-91132433D01*
X119674157Y-91309091D01*
X119592850Y-91505384D01*
X119551400Y-91713767D01*
X116803600Y-91713767D01*
X116803600Y-89173767D01*
X119551400Y-89173767D01*
X119551400Y-89386233D01*
X119592850Y-89594616D01*
X119674157Y-89790909D01*
X119792197Y-89967567D01*
X119942433Y-90117803D01*
X120119091Y-90235843D01*
X120315384Y-90317150D01*
X120523767Y-90358600D01*
X120736233Y-90358600D01*
X120944616Y-90317150D01*
X121140909Y-90235843D01*
X121317567Y-90117803D01*
X121467803Y-89967567D01*
X121585843Y-89790909D01*
X121667150Y-89594616D01*
X121708600Y-89386233D01*
X121708600Y-89173767D01*
X121667150Y-88965384D01*
X121585843Y-88769091D01*
X121467803Y-88592433D01*
X121317567Y-88442197D01*
X121140909Y-88324157D01*
X120944616Y-88242850D01*
X120736233Y-88201400D01*
X120523767Y-88201400D01*
X120315384Y-88242850D01*
X120119091Y-88324157D01*
X119942433Y-88442197D01*
X119792197Y-88592433D01*
X119674157Y-88769091D01*
X119592850Y-88965384D01*
X119551400Y-89173767D01*
X116803600Y-89173767D01*
X116803600Y-86633767D01*
X119551400Y-86633767D01*
X119551400Y-86846233D01*
X119592850Y-87054616D01*
X119674157Y-87250909D01*
X119792197Y-87427567D01*
X119942433Y-87577803D01*
X120119091Y-87695843D01*
X120315384Y-87777150D01*
X120523767Y-87818600D01*
X120736233Y-87818600D01*
X120944616Y-87777150D01*
X121140909Y-87695843D01*
X121317567Y-87577803D01*
X121467803Y-87427567D01*
X121585843Y-87250909D01*
X121667150Y-87054616D01*
X121708600Y-86846233D01*
X121708600Y-86633767D01*
X121667150Y-86425384D01*
X121585843Y-86229091D01*
X121467803Y-86052433D01*
X121317567Y-85902197D01*
X121140909Y-85784157D01*
X120944616Y-85702850D01*
X120736233Y-85661400D01*
X120523767Y-85661400D01*
X120315384Y-85702850D01*
X120119091Y-85784157D01*
X119942433Y-85902197D01*
X119792197Y-86052433D01*
X119674157Y-86229091D01*
X119592850Y-86425384D01*
X119551400Y-86633767D01*
X116803600Y-86633767D01*
X116803600Y-80173600D01*
X145903800Y-80173600D01*
X145903800Y-103839000D01*
%TA.AperFunction,Conductor*%
D19*
G36*
X145903800Y-103839000D02*
G01*
X128107815Y-103839000D01*
X121613340Y-97344526D01*
X121667150Y-97214616D01*
X121708600Y-97006233D01*
X121708600Y-96793767D01*
X121706600Y-96783712D01*
X141928500Y-96783712D01*
X141928500Y-96896288D01*
X141950463Y-97006700D01*
X141993543Y-97110707D01*
X142056087Y-97204310D01*
X142135690Y-97283913D01*
X142229293Y-97346457D01*
X142333300Y-97389537D01*
X142443712Y-97411500D01*
X142556288Y-97411500D01*
X142666700Y-97389537D01*
X142770707Y-97346457D01*
X142864310Y-97283913D01*
X142943913Y-97204310D01*
X143006457Y-97110707D01*
X143022595Y-97071746D01*
X144468645Y-95625696D01*
X144488995Y-95608995D01*
X144555651Y-95527775D01*
X144605181Y-95435111D01*
X144635681Y-95334565D01*
X144643400Y-95256195D01*
X144643400Y-95256187D01*
X144645979Y-95230000D01*
X144643400Y-95203813D01*
X144643400Y-94265659D01*
X144659537Y-94226700D01*
X144681500Y-94116288D01*
X144681500Y-94003712D01*
X144659537Y-93893300D01*
X144616457Y-93789293D01*
X144553913Y-93695690D01*
X144474310Y-93616087D01*
X144380707Y-93553543D01*
X144276700Y-93510463D01*
X144166288Y-93488500D01*
X144053712Y-93488500D01*
X143943300Y-93510463D01*
X143839293Y-93553543D01*
X143745690Y-93616087D01*
X143666087Y-93695690D01*
X143603543Y-93789293D01*
X143560463Y-93893300D01*
X143538500Y-94003712D01*
X143538500Y-94116288D01*
X143560463Y-94226700D01*
X143576600Y-94265660D01*
X143576601Y-95009058D01*
X142268254Y-96317405D01*
X142229293Y-96333543D01*
X142135690Y-96396087D01*
X142056087Y-96475690D01*
X141993543Y-96569293D01*
X141950463Y-96673300D01*
X141928500Y-96783712D01*
X121706600Y-96783712D01*
X121667150Y-96585384D01*
X121585843Y-96389091D01*
X121467803Y-96212433D01*
X121317567Y-96062197D01*
X121140909Y-95944157D01*
X120944616Y-95862850D01*
X120736233Y-95821400D01*
X120523767Y-95821400D01*
X120315384Y-95862850D01*
X120119091Y-95944157D01*
X119942433Y-96062197D01*
X119792197Y-96212433D01*
X119674157Y-96389091D01*
X119592850Y-96585384D01*
X119551400Y-96793767D01*
X119551400Y-97006233D01*
X119592850Y-97214616D01*
X119674157Y-97410909D01*
X119792197Y-97587567D01*
X119942433Y-97737803D01*
X120119091Y-97855843D01*
X120315384Y-97937150D01*
X120523767Y-97978600D01*
X120736233Y-97978600D01*
X120944616Y-97937150D01*
X121074526Y-97883340D01*
X127667359Y-104476174D01*
X127679289Y-104490711D01*
X127693824Y-104502639D01*
X127737303Y-104538322D01*
X127760359Y-104550645D01*
X127803492Y-104573701D01*
X127875311Y-104595487D01*
X127931287Y-104601000D01*
X127931296Y-104601000D01*
X127949999Y-104602842D01*
X127968702Y-104601000D01*
X145903800Y-104601000D01*
X145903800Y-108931800D01*
X130475112Y-108931800D01*
X129458200Y-107914888D01*
X129458200Y-107910000D01*
X129927157Y-107910000D01*
X129934513Y-107984689D01*
X129956299Y-108056508D01*
X129991678Y-108122696D01*
X130039289Y-108180711D01*
X130097304Y-108228322D01*
X130163492Y-108263701D01*
X130235311Y-108285487D01*
X130310000Y-108292843D01*
X130988550Y-108291000D01*
X131083800Y-108195750D01*
X131083800Y-107136200D01*
X131236200Y-107136200D01*
X131236200Y-108195750D01*
X131331450Y-108291000D01*
X132010000Y-108292843D01*
X132084689Y-108285487D01*
X132156508Y-108263701D01*
X132222696Y-108228322D01*
X132280711Y-108180711D01*
X132328322Y-108122696D01*
X132363701Y-108056508D01*
X132385487Y-107984689D01*
X132392843Y-107910000D01*
X132391000Y-107231450D01*
X132295750Y-107136200D01*
X131236200Y-107136200D01*
X131083800Y-107136200D01*
X130024250Y-107136200D01*
X129929000Y-107231450D01*
X129927157Y-107910000D01*
X129458200Y-107910000D01*
X129458200Y-107746973D01*
X129575843Y-107570909D01*
X129657150Y-107374616D01*
X129698600Y-107166233D01*
X129698600Y-106953767D01*
X129657150Y-106745384D01*
X129575843Y-106549091D01*
X129457803Y-106372433D01*
X129307567Y-106222197D01*
X129289314Y-106210000D01*
X129927157Y-106210000D01*
X129929000Y-106888550D01*
X130024250Y-106983800D01*
X131083800Y-106983800D01*
X131083800Y-105924250D01*
X131236200Y-105924250D01*
X131236200Y-106983800D01*
X132295750Y-106983800D01*
X132391000Y-106888550D01*
X132392843Y-106210000D01*
X132385487Y-106135311D01*
X132363701Y-106063492D01*
X132328322Y-105997304D01*
X132280711Y-105939289D01*
X132222696Y-105891678D01*
X132156508Y-105856299D01*
X132084689Y-105834513D01*
X132010000Y-105827157D01*
X131331450Y-105829000D01*
X131236200Y-105924250D01*
X131083800Y-105924250D01*
X130988550Y-105829000D01*
X130310000Y-105827157D01*
X130235311Y-105834513D01*
X130163492Y-105856299D01*
X130097304Y-105891678D01*
X130039289Y-105939289D01*
X129991678Y-105997304D01*
X129956299Y-106063492D01*
X129934513Y-106135311D01*
X129927157Y-106210000D01*
X129289314Y-106210000D01*
X129130909Y-106104157D01*
X128934616Y-106022850D01*
X128726233Y-105981400D01*
X128513767Y-105981400D01*
X128305384Y-106022850D01*
X128109091Y-106104157D01*
X127932433Y-106222197D01*
X127782197Y-106372433D01*
X127664157Y-106549091D01*
X127582850Y-106745384D01*
X127541400Y-106953767D01*
X127541400Y-107166233D01*
X127582850Y-107374616D01*
X127664157Y-107570909D01*
X127781800Y-107746974D01*
X127781800Y-108220918D01*
X127777746Y-108262081D01*
X127781800Y-108303244D01*
X127781800Y-108303250D01*
X127793929Y-108426396D01*
X127841858Y-108584397D01*
X127919691Y-108730012D01*
X128024436Y-108857645D01*
X128056418Y-108883892D01*
X129506108Y-110333582D01*
X129532355Y-110365564D01*
X129659987Y-110470309D01*
X129805602Y-110548142D01*
X129963603Y-110596071D01*
X130086749Y-110608200D01*
X130127919Y-110612255D01*
X130169089Y-110608200D01*
X145903800Y-110608200D01*
X145903800Y-111116400D01*
X116803600Y-111116400D01*
X116803600Y-103670000D01*
X119550294Y-103670000D01*
X119550294Y-105370000D01*
X119554708Y-105414813D01*
X119567779Y-105457905D01*
X119589006Y-105497618D01*
X119617573Y-105532427D01*
X119652382Y-105560994D01*
X119692095Y-105582221D01*
X119735187Y-105595292D01*
X119780000Y-105599706D01*
X121480000Y-105599706D01*
X121524813Y-105595292D01*
X121567905Y-105582221D01*
X121607618Y-105560994D01*
X121642427Y-105532427D01*
X121670994Y-105497618D01*
X121692221Y-105457905D01*
X121705292Y-105414813D01*
X121709706Y-105370000D01*
X121709706Y-103670000D01*
X121705292Y-103625187D01*
X121692221Y-103582095D01*
X121670994Y-103542382D01*
X121642427Y-103507573D01*
X121607618Y-103479006D01*
X121567905Y-103457779D01*
X121524813Y-103444708D01*
X121480000Y-103440294D01*
X119780000Y-103440294D01*
X119735187Y-103444708D01*
X119692095Y-103457779D01*
X119652382Y-103479006D01*
X119617573Y-103507573D01*
X119589006Y-103542382D01*
X119567779Y-103582095D01*
X119554708Y-103625187D01*
X119550294Y-103670000D01*
X116803600Y-103670000D01*
X116803600Y-102247463D01*
X119428408Y-102247463D01*
X119482314Y-102425182D01*
X119591217Y-102640530D01*
X119740040Y-102830495D01*
X119923064Y-102987776D01*
X120133255Y-103106328D01*
X120362536Y-103181596D01*
X120553800Y-103113393D01*
X120553800Y-102056200D01*
X120706200Y-102056200D01*
X120706200Y-103113393D01*
X120897464Y-103181596D01*
X121126745Y-103106328D01*
X121336936Y-102987776D01*
X121519960Y-102830495D01*
X121668783Y-102640530D01*
X121777686Y-102425182D01*
X121831592Y-102247463D01*
X121763191Y-102056200D01*
X120706200Y-102056200D01*
X120553800Y-102056200D01*
X119496809Y-102056200D01*
X119428408Y-102247463D01*
X116803600Y-102247463D01*
X116803600Y-101712537D01*
X119428408Y-101712537D01*
X119496809Y-101903800D01*
X120553800Y-101903800D01*
X120553800Y-100846607D01*
X120706200Y-100846607D01*
X120706200Y-101903800D01*
X121763191Y-101903800D01*
X121831592Y-101712537D01*
X121777686Y-101534818D01*
X121668783Y-101319470D01*
X121519960Y-101129505D01*
X121336936Y-100972224D01*
X121126745Y-100853672D01*
X120897464Y-100778404D01*
X120706200Y-100846607D01*
X120553800Y-100846607D01*
X120362536Y-100778404D01*
X120133255Y-100853672D01*
X119923064Y-100972224D01*
X119740040Y-101129505D01*
X119591217Y-101319470D01*
X119482314Y-101534818D01*
X119428408Y-101712537D01*
X116803600Y-101712537D01*
X116803600Y-99333767D01*
X119551400Y-99333767D01*
X119551400Y-99546233D01*
X119592850Y-99754616D01*
X119674157Y-99950909D01*
X119792197Y-100127567D01*
X119942433Y-100277803D01*
X120119091Y-100395843D01*
X120315384Y-100477150D01*
X120523767Y-100518600D01*
X120736233Y-100518600D01*
X120944616Y-100477150D01*
X121140909Y-100395843D01*
X121317567Y-100277803D01*
X121467803Y-100127567D01*
X121585843Y-99950909D01*
X121667150Y-99754616D01*
X121708600Y-99546233D01*
X121708600Y-99333767D01*
X121667150Y-99125384D01*
X121585843Y-98929091D01*
X121467803Y-98752433D01*
X121317567Y-98602197D01*
X121140909Y-98484157D01*
X120944616Y-98402850D01*
X120736233Y-98361400D01*
X120523767Y-98361400D01*
X120315384Y-98402850D01*
X120119091Y-98484157D01*
X119942433Y-98602197D01*
X119792197Y-98752433D01*
X119674157Y-98929091D01*
X119592850Y-99125384D01*
X119551400Y-99333767D01*
X116803600Y-99333767D01*
X116803600Y-94253767D01*
X119551400Y-94253767D01*
X119551400Y-94466233D01*
X119592850Y-94674616D01*
X119674157Y-94870909D01*
X119792197Y-95047567D01*
X119942433Y-95197803D01*
X120119091Y-95315843D01*
X120315384Y-95397150D01*
X120523767Y-95438600D01*
X120736233Y-95438600D01*
X120944616Y-95397150D01*
X121140909Y-95315843D01*
X121317567Y-95197803D01*
X121467803Y-95047567D01*
X121585843Y-94870909D01*
X121667150Y-94674616D01*
X121708600Y-94466233D01*
X121708600Y-94253767D01*
X121667150Y-94045384D01*
X121585843Y-93849091D01*
X121467803Y-93672433D01*
X121317567Y-93522197D01*
X121140909Y-93404157D01*
X120944616Y-93322850D01*
X120736233Y-93281400D01*
X120523767Y-93281400D01*
X120315384Y-93322850D01*
X120119091Y-93404157D01*
X119942433Y-93522197D01*
X119792197Y-93672433D01*
X119674157Y-93849091D01*
X119592850Y-94045384D01*
X119551400Y-94253767D01*
X116803600Y-94253767D01*
X116803600Y-91713767D01*
X119551400Y-91713767D01*
X119551400Y-91926233D01*
X119592850Y-92134616D01*
X119674157Y-92330909D01*
X119792197Y-92507567D01*
X119942433Y-92657803D01*
X120119091Y-92775843D01*
X120315384Y-92857150D01*
X120523767Y-92898600D01*
X120736233Y-92898600D01*
X120944616Y-92857150D01*
X121140909Y-92775843D01*
X121317567Y-92657803D01*
X121467803Y-92507567D01*
X121585843Y-92330909D01*
X121667150Y-92134616D01*
X121708600Y-91926233D01*
X121708600Y-91713767D01*
X121667150Y-91505384D01*
X121585843Y-91309091D01*
X121467803Y-91132433D01*
X121317567Y-90982197D01*
X121140909Y-90864157D01*
X120944616Y-90782850D01*
X120736233Y-90741400D01*
X120523767Y-90741400D01*
X120315384Y-90782850D01*
X120119091Y-90864157D01*
X119942433Y-90982197D01*
X119792197Y-91132433D01*
X119674157Y-91309091D01*
X119592850Y-91505384D01*
X119551400Y-91713767D01*
X116803600Y-91713767D01*
X116803600Y-89173767D01*
X119551400Y-89173767D01*
X119551400Y-89386233D01*
X119592850Y-89594616D01*
X119674157Y-89790909D01*
X119792197Y-89967567D01*
X119942433Y-90117803D01*
X120119091Y-90235843D01*
X120315384Y-90317150D01*
X120523767Y-90358600D01*
X120736233Y-90358600D01*
X120944616Y-90317150D01*
X121140909Y-90235843D01*
X121317567Y-90117803D01*
X121467803Y-89967567D01*
X121585843Y-89790909D01*
X121667150Y-89594616D01*
X121708600Y-89386233D01*
X121708600Y-89173767D01*
X121667150Y-88965384D01*
X121585843Y-88769091D01*
X121467803Y-88592433D01*
X121317567Y-88442197D01*
X121140909Y-88324157D01*
X120944616Y-88242850D01*
X120736233Y-88201400D01*
X120523767Y-88201400D01*
X120315384Y-88242850D01*
X120119091Y-88324157D01*
X119942433Y-88442197D01*
X119792197Y-88592433D01*
X119674157Y-88769091D01*
X119592850Y-88965384D01*
X119551400Y-89173767D01*
X116803600Y-89173767D01*
X116803600Y-86633767D01*
X119551400Y-86633767D01*
X119551400Y-86846233D01*
X119592850Y-87054616D01*
X119674157Y-87250909D01*
X119792197Y-87427567D01*
X119942433Y-87577803D01*
X120119091Y-87695843D01*
X120315384Y-87777150D01*
X120523767Y-87818600D01*
X120736233Y-87818600D01*
X120944616Y-87777150D01*
X121140909Y-87695843D01*
X121317567Y-87577803D01*
X121467803Y-87427567D01*
X121585843Y-87250909D01*
X121667150Y-87054616D01*
X121708600Y-86846233D01*
X121708600Y-86633767D01*
X121667150Y-86425384D01*
X121585843Y-86229091D01*
X121467803Y-86052433D01*
X121317567Y-85902197D01*
X121140909Y-85784157D01*
X120944616Y-85702850D01*
X120736233Y-85661400D01*
X120523767Y-85661400D01*
X120315384Y-85702850D01*
X120119091Y-85784157D01*
X119942433Y-85902197D01*
X119792197Y-86052433D01*
X119674157Y-86229091D01*
X119592850Y-86425384D01*
X119551400Y-86633767D01*
X116803600Y-86633767D01*
X116803600Y-80173600D01*
X145903800Y-80173600D01*
X145903800Y-103839000D01*
G37*
%TD.AperFunction*%
%TD*%
M02*
