M48
; DRILL file {KiCad (5.1.7)-1} date 11/09/20 22:40:47
; FORMAT={2:4/ absolute / inch / suppress trailing zeros}
; #@! TF.CreationDate,2020-11-09T22:40:47+01:00
; #@! TF.GenerationSoftware,Kicad,Pcbnew,(5.1.7)-1
FMAT,2
INCH,LZ
T1C0.0130
T2C0.0394
T3C0.0598
%
G90
G05
T1
X051256Y-036114
X05211Y-037567
X056102Y-038126
X056661Y-040472
X056736Y-037031
X060398Y-036091
X060449Y-03772
T2
X0629Y-03395
X0639Y-03395
X0649Y-03395
X0659Y-03395
X0595Y-03395
X0605Y-03395
X0615Y-03395
X047492Y-03415
X047492Y-03515
X047492Y-03615
X047492Y-03715
X047492Y-03815
X047492Y-03915
X047492Y-04015
X047492Y-04115
X058268Y-041142
X059268Y-041142
X060268Y-041142
X061268Y-041142
X0661Y-0386
X0661Y-0396
X050638Y-04215
X051638Y-04215
T3
X069043Y-034268
X069043Y-036268
T0
M30
