%TF.GenerationSoftware,KiCad,Pcbnew,(5.1.7)-1*%
%TF.CreationDate,2020-11-09T22:40:43+01:00*%
%TF.ProjectId,LED_Chain,4c45445f-4368-4616-996e-2e6b69636164,rev?*%
%TF.SameCoordinates,Original*%
%TF.FileFunction,Legend,Top*%
%TF.FilePolarity,Positive*%
%FSLAX46Y46*%
G04 Gerber Fmt 4.6, Leading zero omitted, Abs format (unit mm)*
G04 Created by KiCad (PCBNEW (5.1.7)-1) date 2020-11-09 22:40:43*
%MOMM*%
%LPD*%
G01*
G04 APERTURE LIST*
%ADD10C,0.300000*%
%ADD11C,0.127000*%
%ADD12C,0.150000*%
%ADD13C,0.010000*%
%ADD14C,0.120000*%
%ADD15C,0.100000*%
G04 APERTURE END LIST*
D10*
X173798571Y-96728571D02*
X173084285Y-96728571D01*
X173084285Y-95228571D01*
X174298571Y-95942857D02*
X174798571Y-95942857D01*
X175012857Y-96728571D02*
X174298571Y-96728571D01*
X174298571Y-95228571D01*
X175012857Y-95228571D01*
X175655714Y-96728571D02*
X175655714Y-95228571D01*
X176012857Y-95228571D01*
X176227142Y-95300000D01*
X176370000Y-95442857D01*
X176441428Y-95585714D01*
X176512857Y-95871428D01*
X176512857Y-96085714D01*
X176441428Y-96371428D01*
X176370000Y-96514285D01*
X176227142Y-96657142D01*
X176012857Y-96728571D01*
X175655714Y-96728571D01*
X177084285Y-96657142D02*
X177227142Y-96728571D01*
X177512857Y-96728571D01*
X177655714Y-96657142D01*
X177727142Y-96514285D01*
X177727142Y-96442857D01*
X177655714Y-96300000D01*
X177512857Y-96228571D01*
X177298571Y-96228571D01*
X177155714Y-96157142D01*
X177084285Y-96014285D01*
X177084285Y-95942857D01*
X177155714Y-95800000D01*
X177298571Y-95728571D01*
X177512857Y-95728571D01*
X177655714Y-95800000D01*
D11*
X155085714Y-102437000D02*
X155448571Y-102437000D01*
X155013142Y-102654714D02*
X155267142Y-101892714D01*
X155521142Y-102654714D01*
X155702571Y-101892714D02*
X156210571Y-101892714D01*
X155884000Y-102654714D01*
X152525714Y-102437000D02*
X152888571Y-102437000D01*
X152453142Y-102654714D02*
X152707142Y-101892714D01*
X152961142Y-102654714D01*
X153541714Y-101892714D02*
X153396571Y-101892714D01*
X153324000Y-101929000D01*
X153287714Y-101965285D01*
X153215142Y-102074142D01*
X153178857Y-102219285D01*
X153178857Y-102509571D01*
X153215142Y-102582142D01*
X153251428Y-102618428D01*
X153324000Y-102654714D01*
X153469142Y-102654714D01*
X153541714Y-102618428D01*
X153578000Y-102582142D01*
X153614285Y-102509571D01*
X153614285Y-102328142D01*
X153578000Y-102255571D01*
X153541714Y-102219285D01*
X153469142Y-102183000D01*
X153324000Y-102183000D01*
X153251428Y-102219285D01*
X153215142Y-102255571D01*
X153178857Y-102328142D01*
X150015714Y-102417000D02*
X150378571Y-102417000D01*
X149943142Y-102634714D02*
X150197142Y-101872714D01*
X150451142Y-102634714D01*
X151068000Y-101872714D02*
X150705142Y-101872714D01*
X150668857Y-102235571D01*
X150705142Y-102199285D01*
X150777714Y-102163000D01*
X150959142Y-102163000D01*
X151031714Y-102199285D01*
X151068000Y-102235571D01*
X151104285Y-102308142D01*
X151104285Y-102489571D01*
X151068000Y-102562142D01*
X151031714Y-102598428D01*
X150959142Y-102634714D01*
X150777714Y-102634714D01*
X150705142Y-102598428D01*
X150668857Y-102562142D01*
X147505714Y-102447000D02*
X147868571Y-102447000D01*
X147433142Y-102664714D02*
X147687142Y-101902714D01*
X147941142Y-102664714D01*
X148521714Y-102156714D02*
X148521714Y-102664714D01*
X148340285Y-101866428D02*
X148158857Y-102410714D01*
X148630571Y-102410714D01*
X146857000Y-101165571D02*
X146603000Y-101165571D01*
X146603000Y-101564714D02*
X146603000Y-100802714D01*
X146965857Y-100802714D01*
X147510142Y-101165571D02*
X147256142Y-101165571D01*
X147256142Y-101564714D02*
X147256142Y-100802714D01*
X147619000Y-100802714D01*
X147909285Y-101492142D02*
X147945571Y-101528428D01*
X147909285Y-101564714D01*
X147873000Y-101528428D01*
X147909285Y-101492142D01*
X147909285Y-101564714D01*
X148707571Y-101564714D02*
X148453571Y-101201857D01*
X148272142Y-101564714D02*
X148272142Y-100802714D01*
X148562428Y-100802714D01*
X148635000Y-100839000D01*
X148671285Y-100875285D01*
X148707571Y-100947857D01*
X148707571Y-101056714D01*
X148671285Y-101129285D01*
X148635000Y-101165571D01*
X148562428Y-101201857D01*
X148272142Y-101201857D01*
X148997857Y-101528428D02*
X149106714Y-101564714D01*
X149288142Y-101564714D01*
X149360714Y-101528428D01*
X149397000Y-101492142D01*
X149433285Y-101419571D01*
X149433285Y-101347000D01*
X149397000Y-101274428D01*
X149360714Y-101238142D01*
X149288142Y-101201857D01*
X149143000Y-101165571D01*
X149070428Y-101129285D01*
X149034142Y-101093000D01*
X148997857Y-101020428D01*
X148997857Y-100947857D01*
X149034142Y-100875285D01*
X149070428Y-100839000D01*
X149143000Y-100802714D01*
X149324428Y-100802714D01*
X149433285Y-100839000D01*
X124826835Y-83229714D02*
X124463978Y-83229714D01*
X124463978Y-82467714D01*
X125080835Y-82830571D02*
X125334835Y-82830571D01*
X125443692Y-83229714D02*
X125080835Y-83229714D01*
X125080835Y-82467714D01*
X125443692Y-82467714D01*
X125770264Y-83229714D02*
X125770264Y-82467714D01*
X125951692Y-82467714D01*
X126060550Y-82504000D01*
X126133121Y-82576571D01*
X126169407Y-82649142D01*
X126205692Y-82794285D01*
X126205692Y-82903142D01*
X126169407Y-83048285D01*
X126133121Y-83120857D01*
X126060550Y-83193428D01*
X125951692Y-83229714D01*
X125770264Y-83229714D01*
X127548264Y-83157142D02*
X127511978Y-83193428D01*
X127403121Y-83229714D01*
X127330550Y-83229714D01*
X127221692Y-83193428D01*
X127149121Y-83120857D01*
X127112835Y-83048285D01*
X127076550Y-82903142D01*
X127076550Y-82794285D01*
X127112835Y-82649142D01*
X127149121Y-82576571D01*
X127221692Y-82504000D01*
X127330550Y-82467714D01*
X127403121Y-82467714D01*
X127511978Y-82504000D01*
X127548264Y-82540285D01*
X127874835Y-83229714D02*
X127874835Y-82467714D01*
X128201407Y-83229714D02*
X128201407Y-82830571D01*
X128165121Y-82758000D01*
X128092550Y-82721714D01*
X127983692Y-82721714D01*
X127911121Y-82758000D01*
X127874835Y-82794285D01*
X128890835Y-83229714D02*
X128890835Y-82830571D01*
X128854550Y-82758000D01*
X128781978Y-82721714D01*
X128636835Y-82721714D01*
X128564264Y-82758000D01*
X128890835Y-83193428D02*
X128818264Y-83229714D01*
X128636835Y-83229714D01*
X128564264Y-83193428D01*
X128527978Y-83120857D01*
X128527978Y-83048285D01*
X128564264Y-82975714D01*
X128636835Y-82939428D01*
X128818264Y-82939428D01*
X128890835Y-82903142D01*
X129253692Y-83229714D02*
X129253692Y-82721714D01*
X129253692Y-82467714D02*
X129217407Y-82504000D01*
X129253692Y-82540285D01*
X129289978Y-82504000D01*
X129253692Y-82467714D01*
X129253692Y-82540285D01*
X129616550Y-82721714D02*
X129616550Y-83229714D01*
X129616550Y-82794285D02*
X129652835Y-82758000D01*
X129725407Y-82721714D01*
X129834264Y-82721714D01*
X129906835Y-82758000D01*
X129943121Y-82830571D01*
X129943121Y-83229714D01*
X130886550Y-83229714D02*
X130886550Y-82467714D01*
X131067978Y-82467714D01*
X131176835Y-82504000D01*
X131249407Y-82576571D01*
X131285692Y-82649142D01*
X131321978Y-82794285D01*
X131321978Y-82903142D01*
X131285692Y-83048285D01*
X131249407Y-83120857D01*
X131176835Y-83193428D01*
X131067978Y-83229714D01*
X130886550Y-83229714D01*
X131648550Y-83229714D02*
X131648550Y-82721714D01*
X131648550Y-82866857D02*
X131684835Y-82794285D01*
X131721121Y-82758000D01*
X131793692Y-82721714D01*
X131866264Y-82721714D01*
X132120264Y-83229714D02*
X132120264Y-82721714D01*
X132120264Y-82467714D02*
X132083978Y-82504000D01*
X132120264Y-82540285D01*
X132156550Y-82504000D01*
X132120264Y-82467714D01*
X132120264Y-82540285D01*
X132410550Y-82721714D02*
X132591978Y-83229714D01*
X132773407Y-82721714D01*
X133353978Y-83193428D02*
X133281407Y-83229714D01*
X133136264Y-83229714D01*
X133063692Y-83193428D01*
X133027407Y-83120857D01*
X133027407Y-82830571D01*
X133063692Y-82758000D01*
X133136264Y-82721714D01*
X133281407Y-82721714D01*
X133353978Y-82758000D01*
X133390264Y-82830571D01*
X133390264Y-82903142D01*
X133027407Y-82975714D01*
X133716835Y-83229714D02*
X133716835Y-82721714D01*
X133716835Y-82866857D02*
X133753121Y-82794285D01*
X133789407Y-82758000D01*
X133861978Y-82721714D01*
X133934550Y-82721714D01*
X124899407Y-84499714D02*
X124645407Y-84136857D01*
X124463978Y-84499714D02*
X124463978Y-83737714D01*
X124754264Y-83737714D01*
X124826835Y-83774000D01*
X124863121Y-83810285D01*
X124899407Y-83882857D01*
X124899407Y-83991714D01*
X124863121Y-84064285D01*
X124826835Y-84100571D01*
X124754264Y-84136857D01*
X124463978Y-84136857D01*
X125516264Y-84463428D02*
X125443692Y-84499714D01*
X125298550Y-84499714D01*
X125225978Y-84463428D01*
X125189692Y-84390857D01*
X125189692Y-84100571D01*
X125225978Y-84028000D01*
X125298550Y-83991714D01*
X125443692Y-83991714D01*
X125516264Y-84028000D01*
X125552550Y-84100571D01*
X125552550Y-84173142D01*
X125189692Y-84245714D01*
X125806550Y-83991714D02*
X125987978Y-84499714D01*
X126169407Y-83991714D01*
X127003978Y-83810285D02*
X127040264Y-83774000D01*
X127112835Y-83737714D01*
X127294264Y-83737714D01*
X127366835Y-83774000D01*
X127403121Y-83810285D01*
X127439407Y-83882857D01*
X127439407Y-83955428D01*
X127403121Y-84064285D01*
X126967692Y-84499714D01*
X127439407Y-84499714D01*
X128128835Y-84499714D02*
X127765978Y-84499714D01*
X127765978Y-83737714D01*
X128201407Y-84572285D02*
X128781978Y-84572285D01*
X129362550Y-84499714D02*
X128927121Y-84499714D01*
X129144835Y-84499714D02*
X129144835Y-83737714D01*
X129072264Y-83846571D01*
X128999692Y-83919142D01*
X128927121Y-83955428D01*
X169779000Y-101150571D02*
X169742714Y-101223142D01*
X169742714Y-101332000D01*
X169779000Y-101440857D01*
X169851571Y-101513428D01*
X169924142Y-101549714D01*
X170069285Y-101586000D01*
X170178142Y-101586000D01*
X170323285Y-101549714D01*
X170395857Y-101513428D01*
X170468428Y-101440857D01*
X170504714Y-101332000D01*
X170504714Y-101259428D01*
X170468428Y-101150571D01*
X170432142Y-101114285D01*
X170178142Y-101114285D01*
X170178142Y-101259428D01*
X170504714Y-100787714D02*
X169742714Y-100787714D01*
X170504714Y-100352285D01*
X169742714Y-100352285D01*
X170504714Y-99989428D02*
X169742714Y-99989428D01*
X169742714Y-99808000D01*
X169779000Y-99699142D01*
X169851571Y-99626571D01*
X169924142Y-99590285D01*
X170069285Y-99554000D01*
X170178142Y-99554000D01*
X170323285Y-99590285D01*
X170395857Y-99626571D01*
X170468428Y-99699142D01*
X170504714Y-99808000D01*
X170504714Y-99989428D01*
X169727714Y-99003428D02*
X170489714Y-98749428D01*
X169727714Y-98495428D01*
X170489714Y-97914857D02*
X169727714Y-97914857D01*
X170453428Y-97914857D02*
X170489714Y-97987428D01*
X170489714Y-98132571D01*
X170453428Y-98205142D01*
X170417142Y-98241428D01*
X170344571Y-98277714D01*
X170126857Y-98277714D01*
X170054285Y-98241428D01*
X170018000Y-98205142D01*
X169981714Y-98132571D01*
X169981714Y-97987428D01*
X170018000Y-97914857D01*
X170489714Y-97225428D02*
X169727714Y-97225428D01*
X170453428Y-97225428D02*
X170489714Y-97298000D01*
X170489714Y-97443142D01*
X170453428Y-97515714D01*
X170417142Y-97552000D01*
X170344571Y-97588285D01*
X170126857Y-97588285D01*
X170054285Y-97552000D01*
X170018000Y-97515714D01*
X169981714Y-97443142D01*
X169981714Y-97298000D01*
X170018000Y-97225428D01*
X170997714Y-98205142D02*
X170997714Y-98568000D01*
X171360571Y-98604285D01*
X171324285Y-98568000D01*
X171288000Y-98495428D01*
X171288000Y-98314000D01*
X171324285Y-98241428D01*
X171360571Y-98205142D01*
X171433142Y-98168857D01*
X171614571Y-98168857D01*
X171687142Y-98205142D01*
X171723428Y-98241428D01*
X171759714Y-98314000D01*
X171759714Y-98495428D01*
X171723428Y-98568000D01*
X171687142Y-98604285D01*
X170997714Y-97951142D02*
X171759714Y-97697142D01*
X170997714Y-97443142D01*
X133363121Y-92605428D02*
X133363121Y-92968285D01*
X133000264Y-92823142D02*
X133363121Y-92968285D01*
X133725978Y-92823142D01*
X133145407Y-93258571D02*
X133363121Y-92968285D01*
X133580835Y-93258571D01*
X133303121Y-100575428D02*
X133303121Y-100938285D01*
X132940264Y-100793142D02*
X133303121Y-100938285D01*
X133665978Y-100793142D01*
X133085407Y-101228571D02*
X133303121Y-100938285D01*
X133520835Y-101228571D01*
X130246571Y-108912714D02*
X130500571Y-109674714D01*
X130754571Y-108912714D01*
X131008571Y-109674714D02*
X131008571Y-108912714D01*
X131008571Y-109203000D02*
X131081142Y-109166714D01*
X131226285Y-109166714D01*
X131298857Y-109203000D01*
X131335142Y-109239285D01*
X131371428Y-109311857D01*
X131371428Y-109529571D01*
X131335142Y-109602142D01*
X131298857Y-109638428D01*
X131226285Y-109674714D01*
X131081142Y-109674714D01*
X131008571Y-109638428D01*
X131698000Y-109674714D02*
X131698000Y-108912714D01*
X131698000Y-109203000D02*
X131770571Y-109166714D01*
X131915714Y-109166714D01*
X131988285Y-109203000D01*
X132024571Y-109239285D01*
X132060857Y-109311857D01*
X132060857Y-109529571D01*
X132024571Y-109602142D01*
X131988285Y-109638428D01*
X131915714Y-109674714D01*
X131770571Y-109674714D01*
X131698000Y-109638428D01*
X127496571Y-108917714D02*
X127750571Y-109679714D01*
X128004571Y-108917714D01*
X128585142Y-109679714D02*
X128585142Y-108917714D01*
X128585142Y-109643428D02*
X128512571Y-109679714D01*
X128367428Y-109679714D01*
X128294857Y-109643428D01*
X128258571Y-109607142D01*
X128222285Y-109534571D01*
X128222285Y-109316857D01*
X128258571Y-109244285D01*
X128294857Y-109208000D01*
X128367428Y-109171714D01*
X128512571Y-109171714D01*
X128585142Y-109208000D01*
X129274571Y-109679714D02*
X129274571Y-108917714D01*
X129274571Y-109643428D02*
X129202000Y-109679714D01*
X129056857Y-109679714D01*
X128984285Y-109643428D01*
X128948000Y-109607142D01*
X128911714Y-109534571D01*
X128911714Y-109316857D01*
X128948000Y-109244285D01*
X128984285Y-109208000D01*
X129056857Y-109171714D01*
X129202000Y-109171714D01*
X129274571Y-109208000D01*
X128294857Y-110187714D02*
X127932000Y-110187714D01*
X127895714Y-110550571D01*
X127932000Y-110514285D01*
X128004571Y-110478000D01*
X128186000Y-110478000D01*
X128258571Y-110514285D01*
X128294857Y-110550571D01*
X128331142Y-110623142D01*
X128331142Y-110804571D01*
X128294857Y-110877142D01*
X128258571Y-110913428D01*
X128186000Y-110949714D01*
X128004571Y-110949714D01*
X127932000Y-110913428D01*
X127895714Y-110877142D01*
X128548857Y-110187714D02*
X128802857Y-110949714D01*
X129056857Y-110187714D01*
X155927978Y-89525571D02*
X155673978Y-89525571D01*
X155673978Y-89924714D02*
X155673978Y-89162714D01*
X156036835Y-89162714D01*
X156581121Y-89525571D02*
X156327121Y-89525571D01*
X156327121Y-89924714D02*
X156327121Y-89162714D01*
X156689978Y-89162714D01*
X156980264Y-89852142D02*
X157016550Y-89888428D01*
X156980264Y-89924714D01*
X156943978Y-89888428D01*
X156980264Y-89852142D01*
X156980264Y-89924714D01*
X157343121Y-89924714D02*
X157343121Y-89162714D01*
X157778550Y-89924714D02*
X157451978Y-89489285D01*
X157778550Y-89162714D02*
X157343121Y-89598142D01*
X152980571Y-89555571D02*
X152726571Y-89555571D01*
X152726571Y-89954714D02*
X152726571Y-89192714D01*
X153089428Y-89192714D01*
X153633714Y-89555571D02*
X153379714Y-89555571D01*
X153379714Y-89954714D02*
X153379714Y-89192714D01*
X153742571Y-89192714D01*
X154032857Y-89882142D02*
X154069142Y-89918428D01*
X154032857Y-89954714D01*
X153996571Y-89918428D01*
X154032857Y-89882142D01*
X154032857Y-89954714D01*
X154613428Y-89192714D02*
X154613428Y-89737000D01*
X154577142Y-89845857D01*
X154504571Y-89918428D01*
X154395714Y-89954714D01*
X154323142Y-89954714D01*
X148338021Y-89555571D02*
X148084021Y-89555571D01*
X148084021Y-89954714D02*
X148084021Y-89192714D01*
X148446878Y-89192714D01*
X148991164Y-89555571D02*
X148737164Y-89555571D01*
X148737164Y-89954714D02*
X148737164Y-89192714D01*
X149100021Y-89192714D01*
X149390307Y-89882142D02*
X149426592Y-89918428D01*
X149390307Y-89954714D01*
X149354021Y-89918428D01*
X149390307Y-89882142D01*
X149390307Y-89954714D01*
X149716878Y-89918428D02*
X149825735Y-89954714D01*
X150007164Y-89954714D01*
X150079735Y-89918428D01*
X150116021Y-89882142D01*
X150152307Y-89809571D01*
X150152307Y-89737000D01*
X150116021Y-89664428D01*
X150079735Y-89628142D01*
X150007164Y-89591857D01*
X149862021Y-89555571D01*
X149789450Y-89519285D01*
X149753164Y-89483000D01*
X149716878Y-89410428D01*
X149716878Y-89337857D01*
X149753164Y-89265285D01*
X149789450Y-89229000D01*
X149862021Y-89192714D01*
X150043450Y-89192714D01*
X150152307Y-89229000D01*
X150478878Y-89555571D02*
X150732878Y-89555571D01*
X150841735Y-89954714D02*
X150478878Y-89954714D01*
X150478878Y-89192714D01*
X150841735Y-89192714D01*
X151059450Y-89192714D02*
X151494878Y-89192714D01*
X151277164Y-89954714D02*
X151277164Y-89192714D01*
X166996428Y-83077142D02*
X166960142Y-83113428D01*
X166851285Y-83149714D01*
X166778714Y-83149714D01*
X166669857Y-83113428D01*
X166597285Y-83040857D01*
X166561000Y-82968285D01*
X166524714Y-82823142D01*
X166524714Y-82714285D01*
X166561000Y-82569142D01*
X166597285Y-82496571D01*
X166669857Y-82424000D01*
X166778714Y-82387714D01*
X166851285Y-82387714D01*
X166960142Y-82424000D01*
X166996428Y-82460285D01*
X167685857Y-83149714D02*
X167323000Y-83149714D01*
X167323000Y-82387714D01*
X167939857Y-83149714D02*
X167939857Y-82387714D01*
X168375285Y-83149714D02*
X168048714Y-82714285D01*
X168375285Y-82387714D02*
X167939857Y-82823142D01*
X167141571Y-84020571D02*
X167250428Y-84056857D01*
X167286714Y-84093142D01*
X167323000Y-84165714D01*
X167323000Y-84274571D01*
X167286714Y-84347142D01*
X167250428Y-84383428D01*
X167177857Y-84419714D01*
X166887571Y-84419714D01*
X166887571Y-83657714D01*
X167141571Y-83657714D01*
X167214142Y-83694000D01*
X167250428Y-83730285D01*
X167286714Y-83802857D01*
X167286714Y-83875428D01*
X167250428Y-83948000D01*
X167214142Y-83984285D01*
X167141571Y-84020571D01*
X166887571Y-84020571D01*
X167794714Y-83657714D02*
X167867285Y-83657714D01*
X167939857Y-83694000D01*
X167976142Y-83730285D01*
X168012428Y-83802857D01*
X168048714Y-83948000D01*
X168048714Y-84129428D01*
X168012428Y-84274571D01*
X167976142Y-84347142D01*
X167939857Y-84383428D01*
X167867285Y-84419714D01*
X167794714Y-84419714D01*
X167722142Y-84383428D01*
X167685857Y-84347142D01*
X167649571Y-84274571D01*
X167613285Y-84129428D01*
X167613285Y-83948000D01*
X167649571Y-83802857D01*
X167685857Y-83730285D01*
X167722142Y-83694000D01*
X167794714Y-83657714D01*
X164571571Y-83995571D02*
X164680428Y-84031857D01*
X164716714Y-84068142D01*
X164753000Y-84140714D01*
X164753000Y-84249571D01*
X164716714Y-84322142D01*
X164680428Y-84358428D01*
X164607857Y-84394714D01*
X164317571Y-84394714D01*
X164317571Y-83632714D01*
X164571571Y-83632714D01*
X164644142Y-83669000D01*
X164680428Y-83705285D01*
X164716714Y-83777857D01*
X164716714Y-83850428D01*
X164680428Y-83923000D01*
X164644142Y-83959285D01*
X164571571Y-83995571D01*
X164317571Y-83995571D01*
X165478714Y-84394714D02*
X165043285Y-84394714D01*
X165261000Y-84394714D02*
X165261000Y-83632714D01*
X165188428Y-83741571D01*
X165115857Y-83814142D01*
X165043285Y-83850428D01*
X162001571Y-83995571D02*
X162110428Y-84031857D01*
X162146714Y-84068142D01*
X162183000Y-84140714D01*
X162183000Y-84249571D01*
X162146714Y-84322142D01*
X162110428Y-84358428D01*
X162037857Y-84394714D01*
X161747571Y-84394714D01*
X161747571Y-83632714D01*
X162001571Y-83632714D01*
X162074142Y-83669000D01*
X162110428Y-83705285D01*
X162146714Y-83777857D01*
X162146714Y-83850428D01*
X162110428Y-83923000D01*
X162074142Y-83959285D01*
X162001571Y-83995571D01*
X161747571Y-83995571D01*
X162473285Y-83705285D02*
X162509571Y-83669000D01*
X162582142Y-83632714D01*
X162763571Y-83632714D01*
X162836142Y-83669000D01*
X162872428Y-83705285D01*
X162908714Y-83777857D01*
X162908714Y-83850428D01*
X162872428Y-83959285D01*
X162437000Y-84394714D01*
X162908714Y-84394714D01*
X159421571Y-83995571D02*
X159530428Y-84031857D01*
X159566714Y-84068142D01*
X159603000Y-84140714D01*
X159603000Y-84249571D01*
X159566714Y-84322142D01*
X159530428Y-84358428D01*
X159457857Y-84394714D01*
X159167571Y-84394714D01*
X159167571Y-83632714D01*
X159421571Y-83632714D01*
X159494142Y-83669000D01*
X159530428Y-83705285D01*
X159566714Y-83777857D01*
X159566714Y-83850428D01*
X159530428Y-83923000D01*
X159494142Y-83959285D01*
X159421571Y-83995571D01*
X159167571Y-83995571D01*
X159857000Y-83632714D02*
X160328714Y-83632714D01*
X160074714Y-83923000D01*
X160183571Y-83923000D01*
X160256142Y-83959285D01*
X160292428Y-83995571D01*
X160328714Y-84068142D01*
X160328714Y-84249571D01*
X160292428Y-84322142D01*
X160256142Y-84358428D01*
X160183571Y-84394714D01*
X159965857Y-84394714D01*
X159893285Y-84358428D01*
X159857000Y-84322142D01*
X155705714Y-88617000D02*
X156068571Y-88617000D01*
X155633142Y-88834714D02*
X155887142Y-88072714D01*
X156141142Y-88834714D01*
X156322571Y-88072714D02*
X156794285Y-88072714D01*
X156540285Y-88363000D01*
X156649142Y-88363000D01*
X156721714Y-88399285D01*
X156758000Y-88435571D01*
X156794285Y-88508142D01*
X156794285Y-88689571D01*
X156758000Y-88762142D01*
X156721714Y-88798428D01*
X156649142Y-88834714D01*
X156431428Y-88834714D01*
X156358857Y-88798428D01*
X156322571Y-88762142D01*
X153135714Y-88617000D02*
X153498571Y-88617000D01*
X153063142Y-88834714D02*
X153317142Y-88072714D01*
X153571142Y-88834714D01*
X153788857Y-88145285D02*
X153825142Y-88109000D01*
X153897714Y-88072714D01*
X154079142Y-88072714D01*
X154151714Y-88109000D01*
X154188000Y-88145285D01*
X154224285Y-88217857D01*
X154224285Y-88290428D01*
X154188000Y-88399285D01*
X153752571Y-88834714D01*
X154224285Y-88834714D01*
X150615714Y-88607000D02*
X150978571Y-88607000D01*
X150543142Y-88824714D02*
X150797142Y-88062714D01*
X151051142Y-88824714D01*
X151704285Y-88824714D02*
X151268857Y-88824714D01*
X151486571Y-88824714D02*
X151486571Y-88062714D01*
X151414000Y-88171571D01*
X151341428Y-88244142D01*
X151268857Y-88280428D01*
X127805407Y-103674892D02*
X127896121Y-103705130D01*
X127926359Y-103735369D01*
X127956597Y-103795845D01*
X127956597Y-103886559D01*
X127926359Y-103947035D01*
X127896121Y-103977273D01*
X127835645Y-104007511D01*
X127593740Y-104007511D01*
X127593740Y-103372511D01*
X127805407Y-103372511D01*
X127865883Y-103402750D01*
X127896121Y-103432988D01*
X127926359Y-103493464D01*
X127926359Y-103553940D01*
X127896121Y-103614416D01*
X127865883Y-103644654D01*
X127805407Y-103674892D01*
X127593740Y-103674892D01*
X128228740Y-104007511D02*
X128228740Y-103584178D01*
X128228740Y-103705130D02*
X128258978Y-103644654D01*
X128289216Y-103614416D01*
X128349692Y-103584178D01*
X128410169Y-103584178D01*
X128621835Y-104007511D02*
X128621835Y-103584178D01*
X128621835Y-103372511D02*
X128591597Y-103402750D01*
X128621835Y-103432988D01*
X128652073Y-103402750D01*
X128621835Y-103372511D01*
X128621835Y-103432988D01*
X129196359Y-104007511D02*
X129196359Y-103372511D01*
X129196359Y-103977273D02*
X129135883Y-104007511D01*
X129014930Y-104007511D01*
X128954454Y-103977273D01*
X128924216Y-103947035D01*
X128893978Y-103886559D01*
X128893978Y-103705130D01*
X128924216Y-103644654D01*
X128954454Y-103614416D01*
X129014930Y-103584178D01*
X129135883Y-103584178D01*
X129196359Y-103614416D01*
X129770883Y-103584178D02*
X129770883Y-104098226D01*
X129740645Y-104158702D01*
X129710407Y-104188940D01*
X129649930Y-104219178D01*
X129559216Y-104219178D01*
X129498740Y-104188940D01*
X129770883Y-103977273D02*
X129710407Y-104007511D01*
X129589454Y-104007511D01*
X129528978Y-103977273D01*
X129498740Y-103947035D01*
X129468502Y-103886559D01*
X129468502Y-103705130D01*
X129498740Y-103644654D01*
X129528978Y-103614416D01*
X129589454Y-103584178D01*
X129710407Y-103584178D01*
X129770883Y-103614416D01*
X130315169Y-103977273D02*
X130254692Y-104007511D01*
X130133740Y-104007511D01*
X130073264Y-103977273D01*
X130043026Y-103916797D01*
X130043026Y-103674892D01*
X130073264Y-103614416D01*
X130133740Y-103584178D01*
X130254692Y-103584178D01*
X130315169Y-103614416D01*
X130345407Y-103674892D01*
X130345407Y-103735369D01*
X130043026Y-103795845D01*
X127805407Y-104754392D02*
X127896121Y-104784630D01*
X127926359Y-104814869D01*
X127956597Y-104875345D01*
X127956597Y-104966059D01*
X127926359Y-105026535D01*
X127896121Y-105056773D01*
X127835645Y-105087011D01*
X127593740Y-105087011D01*
X127593740Y-104452011D01*
X127805407Y-104452011D01*
X127865883Y-104482250D01*
X127896121Y-104512488D01*
X127926359Y-104572964D01*
X127926359Y-104633440D01*
X127896121Y-104693916D01*
X127865883Y-104724154D01*
X127805407Y-104754392D01*
X127593740Y-104754392D01*
X128500883Y-105087011D02*
X128500883Y-104452011D01*
X128500883Y-105056773D02*
X128440407Y-105087011D01*
X128319454Y-105087011D01*
X128258978Y-105056773D01*
X128228740Y-105026535D01*
X128198502Y-104966059D01*
X128198502Y-104784630D01*
X128228740Y-104724154D01*
X128258978Y-104693916D01*
X128319454Y-104663678D01*
X128440407Y-104663678D01*
X128500883Y-104693916D01*
X129075407Y-105087011D02*
X129075407Y-104452011D01*
X129075407Y-105056773D02*
X129014930Y-105087011D01*
X128893978Y-105087011D01*
X128833502Y-105056773D01*
X128803264Y-105026535D01*
X128773026Y-104966059D01*
X128773026Y-104784630D01*
X128803264Y-104724154D01*
X128833502Y-104693916D01*
X128893978Y-104663678D01*
X129014930Y-104663678D01*
X129075407Y-104693916D01*
X129861597Y-104845107D02*
X130345407Y-104845107D01*
X131040883Y-104452011D02*
X131252550Y-105087011D01*
X131464216Y-104452011D01*
X131948026Y-105087011D02*
X131948026Y-104452011D01*
X131948026Y-105056773D02*
X131887550Y-105087011D01*
X131766597Y-105087011D01*
X131706121Y-105056773D01*
X131675883Y-105026535D01*
X131645645Y-104966059D01*
X131645645Y-104784630D01*
X131675883Y-104724154D01*
X131706121Y-104693916D01*
X131766597Y-104663678D01*
X131887550Y-104663678D01*
X131948026Y-104693916D01*
X132522550Y-105087011D02*
X132522550Y-104452011D01*
X132522550Y-105056773D02*
X132462073Y-105087011D01*
X132341121Y-105087011D01*
X132280645Y-105056773D01*
X132250407Y-105026535D01*
X132220169Y-104966059D01*
X132220169Y-104784630D01*
X132250407Y-104724154D01*
X132280645Y-104693916D01*
X132341121Y-104663678D01*
X132462073Y-104663678D01*
X132522550Y-104693916D01*
D12*
X122844404Y-103922380D02*
X123177737Y-104922380D01*
X123511071Y-103922380D01*
X124272975Y-104922380D02*
X124272975Y-103922380D01*
X124272975Y-104874761D02*
X124177737Y-104922380D01*
X123987261Y-104922380D01*
X123892023Y-104874761D01*
X123844404Y-104827142D01*
X123796785Y-104731904D01*
X123796785Y-104446190D01*
X123844404Y-104350952D01*
X123892023Y-104303333D01*
X123987261Y-104255714D01*
X124177737Y-104255714D01*
X124272975Y-104303333D01*
X125177737Y-104922380D02*
X125177737Y-103922380D01*
X125177737Y-104874761D02*
X125082499Y-104922380D01*
X124892023Y-104922380D01*
X124796785Y-104874761D01*
X124749166Y-104827142D01*
X124701547Y-104731904D01*
X124701547Y-104446190D01*
X124749166Y-104350952D01*
X124796785Y-104303333D01*
X124892023Y-104255714D01*
X125082499Y-104255714D01*
X125177737Y-104303333D01*
X122822738Y-101522380D02*
X123156071Y-102522380D01*
X123489404Y-101522380D01*
X124251309Y-102522380D02*
X124251309Y-101522380D01*
X124251309Y-102474761D02*
X124156071Y-102522380D01*
X123965595Y-102522380D01*
X123870357Y-102474761D01*
X123822738Y-102427142D01*
X123775119Y-102331904D01*
X123775119Y-102046190D01*
X123822738Y-101950952D01*
X123870357Y-101903333D01*
X123965595Y-101855714D01*
X124156071Y-101855714D01*
X124251309Y-101903333D01*
X125156071Y-102522380D02*
X125156071Y-101522380D01*
X125156071Y-102474761D02*
X125060833Y-102522380D01*
X124870357Y-102522380D01*
X124775119Y-102474761D01*
X124727500Y-102427142D01*
X124679880Y-102331904D01*
X124679880Y-102046190D01*
X124727500Y-101950952D01*
X124775119Y-101903333D01*
X124870357Y-101855714D01*
X125060833Y-101855714D01*
X125156071Y-101903333D01*
X123437023Y-99877142D02*
X123389404Y-99924761D01*
X123246547Y-99972380D01*
X123151309Y-99972380D01*
X123008452Y-99924761D01*
X122913214Y-99829523D01*
X122865595Y-99734285D01*
X122817976Y-99543809D01*
X122817976Y-99400952D01*
X122865595Y-99210476D01*
X122913214Y-99115238D01*
X123008452Y-99020000D01*
X123151309Y-98972380D01*
X123246547Y-98972380D01*
X123389404Y-99020000D01*
X123437023Y-99067619D01*
X124341785Y-99972380D02*
X123865595Y-99972380D01*
X123865595Y-98972380D01*
X124675119Y-99972380D02*
X124675119Y-98972380D01*
X125246547Y-99972380D02*
X124817976Y-99400952D01*
X125246547Y-98972380D02*
X124675119Y-99543809D01*
X123437024Y-97522380D02*
X123103691Y-97046190D01*
X122865596Y-97522380D02*
X122865596Y-96522380D01*
X123246548Y-96522380D01*
X123341786Y-96570000D01*
X123389405Y-96617619D01*
X123437024Y-96712857D01*
X123437024Y-96855714D01*
X123389405Y-96950952D01*
X123341786Y-96998571D01*
X123246548Y-97046190D01*
X122865596Y-97046190D01*
X123865596Y-96998571D02*
X124198929Y-96998571D01*
X124341786Y-97522380D02*
X123865596Y-97522380D01*
X123865596Y-96522380D01*
X124341786Y-96522380D01*
X124722739Y-97474761D02*
X124865596Y-97522380D01*
X125103691Y-97522380D01*
X125198929Y-97474761D01*
X125246548Y-97427142D01*
X125294167Y-97331904D01*
X125294167Y-97236666D01*
X125246548Y-97141428D01*
X125198929Y-97093809D01*
X125103691Y-97046190D01*
X124913215Y-96998571D01*
X124817977Y-96950952D01*
X124770358Y-96903333D01*
X124722739Y-96808095D01*
X124722739Y-96712857D01*
X124770358Y-96617619D01*
X124817977Y-96570000D01*
X124913215Y-96522380D01*
X125151310Y-96522380D01*
X125294167Y-96570000D01*
X125722739Y-96998571D02*
X126056072Y-96998571D01*
X126198929Y-97522380D02*
X125722739Y-97522380D01*
X125722739Y-96522380D01*
X126198929Y-96522380D01*
X126484643Y-96522380D02*
X127056072Y-96522380D01*
X126770358Y-97522380D02*
X126770358Y-96522380D01*
X122665595Y-94872380D02*
X122665595Y-93872380D01*
X123237023Y-94872380D02*
X122808452Y-94300952D01*
X123237023Y-93872380D02*
X122665595Y-94443809D01*
X122851309Y-91322379D02*
X122851309Y-92036665D01*
X122803690Y-92179522D01*
X122708452Y-92274760D01*
X122565595Y-92322379D01*
X122470357Y-92322379D01*
X122417976Y-89824761D02*
X122560833Y-89872380D01*
X122798928Y-89872380D01*
X122894166Y-89824761D01*
X122941785Y-89777142D01*
X122989404Y-89681904D01*
X122989404Y-89586666D01*
X122941785Y-89491428D01*
X122894166Y-89443809D01*
X122798928Y-89396190D01*
X122608452Y-89348571D01*
X122513214Y-89300952D01*
X122465595Y-89253333D01*
X122417976Y-89158095D01*
X122417976Y-89062857D01*
X122465595Y-88967619D01*
X122513214Y-88920000D01*
X122608452Y-88872380D01*
X122846547Y-88872380D01*
X122989404Y-88920000D01*
X123417976Y-89348571D02*
X123751309Y-89348571D01*
X123894166Y-89872380D02*
X123417976Y-89872380D01*
X123417976Y-88872380D01*
X123894166Y-88872380D01*
X124179880Y-88872380D02*
X124751309Y-88872380D01*
X124465595Y-89872380D02*
X124465595Y-88872380D01*
X123089404Y-86370000D02*
X122994166Y-86322380D01*
X122851309Y-86322380D01*
X122708452Y-86370000D01*
X122613214Y-86465238D01*
X122565595Y-86560476D01*
X122517976Y-86750952D01*
X122517976Y-86893809D01*
X122565595Y-87084285D01*
X122613214Y-87179523D01*
X122708452Y-87274761D01*
X122851309Y-87322380D01*
X122946547Y-87322380D01*
X123089404Y-87274761D01*
X123137023Y-87227142D01*
X123137023Y-86893809D01*
X122946547Y-86893809D01*
X123565595Y-87322380D02*
X123565595Y-86322380D01*
X124137023Y-87322380D01*
X124137023Y-86322380D01*
X124613214Y-87322380D02*
X124613214Y-86322380D01*
X124851309Y-86322380D01*
X124994166Y-86370000D01*
X125089404Y-86465238D01*
X125137023Y-86560476D01*
X125184642Y-86750952D01*
X125184642Y-86893809D01*
X125137023Y-87084285D01*
X125089404Y-87179523D01*
X124994166Y-87274761D01*
X124851309Y-87322380D01*
X124613214Y-87322380D01*
D13*
%TO.C,REF\u002A\u002A\u002A*%
G36*
X170806957Y-104746571D02*
G01*
X170903232Y-104770809D01*
X170989816Y-104813641D01*
X171064627Y-104873419D01*
X171125582Y-104948494D01*
X171170601Y-105037220D01*
X171196864Y-105133530D01*
X171202714Y-105230795D01*
X171187860Y-105324654D01*
X171154160Y-105412511D01*
X171103472Y-105491770D01*
X171037655Y-105559836D01*
X170958566Y-105614112D01*
X170868066Y-105652002D01*
X170816800Y-105664426D01*
X170772302Y-105671947D01*
X170738001Y-105674919D01*
X170705040Y-105673094D01*
X170664566Y-105666225D01*
X170631469Y-105659250D01*
X170538053Y-105627741D01*
X170454381Y-105576617D01*
X170382335Y-105507429D01*
X170323800Y-105421728D01*
X170309852Y-105394489D01*
X170293414Y-105358122D01*
X170283106Y-105327582D01*
X170277540Y-105295450D01*
X170275331Y-105254307D01*
X170275052Y-105208222D01*
X170279139Y-105123865D01*
X170292554Y-105054586D01*
X170317744Y-104993961D01*
X170357154Y-104935567D01*
X170395702Y-104891302D01*
X170467594Y-104825484D01*
X170542687Y-104780053D01*
X170625438Y-104752850D01*
X170703072Y-104742576D01*
X170806957Y-104746571D01*
G37*
X170806957Y-104746571D02*
X170903232Y-104770809D01*
X170989816Y-104813641D01*
X171064627Y-104873419D01*
X171125582Y-104948494D01*
X171170601Y-105037220D01*
X171196864Y-105133530D01*
X171202714Y-105230795D01*
X171187860Y-105324654D01*
X171154160Y-105412511D01*
X171103472Y-105491770D01*
X171037655Y-105559836D01*
X170958566Y-105614112D01*
X170868066Y-105652002D01*
X170816800Y-105664426D01*
X170772302Y-105671947D01*
X170738001Y-105674919D01*
X170705040Y-105673094D01*
X170664566Y-105666225D01*
X170631469Y-105659250D01*
X170538053Y-105627741D01*
X170454381Y-105576617D01*
X170382335Y-105507429D01*
X170323800Y-105421728D01*
X170309852Y-105394489D01*
X170293414Y-105358122D01*
X170283106Y-105327582D01*
X170277540Y-105295450D01*
X170275331Y-105254307D01*
X170275052Y-105208222D01*
X170279139Y-105123865D01*
X170292554Y-105054586D01*
X170317744Y-104993961D01*
X170357154Y-104935567D01*
X170395702Y-104891302D01*
X170467594Y-104825484D01*
X170542687Y-104780053D01*
X170625438Y-104752850D01*
X170703072Y-104742576D01*
X170806957Y-104746571D01*
G36*
X179266507Y-107192245D02*
G01*
X179266526Y-107426662D01*
X179266552Y-107639603D01*
X179266625Y-107832168D01*
X179266782Y-108005459D01*
X179267064Y-108160576D01*
X179267509Y-108298620D01*
X179268156Y-108420692D01*
X179269045Y-108527894D01*
X179270213Y-108621326D01*
X179271701Y-108702090D01*
X179273546Y-108771286D01*
X179275789Y-108830015D01*
X179278469Y-108879379D01*
X179281623Y-108920478D01*
X179285292Y-108954413D01*
X179289513Y-108982286D01*
X179294327Y-109005198D01*
X179299773Y-109024249D01*
X179305888Y-109040540D01*
X179312712Y-109055173D01*
X179320285Y-109069249D01*
X179328645Y-109083868D01*
X179333839Y-109092974D01*
X179368104Y-109153689D01*
X178509955Y-109153689D01*
X178509955Y-109057733D01*
X178509224Y-109014370D01*
X178507272Y-108981205D01*
X178504463Y-108963424D01*
X178503221Y-108961778D01*
X178491799Y-108968662D01*
X178469084Y-108986505D01*
X178446385Y-109005879D01*
X178391800Y-109046614D01*
X178322321Y-109087617D01*
X178245270Y-109125123D01*
X178167965Y-109155364D01*
X178137113Y-109165012D01*
X178068616Y-109179578D01*
X177985764Y-109189539D01*
X177896371Y-109194583D01*
X177808248Y-109194396D01*
X177729207Y-109188666D01*
X177691511Y-109182858D01*
X177553414Y-109144797D01*
X177426113Y-109087073D01*
X177310292Y-109010211D01*
X177206637Y-108914739D01*
X177115833Y-108801179D01*
X177049031Y-108690381D01*
X176994164Y-108573625D01*
X176952163Y-108454276D01*
X176922167Y-108328283D01*
X176903311Y-108191594D01*
X176894732Y-108040158D01*
X176894006Y-107962711D01*
X176896100Y-107905934D01*
X177725217Y-107905934D01*
X177725424Y-107999002D01*
X177728337Y-108086692D01*
X177734000Y-108163772D01*
X177742455Y-108225009D01*
X177745038Y-108237350D01*
X177776840Y-108344633D01*
X177818498Y-108431658D01*
X177870363Y-108498642D01*
X177932781Y-108545805D01*
X178006100Y-108573365D01*
X178090669Y-108581541D01*
X178186835Y-108570551D01*
X178250311Y-108554829D01*
X178299454Y-108536639D01*
X178353583Y-108510791D01*
X178394244Y-108487089D01*
X178464800Y-108440721D01*
X178464800Y-107290530D01*
X178397392Y-107246962D01*
X178318867Y-107206040D01*
X178234681Y-107179389D01*
X178149557Y-107167465D01*
X178068216Y-107170722D01*
X177995380Y-107189615D01*
X177963426Y-107205184D01*
X177905501Y-107248181D01*
X177856544Y-107304953D01*
X177815390Y-107377575D01*
X177780874Y-107468121D01*
X177751833Y-107578666D01*
X177750552Y-107584533D01*
X177740381Y-107646788D01*
X177732739Y-107724594D01*
X177727670Y-107812720D01*
X177725217Y-107905934D01*
X176896100Y-107905934D01*
X176901857Y-107749895D01*
X176923802Y-107554059D01*
X176959786Y-107375332D01*
X177009759Y-107213845D01*
X177073668Y-107069726D01*
X177151462Y-106943106D01*
X177243089Y-106834115D01*
X177348497Y-106742883D01*
X177393662Y-106711932D01*
X177494611Y-106655785D01*
X177597901Y-106616174D01*
X177707989Y-106592014D01*
X177829330Y-106582219D01*
X177921836Y-106583265D01*
X178051490Y-106594231D01*
X178164084Y-106616046D01*
X178262875Y-106649714D01*
X178351121Y-106696236D01*
X178399986Y-106730448D01*
X178429353Y-106752362D01*
X178451043Y-106767333D01*
X178459253Y-106771733D01*
X178460868Y-106760904D01*
X178462159Y-106730251D01*
X178463138Y-106682526D01*
X178463817Y-106620479D01*
X178464210Y-106546862D01*
X178464330Y-106464427D01*
X178464188Y-106375925D01*
X178463797Y-106284107D01*
X178463171Y-106191724D01*
X178462320Y-106101528D01*
X178461260Y-106016271D01*
X178460001Y-105938703D01*
X178458556Y-105871576D01*
X178456938Y-105817641D01*
X178455161Y-105779650D01*
X178454669Y-105772667D01*
X178447092Y-105702251D01*
X178435531Y-105647102D01*
X178417792Y-105599981D01*
X178391682Y-105553647D01*
X178385415Y-105544067D01*
X178360983Y-105507378D01*
X179266311Y-105507378D01*
X179266507Y-107192245D01*
G37*
X179266507Y-107192245D02*
X179266526Y-107426662D01*
X179266552Y-107639603D01*
X179266625Y-107832168D01*
X179266782Y-108005459D01*
X179267064Y-108160576D01*
X179267509Y-108298620D01*
X179268156Y-108420692D01*
X179269045Y-108527894D01*
X179270213Y-108621326D01*
X179271701Y-108702090D01*
X179273546Y-108771286D01*
X179275789Y-108830015D01*
X179278469Y-108879379D01*
X179281623Y-108920478D01*
X179285292Y-108954413D01*
X179289513Y-108982286D01*
X179294327Y-109005198D01*
X179299773Y-109024249D01*
X179305888Y-109040540D01*
X179312712Y-109055173D01*
X179320285Y-109069249D01*
X179328645Y-109083868D01*
X179333839Y-109092974D01*
X179368104Y-109153689D01*
X178509955Y-109153689D01*
X178509955Y-109057733D01*
X178509224Y-109014370D01*
X178507272Y-108981205D01*
X178504463Y-108963424D01*
X178503221Y-108961778D01*
X178491799Y-108968662D01*
X178469084Y-108986505D01*
X178446385Y-109005879D01*
X178391800Y-109046614D01*
X178322321Y-109087617D01*
X178245270Y-109125123D01*
X178167965Y-109155364D01*
X178137113Y-109165012D01*
X178068616Y-109179578D01*
X177985764Y-109189539D01*
X177896371Y-109194583D01*
X177808248Y-109194396D01*
X177729207Y-109188666D01*
X177691511Y-109182858D01*
X177553414Y-109144797D01*
X177426113Y-109087073D01*
X177310292Y-109010211D01*
X177206637Y-108914739D01*
X177115833Y-108801179D01*
X177049031Y-108690381D01*
X176994164Y-108573625D01*
X176952163Y-108454276D01*
X176922167Y-108328283D01*
X176903311Y-108191594D01*
X176894732Y-108040158D01*
X176894006Y-107962711D01*
X176896100Y-107905934D01*
X177725217Y-107905934D01*
X177725424Y-107999002D01*
X177728337Y-108086692D01*
X177734000Y-108163772D01*
X177742455Y-108225009D01*
X177745038Y-108237350D01*
X177776840Y-108344633D01*
X177818498Y-108431658D01*
X177870363Y-108498642D01*
X177932781Y-108545805D01*
X178006100Y-108573365D01*
X178090669Y-108581541D01*
X178186835Y-108570551D01*
X178250311Y-108554829D01*
X178299454Y-108536639D01*
X178353583Y-108510791D01*
X178394244Y-108487089D01*
X178464800Y-108440721D01*
X178464800Y-107290530D01*
X178397392Y-107246962D01*
X178318867Y-107206040D01*
X178234681Y-107179389D01*
X178149557Y-107167465D01*
X178068216Y-107170722D01*
X177995380Y-107189615D01*
X177963426Y-107205184D01*
X177905501Y-107248181D01*
X177856544Y-107304953D01*
X177815390Y-107377575D01*
X177780874Y-107468121D01*
X177751833Y-107578666D01*
X177750552Y-107584533D01*
X177740381Y-107646788D01*
X177732739Y-107724594D01*
X177727670Y-107812720D01*
X177725217Y-107905934D01*
X176896100Y-107905934D01*
X176901857Y-107749895D01*
X176923802Y-107554059D01*
X176959786Y-107375332D01*
X177009759Y-107213845D01*
X177073668Y-107069726D01*
X177151462Y-106943106D01*
X177243089Y-106834115D01*
X177348497Y-106742883D01*
X177393662Y-106711932D01*
X177494611Y-106655785D01*
X177597901Y-106616174D01*
X177707989Y-106592014D01*
X177829330Y-106582219D01*
X177921836Y-106583265D01*
X178051490Y-106594231D01*
X178164084Y-106616046D01*
X178262875Y-106649714D01*
X178351121Y-106696236D01*
X178399986Y-106730448D01*
X178429353Y-106752362D01*
X178451043Y-106767333D01*
X178459253Y-106771733D01*
X178460868Y-106760904D01*
X178462159Y-106730251D01*
X178463138Y-106682526D01*
X178463817Y-106620479D01*
X178464210Y-106546862D01*
X178464330Y-106464427D01*
X178464188Y-106375925D01*
X178463797Y-106284107D01*
X178463171Y-106191724D01*
X178462320Y-106101528D01*
X178461260Y-106016271D01*
X178460001Y-105938703D01*
X178458556Y-105871576D01*
X178456938Y-105817641D01*
X178455161Y-105779650D01*
X178454669Y-105772667D01*
X178447092Y-105702251D01*
X178435531Y-105647102D01*
X178417792Y-105599981D01*
X178391682Y-105553647D01*
X178385415Y-105544067D01*
X178360983Y-105507378D01*
X179266311Y-105507378D01*
X179266507Y-107192245D01*
G36*
X175753574Y-106586552D02*
G01*
X175905492Y-106606567D01*
X176040756Y-106640202D01*
X176160239Y-106687725D01*
X176264815Y-106749405D01*
X176342424Y-106812965D01*
X176411265Y-106887099D01*
X176465006Y-106966871D01*
X176507910Y-107059091D01*
X176523384Y-107102161D01*
X176536244Y-107141142D01*
X176547446Y-107177289D01*
X176557120Y-107212434D01*
X176565396Y-107248410D01*
X176572403Y-107287050D01*
X176578272Y-107330185D01*
X176583131Y-107379649D01*
X176587110Y-107437273D01*
X176590340Y-107504891D01*
X176592949Y-107584334D01*
X176595067Y-107677436D01*
X176596824Y-107786027D01*
X176598349Y-107911942D01*
X176599772Y-108057012D01*
X176601025Y-108199778D01*
X176602351Y-108355968D01*
X176603556Y-108491239D01*
X176604766Y-108607246D01*
X176606106Y-108705645D01*
X176607700Y-108788093D01*
X176609675Y-108856246D01*
X176612156Y-108911760D01*
X176615269Y-108956292D01*
X176619138Y-108991498D01*
X176623889Y-109019034D01*
X176629648Y-109040556D01*
X176636539Y-109057722D01*
X176644689Y-109072186D01*
X176654223Y-109085606D01*
X176665266Y-109099638D01*
X176669566Y-109105071D01*
X176685386Y-109127910D01*
X176692422Y-109143463D01*
X176692444Y-109143922D01*
X176681567Y-109146121D01*
X176650582Y-109148147D01*
X176601957Y-109149942D01*
X176538163Y-109151451D01*
X176461669Y-109152616D01*
X176374944Y-109153380D01*
X176280457Y-109153686D01*
X176269550Y-109153689D01*
X175846657Y-109153689D01*
X175843395Y-109057622D01*
X175840133Y-108961556D01*
X175778044Y-109012543D01*
X175680714Y-109080057D01*
X175570813Y-109134749D01*
X175484349Y-109164978D01*
X175415278Y-109179666D01*
X175331925Y-109189659D01*
X175242159Y-109194646D01*
X175153845Y-109194313D01*
X175074851Y-109188351D01*
X175038622Y-109182638D01*
X174898603Y-109144776D01*
X174772178Y-109089932D01*
X174660260Y-109018924D01*
X174563762Y-108932568D01*
X174483600Y-108831679D01*
X174420687Y-108717076D01*
X174376312Y-108590984D01*
X174363978Y-108534401D01*
X174356368Y-108472202D01*
X174352739Y-108397363D01*
X174352245Y-108363467D01*
X174352310Y-108360282D01*
X175112248Y-108360282D01*
X175121541Y-108435333D01*
X175149728Y-108499160D01*
X175198197Y-108554798D01*
X175203254Y-108559211D01*
X175251548Y-108594037D01*
X175303257Y-108616620D01*
X175363989Y-108628540D01*
X175439352Y-108631383D01*
X175457459Y-108630978D01*
X175511278Y-108628325D01*
X175551308Y-108622909D01*
X175586324Y-108612745D01*
X175625103Y-108595850D01*
X175635745Y-108590672D01*
X175696396Y-108554844D01*
X175743215Y-108512212D01*
X175755952Y-108496973D01*
X175800622Y-108440462D01*
X175800622Y-108244586D01*
X175800086Y-108165939D01*
X175798396Y-108107988D01*
X175795428Y-108068875D01*
X175791057Y-108046741D01*
X175786972Y-108040274D01*
X175771047Y-108037111D01*
X175737264Y-108034488D01*
X175690340Y-108032655D01*
X175634993Y-108031857D01*
X175626106Y-108031842D01*
X175505330Y-108037096D01*
X175402660Y-108053263D01*
X175316106Y-108080961D01*
X175243681Y-108120808D01*
X175188751Y-108167758D01*
X175144204Y-108225645D01*
X175119480Y-108288693D01*
X175112248Y-108360282D01*
X174352310Y-108360282D01*
X174354178Y-108269712D01*
X174362522Y-108190812D01*
X174378768Y-108119590D01*
X174404405Y-108048864D01*
X174428401Y-107996493D01*
X174487020Y-107901196D01*
X174565117Y-107813170D01*
X174660315Y-107734017D01*
X174770238Y-107665340D01*
X174892510Y-107608741D01*
X175024755Y-107565821D01*
X175089422Y-107550882D01*
X175225604Y-107528777D01*
X175374049Y-107514194D01*
X175525505Y-107507813D01*
X175652064Y-107509445D01*
X175813950Y-107516224D01*
X175806530Y-107457245D01*
X175787238Y-107358092D01*
X175756104Y-107277372D01*
X175712269Y-107214466D01*
X175654871Y-107168756D01*
X175583048Y-107139622D01*
X175495941Y-107126447D01*
X175392686Y-107128611D01*
X175354711Y-107132612D01*
X175213520Y-107157780D01*
X175076707Y-107198814D01*
X174982178Y-107236815D01*
X174937018Y-107256190D01*
X174898585Y-107271760D01*
X174872234Y-107281405D01*
X174864546Y-107283452D01*
X174854802Y-107274374D01*
X174838083Y-107245405D01*
X174814232Y-107196217D01*
X174783093Y-107126484D01*
X174744507Y-107035879D01*
X174737910Y-107020089D01*
X174707853Y-106947772D01*
X174680874Y-106882425D01*
X174658136Y-106826906D01*
X174640806Y-106784072D01*
X174630048Y-106756781D01*
X174626941Y-106747942D01*
X174636940Y-106743187D01*
X174663217Y-106737910D01*
X174691489Y-106734231D01*
X174721646Y-106729474D01*
X174769433Y-106720028D01*
X174830612Y-106706820D01*
X174900946Y-106690776D01*
X174976194Y-106672820D01*
X175004755Y-106665797D01*
X175109816Y-106640209D01*
X175197480Y-106620147D01*
X175272068Y-106604969D01*
X175337903Y-106594035D01*
X175399307Y-106586704D01*
X175460602Y-106582335D01*
X175526110Y-106580287D01*
X175584128Y-106579889D01*
X175753574Y-106586552D01*
G37*
X175753574Y-106586552D02*
X175905492Y-106606567D01*
X176040756Y-106640202D01*
X176160239Y-106687725D01*
X176264815Y-106749405D01*
X176342424Y-106812965D01*
X176411265Y-106887099D01*
X176465006Y-106966871D01*
X176507910Y-107059091D01*
X176523384Y-107102161D01*
X176536244Y-107141142D01*
X176547446Y-107177289D01*
X176557120Y-107212434D01*
X176565396Y-107248410D01*
X176572403Y-107287050D01*
X176578272Y-107330185D01*
X176583131Y-107379649D01*
X176587110Y-107437273D01*
X176590340Y-107504891D01*
X176592949Y-107584334D01*
X176595067Y-107677436D01*
X176596824Y-107786027D01*
X176598349Y-107911942D01*
X176599772Y-108057012D01*
X176601025Y-108199778D01*
X176602351Y-108355968D01*
X176603556Y-108491239D01*
X176604766Y-108607246D01*
X176606106Y-108705645D01*
X176607700Y-108788093D01*
X176609675Y-108856246D01*
X176612156Y-108911760D01*
X176615269Y-108956292D01*
X176619138Y-108991498D01*
X176623889Y-109019034D01*
X176629648Y-109040556D01*
X176636539Y-109057722D01*
X176644689Y-109072186D01*
X176654223Y-109085606D01*
X176665266Y-109099638D01*
X176669566Y-109105071D01*
X176685386Y-109127910D01*
X176692422Y-109143463D01*
X176692444Y-109143922D01*
X176681567Y-109146121D01*
X176650582Y-109148147D01*
X176601957Y-109149942D01*
X176538163Y-109151451D01*
X176461669Y-109152616D01*
X176374944Y-109153380D01*
X176280457Y-109153686D01*
X176269550Y-109153689D01*
X175846657Y-109153689D01*
X175843395Y-109057622D01*
X175840133Y-108961556D01*
X175778044Y-109012543D01*
X175680714Y-109080057D01*
X175570813Y-109134749D01*
X175484349Y-109164978D01*
X175415278Y-109179666D01*
X175331925Y-109189659D01*
X175242159Y-109194646D01*
X175153845Y-109194313D01*
X175074851Y-109188351D01*
X175038622Y-109182638D01*
X174898603Y-109144776D01*
X174772178Y-109089932D01*
X174660260Y-109018924D01*
X174563762Y-108932568D01*
X174483600Y-108831679D01*
X174420687Y-108717076D01*
X174376312Y-108590984D01*
X174363978Y-108534401D01*
X174356368Y-108472202D01*
X174352739Y-108397363D01*
X174352245Y-108363467D01*
X174352310Y-108360282D01*
X175112248Y-108360282D01*
X175121541Y-108435333D01*
X175149728Y-108499160D01*
X175198197Y-108554798D01*
X175203254Y-108559211D01*
X175251548Y-108594037D01*
X175303257Y-108616620D01*
X175363989Y-108628540D01*
X175439352Y-108631383D01*
X175457459Y-108630978D01*
X175511278Y-108628325D01*
X175551308Y-108622909D01*
X175586324Y-108612745D01*
X175625103Y-108595850D01*
X175635745Y-108590672D01*
X175696396Y-108554844D01*
X175743215Y-108512212D01*
X175755952Y-108496973D01*
X175800622Y-108440462D01*
X175800622Y-108244586D01*
X175800086Y-108165939D01*
X175798396Y-108107988D01*
X175795428Y-108068875D01*
X175791057Y-108046741D01*
X175786972Y-108040274D01*
X175771047Y-108037111D01*
X175737264Y-108034488D01*
X175690340Y-108032655D01*
X175634993Y-108031857D01*
X175626106Y-108031842D01*
X175505330Y-108037096D01*
X175402660Y-108053263D01*
X175316106Y-108080961D01*
X175243681Y-108120808D01*
X175188751Y-108167758D01*
X175144204Y-108225645D01*
X175119480Y-108288693D01*
X175112248Y-108360282D01*
X174352310Y-108360282D01*
X174354178Y-108269712D01*
X174362522Y-108190812D01*
X174378768Y-108119590D01*
X174404405Y-108048864D01*
X174428401Y-107996493D01*
X174487020Y-107901196D01*
X174565117Y-107813170D01*
X174660315Y-107734017D01*
X174770238Y-107665340D01*
X174892510Y-107608741D01*
X175024755Y-107565821D01*
X175089422Y-107550882D01*
X175225604Y-107528777D01*
X175374049Y-107514194D01*
X175525505Y-107507813D01*
X175652064Y-107509445D01*
X175813950Y-107516224D01*
X175806530Y-107457245D01*
X175787238Y-107358092D01*
X175756104Y-107277372D01*
X175712269Y-107214466D01*
X175654871Y-107168756D01*
X175583048Y-107139622D01*
X175495941Y-107126447D01*
X175392686Y-107128611D01*
X175354711Y-107132612D01*
X175213520Y-107157780D01*
X175076707Y-107198814D01*
X174982178Y-107236815D01*
X174937018Y-107256190D01*
X174898585Y-107271760D01*
X174872234Y-107281405D01*
X174864546Y-107283452D01*
X174854802Y-107274374D01*
X174838083Y-107245405D01*
X174814232Y-107196217D01*
X174783093Y-107126484D01*
X174744507Y-107035879D01*
X174737910Y-107020089D01*
X174707853Y-106947772D01*
X174680874Y-106882425D01*
X174658136Y-106826906D01*
X174640806Y-106784072D01*
X174630048Y-106756781D01*
X174626941Y-106747942D01*
X174636940Y-106743187D01*
X174663217Y-106737910D01*
X174691489Y-106734231D01*
X174721646Y-106729474D01*
X174769433Y-106720028D01*
X174830612Y-106706820D01*
X174900946Y-106690776D01*
X174976194Y-106672820D01*
X175004755Y-106665797D01*
X175109816Y-106640209D01*
X175197480Y-106620147D01*
X175272068Y-106604969D01*
X175337903Y-106594035D01*
X175399307Y-106586704D01*
X175460602Y-106582335D01*
X175526110Y-106580287D01*
X175584128Y-106579889D01*
X175753574Y-106586552D01*
G36*
X173408429Y-105669071D02*
G01*
X173568570Y-105690245D01*
X173732510Y-105730385D01*
X173902313Y-105789889D01*
X174080043Y-105869154D01*
X174091310Y-105874699D01*
X174149005Y-105902725D01*
X174200552Y-105926802D01*
X174242191Y-105945249D01*
X174270162Y-105956386D01*
X174279733Y-105958933D01*
X174298950Y-105963941D01*
X174303561Y-105968147D01*
X174298458Y-105978580D01*
X174282418Y-106004868D01*
X174257288Y-106044257D01*
X174224914Y-106093991D01*
X174187143Y-106151315D01*
X174145822Y-106213476D01*
X174102798Y-106277718D01*
X174059917Y-106341285D01*
X174019026Y-106401425D01*
X173981971Y-106455380D01*
X173950600Y-106500397D01*
X173926759Y-106533721D01*
X173912294Y-106552597D01*
X173910309Y-106554787D01*
X173900191Y-106550138D01*
X173877850Y-106532962D01*
X173847280Y-106506440D01*
X173831536Y-106491964D01*
X173735047Y-106416682D01*
X173628336Y-106361241D01*
X173512832Y-106326141D01*
X173389962Y-106311880D01*
X173320561Y-106313051D01*
X173199423Y-106330212D01*
X173090205Y-106366094D01*
X172992582Y-106420959D01*
X172906228Y-106495070D01*
X172830815Y-106588688D01*
X172766018Y-106702076D01*
X172728601Y-106788667D01*
X172684748Y-106924366D01*
X172652428Y-107071850D01*
X172631557Y-107227314D01*
X172622051Y-107386956D01*
X172623827Y-107546973D01*
X172636803Y-107703561D01*
X172660894Y-107852918D01*
X172696018Y-107991240D01*
X172742092Y-108114724D01*
X172758373Y-108148978D01*
X172826620Y-108263064D01*
X172907079Y-108359557D01*
X172998570Y-108437670D01*
X173099911Y-108496617D01*
X173209920Y-108535612D01*
X173327415Y-108553868D01*
X173368883Y-108555211D01*
X173490441Y-108544290D01*
X173610878Y-108511474D01*
X173728666Y-108457439D01*
X173842277Y-108382865D01*
X173933685Y-108304539D01*
X173980215Y-108260008D01*
X174161483Y-108557271D01*
X174206580Y-108631433D01*
X174247819Y-108699646D01*
X174283735Y-108759459D01*
X174312866Y-108808420D01*
X174333750Y-108844079D01*
X174344924Y-108863984D01*
X174346375Y-108867079D01*
X174338146Y-108876718D01*
X174312567Y-108893999D01*
X174272873Y-108917283D01*
X174222297Y-108944934D01*
X174164074Y-108975315D01*
X174101437Y-109006790D01*
X174037621Y-109037722D01*
X173975860Y-109066473D01*
X173919388Y-109091408D01*
X173871438Y-109110889D01*
X173847986Y-109119318D01*
X173714221Y-109157133D01*
X173576327Y-109182136D01*
X173428622Y-109195140D01*
X173301833Y-109197468D01*
X173233878Y-109196373D01*
X173168277Y-109194275D01*
X173110847Y-109191434D01*
X173067403Y-109188106D01*
X173053298Y-109186422D01*
X172914284Y-109157587D01*
X172772757Y-109112468D01*
X172635275Y-109053750D01*
X172508394Y-108984120D01*
X172430889Y-108931441D01*
X172303481Y-108823239D01*
X172185178Y-108696671D01*
X172078172Y-108554866D01*
X171984652Y-108400951D01*
X171906810Y-108238053D01*
X171862956Y-108120756D01*
X171812708Y-107937128D01*
X171779209Y-107742581D01*
X171762449Y-107541325D01*
X171762416Y-107337568D01*
X171779101Y-107135521D01*
X171812493Y-106939392D01*
X171862580Y-106753391D01*
X171866397Y-106741803D01*
X171929281Y-106579750D01*
X172006028Y-106431832D01*
X172099242Y-106293865D01*
X172211527Y-106161661D01*
X172255392Y-106116399D01*
X172391534Y-105992457D01*
X172531491Y-105889915D01*
X172677411Y-105807656D01*
X172831442Y-105744564D01*
X172995732Y-105699523D01*
X173091289Y-105682033D01*
X173250023Y-105666466D01*
X173408429Y-105669071D01*
G37*
X173408429Y-105669071D02*
X173568570Y-105690245D01*
X173732510Y-105730385D01*
X173902313Y-105789889D01*
X174080043Y-105869154D01*
X174091310Y-105874699D01*
X174149005Y-105902725D01*
X174200552Y-105926802D01*
X174242191Y-105945249D01*
X174270162Y-105956386D01*
X174279733Y-105958933D01*
X174298950Y-105963941D01*
X174303561Y-105968147D01*
X174298458Y-105978580D01*
X174282418Y-106004868D01*
X174257288Y-106044257D01*
X174224914Y-106093991D01*
X174187143Y-106151315D01*
X174145822Y-106213476D01*
X174102798Y-106277718D01*
X174059917Y-106341285D01*
X174019026Y-106401425D01*
X173981971Y-106455380D01*
X173950600Y-106500397D01*
X173926759Y-106533721D01*
X173912294Y-106552597D01*
X173910309Y-106554787D01*
X173900191Y-106550138D01*
X173877850Y-106532962D01*
X173847280Y-106506440D01*
X173831536Y-106491964D01*
X173735047Y-106416682D01*
X173628336Y-106361241D01*
X173512832Y-106326141D01*
X173389962Y-106311880D01*
X173320561Y-106313051D01*
X173199423Y-106330212D01*
X173090205Y-106366094D01*
X172992582Y-106420959D01*
X172906228Y-106495070D01*
X172830815Y-106588688D01*
X172766018Y-106702076D01*
X172728601Y-106788667D01*
X172684748Y-106924366D01*
X172652428Y-107071850D01*
X172631557Y-107227314D01*
X172622051Y-107386956D01*
X172623827Y-107546973D01*
X172636803Y-107703561D01*
X172660894Y-107852918D01*
X172696018Y-107991240D01*
X172742092Y-108114724D01*
X172758373Y-108148978D01*
X172826620Y-108263064D01*
X172907079Y-108359557D01*
X172998570Y-108437670D01*
X173099911Y-108496617D01*
X173209920Y-108535612D01*
X173327415Y-108553868D01*
X173368883Y-108555211D01*
X173490441Y-108544290D01*
X173610878Y-108511474D01*
X173728666Y-108457439D01*
X173842277Y-108382865D01*
X173933685Y-108304539D01*
X173980215Y-108260008D01*
X174161483Y-108557271D01*
X174206580Y-108631433D01*
X174247819Y-108699646D01*
X174283735Y-108759459D01*
X174312866Y-108808420D01*
X174333750Y-108844079D01*
X174344924Y-108863984D01*
X174346375Y-108867079D01*
X174338146Y-108876718D01*
X174312567Y-108893999D01*
X174272873Y-108917283D01*
X174222297Y-108944934D01*
X174164074Y-108975315D01*
X174101437Y-109006790D01*
X174037621Y-109037722D01*
X173975860Y-109066473D01*
X173919388Y-109091408D01*
X173871438Y-109110889D01*
X173847986Y-109119318D01*
X173714221Y-109157133D01*
X173576327Y-109182136D01*
X173428622Y-109195140D01*
X173301833Y-109197468D01*
X173233878Y-109196373D01*
X173168277Y-109194275D01*
X173110847Y-109191434D01*
X173067403Y-109188106D01*
X173053298Y-109186422D01*
X172914284Y-109157587D01*
X172772757Y-109112468D01*
X172635275Y-109053750D01*
X172508394Y-108984120D01*
X172430889Y-108931441D01*
X172303481Y-108823239D01*
X172185178Y-108696671D01*
X172078172Y-108554866D01*
X171984652Y-108400951D01*
X171906810Y-108238053D01*
X171862956Y-108120756D01*
X171812708Y-107937128D01*
X171779209Y-107742581D01*
X171762449Y-107541325D01*
X171762416Y-107337568D01*
X171779101Y-107135521D01*
X171812493Y-106939392D01*
X171862580Y-106753391D01*
X171866397Y-106741803D01*
X171929281Y-106579750D01*
X172006028Y-106431832D01*
X172099242Y-106293865D01*
X172211527Y-106161661D01*
X172255392Y-106116399D01*
X172391534Y-105992457D01*
X172531491Y-105889915D01*
X172677411Y-105807656D01*
X172831442Y-105744564D01*
X172995732Y-105699523D01*
X173091289Y-105682033D01*
X173250023Y-105666466D01*
X173408429Y-105669071D01*
G36*
X170133600Y-105209054D02*
G01*
X170144465Y-105322993D01*
X170176082Y-105430616D01*
X170226985Y-105529615D01*
X170295707Y-105617684D01*
X170380781Y-105692516D01*
X170477768Y-105750384D01*
X170584036Y-105790005D01*
X170691050Y-105808573D01*
X170796700Y-105807434D01*
X170898875Y-105787930D01*
X170995466Y-105751406D01*
X171084362Y-105699205D01*
X171163454Y-105632673D01*
X171230631Y-105553152D01*
X171283783Y-105461987D01*
X171320801Y-105360523D01*
X171339573Y-105250102D01*
X171341511Y-105200206D01*
X171341511Y-105112267D01*
X171393440Y-105112267D01*
X171429747Y-105115111D01*
X171456645Y-105126911D01*
X171483751Y-105150649D01*
X171522133Y-105189031D01*
X171522133Y-107380602D01*
X171522124Y-107642739D01*
X171522092Y-107883241D01*
X171522028Y-108103048D01*
X171521924Y-108303101D01*
X171521773Y-108484344D01*
X171521566Y-108647716D01*
X171521294Y-108794160D01*
X171520950Y-108924617D01*
X171520526Y-109040029D01*
X171520013Y-109141338D01*
X171519403Y-109229484D01*
X171518688Y-109305410D01*
X171517860Y-109370057D01*
X171516911Y-109424367D01*
X171515833Y-109469280D01*
X171514617Y-109505740D01*
X171513255Y-109534687D01*
X171511739Y-109557063D01*
X171510062Y-109573809D01*
X171508214Y-109585868D01*
X171506187Y-109594180D01*
X171503975Y-109599687D01*
X171502892Y-109601537D01*
X171498729Y-109608549D01*
X171495195Y-109614996D01*
X171491365Y-109620900D01*
X171486318Y-109626286D01*
X171479129Y-109631178D01*
X171468877Y-109635598D01*
X171454636Y-109639572D01*
X171435486Y-109643121D01*
X171410501Y-109646270D01*
X171378760Y-109649042D01*
X171339338Y-109651461D01*
X171291314Y-109653551D01*
X171233763Y-109655335D01*
X171165763Y-109656837D01*
X171086390Y-109658080D01*
X170994721Y-109659089D01*
X170889834Y-109659885D01*
X170770804Y-109660494D01*
X170636710Y-109660939D01*
X170486627Y-109661243D01*
X170319633Y-109661430D01*
X170134804Y-109661524D01*
X169931217Y-109661548D01*
X169707950Y-109661525D01*
X169464078Y-109661480D01*
X169198679Y-109661437D01*
X169160296Y-109661432D01*
X168893318Y-109661389D01*
X168647998Y-109661318D01*
X168423417Y-109661213D01*
X168218655Y-109661066D01*
X168032794Y-109660869D01*
X167864912Y-109660616D01*
X167714092Y-109660300D01*
X167579413Y-109659913D01*
X167459956Y-109659447D01*
X167354801Y-109658897D01*
X167263029Y-109658253D01*
X167183721Y-109657511D01*
X167115957Y-109656661D01*
X167058818Y-109655697D01*
X167011383Y-109654611D01*
X166972734Y-109653397D01*
X166941951Y-109652047D01*
X166918115Y-109650555D01*
X166900306Y-109648911D01*
X166887605Y-109647111D01*
X166879092Y-109645145D01*
X166874734Y-109643477D01*
X166866272Y-109639906D01*
X166858503Y-109637270D01*
X166851398Y-109634634D01*
X166844927Y-109631062D01*
X166839061Y-109625621D01*
X166833771Y-109617375D01*
X166829026Y-109605390D01*
X166824798Y-109588731D01*
X166821057Y-109566463D01*
X166817773Y-109537652D01*
X166814917Y-109501363D01*
X166812460Y-109456661D01*
X166810371Y-109402611D01*
X166808622Y-109338279D01*
X166807183Y-109262730D01*
X166806024Y-109175030D01*
X166805117Y-109074243D01*
X166804431Y-108959434D01*
X166803937Y-108829670D01*
X166803605Y-108684015D01*
X166803407Y-108521535D01*
X166803313Y-108341295D01*
X166803292Y-108142360D01*
X166803315Y-107923796D01*
X166803354Y-107684668D01*
X166803378Y-107424040D01*
X166803378Y-107381889D01*
X166803364Y-107118992D01*
X166803339Y-106877732D01*
X166803329Y-106657165D01*
X166803358Y-106456352D01*
X166803452Y-106274349D01*
X166803638Y-106110216D01*
X166803941Y-105963011D01*
X166804386Y-105831792D01*
X166804966Y-105721867D01*
X167107803Y-105721867D01*
X167147593Y-105779711D01*
X167158764Y-105795479D01*
X167168834Y-105809441D01*
X167177862Y-105822784D01*
X167185903Y-105836693D01*
X167193014Y-105852356D01*
X167199253Y-105870958D01*
X167204675Y-105893686D01*
X167209338Y-105921727D01*
X167213299Y-105956267D01*
X167216615Y-105998492D01*
X167219341Y-106049589D01*
X167221536Y-106110744D01*
X167223255Y-106183144D01*
X167224556Y-106267975D01*
X167225495Y-106366422D01*
X167226130Y-106479674D01*
X167226516Y-106608916D01*
X167226712Y-106755334D01*
X167226773Y-106920116D01*
X167226757Y-107104447D01*
X167226720Y-107309513D01*
X167226711Y-107432133D01*
X167226735Y-107649082D01*
X167226769Y-107844642D01*
X167226757Y-108019999D01*
X167226642Y-108176341D01*
X167226370Y-108314857D01*
X167225882Y-108436734D01*
X167225124Y-108543160D01*
X167224038Y-108635322D01*
X167222569Y-108714409D01*
X167220660Y-108781608D01*
X167218256Y-108838107D01*
X167215299Y-108885093D01*
X167211734Y-108923755D01*
X167207505Y-108955280D01*
X167202554Y-108980855D01*
X167196827Y-109001670D01*
X167190267Y-109018911D01*
X167182817Y-109033765D01*
X167174421Y-109047422D01*
X167165024Y-109061069D01*
X167154568Y-109075893D01*
X167148477Y-109084783D01*
X167109704Y-109142400D01*
X167641268Y-109142400D01*
X167764517Y-109142365D01*
X167867013Y-109142215D01*
X167950580Y-109141878D01*
X168017044Y-109141286D01*
X168068229Y-109140367D01*
X168105959Y-109139051D01*
X168132060Y-109137269D01*
X168148356Y-109134951D01*
X168156672Y-109132026D01*
X168158832Y-109128424D01*
X168156661Y-109124075D01*
X168155465Y-109122645D01*
X168130315Y-109085573D01*
X168104417Y-109032772D01*
X168080808Y-108970770D01*
X168072539Y-108944357D01*
X168067922Y-108926416D01*
X168064021Y-108905355D01*
X168060752Y-108879089D01*
X168058034Y-108845532D01*
X168055785Y-108802599D01*
X168053923Y-108748204D01*
X168052364Y-108680262D01*
X168051028Y-108596688D01*
X168049831Y-108495395D01*
X168048692Y-108374300D01*
X168048315Y-108329600D01*
X168047298Y-108204449D01*
X168046540Y-108100082D01*
X168046097Y-108014707D01*
X168046030Y-107946533D01*
X168046395Y-107893765D01*
X168047252Y-107854614D01*
X168048659Y-107827285D01*
X168050675Y-107809986D01*
X168053357Y-107800926D01*
X168056764Y-107798312D01*
X168060956Y-107800351D01*
X168065429Y-107804667D01*
X168075784Y-107817602D01*
X168097842Y-107846676D01*
X168130043Y-107889759D01*
X168170826Y-107944718D01*
X168218630Y-108009423D01*
X168271895Y-108081742D01*
X168329060Y-108159544D01*
X168388563Y-108240698D01*
X168448845Y-108323072D01*
X168508345Y-108404536D01*
X168565502Y-108482957D01*
X168618755Y-108556204D01*
X168666543Y-108622147D01*
X168707307Y-108678654D01*
X168739484Y-108723593D01*
X168761515Y-108754834D01*
X168766083Y-108761466D01*
X168789004Y-108798369D01*
X168815812Y-108846359D01*
X168841211Y-108895897D01*
X168844432Y-108902577D01*
X168866110Y-108950772D01*
X168878696Y-108988334D01*
X168884426Y-109024160D01*
X168885544Y-109066200D01*
X168884910Y-109142400D01*
X170039349Y-109142400D01*
X169948185Y-109048669D01*
X169901388Y-108998775D01*
X169851101Y-108942295D01*
X169805056Y-108888026D01*
X169784631Y-108862673D01*
X169754193Y-108823128D01*
X169714138Y-108769916D01*
X169665639Y-108704667D01*
X169609865Y-108629011D01*
X169547989Y-108544577D01*
X169481181Y-108452994D01*
X169410613Y-108355892D01*
X169337455Y-108254901D01*
X169262879Y-108151650D01*
X169188056Y-108047768D01*
X169114157Y-107944885D01*
X169042354Y-107844631D01*
X168973816Y-107748636D01*
X168909716Y-107658527D01*
X168851225Y-107575936D01*
X168799514Y-107502492D01*
X168755753Y-107439824D01*
X168721115Y-107389561D01*
X168696770Y-107353334D01*
X168683889Y-107332771D01*
X168682131Y-107328668D01*
X168690090Y-107317342D01*
X168710885Y-107290162D01*
X168743153Y-107248829D01*
X168785530Y-107195044D01*
X168836653Y-107130506D01*
X168895159Y-107056918D01*
X168959686Y-106975978D01*
X169028869Y-106889388D01*
X169101347Y-106798848D01*
X169175754Y-106706060D01*
X169235483Y-106631702D01*
X170246489Y-106631702D01*
X170252398Y-106644659D01*
X170266728Y-106666908D01*
X170267775Y-106668391D01*
X170286562Y-106698544D01*
X170306209Y-106735375D01*
X170310108Y-106743511D01*
X170313644Y-106751940D01*
X170316770Y-106762059D01*
X170319514Y-106775260D01*
X170321908Y-106792938D01*
X170323981Y-106816484D01*
X170325765Y-106847293D01*
X170327288Y-106886757D01*
X170328581Y-106936269D01*
X170329674Y-106997223D01*
X170330597Y-107071011D01*
X170331381Y-107159028D01*
X170332055Y-107262665D01*
X170332650Y-107383316D01*
X170333195Y-107522374D01*
X170333721Y-107681232D01*
X170334255Y-107860089D01*
X170334794Y-108045207D01*
X170335228Y-108209145D01*
X170335491Y-108353303D01*
X170335516Y-108479079D01*
X170335235Y-108587871D01*
X170334581Y-108681077D01*
X170333486Y-108760097D01*
X170331882Y-108826328D01*
X170329703Y-108881170D01*
X170326881Y-108926021D01*
X170323349Y-108962278D01*
X170319039Y-108991341D01*
X170313883Y-109014609D01*
X170307815Y-109033479D01*
X170300767Y-109049351D01*
X170292671Y-109063622D01*
X170283460Y-109077691D01*
X170274960Y-109090158D01*
X170257824Y-109116452D01*
X170247678Y-109134037D01*
X170246489Y-109137257D01*
X170257396Y-109138334D01*
X170288589Y-109139335D01*
X170337777Y-109140235D01*
X170402667Y-109141010D01*
X170480970Y-109141637D01*
X170570393Y-109142091D01*
X170668644Y-109142349D01*
X170737555Y-109142400D01*
X170842548Y-109142180D01*
X170939390Y-109141548D01*
X171025893Y-109140549D01*
X171099868Y-109139227D01*
X171159126Y-109137626D01*
X171201480Y-109135791D01*
X171224740Y-109133765D01*
X171228622Y-109132493D01*
X171220924Y-109117591D01*
X171212926Y-109109560D01*
X171199754Y-109092434D01*
X171182515Y-109062183D01*
X171170593Y-109037622D01*
X171143955Y-108978711D01*
X171140880Y-107801845D01*
X171137805Y-106624978D01*
X170692147Y-106624978D01*
X170594330Y-106625142D01*
X170503936Y-106625611D01*
X170423370Y-106626347D01*
X170355038Y-106627316D01*
X170301344Y-106628480D01*
X170264695Y-106629803D01*
X170247496Y-106631249D01*
X170246489Y-106631702D01*
X169235483Y-106631702D01*
X169250730Y-106612722D01*
X169324910Y-106520537D01*
X169396931Y-106431204D01*
X169465431Y-106346424D01*
X169529045Y-106267898D01*
X169586412Y-106197326D01*
X169636167Y-106136409D01*
X169676948Y-106086847D01*
X169694112Y-106066178D01*
X169780404Y-105965516D01*
X169857003Y-105882259D01*
X169925817Y-105814438D01*
X169988752Y-105760089D01*
X169998133Y-105752722D01*
X170037644Y-105722117D01*
X168905884Y-105721867D01*
X168911173Y-105769844D01*
X168907870Y-105827188D01*
X168886339Y-105895463D01*
X168846365Y-105975212D01*
X168801057Y-106047495D01*
X168784839Y-106070140D01*
X168756786Y-106107696D01*
X168718570Y-106158021D01*
X168671863Y-106218973D01*
X168618339Y-106288411D01*
X168559669Y-106364194D01*
X168497525Y-106444180D01*
X168433579Y-106526228D01*
X168369505Y-106608196D01*
X168306973Y-106687943D01*
X168247657Y-106763327D01*
X168193229Y-106832207D01*
X168145361Y-106892442D01*
X168105725Y-106941889D01*
X168075994Y-106978408D01*
X168057839Y-106999858D01*
X168054780Y-107003156D01*
X168051921Y-106995149D01*
X168049707Y-106964855D01*
X168048143Y-106912556D01*
X168047233Y-106838531D01*
X168046980Y-106743063D01*
X168047387Y-106626434D01*
X168048296Y-106506445D01*
X168049618Y-106374333D01*
X168051143Y-106262594D01*
X168053119Y-106169025D01*
X168055794Y-106091419D01*
X168059418Y-106027574D01*
X168064239Y-105975283D01*
X168070506Y-105932344D01*
X168078468Y-105896551D01*
X168088373Y-105865700D01*
X168100469Y-105837586D01*
X168115007Y-105810005D01*
X168129689Y-105784966D01*
X168167686Y-105721867D01*
X167107803Y-105721867D01*
X166804966Y-105721867D01*
X166804999Y-105715617D01*
X166805805Y-105613544D01*
X166806830Y-105524633D01*
X166808100Y-105447941D01*
X166809640Y-105382527D01*
X166811476Y-105327449D01*
X166813633Y-105281765D01*
X166816137Y-105244534D01*
X166819013Y-105214813D01*
X166822287Y-105191662D01*
X166825985Y-105174139D01*
X166830131Y-105161301D01*
X166834753Y-105152208D01*
X166839874Y-105145918D01*
X166845522Y-105141488D01*
X166851721Y-105137978D01*
X166858496Y-105134445D01*
X166864492Y-105130876D01*
X166869725Y-105128300D01*
X166877901Y-105125972D01*
X166890114Y-105123878D01*
X166907459Y-105122007D01*
X166931031Y-105120347D01*
X166961923Y-105118884D01*
X167001232Y-105117608D01*
X167050050Y-105116504D01*
X167109473Y-105115561D01*
X167180596Y-105114767D01*
X167264512Y-105114109D01*
X167362317Y-105113575D01*
X167475106Y-105113153D01*
X167603971Y-105112829D01*
X167750009Y-105112592D01*
X167914314Y-105112430D01*
X168097980Y-105112330D01*
X168302103Y-105112280D01*
X168513247Y-105112267D01*
X170133600Y-105112267D01*
X170133600Y-105209054D01*
G37*
X170133600Y-105209054D02*
X170144465Y-105322993D01*
X170176082Y-105430616D01*
X170226985Y-105529615D01*
X170295707Y-105617684D01*
X170380781Y-105692516D01*
X170477768Y-105750384D01*
X170584036Y-105790005D01*
X170691050Y-105808573D01*
X170796700Y-105807434D01*
X170898875Y-105787930D01*
X170995466Y-105751406D01*
X171084362Y-105699205D01*
X171163454Y-105632673D01*
X171230631Y-105553152D01*
X171283783Y-105461987D01*
X171320801Y-105360523D01*
X171339573Y-105250102D01*
X171341511Y-105200206D01*
X171341511Y-105112267D01*
X171393440Y-105112267D01*
X171429747Y-105115111D01*
X171456645Y-105126911D01*
X171483751Y-105150649D01*
X171522133Y-105189031D01*
X171522133Y-107380602D01*
X171522124Y-107642739D01*
X171522092Y-107883241D01*
X171522028Y-108103048D01*
X171521924Y-108303101D01*
X171521773Y-108484344D01*
X171521566Y-108647716D01*
X171521294Y-108794160D01*
X171520950Y-108924617D01*
X171520526Y-109040029D01*
X171520013Y-109141338D01*
X171519403Y-109229484D01*
X171518688Y-109305410D01*
X171517860Y-109370057D01*
X171516911Y-109424367D01*
X171515833Y-109469280D01*
X171514617Y-109505740D01*
X171513255Y-109534687D01*
X171511739Y-109557063D01*
X171510062Y-109573809D01*
X171508214Y-109585868D01*
X171506187Y-109594180D01*
X171503975Y-109599687D01*
X171502892Y-109601537D01*
X171498729Y-109608549D01*
X171495195Y-109614996D01*
X171491365Y-109620900D01*
X171486318Y-109626286D01*
X171479129Y-109631178D01*
X171468877Y-109635598D01*
X171454636Y-109639572D01*
X171435486Y-109643121D01*
X171410501Y-109646270D01*
X171378760Y-109649042D01*
X171339338Y-109651461D01*
X171291314Y-109653551D01*
X171233763Y-109655335D01*
X171165763Y-109656837D01*
X171086390Y-109658080D01*
X170994721Y-109659089D01*
X170889834Y-109659885D01*
X170770804Y-109660494D01*
X170636710Y-109660939D01*
X170486627Y-109661243D01*
X170319633Y-109661430D01*
X170134804Y-109661524D01*
X169931217Y-109661548D01*
X169707950Y-109661525D01*
X169464078Y-109661480D01*
X169198679Y-109661437D01*
X169160296Y-109661432D01*
X168893318Y-109661389D01*
X168647998Y-109661318D01*
X168423417Y-109661213D01*
X168218655Y-109661066D01*
X168032794Y-109660869D01*
X167864912Y-109660616D01*
X167714092Y-109660300D01*
X167579413Y-109659913D01*
X167459956Y-109659447D01*
X167354801Y-109658897D01*
X167263029Y-109658253D01*
X167183721Y-109657511D01*
X167115957Y-109656661D01*
X167058818Y-109655697D01*
X167011383Y-109654611D01*
X166972734Y-109653397D01*
X166941951Y-109652047D01*
X166918115Y-109650555D01*
X166900306Y-109648911D01*
X166887605Y-109647111D01*
X166879092Y-109645145D01*
X166874734Y-109643477D01*
X166866272Y-109639906D01*
X166858503Y-109637270D01*
X166851398Y-109634634D01*
X166844927Y-109631062D01*
X166839061Y-109625621D01*
X166833771Y-109617375D01*
X166829026Y-109605390D01*
X166824798Y-109588731D01*
X166821057Y-109566463D01*
X166817773Y-109537652D01*
X166814917Y-109501363D01*
X166812460Y-109456661D01*
X166810371Y-109402611D01*
X166808622Y-109338279D01*
X166807183Y-109262730D01*
X166806024Y-109175030D01*
X166805117Y-109074243D01*
X166804431Y-108959434D01*
X166803937Y-108829670D01*
X166803605Y-108684015D01*
X166803407Y-108521535D01*
X166803313Y-108341295D01*
X166803292Y-108142360D01*
X166803315Y-107923796D01*
X166803354Y-107684668D01*
X166803378Y-107424040D01*
X166803378Y-107381889D01*
X166803364Y-107118992D01*
X166803339Y-106877732D01*
X166803329Y-106657165D01*
X166803358Y-106456352D01*
X166803452Y-106274349D01*
X166803638Y-106110216D01*
X166803941Y-105963011D01*
X166804386Y-105831792D01*
X166804966Y-105721867D01*
X167107803Y-105721867D01*
X167147593Y-105779711D01*
X167158764Y-105795479D01*
X167168834Y-105809441D01*
X167177862Y-105822784D01*
X167185903Y-105836693D01*
X167193014Y-105852356D01*
X167199253Y-105870958D01*
X167204675Y-105893686D01*
X167209338Y-105921727D01*
X167213299Y-105956267D01*
X167216615Y-105998492D01*
X167219341Y-106049589D01*
X167221536Y-106110744D01*
X167223255Y-106183144D01*
X167224556Y-106267975D01*
X167225495Y-106366422D01*
X167226130Y-106479674D01*
X167226516Y-106608916D01*
X167226712Y-106755334D01*
X167226773Y-106920116D01*
X167226757Y-107104447D01*
X167226720Y-107309513D01*
X167226711Y-107432133D01*
X167226735Y-107649082D01*
X167226769Y-107844642D01*
X167226757Y-108019999D01*
X167226642Y-108176341D01*
X167226370Y-108314857D01*
X167225882Y-108436734D01*
X167225124Y-108543160D01*
X167224038Y-108635322D01*
X167222569Y-108714409D01*
X167220660Y-108781608D01*
X167218256Y-108838107D01*
X167215299Y-108885093D01*
X167211734Y-108923755D01*
X167207505Y-108955280D01*
X167202554Y-108980855D01*
X167196827Y-109001670D01*
X167190267Y-109018911D01*
X167182817Y-109033765D01*
X167174421Y-109047422D01*
X167165024Y-109061069D01*
X167154568Y-109075893D01*
X167148477Y-109084783D01*
X167109704Y-109142400D01*
X167641268Y-109142400D01*
X167764517Y-109142365D01*
X167867013Y-109142215D01*
X167950580Y-109141878D01*
X168017044Y-109141286D01*
X168068229Y-109140367D01*
X168105959Y-109139051D01*
X168132060Y-109137269D01*
X168148356Y-109134951D01*
X168156672Y-109132026D01*
X168158832Y-109128424D01*
X168156661Y-109124075D01*
X168155465Y-109122645D01*
X168130315Y-109085573D01*
X168104417Y-109032772D01*
X168080808Y-108970770D01*
X168072539Y-108944357D01*
X168067922Y-108926416D01*
X168064021Y-108905355D01*
X168060752Y-108879089D01*
X168058034Y-108845532D01*
X168055785Y-108802599D01*
X168053923Y-108748204D01*
X168052364Y-108680262D01*
X168051028Y-108596688D01*
X168049831Y-108495395D01*
X168048692Y-108374300D01*
X168048315Y-108329600D01*
X168047298Y-108204449D01*
X168046540Y-108100082D01*
X168046097Y-108014707D01*
X168046030Y-107946533D01*
X168046395Y-107893765D01*
X168047252Y-107854614D01*
X168048659Y-107827285D01*
X168050675Y-107809986D01*
X168053357Y-107800926D01*
X168056764Y-107798312D01*
X168060956Y-107800351D01*
X168065429Y-107804667D01*
X168075784Y-107817602D01*
X168097842Y-107846676D01*
X168130043Y-107889759D01*
X168170826Y-107944718D01*
X168218630Y-108009423D01*
X168271895Y-108081742D01*
X168329060Y-108159544D01*
X168388563Y-108240698D01*
X168448845Y-108323072D01*
X168508345Y-108404536D01*
X168565502Y-108482957D01*
X168618755Y-108556204D01*
X168666543Y-108622147D01*
X168707307Y-108678654D01*
X168739484Y-108723593D01*
X168761515Y-108754834D01*
X168766083Y-108761466D01*
X168789004Y-108798369D01*
X168815812Y-108846359D01*
X168841211Y-108895897D01*
X168844432Y-108902577D01*
X168866110Y-108950772D01*
X168878696Y-108988334D01*
X168884426Y-109024160D01*
X168885544Y-109066200D01*
X168884910Y-109142400D01*
X170039349Y-109142400D01*
X169948185Y-109048669D01*
X169901388Y-108998775D01*
X169851101Y-108942295D01*
X169805056Y-108888026D01*
X169784631Y-108862673D01*
X169754193Y-108823128D01*
X169714138Y-108769916D01*
X169665639Y-108704667D01*
X169609865Y-108629011D01*
X169547989Y-108544577D01*
X169481181Y-108452994D01*
X169410613Y-108355892D01*
X169337455Y-108254901D01*
X169262879Y-108151650D01*
X169188056Y-108047768D01*
X169114157Y-107944885D01*
X169042354Y-107844631D01*
X168973816Y-107748636D01*
X168909716Y-107658527D01*
X168851225Y-107575936D01*
X168799514Y-107502492D01*
X168755753Y-107439824D01*
X168721115Y-107389561D01*
X168696770Y-107353334D01*
X168683889Y-107332771D01*
X168682131Y-107328668D01*
X168690090Y-107317342D01*
X168710885Y-107290162D01*
X168743153Y-107248829D01*
X168785530Y-107195044D01*
X168836653Y-107130506D01*
X168895159Y-107056918D01*
X168959686Y-106975978D01*
X169028869Y-106889388D01*
X169101347Y-106798848D01*
X169175754Y-106706060D01*
X169235483Y-106631702D01*
X170246489Y-106631702D01*
X170252398Y-106644659D01*
X170266728Y-106666908D01*
X170267775Y-106668391D01*
X170286562Y-106698544D01*
X170306209Y-106735375D01*
X170310108Y-106743511D01*
X170313644Y-106751940D01*
X170316770Y-106762059D01*
X170319514Y-106775260D01*
X170321908Y-106792938D01*
X170323981Y-106816484D01*
X170325765Y-106847293D01*
X170327288Y-106886757D01*
X170328581Y-106936269D01*
X170329674Y-106997223D01*
X170330597Y-107071011D01*
X170331381Y-107159028D01*
X170332055Y-107262665D01*
X170332650Y-107383316D01*
X170333195Y-107522374D01*
X170333721Y-107681232D01*
X170334255Y-107860089D01*
X170334794Y-108045207D01*
X170335228Y-108209145D01*
X170335491Y-108353303D01*
X170335516Y-108479079D01*
X170335235Y-108587871D01*
X170334581Y-108681077D01*
X170333486Y-108760097D01*
X170331882Y-108826328D01*
X170329703Y-108881170D01*
X170326881Y-108926021D01*
X170323349Y-108962278D01*
X170319039Y-108991341D01*
X170313883Y-109014609D01*
X170307815Y-109033479D01*
X170300767Y-109049351D01*
X170292671Y-109063622D01*
X170283460Y-109077691D01*
X170274960Y-109090158D01*
X170257824Y-109116452D01*
X170247678Y-109134037D01*
X170246489Y-109137257D01*
X170257396Y-109138334D01*
X170288589Y-109139335D01*
X170337777Y-109140235D01*
X170402667Y-109141010D01*
X170480970Y-109141637D01*
X170570393Y-109142091D01*
X170668644Y-109142349D01*
X170737555Y-109142400D01*
X170842548Y-109142180D01*
X170939390Y-109141548D01*
X171025893Y-109140549D01*
X171099868Y-109139227D01*
X171159126Y-109137626D01*
X171201480Y-109135791D01*
X171224740Y-109133765D01*
X171228622Y-109132493D01*
X171220924Y-109117591D01*
X171212926Y-109109560D01*
X171199754Y-109092434D01*
X171182515Y-109062183D01*
X171170593Y-109037622D01*
X171143955Y-108978711D01*
X171140880Y-107801845D01*
X171137805Y-106624978D01*
X170692147Y-106624978D01*
X170594330Y-106625142D01*
X170503936Y-106625611D01*
X170423370Y-106626347D01*
X170355038Y-106627316D01*
X170301344Y-106628480D01*
X170264695Y-106629803D01*
X170247496Y-106631249D01*
X170246489Y-106631702D01*
X169235483Y-106631702D01*
X169250730Y-106612722D01*
X169324910Y-106520537D01*
X169396931Y-106431204D01*
X169465431Y-106346424D01*
X169529045Y-106267898D01*
X169586412Y-106197326D01*
X169636167Y-106136409D01*
X169676948Y-106086847D01*
X169694112Y-106066178D01*
X169780404Y-105965516D01*
X169857003Y-105882259D01*
X169925817Y-105814438D01*
X169988752Y-105760089D01*
X169998133Y-105752722D01*
X170037644Y-105722117D01*
X168905884Y-105721867D01*
X168911173Y-105769844D01*
X168907870Y-105827188D01*
X168886339Y-105895463D01*
X168846365Y-105975212D01*
X168801057Y-106047495D01*
X168784839Y-106070140D01*
X168756786Y-106107696D01*
X168718570Y-106158021D01*
X168671863Y-106218973D01*
X168618339Y-106288411D01*
X168559669Y-106364194D01*
X168497525Y-106444180D01*
X168433579Y-106526228D01*
X168369505Y-106608196D01*
X168306973Y-106687943D01*
X168247657Y-106763327D01*
X168193229Y-106832207D01*
X168145361Y-106892442D01*
X168105725Y-106941889D01*
X168075994Y-106978408D01*
X168057839Y-106999858D01*
X168054780Y-107003156D01*
X168051921Y-106995149D01*
X168049707Y-106964855D01*
X168048143Y-106912556D01*
X168047233Y-106838531D01*
X168046980Y-106743063D01*
X168047387Y-106626434D01*
X168048296Y-106506445D01*
X168049618Y-106374333D01*
X168051143Y-106262594D01*
X168053119Y-106169025D01*
X168055794Y-106091419D01*
X168059418Y-106027574D01*
X168064239Y-105975283D01*
X168070506Y-105932344D01*
X168078468Y-105896551D01*
X168088373Y-105865700D01*
X168100469Y-105837586D01*
X168115007Y-105810005D01*
X168129689Y-105784966D01*
X168167686Y-105721867D01*
X167107803Y-105721867D01*
X166804966Y-105721867D01*
X166804999Y-105715617D01*
X166805805Y-105613544D01*
X166806830Y-105524633D01*
X166808100Y-105447941D01*
X166809640Y-105382527D01*
X166811476Y-105327449D01*
X166813633Y-105281765D01*
X166816137Y-105244534D01*
X166819013Y-105214813D01*
X166822287Y-105191662D01*
X166825985Y-105174139D01*
X166830131Y-105161301D01*
X166834753Y-105152208D01*
X166839874Y-105145918D01*
X166845522Y-105141488D01*
X166851721Y-105137978D01*
X166858496Y-105134445D01*
X166864492Y-105130876D01*
X166869725Y-105128300D01*
X166877901Y-105125972D01*
X166890114Y-105123878D01*
X166907459Y-105122007D01*
X166931031Y-105120347D01*
X166961923Y-105118884D01*
X167001232Y-105117608D01*
X167050050Y-105116504D01*
X167109473Y-105115561D01*
X167180596Y-105114767D01*
X167264512Y-105114109D01*
X167362317Y-105113575D01*
X167475106Y-105113153D01*
X167603971Y-105112829D01*
X167750009Y-105112592D01*
X167914314Y-105112430D01*
X168097980Y-105112330D01*
X168302103Y-105112280D01*
X168513247Y-105112267D01*
X170133600Y-105112267D01*
X170133600Y-105209054D01*
G36*
X179308823Y-109994533D02*
G01*
X179340202Y-110016776D01*
X179367911Y-110044485D01*
X179367911Y-110353920D01*
X179367838Y-110445799D01*
X179367495Y-110517840D01*
X179366692Y-110572780D01*
X179365241Y-110613360D01*
X179362952Y-110642317D01*
X179359636Y-110662391D01*
X179355105Y-110676321D01*
X179349169Y-110686845D01*
X179344514Y-110693100D01*
X179313783Y-110717673D01*
X179278496Y-110720341D01*
X179246245Y-110705271D01*
X179235588Y-110696374D01*
X179228464Y-110684557D01*
X179224167Y-110665526D01*
X179221991Y-110634992D01*
X179221228Y-110588662D01*
X179221155Y-110552871D01*
X179221155Y-110418045D01*
X178724444Y-110418045D01*
X178724444Y-110540700D01*
X178723931Y-110596787D01*
X178721876Y-110635333D01*
X178717508Y-110661361D01*
X178710056Y-110679897D01*
X178701047Y-110693100D01*
X178670144Y-110717604D01*
X178635196Y-110720506D01*
X178601738Y-110703089D01*
X178592604Y-110693959D01*
X178586152Y-110681855D01*
X178581897Y-110663001D01*
X178579352Y-110633620D01*
X178578029Y-110589937D01*
X178577443Y-110528175D01*
X178577375Y-110514000D01*
X178576891Y-110397631D01*
X178576641Y-110301727D01*
X178576723Y-110224177D01*
X178577231Y-110162869D01*
X178578262Y-110115690D01*
X178579913Y-110080530D01*
X178582279Y-110055276D01*
X178585457Y-110037817D01*
X178589544Y-110026041D01*
X178594634Y-110017835D01*
X178600266Y-110011645D01*
X178632128Y-109991844D01*
X178665357Y-109994533D01*
X178696735Y-110016776D01*
X178709433Y-110031126D01*
X178717526Y-110046978D01*
X178722042Y-110069554D01*
X178724006Y-110104078D01*
X178724444Y-110155776D01*
X178724444Y-110271289D01*
X179221155Y-110271289D01*
X179221155Y-110152756D01*
X179221662Y-110098148D01*
X179223698Y-110061275D01*
X179228035Y-110037307D01*
X179235447Y-110021415D01*
X179243733Y-110011645D01*
X179275594Y-109991844D01*
X179308823Y-109994533D01*
G37*
X179308823Y-109994533D02*
X179340202Y-110016776D01*
X179367911Y-110044485D01*
X179367911Y-110353920D01*
X179367838Y-110445799D01*
X179367495Y-110517840D01*
X179366692Y-110572780D01*
X179365241Y-110613360D01*
X179362952Y-110642317D01*
X179359636Y-110662391D01*
X179355105Y-110676321D01*
X179349169Y-110686845D01*
X179344514Y-110693100D01*
X179313783Y-110717673D01*
X179278496Y-110720341D01*
X179246245Y-110705271D01*
X179235588Y-110696374D01*
X179228464Y-110684557D01*
X179224167Y-110665526D01*
X179221991Y-110634992D01*
X179221228Y-110588662D01*
X179221155Y-110552871D01*
X179221155Y-110418045D01*
X178724444Y-110418045D01*
X178724444Y-110540700D01*
X178723931Y-110596787D01*
X178721876Y-110635333D01*
X178717508Y-110661361D01*
X178710056Y-110679897D01*
X178701047Y-110693100D01*
X178670144Y-110717604D01*
X178635196Y-110720506D01*
X178601738Y-110703089D01*
X178592604Y-110693959D01*
X178586152Y-110681855D01*
X178581897Y-110663001D01*
X178579352Y-110633620D01*
X178578029Y-110589937D01*
X178577443Y-110528175D01*
X178577375Y-110514000D01*
X178576891Y-110397631D01*
X178576641Y-110301727D01*
X178576723Y-110224177D01*
X178577231Y-110162869D01*
X178578262Y-110115690D01*
X178579913Y-110080530D01*
X178582279Y-110055276D01*
X178585457Y-110037817D01*
X178589544Y-110026041D01*
X178594634Y-110017835D01*
X178600266Y-110011645D01*
X178632128Y-109991844D01*
X178665357Y-109994533D01*
X178696735Y-110016776D01*
X178709433Y-110031126D01*
X178717526Y-110046978D01*
X178722042Y-110069554D01*
X178724006Y-110104078D01*
X178724444Y-110155776D01*
X178724444Y-110271289D01*
X179221155Y-110271289D01*
X179221155Y-110152756D01*
X179221662Y-110098148D01*
X179223698Y-110061275D01*
X179228035Y-110037307D01*
X179235447Y-110021415D01*
X179243733Y-110011645D01*
X179275594Y-109991844D01*
X179308823Y-109994533D01*
G36*
X178043065Y-109989163D02*
G01*
X178121772Y-109989542D01*
X178182863Y-109990333D01*
X178228817Y-109991670D01*
X178262114Y-109993683D01*
X178285236Y-109996506D01*
X178300662Y-110000269D01*
X178310871Y-110005105D01*
X178315813Y-110008822D01*
X178341457Y-110041358D01*
X178344559Y-110075138D01*
X178328711Y-110105826D01*
X178318348Y-110118089D01*
X178307196Y-110126450D01*
X178291035Y-110131657D01*
X178265642Y-110134457D01*
X178226798Y-110135596D01*
X178170280Y-110135821D01*
X178159180Y-110135822D01*
X178013244Y-110135822D01*
X178013244Y-110406756D01*
X178013148Y-110492154D01*
X178012711Y-110557864D01*
X178011712Y-110606774D01*
X178009928Y-110641773D01*
X178007137Y-110665749D01*
X178003117Y-110681593D01*
X177997645Y-110692191D01*
X177990666Y-110700267D01*
X177957734Y-110720112D01*
X177923354Y-110718548D01*
X177892176Y-110695906D01*
X177889886Y-110693100D01*
X177882429Y-110682492D01*
X177876747Y-110670081D01*
X177872601Y-110652850D01*
X177869750Y-110627784D01*
X177867954Y-110591867D01*
X177866972Y-110542083D01*
X177866564Y-110475417D01*
X177866489Y-110399589D01*
X177866489Y-110135822D01*
X177727127Y-110135822D01*
X177667322Y-110135418D01*
X177625918Y-110133840D01*
X177598748Y-110130547D01*
X177581646Y-110124992D01*
X177570443Y-110116631D01*
X177569083Y-110115178D01*
X177552725Y-110081939D01*
X177554172Y-110044362D01*
X177572978Y-110011645D01*
X177580250Y-110005298D01*
X177589627Y-110000266D01*
X177603609Y-109996396D01*
X177624696Y-109993537D01*
X177655389Y-109991535D01*
X177698189Y-109990239D01*
X177755595Y-109989498D01*
X177830110Y-109989158D01*
X177924233Y-109989068D01*
X177944260Y-109989067D01*
X178043065Y-109989163D01*
G37*
X178043065Y-109989163D02*
X178121772Y-109989542D01*
X178182863Y-109990333D01*
X178228817Y-109991670D01*
X178262114Y-109993683D01*
X178285236Y-109996506D01*
X178300662Y-110000269D01*
X178310871Y-110005105D01*
X178315813Y-110008822D01*
X178341457Y-110041358D01*
X178344559Y-110075138D01*
X178328711Y-110105826D01*
X178318348Y-110118089D01*
X178307196Y-110126450D01*
X178291035Y-110131657D01*
X178265642Y-110134457D01*
X178226798Y-110135596D01*
X178170280Y-110135821D01*
X178159180Y-110135822D01*
X178013244Y-110135822D01*
X178013244Y-110406756D01*
X178013148Y-110492154D01*
X178012711Y-110557864D01*
X178011712Y-110606774D01*
X178009928Y-110641773D01*
X178007137Y-110665749D01*
X178003117Y-110681593D01*
X177997645Y-110692191D01*
X177990666Y-110700267D01*
X177957734Y-110720112D01*
X177923354Y-110718548D01*
X177892176Y-110695906D01*
X177889886Y-110693100D01*
X177882429Y-110682492D01*
X177876747Y-110670081D01*
X177872601Y-110652850D01*
X177869750Y-110627784D01*
X177867954Y-110591867D01*
X177866972Y-110542083D01*
X177866564Y-110475417D01*
X177866489Y-110399589D01*
X177866489Y-110135822D01*
X177727127Y-110135822D01*
X177667322Y-110135418D01*
X177625918Y-110133840D01*
X177598748Y-110130547D01*
X177581646Y-110124992D01*
X177570443Y-110116631D01*
X177569083Y-110115178D01*
X177552725Y-110081939D01*
X177554172Y-110044362D01*
X177572978Y-110011645D01*
X177580250Y-110005298D01*
X177589627Y-110000266D01*
X177603609Y-109996396D01*
X177624696Y-109993537D01*
X177655389Y-109991535D01*
X177698189Y-109990239D01*
X177755595Y-109989498D01*
X177830110Y-109989158D01*
X177924233Y-109989068D01*
X177944260Y-109989067D01*
X178043065Y-109989163D01*
G36*
X177268614Y-109995877D02*
G01*
X177292327Y-110010647D01*
X177318978Y-110032227D01*
X177318978Y-110353773D01*
X177318893Y-110447830D01*
X177318529Y-110521932D01*
X177317724Y-110578704D01*
X177316313Y-110620768D01*
X177314133Y-110650748D01*
X177311021Y-110671267D01*
X177306814Y-110684949D01*
X177301348Y-110694416D01*
X177297472Y-110699082D01*
X177266034Y-110719575D01*
X177230233Y-110718739D01*
X177198873Y-110701264D01*
X177172222Y-110679684D01*
X177172222Y-110032227D01*
X177198873Y-110010647D01*
X177224594Y-109994949D01*
X177245600Y-109989067D01*
X177268614Y-109995877D01*
G37*
X177268614Y-109995877D02*
X177292327Y-110010647D01*
X177318978Y-110032227D01*
X177318978Y-110353773D01*
X177318893Y-110447830D01*
X177318529Y-110521932D01*
X177317724Y-110578704D01*
X177316313Y-110620768D01*
X177314133Y-110650748D01*
X177311021Y-110671267D01*
X177306814Y-110684949D01*
X177301348Y-110694416D01*
X177297472Y-110699082D01*
X177266034Y-110719575D01*
X177230233Y-110718739D01*
X177198873Y-110701264D01*
X177172222Y-110679684D01*
X177172222Y-110032227D01*
X177198873Y-110010647D01*
X177224594Y-109994949D01*
X177245600Y-109989067D01*
X177268614Y-109995877D01*
G36*
X176824665Y-109991034D02*
G01*
X176844255Y-109998035D01*
X176845010Y-109998377D01*
X176871613Y-110018678D01*
X176886270Y-110039561D01*
X176889138Y-110049352D01*
X176888996Y-110062361D01*
X176884961Y-110080895D01*
X176876146Y-110107257D01*
X176861669Y-110143752D01*
X176840645Y-110192687D01*
X176812188Y-110256365D01*
X176775415Y-110337093D01*
X176755175Y-110381216D01*
X176718625Y-110459985D01*
X176684315Y-110532423D01*
X176653552Y-110595880D01*
X176627648Y-110647708D01*
X176607910Y-110685259D01*
X176595650Y-110705884D01*
X176593224Y-110708733D01*
X176562183Y-110721302D01*
X176527121Y-110719619D01*
X176499000Y-110704332D01*
X176497854Y-110703089D01*
X176486668Y-110686154D01*
X176467904Y-110653170D01*
X176443875Y-110608380D01*
X176416897Y-110556032D01*
X176407201Y-110536742D01*
X176334014Y-110390150D01*
X176254240Y-110549393D01*
X176225767Y-110604415D01*
X176199350Y-110652132D01*
X176177148Y-110688893D01*
X176161319Y-110711044D01*
X176155954Y-110715741D01*
X176114257Y-110722102D01*
X176079849Y-110708733D01*
X176069728Y-110694446D01*
X176052214Y-110662692D01*
X176028735Y-110616597D01*
X176000720Y-110559285D01*
X175969599Y-110493880D01*
X175936799Y-110423507D01*
X175903750Y-110351291D01*
X175871881Y-110280355D01*
X175842619Y-110213825D01*
X175817395Y-110154826D01*
X175797636Y-110106481D01*
X175784772Y-110071915D01*
X175780231Y-110054253D01*
X175780277Y-110053613D01*
X175791326Y-110031388D01*
X175813410Y-110008753D01*
X175814710Y-110007768D01*
X175841853Y-109992425D01*
X175866958Y-109992574D01*
X175876368Y-109995466D01*
X175887834Y-110001718D01*
X175900010Y-110014014D01*
X175914357Y-110034908D01*
X175932336Y-110066949D01*
X175955407Y-110112688D01*
X175985030Y-110174677D01*
X176011745Y-110231898D01*
X176042480Y-110298226D01*
X176070021Y-110357874D01*
X176092938Y-110407725D01*
X176109798Y-110444664D01*
X176119173Y-110465573D01*
X176120540Y-110468845D01*
X176126689Y-110463497D01*
X176140822Y-110441109D01*
X176161057Y-110404946D01*
X176185515Y-110358277D01*
X176195248Y-110339022D01*
X176228217Y-110274004D01*
X176253643Y-110226654D01*
X176273612Y-110194219D01*
X176290210Y-110173946D01*
X176305524Y-110163082D01*
X176321640Y-110158875D01*
X176332143Y-110158400D01*
X176350670Y-110160042D01*
X176366904Y-110166831D01*
X176383035Y-110181566D01*
X176401251Y-110207044D01*
X176423739Y-110246061D01*
X176452689Y-110301414D01*
X176468662Y-110332903D01*
X176494570Y-110383087D01*
X176517167Y-110424704D01*
X176534458Y-110454242D01*
X176544450Y-110468189D01*
X176545809Y-110468770D01*
X176552261Y-110457793D01*
X176566708Y-110429290D01*
X176587703Y-110386244D01*
X176613797Y-110331638D01*
X176643546Y-110268454D01*
X176658180Y-110237071D01*
X176696250Y-110156078D01*
X176726905Y-110093756D01*
X176751737Y-110048071D01*
X176772337Y-110016989D01*
X176790298Y-109998478D01*
X176807210Y-109990504D01*
X176824665Y-109991034D01*
G37*
X176824665Y-109991034D02*
X176844255Y-109998035D01*
X176845010Y-109998377D01*
X176871613Y-110018678D01*
X176886270Y-110039561D01*
X176889138Y-110049352D01*
X176888996Y-110062361D01*
X176884961Y-110080895D01*
X176876146Y-110107257D01*
X176861669Y-110143752D01*
X176840645Y-110192687D01*
X176812188Y-110256365D01*
X176775415Y-110337093D01*
X176755175Y-110381216D01*
X176718625Y-110459985D01*
X176684315Y-110532423D01*
X176653552Y-110595880D01*
X176627648Y-110647708D01*
X176607910Y-110685259D01*
X176595650Y-110705884D01*
X176593224Y-110708733D01*
X176562183Y-110721302D01*
X176527121Y-110719619D01*
X176499000Y-110704332D01*
X176497854Y-110703089D01*
X176486668Y-110686154D01*
X176467904Y-110653170D01*
X176443875Y-110608380D01*
X176416897Y-110556032D01*
X176407201Y-110536742D01*
X176334014Y-110390150D01*
X176254240Y-110549393D01*
X176225767Y-110604415D01*
X176199350Y-110652132D01*
X176177148Y-110688893D01*
X176161319Y-110711044D01*
X176155954Y-110715741D01*
X176114257Y-110722102D01*
X176079849Y-110708733D01*
X176069728Y-110694446D01*
X176052214Y-110662692D01*
X176028735Y-110616597D01*
X176000720Y-110559285D01*
X175969599Y-110493880D01*
X175936799Y-110423507D01*
X175903750Y-110351291D01*
X175871881Y-110280355D01*
X175842619Y-110213825D01*
X175817395Y-110154826D01*
X175797636Y-110106481D01*
X175784772Y-110071915D01*
X175780231Y-110054253D01*
X175780277Y-110053613D01*
X175791326Y-110031388D01*
X175813410Y-110008753D01*
X175814710Y-110007768D01*
X175841853Y-109992425D01*
X175866958Y-109992574D01*
X175876368Y-109995466D01*
X175887834Y-110001718D01*
X175900010Y-110014014D01*
X175914357Y-110034908D01*
X175932336Y-110066949D01*
X175955407Y-110112688D01*
X175985030Y-110174677D01*
X176011745Y-110231898D01*
X176042480Y-110298226D01*
X176070021Y-110357874D01*
X176092938Y-110407725D01*
X176109798Y-110444664D01*
X176119173Y-110465573D01*
X176120540Y-110468845D01*
X176126689Y-110463497D01*
X176140822Y-110441109D01*
X176161057Y-110404946D01*
X176185515Y-110358277D01*
X176195248Y-110339022D01*
X176228217Y-110274004D01*
X176253643Y-110226654D01*
X176273612Y-110194219D01*
X176290210Y-110173946D01*
X176305524Y-110163082D01*
X176321640Y-110158875D01*
X176332143Y-110158400D01*
X176350670Y-110160042D01*
X176366904Y-110166831D01*
X176383035Y-110181566D01*
X176401251Y-110207044D01*
X176423739Y-110246061D01*
X176452689Y-110301414D01*
X176468662Y-110332903D01*
X176494570Y-110383087D01*
X176517167Y-110424704D01*
X176534458Y-110454242D01*
X176544450Y-110468189D01*
X176545809Y-110468770D01*
X176552261Y-110457793D01*
X176566708Y-110429290D01*
X176587703Y-110386244D01*
X176613797Y-110331638D01*
X176643546Y-110268454D01*
X176658180Y-110237071D01*
X176696250Y-110156078D01*
X176726905Y-110093756D01*
X176751737Y-110048071D01*
X176772337Y-110016989D01*
X176790298Y-109998478D01*
X176807210Y-109990504D01*
X176824665Y-109991034D01*
G36*
X174098309Y-109989275D02*
G01*
X174227288Y-109993636D01*
X174336991Y-110006861D01*
X174429226Y-110029741D01*
X174505802Y-110063070D01*
X174568527Y-110107638D01*
X174619212Y-110164236D01*
X174659663Y-110233658D01*
X174660459Y-110235351D01*
X174684601Y-110297483D01*
X174693203Y-110352509D01*
X174686231Y-110407887D01*
X174663654Y-110471073D01*
X174659372Y-110480689D01*
X174630172Y-110536966D01*
X174597356Y-110580451D01*
X174555002Y-110617417D01*
X174497190Y-110654135D01*
X174493831Y-110656052D01*
X174443504Y-110680227D01*
X174386621Y-110698282D01*
X174319527Y-110710839D01*
X174238565Y-110718522D01*
X174140082Y-110721953D01*
X174105286Y-110722251D01*
X173939594Y-110722845D01*
X173916197Y-110693100D01*
X173909257Y-110683319D01*
X173903842Y-110671897D01*
X173899765Y-110656095D01*
X173896837Y-110633175D01*
X173894867Y-110600396D01*
X173894225Y-110576089D01*
X174050844Y-110576089D01*
X174144726Y-110576089D01*
X174199664Y-110574483D01*
X174256060Y-110570255D01*
X174302345Y-110564292D01*
X174305139Y-110563790D01*
X174387348Y-110541736D01*
X174451114Y-110508600D01*
X174498452Y-110462847D01*
X174531382Y-110402939D01*
X174537108Y-110387061D01*
X174542721Y-110362333D01*
X174540291Y-110337902D01*
X174528467Y-110305400D01*
X174521340Y-110289434D01*
X174498000Y-110247006D01*
X174469880Y-110217240D01*
X174438940Y-110196511D01*
X174376966Y-110169537D01*
X174297651Y-110149998D01*
X174205253Y-110138746D01*
X174138333Y-110136270D01*
X174050844Y-110135822D01*
X174050844Y-110576089D01*
X173894225Y-110576089D01*
X173893668Y-110555021D01*
X173893050Y-110494311D01*
X173892825Y-110415526D01*
X173892800Y-110353920D01*
X173892800Y-110044485D01*
X173920509Y-110016776D01*
X173932806Y-110005544D01*
X173946103Y-109997853D01*
X173964672Y-109993040D01*
X173992786Y-109990446D01*
X174034717Y-109989410D01*
X174094737Y-109989270D01*
X174098309Y-109989275D01*
G37*
X174098309Y-109989275D02*
X174227288Y-109993636D01*
X174336991Y-110006861D01*
X174429226Y-110029741D01*
X174505802Y-110063070D01*
X174568527Y-110107638D01*
X174619212Y-110164236D01*
X174659663Y-110233658D01*
X174660459Y-110235351D01*
X174684601Y-110297483D01*
X174693203Y-110352509D01*
X174686231Y-110407887D01*
X174663654Y-110471073D01*
X174659372Y-110480689D01*
X174630172Y-110536966D01*
X174597356Y-110580451D01*
X174555002Y-110617417D01*
X174497190Y-110654135D01*
X174493831Y-110656052D01*
X174443504Y-110680227D01*
X174386621Y-110698282D01*
X174319527Y-110710839D01*
X174238565Y-110718522D01*
X174140082Y-110721953D01*
X174105286Y-110722251D01*
X173939594Y-110722845D01*
X173916197Y-110693100D01*
X173909257Y-110683319D01*
X173903842Y-110671897D01*
X173899765Y-110656095D01*
X173896837Y-110633175D01*
X173894867Y-110600396D01*
X173894225Y-110576089D01*
X174050844Y-110576089D01*
X174144726Y-110576089D01*
X174199664Y-110574483D01*
X174256060Y-110570255D01*
X174302345Y-110564292D01*
X174305139Y-110563790D01*
X174387348Y-110541736D01*
X174451114Y-110508600D01*
X174498452Y-110462847D01*
X174531382Y-110402939D01*
X174537108Y-110387061D01*
X174542721Y-110362333D01*
X174540291Y-110337902D01*
X174528467Y-110305400D01*
X174521340Y-110289434D01*
X174498000Y-110247006D01*
X174469880Y-110217240D01*
X174438940Y-110196511D01*
X174376966Y-110169537D01*
X174297651Y-110149998D01*
X174205253Y-110138746D01*
X174138333Y-110136270D01*
X174050844Y-110135822D01*
X174050844Y-110576089D01*
X173894225Y-110576089D01*
X173893668Y-110555021D01*
X173893050Y-110494311D01*
X173892825Y-110415526D01*
X173892800Y-110353920D01*
X173892800Y-110044485D01*
X173920509Y-110016776D01*
X173932806Y-110005544D01*
X173946103Y-109997853D01*
X173964672Y-109993040D01*
X173992786Y-109990446D01*
X174034717Y-109989410D01*
X174094737Y-109989270D01*
X174098309Y-109989275D01*
G36*
X173310343Y-109989260D02*
G01*
X173386701Y-109990174D01*
X173445217Y-109992311D01*
X173488255Y-109996175D01*
X173518183Y-110002267D01*
X173537368Y-110011090D01*
X173548176Y-110023146D01*
X173552973Y-110038939D01*
X173554127Y-110058970D01*
X173554133Y-110061335D01*
X173553131Y-110083992D01*
X173548396Y-110101503D01*
X173537333Y-110114574D01*
X173517348Y-110123913D01*
X173485846Y-110130227D01*
X173440232Y-110134222D01*
X173377913Y-110136606D01*
X173296293Y-110138086D01*
X173271277Y-110138414D01*
X173029200Y-110141467D01*
X173025814Y-110206378D01*
X173022429Y-110271289D01*
X173190576Y-110271289D01*
X173256266Y-110271531D01*
X173303172Y-110272556D01*
X173335083Y-110274811D01*
X173355791Y-110278742D01*
X173369084Y-110284798D01*
X173378755Y-110293424D01*
X173378817Y-110293493D01*
X173396356Y-110327112D01*
X173395722Y-110363448D01*
X173377314Y-110394423D01*
X173373671Y-110397607D01*
X173360741Y-110405812D01*
X173343024Y-110411521D01*
X173316570Y-110415162D01*
X173277432Y-110417167D01*
X173221662Y-110417964D01*
X173185994Y-110418045D01*
X173023555Y-110418045D01*
X173023555Y-110576089D01*
X173270161Y-110576089D01*
X173351580Y-110576231D01*
X173413410Y-110576814D01*
X173458637Y-110578068D01*
X173490248Y-110580227D01*
X173511231Y-110583523D01*
X173524573Y-110588189D01*
X173533261Y-110594457D01*
X173535450Y-110596733D01*
X173551614Y-110628280D01*
X173552797Y-110664168D01*
X173539536Y-110695285D01*
X173529043Y-110705271D01*
X173518129Y-110710769D01*
X173501217Y-110715022D01*
X173475633Y-110718180D01*
X173438701Y-110720392D01*
X173387746Y-110721806D01*
X173320094Y-110722572D01*
X173233069Y-110722838D01*
X173213394Y-110722845D01*
X173124911Y-110722787D01*
X173056227Y-110722467D01*
X173004564Y-110721667D01*
X172967145Y-110720167D01*
X172941190Y-110717749D01*
X172923922Y-110714194D01*
X172912562Y-110709282D01*
X172904332Y-110702795D01*
X172899817Y-110698138D01*
X172893021Y-110689889D01*
X172887712Y-110679669D01*
X172883706Y-110664800D01*
X172880821Y-110642602D01*
X172878874Y-110610393D01*
X172877681Y-110565496D01*
X172877061Y-110505228D01*
X172876829Y-110426911D01*
X172876800Y-110360994D01*
X172876871Y-110268628D01*
X172877208Y-110196117D01*
X172877998Y-110140737D01*
X172879426Y-110099765D01*
X172881679Y-110070478D01*
X172884943Y-110050153D01*
X172889404Y-110036066D01*
X172895248Y-110025495D01*
X172900197Y-110018811D01*
X172923594Y-109989067D01*
X173213774Y-109989067D01*
X173310343Y-109989260D01*
G37*
X173310343Y-109989260D02*
X173386701Y-109990174D01*
X173445217Y-109992311D01*
X173488255Y-109996175D01*
X173518183Y-110002267D01*
X173537368Y-110011090D01*
X173548176Y-110023146D01*
X173552973Y-110038939D01*
X173554127Y-110058970D01*
X173554133Y-110061335D01*
X173553131Y-110083992D01*
X173548396Y-110101503D01*
X173537333Y-110114574D01*
X173517348Y-110123913D01*
X173485846Y-110130227D01*
X173440232Y-110134222D01*
X173377913Y-110136606D01*
X173296293Y-110138086D01*
X173271277Y-110138414D01*
X173029200Y-110141467D01*
X173025814Y-110206378D01*
X173022429Y-110271289D01*
X173190576Y-110271289D01*
X173256266Y-110271531D01*
X173303172Y-110272556D01*
X173335083Y-110274811D01*
X173355791Y-110278742D01*
X173369084Y-110284798D01*
X173378755Y-110293424D01*
X173378817Y-110293493D01*
X173396356Y-110327112D01*
X173395722Y-110363448D01*
X173377314Y-110394423D01*
X173373671Y-110397607D01*
X173360741Y-110405812D01*
X173343024Y-110411521D01*
X173316570Y-110415162D01*
X173277432Y-110417167D01*
X173221662Y-110417964D01*
X173185994Y-110418045D01*
X173023555Y-110418045D01*
X173023555Y-110576089D01*
X173270161Y-110576089D01*
X173351580Y-110576231D01*
X173413410Y-110576814D01*
X173458637Y-110578068D01*
X173490248Y-110580227D01*
X173511231Y-110583523D01*
X173524573Y-110588189D01*
X173533261Y-110594457D01*
X173535450Y-110596733D01*
X173551614Y-110628280D01*
X173552797Y-110664168D01*
X173539536Y-110695285D01*
X173529043Y-110705271D01*
X173518129Y-110710769D01*
X173501217Y-110715022D01*
X173475633Y-110718180D01*
X173438701Y-110720392D01*
X173387746Y-110721806D01*
X173320094Y-110722572D01*
X173233069Y-110722838D01*
X173213394Y-110722845D01*
X173124911Y-110722787D01*
X173056227Y-110722467D01*
X173004564Y-110721667D01*
X172967145Y-110720167D01*
X172941190Y-110717749D01*
X172923922Y-110714194D01*
X172912562Y-110709282D01*
X172904332Y-110702795D01*
X172899817Y-110698138D01*
X172893021Y-110689889D01*
X172887712Y-110679669D01*
X172883706Y-110664800D01*
X172880821Y-110642602D01*
X172878874Y-110610393D01*
X172877681Y-110565496D01*
X172877061Y-110505228D01*
X172876829Y-110426911D01*
X172876800Y-110360994D01*
X172876871Y-110268628D01*
X172877208Y-110196117D01*
X172877998Y-110140737D01*
X172879426Y-110099765D01*
X172881679Y-110070478D01*
X172884943Y-110050153D01*
X172889404Y-110036066D01*
X172895248Y-110025495D01*
X172900197Y-110018811D01*
X172923594Y-109989067D01*
X173213774Y-109989067D01*
X173310343Y-109989260D01*
G36*
X171779886Y-109993448D02*
G01*
X171803452Y-110007273D01*
X171834265Y-110029881D01*
X171873922Y-110062338D01*
X171924020Y-110105708D01*
X171986157Y-110161058D01*
X172061928Y-110229451D01*
X172148666Y-110308084D01*
X172329289Y-110471878D01*
X172334933Y-110252029D01*
X172336971Y-110176351D01*
X172338937Y-110119994D01*
X172341266Y-110079706D01*
X172344394Y-110052235D01*
X172348755Y-110034329D01*
X172354784Y-110022737D01*
X172362916Y-110014208D01*
X172367228Y-110010623D01*
X172401759Y-109991670D01*
X172434617Y-109994441D01*
X172460682Y-110010633D01*
X172487333Y-110032199D01*
X172490648Y-110347151D01*
X172491565Y-110439779D01*
X172492032Y-110512544D01*
X172491887Y-110568161D01*
X172490968Y-110609342D01*
X172489113Y-110638803D01*
X172486161Y-110659255D01*
X172481950Y-110673413D01*
X172476318Y-110683991D01*
X172470073Y-110692474D01*
X172456561Y-110708207D01*
X172443117Y-110718636D01*
X172427876Y-110722639D01*
X172408974Y-110719094D01*
X172384545Y-110706879D01*
X172352727Y-110684871D01*
X172311652Y-110651949D01*
X172259458Y-110606991D01*
X172194278Y-110548875D01*
X172120444Y-110482099D01*
X171855155Y-110241458D01*
X171849511Y-110460589D01*
X171847469Y-110536128D01*
X171845498Y-110592354D01*
X171843161Y-110632524D01*
X171840019Y-110659896D01*
X171835636Y-110677728D01*
X171829576Y-110689279D01*
X171821400Y-110697807D01*
X171817216Y-110701282D01*
X171780235Y-110720372D01*
X171745292Y-110717493D01*
X171714864Y-110693100D01*
X171707903Y-110683286D01*
X171702477Y-110671826D01*
X171698397Y-110655968D01*
X171695471Y-110632963D01*
X171693508Y-110600062D01*
X171692317Y-110554516D01*
X171691708Y-110493573D01*
X171691489Y-110414486D01*
X171691466Y-110355956D01*
X171691540Y-110264407D01*
X171691887Y-110192687D01*
X171692699Y-110138045D01*
X171694167Y-110097732D01*
X171696481Y-110068998D01*
X171699833Y-110049093D01*
X171704412Y-110035268D01*
X171710411Y-110024772D01*
X171714864Y-110018811D01*
X171726150Y-110004691D01*
X171736699Y-109994029D01*
X171748107Y-109987892D01*
X171761970Y-109987343D01*
X171779886Y-109993448D01*
G37*
X171779886Y-109993448D02*
X171803452Y-110007273D01*
X171834265Y-110029881D01*
X171873922Y-110062338D01*
X171924020Y-110105708D01*
X171986157Y-110161058D01*
X172061928Y-110229451D01*
X172148666Y-110308084D01*
X172329289Y-110471878D01*
X172334933Y-110252029D01*
X172336971Y-110176351D01*
X172338937Y-110119994D01*
X172341266Y-110079706D01*
X172344394Y-110052235D01*
X172348755Y-110034329D01*
X172354784Y-110022737D01*
X172362916Y-110014208D01*
X172367228Y-110010623D01*
X172401759Y-109991670D01*
X172434617Y-109994441D01*
X172460682Y-110010633D01*
X172487333Y-110032199D01*
X172490648Y-110347151D01*
X172491565Y-110439779D01*
X172492032Y-110512544D01*
X172491887Y-110568161D01*
X172490968Y-110609342D01*
X172489113Y-110638803D01*
X172486161Y-110659255D01*
X172481950Y-110673413D01*
X172476318Y-110683991D01*
X172470073Y-110692474D01*
X172456561Y-110708207D01*
X172443117Y-110718636D01*
X172427876Y-110722639D01*
X172408974Y-110719094D01*
X172384545Y-110706879D01*
X172352727Y-110684871D01*
X172311652Y-110651949D01*
X172259458Y-110606991D01*
X172194278Y-110548875D01*
X172120444Y-110482099D01*
X171855155Y-110241458D01*
X171849511Y-110460589D01*
X171847469Y-110536128D01*
X171845498Y-110592354D01*
X171843161Y-110632524D01*
X171840019Y-110659896D01*
X171835636Y-110677728D01*
X171829576Y-110689279D01*
X171821400Y-110697807D01*
X171817216Y-110701282D01*
X171780235Y-110720372D01*
X171745292Y-110717493D01*
X171714864Y-110693100D01*
X171707903Y-110683286D01*
X171702477Y-110671826D01*
X171698397Y-110655968D01*
X171695471Y-110632963D01*
X171693508Y-110600062D01*
X171692317Y-110554516D01*
X171691708Y-110493573D01*
X171691489Y-110414486D01*
X171691466Y-110355956D01*
X171691540Y-110264407D01*
X171691887Y-110192687D01*
X171692699Y-110138045D01*
X171694167Y-110097732D01*
X171696481Y-110068998D01*
X171699833Y-110049093D01*
X171704412Y-110035268D01*
X171710411Y-110024772D01*
X171714864Y-110018811D01*
X171726150Y-110004691D01*
X171736699Y-109994029D01*
X171748107Y-109987892D01*
X171761970Y-109987343D01*
X171779886Y-109993448D01*
G36*
X171129919Y-109994599D02*
G01*
X171198435Y-110006095D01*
X171251057Y-110023967D01*
X171285292Y-110047499D01*
X171294621Y-110060924D01*
X171304107Y-110092148D01*
X171297723Y-110120395D01*
X171277570Y-110147182D01*
X171246255Y-110159713D01*
X171200817Y-110158696D01*
X171165674Y-110151906D01*
X171087581Y-110138971D01*
X171007774Y-110137742D01*
X170918445Y-110148241D01*
X170893771Y-110152690D01*
X170810709Y-110176108D01*
X170745727Y-110210945D01*
X170699539Y-110256604D01*
X170672855Y-110312494D01*
X170667337Y-110341388D01*
X170670949Y-110400012D01*
X170694271Y-110451879D01*
X170735176Y-110495978D01*
X170791541Y-110531299D01*
X170861240Y-110556829D01*
X170942148Y-110571559D01*
X171032140Y-110574478D01*
X171129090Y-110564575D01*
X171134564Y-110563641D01*
X171173125Y-110556459D01*
X171194506Y-110549521D01*
X171203773Y-110539227D01*
X171205994Y-110521976D01*
X171206044Y-110512841D01*
X171206044Y-110474489D01*
X171137569Y-110474489D01*
X171077100Y-110470347D01*
X171035835Y-110457147D01*
X171011825Y-110433730D01*
X171003123Y-110398936D01*
X171003017Y-110394394D01*
X171008108Y-110364654D01*
X171025567Y-110343419D01*
X171058061Y-110329366D01*
X171108257Y-110321173D01*
X171156877Y-110318161D01*
X171227544Y-110316433D01*
X171278802Y-110319070D01*
X171313761Y-110328800D01*
X171335530Y-110348353D01*
X171347220Y-110380456D01*
X171351940Y-110427838D01*
X171352800Y-110490071D01*
X171351391Y-110559535D01*
X171347152Y-110606786D01*
X171340064Y-110632012D01*
X171338689Y-110633988D01*
X171299772Y-110665508D01*
X171242714Y-110690470D01*
X171171131Y-110708340D01*
X171088642Y-110718586D01*
X170998861Y-110720673D01*
X170905408Y-110714068D01*
X170850444Y-110705956D01*
X170764234Y-110681554D01*
X170684108Y-110641662D01*
X170617023Y-110589887D01*
X170606827Y-110579539D01*
X170573698Y-110536035D01*
X170543806Y-110482118D01*
X170520643Y-110425592D01*
X170507702Y-110374259D01*
X170506142Y-110354544D01*
X170512782Y-110313419D01*
X170530432Y-110262252D01*
X170555703Y-110208394D01*
X170585211Y-110159195D01*
X170611281Y-110126334D01*
X170672235Y-110077452D01*
X170751031Y-110038545D01*
X170844843Y-110010494D01*
X170950850Y-109994179D01*
X171048000Y-109990192D01*
X171129919Y-109994599D01*
G37*
X171129919Y-109994599D02*
X171198435Y-110006095D01*
X171251057Y-110023967D01*
X171285292Y-110047499D01*
X171294621Y-110060924D01*
X171304107Y-110092148D01*
X171297723Y-110120395D01*
X171277570Y-110147182D01*
X171246255Y-110159713D01*
X171200817Y-110158696D01*
X171165674Y-110151906D01*
X171087581Y-110138971D01*
X171007774Y-110137742D01*
X170918445Y-110148241D01*
X170893771Y-110152690D01*
X170810709Y-110176108D01*
X170745727Y-110210945D01*
X170699539Y-110256604D01*
X170672855Y-110312494D01*
X170667337Y-110341388D01*
X170670949Y-110400012D01*
X170694271Y-110451879D01*
X170735176Y-110495978D01*
X170791541Y-110531299D01*
X170861240Y-110556829D01*
X170942148Y-110571559D01*
X171032140Y-110574478D01*
X171129090Y-110564575D01*
X171134564Y-110563641D01*
X171173125Y-110556459D01*
X171194506Y-110549521D01*
X171203773Y-110539227D01*
X171205994Y-110521976D01*
X171206044Y-110512841D01*
X171206044Y-110474489D01*
X171137569Y-110474489D01*
X171077100Y-110470347D01*
X171035835Y-110457147D01*
X171011825Y-110433730D01*
X171003123Y-110398936D01*
X171003017Y-110394394D01*
X171008108Y-110364654D01*
X171025567Y-110343419D01*
X171058061Y-110329366D01*
X171108257Y-110321173D01*
X171156877Y-110318161D01*
X171227544Y-110316433D01*
X171278802Y-110319070D01*
X171313761Y-110328800D01*
X171335530Y-110348353D01*
X171347220Y-110380456D01*
X171351940Y-110427838D01*
X171352800Y-110490071D01*
X171351391Y-110559535D01*
X171347152Y-110606786D01*
X171340064Y-110632012D01*
X171338689Y-110633988D01*
X171299772Y-110665508D01*
X171242714Y-110690470D01*
X171171131Y-110708340D01*
X171088642Y-110718586D01*
X170998861Y-110720673D01*
X170905408Y-110714068D01*
X170850444Y-110705956D01*
X170764234Y-110681554D01*
X170684108Y-110641662D01*
X170617023Y-110589887D01*
X170606827Y-110579539D01*
X170573698Y-110536035D01*
X170543806Y-110482118D01*
X170520643Y-110425592D01*
X170507702Y-110374259D01*
X170506142Y-110354544D01*
X170512782Y-110313419D01*
X170530432Y-110262252D01*
X170555703Y-110208394D01*
X170585211Y-110159195D01*
X170611281Y-110126334D01*
X170672235Y-110077452D01*
X170751031Y-110038545D01*
X170844843Y-110010494D01*
X170950850Y-109994179D01*
X171048000Y-109990192D01*
X171129919Y-109994599D01*
G36*
X170156178Y-110011645D02*
G01*
X170162758Y-110019218D01*
X170167921Y-110028987D01*
X170171836Y-110043571D01*
X170174676Y-110065585D01*
X170176613Y-110097648D01*
X170177817Y-110142375D01*
X170178461Y-110202385D01*
X170178716Y-110280294D01*
X170178755Y-110355956D01*
X170178686Y-110449802D01*
X170178362Y-110523689D01*
X170177614Y-110580232D01*
X170176268Y-110622049D01*
X170174154Y-110651757D01*
X170171100Y-110671973D01*
X170166934Y-110685314D01*
X170161484Y-110694398D01*
X170156178Y-110700267D01*
X170123174Y-110719947D01*
X170088009Y-110718181D01*
X170056545Y-110696717D01*
X170049316Y-110688337D01*
X170043666Y-110678614D01*
X170039401Y-110664861D01*
X170036327Y-110644389D01*
X170034248Y-110614512D01*
X170032970Y-110572541D01*
X170032299Y-110515789D01*
X170032041Y-110441567D01*
X170032000Y-110357537D01*
X170032000Y-110044485D01*
X170059709Y-110016776D01*
X170093863Y-109993463D01*
X170126994Y-109992623D01*
X170156178Y-110011645D01*
G37*
X170156178Y-110011645D02*
X170162758Y-110019218D01*
X170167921Y-110028987D01*
X170171836Y-110043571D01*
X170174676Y-110065585D01*
X170176613Y-110097648D01*
X170177817Y-110142375D01*
X170178461Y-110202385D01*
X170178716Y-110280294D01*
X170178755Y-110355956D01*
X170178686Y-110449802D01*
X170178362Y-110523689D01*
X170177614Y-110580232D01*
X170176268Y-110622049D01*
X170174154Y-110651757D01*
X170171100Y-110671973D01*
X170166934Y-110685314D01*
X170161484Y-110694398D01*
X170156178Y-110700267D01*
X170123174Y-110719947D01*
X170088009Y-110718181D01*
X170056545Y-110696717D01*
X170049316Y-110688337D01*
X170043666Y-110678614D01*
X170039401Y-110664861D01*
X170036327Y-110644389D01*
X170034248Y-110614512D01*
X170032970Y-110572541D01*
X170032299Y-110515789D01*
X170032041Y-110441567D01*
X170032000Y-110357537D01*
X170032000Y-110044485D01*
X170059709Y-110016776D01*
X170093863Y-109993463D01*
X170126994Y-109992623D01*
X170156178Y-110011645D01*
G36*
X169388297Y-109990351D02*
G01*
X169463112Y-109995581D01*
X169532694Y-110003750D01*
X169592998Y-110014550D01*
X169639980Y-110027673D01*
X169669594Y-110042813D01*
X169674140Y-110047269D01*
X169689946Y-110081850D01*
X169685153Y-110117351D01*
X169660636Y-110147725D01*
X169659466Y-110148596D01*
X169645046Y-110157954D01*
X169629992Y-110162876D01*
X169608995Y-110163473D01*
X169576743Y-110159861D01*
X169527927Y-110152154D01*
X169524000Y-110151505D01*
X169451261Y-110142569D01*
X169372783Y-110138161D01*
X169294073Y-110138119D01*
X169220639Y-110142279D01*
X169157989Y-110150479D01*
X169111630Y-110162557D01*
X169108584Y-110163771D01*
X169074952Y-110182615D01*
X169063136Y-110201685D01*
X169072386Y-110220439D01*
X169101953Y-110238337D01*
X169151089Y-110254837D01*
X169219043Y-110269396D01*
X169264355Y-110276406D01*
X169358544Y-110289889D01*
X169433456Y-110302214D01*
X169492283Y-110314449D01*
X169538215Y-110327661D01*
X169574445Y-110342917D01*
X169604162Y-110361285D01*
X169630558Y-110383831D01*
X169651770Y-110405971D01*
X169676935Y-110436819D01*
X169689319Y-110463345D01*
X169693192Y-110496026D01*
X169693333Y-110507995D01*
X169690424Y-110547712D01*
X169678798Y-110577259D01*
X169658677Y-110603486D01*
X169617784Y-110643576D01*
X169572183Y-110674149D01*
X169518487Y-110696203D01*
X169453308Y-110710735D01*
X169373256Y-110718741D01*
X169274943Y-110721218D01*
X169258711Y-110721177D01*
X169193151Y-110719818D01*
X169128134Y-110716730D01*
X169070748Y-110712356D01*
X169028078Y-110707140D01*
X169024628Y-110706541D01*
X168982204Y-110696491D01*
X168946220Y-110683796D01*
X168925850Y-110672190D01*
X168906893Y-110641572D01*
X168905573Y-110605918D01*
X168921915Y-110574144D01*
X168925571Y-110570551D01*
X168940685Y-110559876D01*
X168959585Y-110555276D01*
X168988838Y-110556059D01*
X169024349Y-110560127D01*
X169064030Y-110563762D01*
X169119655Y-110566828D01*
X169184594Y-110569053D01*
X169252215Y-110570164D01*
X169270000Y-110570237D01*
X169337872Y-110569964D01*
X169387546Y-110568646D01*
X169423390Y-110565827D01*
X169449776Y-110561050D01*
X169471074Y-110553857D01*
X169483874Y-110547867D01*
X169512000Y-110531233D01*
X169529932Y-110516168D01*
X169532553Y-110511897D01*
X169527024Y-110494263D01*
X169500740Y-110477192D01*
X169455522Y-110461458D01*
X169393192Y-110447838D01*
X169374829Y-110444804D01*
X169278910Y-110429738D01*
X169202359Y-110417146D01*
X169142220Y-110406111D01*
X169095540Y-110395720D01*
X169059363Y-110385056D01*
X169030735Y-110373205D01*
X169006702Y-110359251D01*
X168984308Y-110342281D01*
X168960598Y-110321378D01*
X168952620Y-110314049D01*
X168924647Y-110286699D01*
X168909840Y-110265029D01*
X168904048Y-110240232D01*
X168903111Y-110208983D01*
X168913425Y-110147705D01*
X168944248Y-110095640D01*
X168995405Y-110052958D01*
X169066717Y-110019825D01*
X169117600Y-110004964D01*
X169172900Y-109995366D01*
X169239147Y-109989936D01*
X169312294Y-109988367D01*
X169388297Y-109990351D01*
G37*
X169388297Y-109990351D02*
X169463112Y-109995581D01*
X169532694Y-110003750D01*
X169592998Y-110014550D01*
X169639980Y-110027673D01*
X169669594Y-110042813D01*
X169674140Y-110047269D01*
X169689946Y-110081850D01*
X169685153Y-110117351D01*
X169660636Y-110147725D01*
X169659466Y-110148596D01*
X169645046Y-110157954D01*
X169629992Y-110162876D01*
X169608995Y-110163473D01*
X169576743Y-110159861D01*
X169527927Y-110152154D01*
X169524000Y-110151505D01*
X169451261Y-110142569D01*
X169372783Y-110138161D01*
X169294073Y-110138119D01*
X169220639Y-110142279D01*
X169157989Y-110150479D01*
X169111630Y-110162557D01*
X169108584Y-110163771D01*
X169074952Y-110182615D01*
X169063136Y-110201685D01*
X169072386Y-110220439D01*
X169101953Y-110238337D01*
X169151089Y-110254837D01*
X169219043Y-110269396D01*
X169264355Y-110276406D01*
X169358544Y-110289889D01*
X169433456Y-110302214D01*
X169492283Y-110314449D01*
X169538215Y-110327661D01*
X169574445Y-110342917D01*
X169604162Y-110361285D01*
X169630558Y-110383831D01*
X169651770Y-110405971D01*
X169676935Y-110436819D01*
X169689319Y-110463345D01*
X169693192Y-110496026D01*
X169693333Y-110507995D01*
X169690424Y-110547712D01*
X169678798Y-110577259D01*
X169658677Y-110603486D01*
X169617784Y-110643576D01*
X169572183Y-110674149D01*
X169518487Y-110696203D01*
X169453308Y-110710735D01*
X169373256Y-110718741D01*
X169274943Y-110721218D01*
X169258711Y-110721177D01*
X169193151Y-110719818D01*
X169128134Y-110716730D01*
X169070748Y-110712356D01*
X169028078Y-110707140D01*
X169024628Y-110706541D01*
X168982204Y-110696491D01*
X168946220Y-110683796D01*
X168925850Y-110672190D01*
X168906893Y-110641572D01*
X168905573Y-110605918D01*
X168921915Y-110574144D01*
X168925571Y-110570551D01*
X168940685Y-110559876D01*
X168959585Y-110555276D01*
X168988838Y-110556059D01*
X169024349Y-110560127D01*
X169064030Y-110563762D01*
X169119655Y-110566828D01*
X169184594Y-110569053D01*
X169252215Y-110570164D01*
X169270000Y-110570237D01*
X169337872Y-110569964D01*
X169387546Y-110568646D01*
X169423390Y-110565827D01*
X169449776Y-110561050D01*
X169471074Y-110553857D01*
X169483874Y-110547867D01*
X169512000Y-110531233D01*
X169529932Y-110516168D01*
X169532553Y-110511897D01*
X169527024Y-110494263D01*
X169500740Y-110477192D01*
X169455522Y-110461458D01*
X169393192Y-110447838D01*
X169374829Y-110444804D01*
X169278910Y-110429738D01*
X169202359Y-110417146D01*
X169142220Y-110406111D01*
X169095540Y-110395720D01*
X169059363Y-110385056D01*
X169030735Y-110373205D01*
X169006702Y-110359251D01*
X168984308Y-110342281D01*
X168960598Y-110321378D01*
X168952620Y-110314049D01*
X168924647Y-110286699D01*
X168909840Y-110265029D01*
X168904048Y-110240232D01*
X168903111Y-110208983D01*
X168913425Y-110147705D01*
X168944248Y-110095640D01*
X168995405Y-110052958D01*
X169066717Y-110019825D01*
X169117600Y-110004964D01*
X169172900Y-109995366D01*
X169239147Y-109989936D01*
X169312294Y-109988367D01*
X169388297Y-109990351D01*
G36*
X168367206Y-109989146D02*
G01*
X168436614Y-109989518D01*
X168489003Y-109990385D01*
X168527153Y-109991946D01*
X168553841Y-109994403D01*
X168571847Y-109997957D01*
X168583951Y-110002810D01*
X168592931Y-110009161D01*
X168596182Y-110012084D01*
X168615957Y-110043142D01*
X168619518Y-110078828D01*
X168606509Y-110110510D01*
X168600494Y-110116913D01*
X168590765Y-110123121D01*
X168575099Y-110127910D01*
X168550592Y-110131514D01*
X168514339Y-110134164D01*
X168463435Y-110136095D01*
X168394974Y-110137539D01*
X168332383Y-110138418D01*
X168084666Y-110141467D01*
X168081281Y-110206378D01*
X168077895Y-110271289D01*
X168246042Y-110271289D01*
X168319041Y-110271919D01*
X168372483Y-110274553D01*
X168409372Y-110280309D01*
X168432712Y-110290304D01*
X168445506Y-110305656D01*
X168450758Y-110327482D01*
X168451555Y-110347738D01*
X168449077Y-110372592D01*
X168439723Y-110390906D01*
X168420617Y-110403637D01*
X168388882Y-110411741D01*
X168341641Y-110416176D01*
X168276017Y-110417899D01*
X168240199Y-110418045D01*
X168079022Y-110418045D01*
X168079022Y-110576089D01*
X168327378Y-110576089D01*
X168408787Y-110576202D01*
X168470658Y-110576712D01*
X168516032Y-110577870D01*
X168547946Y-110579930D01*
X168569441Y-110583146D01*
X168583557Y-110587772D01*
X168593332Y-110594059D01*
X168598311Y-110598667D01*
X168615390Y-110625560D01*
X168620889Y-110649467D01*
X168613037Y-110678667D01*
X168598311Y-110700267D01*
X168590454Y-110707066D01*
X168580312Y-110712346D01*
X168565156Y-110716298D01*
X168542259Y-110719113D01*
X168508891Y-110720982D01*
X168462325Y-110722098D01*
X168399833Y-110722651D01*
X168318686Y-110722833D01*
X168276578Y-110722845D01*
X168186402Y-110722765D01*
X168116076Y-110722398D01*
X168062871Y-110721552D01*
X168024060Y-110720036D01*
X167996913Y-110717659D01*
X167978702Y-110714229D01*
X167966700Y-110709554D01*
X167958178Y-110703444D01*
X167954844Y-110700267D01*
X167948245Y-110692670D01*
X167943073Y-110682870D01*
X167939154Y-110668239D01*
X167936316Y-110646152D01*
X167934385Y-110613982D01*
X167933188Y-110569103D01*
X167932552Y-110508889D01*
X167932303Y-110430713D01*
X167932266Y-110357923D01*
X167932300Y-110264707D01*
X167932535Y-110191431D01*
X167933170Y-110135458D01*
X167934406Y-110094151D01*
X167936444Y-110064872D01*
X167939483Y-110044984D01*
X167943723Y-110031850D01*
X167949365Y-110022832D01*
X167956609Y-110015293D01*
X167958394Y-110013612D01*
X167967055Y-110006172D01*
X167977118Y-110000409D01*
X167991375Y-109996112D01*
X168012617Y-109993064D01*
X168043636Y-109991051D01*
X168087223Y-109989860D01*
X168146169Y-109989275D01*
X168223266Y-109989083D01*
X168277999Y-109989067D01*
X168367206Y-109989146D01*
G37*
X168367206Y-109989146D02*
X168436614Y-109989518D01*
X168489003Y-109990385D01*
X168527153Y-109991946D01*
X168553841Y-109994403D01*
X168571847Y-109997957D01*
X168583951Y-110002810D01*
X168592931Y-110009161D01*
X168596182Y-110012084D01*
X168615957Y-110043142D01*
X168619518Y-110078828D01*
X168606509Y-110110510D01*
X168600494Y-110116913D01*
X168590765Y-110123121D01*
X168575099Y-110127910D01*
X168550592Y-110131514D01*
X168514339Y-110134164D01*
X168463435Y-110136095D01*
X168394974Y-110137539D01*
X168332383Y-110138418D01*
X168084666Y-110141467D01*
X168081281Y-110206378D01*
X168077895Y-110271289D01*
X168246042Y-110271289D01*
X168319041Y-110271919D01*
X168372483Y-110274553D01*
X168409372Y-110280309D01*
X168432712Y-110290304D01*
X168445506Y-110305656D01*
X168450758Y-110327482D01*
X168451555Y-110347738D01*
X168449077Y-110372592D01*
X168439723Y-110390906D01*
X168420617Y-110403637D01*
X168388882Y-110411741D01*
X168341641Y-110416176D01*
X168276017Y-110417899D01*
X168240199Y-110418045D01*
X168079022Y-110418045D01*
X168079022Y-110576089D01*
X168327378Y-110576089D01*
X168408787Y-110576202D01*
X168470658Y-110576712D01*
X168516032Y-110577870D01*
X168547946Y-110579930D01*
X168569441Y-110583146D01*
X168583557Y-110587772D01*
X168593332Y-110594059D01*
X168598311Y-110598667D01*
X168615390Y-110625560D01*
X168620889Y-110649467D01*
X168613037Y-110678667D01*
X168598311Y-110700267D01*
X168590454Y-110707066D01*
X168580312Y-110712346D01*
X168565156Y-110716298D01*
X168542259Y-110719113D01*
X168508891Y-110720982D01*
X168462325Y-110722098D01*
X168399833Y-110722651D01*
X168318686Y-110722833D01*
X168276578Y-110722845D01*
X168186402Y-110722765D01*
X168116076Y-110722398D01*
X168062871Y-110721552D01*
X168024060Y-110720036D01*
X167996913Y-110717659D01*
X167978702Y-110714229D01*
X167966700Y-110709554D01*
X167958178Y-110703444D01*
X167954844Y-110700267D01*
X167948245Y-110692670D01*
X167943073Y-110682870D01*
X167939154Y-110668239D01*
X167936316Y-110646152D01*
X167934385Y-110613982D01*
X167933188Y-110569103D01*
X167932552Y-110508889D01*
X167932303Y-110430713D01*
X167932266Y-110357923D01*
X167932300Y-110264707D01*
X167932535Y-110191431D01*
X167933170Y-110135458D01*
X167934406Y-110094151D01*
X167936444Y-110064872D01*
X167939483Y-110044984D01*
X167943723Y-110031850D01*
X167949365Y-110022832D01*
X167956609Y-110015293D01*
X167958394Y-110013612D01*
X167967055Y-110006172D01*
X167977118Y-110000409D01*
X167991375Y-109996112D01*
X168012617Y-109993064D01*
X168043636Y-109991051D01*
X168087223Y-109989860D01*
X168146169Y-109989275D01*
X168223266Y-109989083D01*
X168277999Y-109989067D01*
X168367206Y-109989146D01*
G36*
X166958629Y-109989066D02*
G01*
X166998111Y-109989467D01*
X167113800Y-109992259D01*
X167210689Y-110000550D01*
X167292081Y-110015232D01*
X167361277Y-110037193D01*
X167421580Y-110067322D01*
X167476292Y-110106510D01*
X167495833Y-110123532D01*
X167528250Y-110163363D01*
X167557480Y-110217413D01*
X167580009Y-110277323D01*
X167592321Y-110334739D01*
X167593600Y-110355956D01*
X167585583Y-110414769D01*
X167564101Y-110479013D01*
X167533001Y-110539821D01*
X167496134Y-110588330D01*
X167490146Y-110594182D01*
X167439421Y-110635321D01*
X167383875Y-110667435D01*
X167320304Y-110691365D01*
X167245506Y-110707953D01*
X167156278Y-110718041D01*
X167049418Y-110722469D01*
X167000472Y-110722845D01*
X166938238Y-110722545D01*
X166894472Y-110721292D01*
X166865069Y-110718554D01*
X166845921Y-110713801D01*
X166832923Y-110706501D01*
X166825955Y-110700267D01*
X166819374Y-110692694D01*
X166814212Y-110682924D01*
X166810297Y-110668340D01*
X166807457Y-110646326D01*
X166805520Y-110614264D01*
X166804316Y-110569536D01*
X166803672Y-110509526D01*
X166803417Y-110431617D01*
X166803378Y-110355956D01*
X166803130Y-110255041D01*
X166803183Y-110174427D01*
X166804143Y-110135822D01*
X166950133Y-110135822D01*
X166950133Y-110576089D01*
X167043266Y-110576004D01*
X167099307Y-110574396D01*
X167158001Y-110570256D01*
X167206972Y-110564464D01*
X167208462Y-110564226D01*
X167287608Y-110545090D01*
X167348998Y-110515287D01*
X167395695Y-110472878D01*
X167425365Y-110426961D01*
X167443647Y-110376026D01*
X167442229Y-110328200D01*
X167421012Y-110276933D01*
X167379511Y-110223899D01*
X167322002Y-110184600D01*
X167247250Y-110158331D01*
X167197292Y-110149035D01*
X167140584Y-110142507D01*
X167080481Y-110137782D01*
X167029361Y-110135817D01*
X167026333Y-110135808D01*
X166950133Y-110135822D01*
X166804143Y-110135822D01*
X166804740Y-110111851D01*
X166809002Y-110065055D01*
X166817170Y-110031778D01*
X166830444Y-110009759D01*
X166850026Y-109996739D01*
X166877117Y-109990457D01*
X166912918Y-109988653D01*
X166958629Y-109989066D01*
G37*
X166958629Y-109989066D02*
X166998111Y-109989467D01*
X167113800Y-109992259D01*
X167210689Y-110000550D01*
X167292081Y-110015232D01*
X167361277Y-110037193D01*
X167421580Y-110067322D01*
X167476292Y-110106510D01*
X167495833Y-110123532D01*
X167528250Y-110163363D01*
X167557480Y-110217413D01*
X167580009Y-110277323D01*
X167592321Y-110334739D01*
X167593600Y-110355956D01*
X167585583Y-110414769D01*
X167564101Y-110479013D01*
X167533001Y-110539821D01*
X167496134Y-110588330D01*
X167490146Y-110594182D01*
X167439421Y-110635321D01*
X167383875Y-110667435D01*
X167320304Y-110691365D01*
X167245506Y-110707953D01*
X167156278Y-110718041D01*
X167049418Y-110722469D01*
X167000472Y-110722845D01*
X166938238Y-110722545D01*
X166894472Y-110721292D01*
X166865069Y-110718554D01*
X166845921Y-110713801D01*
X166832923Y-110706501D01*
X166825955Y-110700267D01*
X166819374Y-110692694D01*
X166814212Y-110682924D01*
X166810297Y-110668340D01*
X166807457Y-110646326D01*
X166805520Y-110614264D01*
X166804316Y-110569536D01*
X166803672Y-110509526D01*
X166803417Y-110431617D01*
X166803378Y-110355956D01*
X166803130Y-110255041D01*
X166803183Y-110174427D01*
X166804143Y-110135822D01*
X166950133Y-110135822D01*
X166950133Y-110576089D01*
X167043266Y-110576004D01*
X167099307Y-110574396D01*
X167158001Y-110570256D01*
X167206972Y-110564464D01*
X167208462Y-110564226D01*
X167287608Y-110545090D01*
X167348998Y-110515287D01*
X167395695Y-110472878D01*
X167425365Y-110426961D01*
X167443647Y-110376026D01*
X167442229Y-110328200D01*
X167421012Y-110276933D01*
X167379511Y-110223899D01*
X167322002Y-110184600D01*
X167247250Y-110158331D01*
X167197292Y-110149035D01*
X167140584Y-110142507D01*
X167080481Y-110137782D01*
X167029361Y-110135817D01*
X167026333Y-110135808D01*
X166950133Y-110135822D01*
X166804143Y-110135822D01*
X166804740Y-110111851D01*
X166809002Y-110065055D01*
X166817170Y-110031778D01*
X166830444Y-110009759D01*
X166850026Y-109996739D01*
X166877117Y-109990457D01*
X166912918Y-109988653D01*
X166958629Y-109989066D01*
D14*
%TO.C,J7*%
X178270000Y-84500000D02*
X178270000Y-94660000D01*
X179870000Y-84500000D02*
X170870000Y-84500000D01*
X170870000Y-84500000D02*
X170870000Y-94660000D01*
X170870000Y-94660000D02*
X179870000Y-94660000D01*
X179870000Y-94660000D02*
X179870000Y-84500000D01*
D15*
%TO.C,G\u002A\u002A\u002A*%
G36*
X121435199Y-82536520D02*
G01*
X121411174Y-82833519D01*
X121359217Y-83043327D01*
X121298333Y-83117951D01*
X121106305Y-83148023D01*
X120985857Y-83051621D01*
X120927111Y-82814874D01*
X120917333Y-82582909D01*
X120882254Y-82087412D01*
X120774985Y-81737937D01*
X120592479Y-81525931D01*
X120528135Y-81490336D01*
X120350694Y-81447401D01*
X120055586Y-81414319D01*
X119694408Y-81396058D01*
X119527767Y-81394000D01*
X119136142Y-81399548D01*
X118871346Y-81421080D01*
X118691098Y-81465927D01*
X118553114Y-81541422D01*
X118515751Y-81569478D01*
X118336754Y-81798739D01*
X118299202Y-82061950D01*
X118406386Y-82308950D01*
X118463312Y-82368854D01*
X118686206Y-82483454D01*
X119035642Y-82554508D01*
X119119479Y-82562644D01*
X119483848Y-82619077D01*
X119684648Y-82716606D01*
X119722808Y-82856155D01*
X119599257Y-83038647D01*
X119598952Y-83038952D01*
X119401853Y-83136949D01*
X119079223Y-83154715D01*
X118619121Y-83092860D01*
X118602751Y-83089719D01*
X118223002Y-82943080D01*
X117944556Y-82691501D01*
X117771496Y-82368686D01*
X117707901Y-82008335D01*
X117757854Y-81644151D01*
X117925435Y-81309837D01*
X118214726Y-81039094D01*
X118345528Y-80965569D01*
X118528860Y-80886187D01*
X118712289Y-80835824D01*
X118937337Y-80809875D01*
X119245528Y-80803734D01*
X119678384Y-80812796D01*
X119713491Y-80813852D01*
X120206486Y-80836266D01*
X120564435Y-80876823D01*
X120821523Y-80947716D01*
X121011932Y-81061137D01*
X121169845Y-81229277D01*
X121267625Y-81368171D01*
X121347505Y-81568154D01*
X121402582Y-81859259D01*
X121432074Y-82196907D01*
X121435199Y-82536520D01*
G37*
X121435199Y-82536520D02*
X121411174Y-82833519D01*
X121359217Y-83043327D01*
X121298333Y-83117951D01*
X121106305Y-83148023D01*
X120985857Y-83051621D01*
X120927111Y-82814874D01*
X120917333Y-82582909D01*
X120882254Y-82087412D01*
X120774985Y-81737937D01*
X120592479Y-81525931D01*
X120528135Y-81490336D01*
X120350694Y-81447401D01*
X120055586Y-81414319D01*
X119694408Y-81396058D01*
X119527767Y-81394000D01*
X119136142Y-81399548D01*
X118871346Y-81421080D01*
X118691098Y-81465927D01*
X118553114Y-81541422D01*
X118515751Y-81569478D01*
X118336754Y-81798739D01*
X118299202Y-82061950D01*
X118406386Y-82308950D01*
X118463312Y-82368854D01*
X118686206Y-82483454D01*
X119035642Y-82554508D01*
X119119479Y-82562644D01*
X119483848Y-82619077D01*
X119684648Y-82716606D01*
X119722808Y-82856155D01*
X119599257Y-83038647D01*
X119598952Y-83038952D01*
X119401853Y-83136949D01*
X119079223Y-83154715D01*
X118619121Y-83092860D01*
X118602751Y-83089719D01*
X118223002Y-82943080D01*
X117944556Y-82691501D01*
X117771496Y-82368686D01*
X117707901Y-82008335D01*
X117757854Y-81644151D01*
X117925435Y-81309837D01*
X118214726Y-81039094D01*
X118345528Y-80965569D01*
X118528860Y-80886187D01*
X118712289Y-80835824D01*
X118937337Y-80809875D01*
X119245528Y-80803734D01*
X119678384Y-80812796D01*
X119713491Y-80813852D01*
X120206486Y-80836266D01*
X120564435Y-80876823D01*
X120821523Y-80947716D01*
X121011932Y-81061137D01*
X121169845Y-81229277D01*
X121267625Y-81368171D01*
X121347505Y-81568154D01*
X121402582Y-81859259D01*
X121432074Y-82196907D01*
X121435199Y-82536520D01*
G36*
X122779068Y-82902399D02*
G01*
X122759138Y-83425157D01*
X122698339Y-83788069D01*
X122597294Y-83989846D01*
X122456624Y-84029203D01*
X122288933Y-83917066D01*
X122235682Y-83771488D01*
X122201686Y-83464882D01*
X122187676Y-83004537D01*
X122187333Y-82905050D01*
X122178764Y-82507735D01*
X122155630Y-82155407D01*
X122121790Y-81893877D01*
X122093241Y-81788124D01*
X121949675Y-81618654D01*
X121715328Y-81471565D01*
X121669908Y-81452284D01*
X121448838Y-81341786D01*
X121354007Y-81215972D01*
X121340667Y-81110685D01*
X121404639Y-80934243D01*
X121572569Y-80850667D01*
X121808475Y-80857481D01*
X122076374Y-80952205D01*
X122340284Y-81132361D01*
X122394278Y-81183255D01*
X122545560Y-81359985D01*
X122652216Y-81559797D01*
X122721517Y-81815186D01*
X122760737Y-82158649D01*
X122777149Y-82622682D01*
X122779068Y-82902399D01*
G37*
X122779068Y-82902399D02*
X122759138Y-83425157D01*
X122698339Y-83788069D01*
X122597294Y-83989846D01*
X122456624Y-84029203D01*
X122288933Y-83917066D01*
X122235682Y-83771488D01*
X122201686Y-83464882D01*
X122187676Y-83004537D01*
X122187333Y-82905050D01*
X122178764Y-82507735D01*
X122155630Y-82155407D01*
X122121790Y-81893877D01*
X122093241Y-81788124D01*
X121949675Y-81618654D01*
X121715328Y-81471565D01*
X121669908Y-81452284D01*
X121448838Y-81341786D01*
X121354007Y-81215972D01*
X121340667Y-81110685D01*
X121404639Y-80934243D01*
X121572569Y-80850667D01*
X121808475Y-80857481D01*
X122076374Y-80952205D01*
X122340284Y-81132361D01*
X122394278Y-81183255D01*
X122545560Y-81359985D01*
X122652216Y-81559797D01*
X122721517Y-81815186D01*
X122760737Y-82158649D01*
X122777149Y-82622682D01*
X122779068Y-82902399D01*
G36*
X120582670Y-82811396D02*
G01*
X120535189Y-83194950D01*
X120370447Y-83544481D01*
X120096161Y-83813811D01*
X119954903Y-83887168D01*
X119766567Y-83937105D01*
X119495715Y-83968878D01*
X119106911Y-83987742D01*
X118885333Y-83993393D01*
X118488939Y-83997691D01*
X118150647Y-83993729D01*
X117908870Y-83982450D01*
X117805833Y-83966953D01*
X117716971Y-83849885D01*
X117708884Y-83671760D01*
X117776694Y-83517596D01*
X117833925Y-83477391D01*
X117972727Y-83455378D01*
X118236799Y-83438077D01*
X118582093Y-83427813D01*
X118807591Y-83426000D01*
X119289135Y-83410429D01*
X119625671Y-83356481D01*
X119839272Y-83253299D01*
X119952013Y-83090028D01*
X119985967Y-82855811D01*
X119986000Y-82846455D01*
X119919502Y-82582492D01*
X119714858Y-82395644D01*
X119364342Y-82280320D01*
X119162924Y-82250904D01*
X118887361Y-82215063D01*
X118740693Y-82169056D01*
X118682873Y-82091255D01*
X118673667Y-81986666D01*
X118684631Y-81872268D01*
X118742964Y-81805955D01*
X118886824Y-81771166D01*
X119154369Y-81751341D01*
X119224000Y-81747817D01*
X119640280Y-81751844D01*
X119939980Y-81816245D01*
X120034279Y-81858786D01*
X120330942Y-82103094D01*
X120514163Y-82434037D01*
X120582670Y-82811396D01*
G37*
X120582670Y-82811396D02*
X120535189Y-83194950D01*
X120370447Y-83544481D01*
X120096161Y-83813811D01*
X119954903Y-83887168D01*
X119766567Y-83937105D01*
X119495715Y-83968878D01*
X119106911Y-83987742D01*
X118885333Y-83993393D01*
X118488939Y-83997691D01*
X118150647Y-83993729D01*
X117908870Y-83982450D01*
X117805833Y-83966953D01*
X117716971Y-83849885D01*
X117708884Y-83671760D01*
X117776694Y-83517596D01*
X117833925Y-83477391D01*
X117972727Y-83455378D01*
X118236799Y-83438077D01*
X118582093Y-83427813D01*
X118807591Y-83426000D01*
X119289135Y-83410429D01*
X119625671Y-83356481D01*
X119839272Y-83253299D01*
X119952013Y-83090028D01*
X119985967Y-82855811D01*
X119986000Y-82846455D01*
X119919502Y-82582492D01*
X119714858Y-82395644D01*
X119364342Y-82280320D01*
X119162924Y-82250904D01*
X118887361Y-82215063D01*
X118740693Y-82169056D01*
X118682873Y-82091255D01*
X118673667Y-81986666D01*
X118684631Y-81872268D01*
X118742964Y-81805955D01*
X118886824Y-81771166D01*
X119154369Y-81751341D01*
X119224000Y-81747817D01*
X119640280Y-81751844D01*
X119939980Y-81816245D01*
X120034279Y-81858786D01*
X120330942Y-82103094D01*
X120514163Y-82434037D01*
X120582670Y-82811396D01*
G36*
X123544378Y-81666418D02*
G01*
X123542238Y-82260076D01*
X123542000Y-82444945D01*
X123540032Y-83085217D01*
X123533365Y-83575453D01*
X123520856Y-83934914D01*
X123501361Y-84182861D01*
X123473735Y-84338554D01*
X123436835Y-84421252D01*
X123423831Y-84434670D01*
X123256596Y-84506142D01*
X123118667Y-84536474D01*
X123118667Y-84082748D01*
X123118667Y-82489371D01*
X123114611Y-81968909D01*
X123103250Y-81519332D01*
X123085795Y-81165665D01*
X123063453Y-80932937D01*
X123039275Y-80846926D01*
X122927827Y-80816092D01*
X122685552Y-80769619D01*
X122349493Y-80714095D01*
X122002108Y-80662485D01*
X121373640Y-80600536D01*
X120646051Y-80572245D01*
X119876137Y-80576497D01*
X119120692Y-80612179D01*
X118436514Y-80678176D01*
X118038667Y-80740237D01*
X117488333Y-80844859D01*
X117465366Y-82466143D01*
X117442399Y-84087426D01*
X118015699Y-84178198D01*
X118351613Y-84230928D01*
X118656424Y-84278002D01*
X118843000Y-84306091D01*
X119083169Y-84323739D01*
X119454525Y-84330161D01*
X119919383Y-84326617D01*
X120440057Y-84314364D01*
X120978862Y-84294660D01*
X121498112Y-84268761D01*
X121960122Y-84237926D01*
X122327206Y-84203412D01*
X122462500Y-84185306D01*
X123118667Y-84082748D01*
X123118667Y-84536474D01*
X122947275Y-84574166D01*
X122523113Y-84636037D01*
X122011356Y-84689051D01*
X121439249Y-84730504D01*
X120834039Y-84757692D01*
X120222969Y-84767910D01*
X120070667Y-84767483D01*
X119585669Y-84762260D01*
X119146889Y-84754201D01*
X118788154Y-84744183D01*
X118543292Y-84733080D01*
X118462000Y-84725816D01*
X117955428Y-84642236D01*
X117547639Y-84559708D01*
X117262462Y-84483632D01*
X117128500Y-84423674D01*
X117091465Y-84345849D01*
X117063306Y-84170790D01*
X117043198Y-83883075D01*
X117030317Y-83467284D01*
X117023837Y-82907996D01*
X117022667Y-82444945D01*
X117023618Y-81828599D01*
X117027577Y-81360164D01*
X117036200Y-81018224D01*
X117051144Y-80781362D01*
X117074066Y-80628160D01*
X117106622Y-80537203D01*
X117150468Y-80487073D01*
X117175312Y-80471597D01*
X117441200Y-80378179D01*
X117846761Y-80298175D01*
X118362773Y-80232830D01*
X118960015Y-80183389D01*
X119609264Y-80151099D01*
X120281298Y-80137204D01*
X120946896Y-80142950D01*
X121576834Y-80169582D01*
X122141891Y-80218346D01*
X122380193Y-80249783D01*
X122745658Y-80301423D01*
X123025762Y-80346352D01*
X123231766Y-80405847D01*
X123374929Y-80501182D01*
X123466512Y-80653632D01*
X123517775Y-80884471D01*
X123539977Y-81214975D01*
X123544378Y-81666418D01*
G37*
X123544378Y-81666418D02*
X123542238Y-82260076D01*
X123542000Y-82444945D01*
X123540032Y-83085217D01*
X123533365Y-83575453D01*
X123520856Y-83934914D01*
X123501361Y-84182861D01*
X123473735Y-84338554D01*
X123436835Y-84421252D01*
X123423831Y-84434670D01*
X123256596Y-84506142D01*
X123118667Y-84536474D01*
X123118667Y-84082748D01*
X123118667Y-82489371D01*
X123114611Y-81968909D01*
X123103250Y-81519332D01*
X123085795Y-81165665D01*
X123063453Y-80932937D01*
X123039275Y-80846926D01*
X122927827Y-80816092D01*
X122685552Y-80769619D01*
X122349493Y-80714095D01*
X122002108Y-80662485D01*
X121373640Y-80600536D01*
X120646051Y-80572245D01*
X119876137Y-80576497D01*
X119120692Y-80612179D01*
X118436514Y-80678176D01*
X118038667Y-80740237D01*
X117488333Y-80844859D01*
X117465366Y-82466143D01*
X117442399Y-84087426D01*
X118015699Y-84178198D01*
X118351613Y-84230928D01*
X118656424Y-84278002D01*
X118843000Y-84306091D01*
X119083169Y-84323739D01*
X119454525Y-84330161D01*
X119919383Y-84326617D01*
X120440057Y-84314364D01*
X120978862Y-84294660D01*
X121498112Y-84268761D01*
X121960122Y-84237926D01*
X122327206Y-84203412D01*
X122462500Y-84185306D01*
X123118667Y-84082748D01*
X123118667Y-84536474D01*
X122947275Y-84574166D01*
X122523113Y-84636037D01*
X122011356Y-84689051D01*
X121439249Y-84730504D01*
X120834039Y-84757692D01*
X120222969Y-84767910D01*
X120070667Y-84767483D01*
X119585669Y-84762260D01*
X119146889Y-84754201D01*
X118788154Y-84744183D01*
X118543292Y-84733080D01*
X118462000Y-84725816D01*
X117955428Y-84642236D01*
X117547639Y-84559708D01*
X117262462Y-84483632D01*
X117128500Y-84423674D01*
X117091465Y-84345849D01*
X117063306Y-84170790D01*
X117043198Y-83883075D01*
X117030317Y-83467284D01*
X117023837Y-82907996D01*
X117022667Y-82444945D01*
X117023618Y-81828599D01*
X117027577Y-81360164D01*
X117036200Y-81018224D01*
X117051144Y-80781362D01*
X117074066Y-80628160D01*
X117106622Y-80537203D01*
X117150468Y-80487073D01*
X117175312Y-80471597D01*
X117441200Y-80378179D01*
X117846761Y-80298175D01*
X118362773Y-80232830D01*
X118960015Y-80183389D01*
X119609264Y-80151099D01*
X120281298Y-80137204D01*
X120946896Y-80142950D01*
X121576834Y-80169582D01*
X122141891Y-80218346D01*
X122380193Y-80249783D01*
X122745658Y-80301423D01*
X123025762Y-80346352D01*
X123231766Y-80405847D01*
X123374929Y-80501182D01*
X123466512Y-80653632D01*
X123517775Y-80884471D01*
X123539977Y-81214975D01*
X123544378Y-81666418D01*
D14*
%TO.C,J6*%
X166564000Y-101914000D02*
X169224000Y-101914000D01*
X166564000Y-99314000D02*
X166564000Y-101914000D01*
X169224000Y-99314000D02*
X169224000Y-101914000D01*
X166564000Y-99314000D02*
X169224000Y-99314000D01*
X166564000Y-98044000D02*
X166564000Y-96714000D01*
X166564000Y-96714000D02*
X167894000Y-96714000D01*
%TO.C,J5*%
X158436000Y-84903000D02*
X158436000Y-87563000D01*
X166116000Y-84903000D02*
X158436000Y-84903000D01*
X166116000Y-87563000D02*
X158436000Y-87563000D01*
X166116000Y-84903000D02*
X166116000Y-87563000D01*
X167386000Y-84903000D02*
X168716000Y-84903000D01*
X168716000Y-84903000D02*
X168716000Y-86233000D01*
%TO.C,J4*%
X156950000Y-105830000D02*
X156950000Y-103170000D01*
X149270000Y-105830000D02*
X156950000Y-105830000D01*
X149270000Y-103170000D02*
X156950000Y-103170000D01*
X149270000Y-105830000D02*
X149270000Y-103170000D01*
X148000000Y-105830000D02*
X146670000Y-105830000D01*
X146670000Y-105830000D02*
X146670000Y-104500000D01*
%TO.C,J3*%
X149800000Y-84903000D02*
X149800000Y-87563000D01*
X154940000Y-84903000D02*
X149800000Y-84903000D01*
X154940000Y-87563000D02*
X149800000Y-87563000D01*
X154940000Y-84903000D02*
X154940000Y-87563000D01*
X156210000Y-84903000D02*
X157540000Y-84903000D01*
X157540000Y-84903000D02*
X157540000Y-86233000D01*
%TO.C,J2*%
X127290000Y-105730000D02*
X127290000Y-108390000D01*
X129890000Y-105730000D02*
X127290000Y-105730000D01*
X129890000Y-108390000D02*
X127290000Y-108390000D01*
X129890000Y-105730000D02*
X129890000Y-108390000D01*
X131160000Y-105730000D02*
X132490000Y-105730000D01*
X132490000Y-105730000D02*
X132490000Y-107060000D01*
D12*
%TO.C,U2*%
X141141999Y-97839999D02*
X141141999Y-101639999D01*
X132591999Y-101639999D02*
X141141999Y-101639999D01*
X132591999Y-101639999D02*
X132591999Y-97839999D01*
X132591999Y-97839999D02*
X141141999Y-97839999D01*
X132596999Y-99104999D02*
X133231999Y-99104999D01*
X133231999Y-99104999D02*
X133231999Y-100374999D01*
X133231999Y-100374999D02*
X132596999Y-100374999D01*
D14*
%TO.C,R4*%
X148850000Y-107470000D02*
X148850000Y-108670000D01*
X147090000Y-108670000D02*
X147090000Y-107470000D01*
%TO.C,R3*%
X150270000Y-83220000D02*
X150270000Y-82020000D01*
X152030000Y-82020000D02*
X152030000Y-83220000D01*
%TO.C,R2*%
X155330000Y-83190000D02*
X155330000Y-81990000D01*
X157090000Y-81990000D02*
X157090000Y-83190000D01*
%TO.C,R1*%
X152790000Y-83190000D02*
X152790000Y-81990000D01*
X154550000Y-81990000D02*
X154550000Y-83190000D01*
%TO.C,J1*%
X121900000Y-105790000D02*
X120630000Y-105790000D01*
X121900000Y-104520000D02*
X121900000Y-105790000D01*
X119587071Y-86360000D02*
X119190000Y-86360000D01*
X119587071Y-87120000D02*
X119190000Y-87120000D01*
X110530000Y-86360000D02*
X116530000Y-86360000D01*
X110530000Y-87120000D02*
X110530000Y-86360000D01*
X116530000Y-87120000D02*
X110530000Y-87120000D01*
X119190000Y-88010000D02*
X116530000Y-88010000D01*
X119587071Y-88900000D02*
X119190000Y-88900000D01*
X119587071Y-89660000D02*
X119190000Y-89660000D01*
X110530000Y-88900000D02*
X116530000Y-88900000D01*
X110530000Y-89660000D02*
X110530000Y-88900000D01*
X116530000Y-89660000D02*
X110530000Y-89660000D01*
X119190000Y-90550000D02*
X116530000Y-90550000D01*
X119587071Y-91440000D02*
X119190000Y-91440000D01*
X119587071Y-92200000D02*
X119190000Y-92200000D01*
X110530000Y-91440000D02*
X116530000Y-91440000D01*
X110530000Y-92200000D02*
X110530000Y-91440000D01*
X116530000Y-92200000D02*
X110530000Y-92200000D01*
X119190000Y-93090000D02*
X116530000Y-93090000D01*
X119587071Y-93980000D02*
X119190000Y-93980000D01*
X119587071Y-94740000D02*
X119190000Y-94740000D01*
X110530000Y-93980000D02*
X116530000Y-93980000D01*
X110530000Y-94740000D02*
X110530000Y-93980000D01*
X116530000Y-94740000D02*
X110530000Y-94740000D01*
X119190000Y-95630000D02*
X116530000Y-95630000D01*
X119587071Y-96520000D02*
X119190000Y-96520000D01*
X119587071Y-97280000D02*
X119190000Y-97280000D01*
X110530000Y-96520000D02*
X116530000Y-96520000D01*
X110530000Y-97280000D02*
X110530000Y-96520000D01*
X116530000Y-97280000D02*
X110530000Y-97280000D01*
X119190000Y-98170000D02*
X116530000Y-98170000D01*
X119587071Y-99060000D02*
X119190000Y-99060000D01*
X119587071Y-99820000D02*
X119190000Y-99820000D01*
X110530000Y-99060000D02*
X116530000Y-99060000D01*
X110530000Y-99820000D02*
X110530000Y-99060000D01*
X116530000Y-99820000D02*
X110530000Y-99820000D01*
X119190000Y-100710000D02*
X116530000Y-100710000D01*
X119587071Y-101600000D02*
X119190000Y-101600000D01*
X119587071Y-102360000D02*
X119190000Y-102360000D01*
X110530000Y-101600000D02*
X116530000Y-101600000D01*
X110530000Y-102360000D02*
X110530000Y-101600000D01*
X116530000Y-102360000D02*
X110530000Y-102360000D01*
X119190000Y-103250000D02*
X116530000Y-103250000D01*
X119520000Y-104140000D02*
X119190000Y-104140000D01*
X119520000Y-104900000D02*
X119190000Y-104900000D01*
X116530000Y-104240000D02*
X110530000Y-104240000D01*
X116530000Y-104360000D02*
X110530000Y-104360000D01*
X116530000Y-104480000D02*
X110530000Y-104480000D01*
X116530000Y-104600000D02*
X110530000Y-104600000D01*
X116530000Y-104720000D02*
X110530000Y-104720000D01*
X116530000Y-104840000D02*
X110530000Y-104840000D01*
X110530000Y-104140000D02*
X116530000Y-104140000D01*
X110530000Y-104900000D02*
X110530000Y-104140000D01*
X116530000Y-104900000D02*
X110530000Y-104900000D01*
X116530000Y-105850000D02*
X119190000Y-105850000D01*
X116530000Y-85410000D02*
X116530000Y-105850000D01*
X119190000Y-85410000D02*
X116530000Y-85410000D01*
X119190000Y-105850000D02*
X119190000Y-85410000D01*
%TO.C,C1*%
X123650000Y-107290000D02*
X123650000Y-108290000D01*
X125350000Y-108290000D02*
X125350000Y-107290000D01*
%TO.C,C3*%
X129930000Y-97280000D02*
X129930000Y-98280000D01*
X131630000Y-98280000D02*
X131630000Y-97280000D01*
%TO.C,C2*%
X129710000Y-90950000D02*
X130710000Y-90950000D01*
X130710000Y-89250000D02*
X129710000Y-89250000D01*
%TO.C,R11*%
X152630000Y-97400000D02*
X152630000Y-98600000D01*
X150870000Y-98600000D02*
X150870000Y-97400000D01*
%TO.C,R10*%
X150410000Y-96380000D02*
X150410000Y-97580000D01*
X148650000Y-97580000D02*
X148650000Y-96380000D01*
%TO.C,R8*%
X148680000Y-94200000D02*
X148680000Y-93000000D01*
X150440000Y-93000000D02*
X150440000Y-94200000D01*
%TO.C,R7*%
X150870000Y-95190000D02*
X150870000Y-93990000D01*
X152630000Y-93990000D02*
X152630000Y-95190000D01*
D12*
%TO.C,U1*%
X132591999Y-89213998D02*
X143767999Y-89213998D01*
X132591999Y-93785998D02*
X132591999Y-89213998D01*
X143767999Y-93785998D02*
X132591999Y-93785998D01*
X143767999Y-89213998D02*
X143767999Y-93785998D01*
X133353999Y-92261998D02*
X132591999Y-92261998D01*
X133353999Y-90737998D02*
X133353999Y-92261998D01*
X132591999Y-90737998D02*
X133353999Y-90737998D01*
D14*
%TO.C,R14*%
X160400000Y-90060000D02*
X159200000Y-90060000D01*
X159200000Y-88300000D02*
X160400000Y-88300000D01*
%TO.C,R13*%
X157640000Y-101560000D02*
X157640000Y-100360000D01*
X159400000Y-100360000D02*
X159400000Y-101560000D01*
%TO.C,R12*%
X163220000Y-96830000D02*
X163220000Y-98030000D01*
X161460000Y-98030000D02*
X161460000Y-96830000D01*
%TO.C,R9*%
X161460000Y-93880000D02*
X161460000Y-92680000D01*
X163220000Y-92680000D02*
X163220000Y-93880000D01*
%TO.C,R5*%
X145780000Y-97530000D02*
X145780000Y-98730000D01*
X144020000Y-98730000D02*
X144020000Y-97530000D01*
%TO.C,R6*%
X143560000Y-99550000D02*
X143560000Y-100750000D01*
X141800000Y-100750000D02*
X141800000Y-99550000D01*
%TO.C,Q4*%
X158520000Y-95790000D02*
X159980000Y-95790000D01*
X158520000Y-98950000D02*
X160680000Y-98950000D01*
X158520000Y-98950000D02*
X158520000Y-98020000D01*
X158520000Y-95790000D02*
X158520000Y-96720000D01*
%TO.C,Q3*%
X154270000Y-95770000D02*
X155730000Y-95770000D01*
X154270000Y-98930000D02*
X156430000Y-98930000D01*
X154270000Y-98930000D02*
X154270000Y-98000000D01*
X154270000Y-95770000D02*
X154270000Y-96700000D01*
%TO.C,Q2*%
X158489999Y-91720001D02*
X159949999Y-91720001D01*
X158489999Y-94880001D02*
X160649999Y-94880001D01*
X158489999Y-94880001D02*
X158489999Y-93950001D01*
X158489999Y-91720001D02*
X158489999Y-92650001D01*
%TO.C,Q1*%
X154289999Y-91719999D02*
X155749999Y-91719999D01*
X154289999Y-94879999D02*
X156449999Y-94879999D01*
X154289999Y-94879999D02*
X154289999Y-93949999D01*
X154289999Y-91719999D02*
X154289999Y-92649999D01*
%TO.C,J7*%
D11*
X169522714Y-92374000D02*
X170067000Y-92374000D01*
X170175857Y-92410285D01*
X170248428Y-92482857D01*
X170284714Y-92591714D01*
X170284714Y-92664285D01*
X169522714Y-92083714D02*
X169522714Y-91575714D01*
X170284714Y-91902285D01*
%TO.C,J6*%
X167682333Y-95366261D02*
X167682333Y-95819833D01*
X167652095Y-95910547D01*
X167591619Y-95971023D01*
X167500904Y-96001261D01*
X167440428Y-96001261D01*
X168256857Y-95366261D02*
X168135904Y-95366261D01*
X168075428Y-95396500D01*
X168045190Y-95426738D01*
X167984714Y-95517452D01*
X167954476Y-95638404D01*
X167954476Y-95880309D01*
X167984714Y-95940785D01*
X168014952Y-95971023D01*
X168075428Y-96001261D01*
X168196380Y-96001261D01*
X168256857Y-95971023D01*
X168287095Y-95940785D01*
X168317333Y-95880309D01*
X168317333Y-95729119D01*
X168287095Y-95668642D01*
X168256857Y-95638404D01*
X168196380Y-95608166D01*
X168075428Y-95608166D01*
X168014952Y-95638404D01*
X167984714Y-95668642D01*
X167954476Y-95729119D01*
%TO.C,J5*%
X169368261Y-86444666D02*
X169821833Y-86444666D01*
X169912547Y-86474904D01*
X169973023Y-86535380D01*
X170003261Y-86626095D01*
X170003261Y-86686571D01*
X169368261Y-85839904D02*
X169368261Y-86142285D01*
X169670642Y-86172523D01*
X169640404Y-86142285D01*
X169610166Y-86081809D01*
X169610166Y-85930619D01*
X169640404Y-85870142D01*
X169670642Y-85839904D01*
X169731119Y-85809666D01*
X169882309Y-85809666D01*
X169942785Y-85839904D01*
X169973023Y-85870142D01*
X170003261Y-85930619D01*
X170003261Y-86081809D01*
X169973023Y-86142285D01*
X169942785Y-86172523D01*
%TO.C,J4*%
X145322261Y-104711666D02*
X145775833Y-104711666D01*
X145866547Y-104741904D01*
X145927023Y-104802380D01*
X145957261Y-104893095D01*
X145957261Y-104953571D01*
X145533928Y-104137142D02*
X145957261Y-104137142D01*
X145292023Y-104288333D02*
X145745595Y-104439523D01*
X145745595Y-104046428D01*
%TO.C,J3*%
X158192261Y-86444666D02*
X158645833Y-86444666D01*
X158736547Y-86474904D01*
X158797023Y-86535380D01*
X158827261Y-86626095D01*
X158827261Y-86686571D01*
X158192261Y-86202761D02*
X158192261Y-85809666D01*
X158434166Y-86021333D01*
X158434166Y-85930619D01*
X158464404Y-85870142D01*
X158494642Y-85839904D01*
X158555119Y-85809666D01*
X158706309Y-85809666D01*
X158766785Y-85839904D01*
X158797023Y-85870142D01*
X158827261Y-85930619D01*
X158827261Y-86112047D01*
X158797023Y-86172523D01*
X158766785Y-86202761D01*
%TO.C,J2*%
X133142261Y-107271666D02*
X133595833Y-107271666D01*
X133686547Y-107301904D01*
X133747023Y-107362380D01*
X133777261Y-107453095D01*
X133777261Y-107513571D01*
X133202738Y-106999523D02*
X133172500Y-106969285D01*
X133142261Y-106908809D01*
X133142261Y-106757619D01*
X133172500Y-106697142D01*
X133202738Y-106666904D01*
X133263214Y-106636666D01*
X133323690Y-106636666D01*
X133414404Y-106666904D01*
X133777261Y-107029761D01*
X133777261Y-106636666D01*
%TO.C,U2*%
X131552261Y-101723809D02*
X132066309Y-101723809D01*
X132126785Y-101693571D01*
X132157023Y-101663333D01*
X132187261Y-101602857D01*
X132187261Y-101481904D01*
X132157023Y-101421428D01*
X132126785Y-101391190D01*
X132066309Y-101360952D01*
X131552261Y-101360952D01*
X131612738Y-101088809D02*
X131582500Y-101058571D01*
X131552261Y-100998095D01*
X131552261Y-100846904D01*
X131582500Y-100786428D01*
X131612738Y-100756190D01*
X131673214Y-100725952D01*
X131733690Y-100725952D01*
X131824404Y-100756190D01*
X132187261Y-101119047D01*
X132187261Y-100725952D01*
%TO.C,R4*%
X147964166Y-110597261D02*
X147752500Y-110294880D01*
X147601309Y-110597261D02*
X147601309Y-109962261D01*
X147843214Y-109962261D01*
X147903690Y-109992500D01*
X147933928Y-110022738D01*
X147964166Y-110083214D01*
X147964166Y-110173928D01*
X147933928Y-110234404D01*
X147903690Y-110264642D01*
X147843214Y-110294880D01*
X147601309Y-110294880D01*
X148508452Y-110173928D02*
X148508452Y-110597261D01*
X148357261Y-109932023D02*
X148206071Y-110385595D01*
X148599166Y-110385595D01*
%TO.C,R3*%
X150017261Y-82725833D02*
X149714880Y-82937500D01*
X150017261Y-83088690D02*
X149382261Y-83088690D01*
X149382261Y-82846785D01*
X149412500Y-82786309D01*
X149442738Y-82756071D01*
X149503214Y-82725833D01*
X149593928Y-82725833D01*
X149654404Y-82756071D01*
X149684642Y-82786309D01*
X149714880Y-82846785D01*
X149714880Y-83088690D01*
X149382261Y-82514166D02*
X149382261Y-82121071D01*
X149624166Y-82332738D01*
X149624166Y-82242023D01*
X149654404Y-82181547D01*
X149684642Y-82151309D01*
X149745119Y-82121071D01*
X149896309Y-82121071D01*
X149956785Y-82151309D01*
X149987023Y-82181547D01*
X150017261Y-82242023D01*
X150017261Y-82423452D01*
X149987023Y-82483928D01*
X149956785Y-82514166D01*
%TO.C,R2*%
X158637261Y-82645833D02*
X158334880Y-82857500D01*
X158637261Y-83008690D02*
X158002261Y-83008690D01*
X158002261Y-82766785D01*
X158032500Y-82706309D01*
X158062738Y-82676071D01*
X158123214Y-82645833D01*
X158213928Y-82645833D01*
X158274404Y-82676071D01*
X158304642Y-82706309D01*
X158334880Y-82766785D01*
X158334880Y-83008690D01*
X158062738Y-82403928D02*
X158032500Y-82373690D01*
X158002261Y-82313214D01*
X158002261Y-82162023D01*
X158032500Y-82101547D01*
X158062738Y-82071309D01*
X158123214Y-82041071D01*
X158183690Y-82041071D01*
X158274404Y-82071309D01*
X158637261Y-82434166D01*
X158637261Y-82041071D01*
%TO.C,R1*%
X153584166Y-80847261D02*
X153372500Y-80544880D01*
X153221309Y-80847261D02*
X153221309Y-80212261D01*
X153463214Y-80212261D01*
X153523690Y-80242500D01*
X153553928Y-80272738D01*
X153584166Y-80333214D01*
X153584166Y-80423928D01*
X153553928Y-80484404D01*
X153523690Y-80514642D01*
X153463214Y-80544880D01*
X153221309Y-80544880D01*
X154188928Y-80847261D02*
X153826071Y-80847261D01*
X154007500Y-80847261D02*
X154007500Y-80212261D01*
X153947023Y-80302976D01*
X153886547Y-80363452D01*
X153826071Y-80393690D01*
%TO.C,J1*%
X116033333Y-106442261D02*
X116033333Y-106895833D01*
X116003095Y-106986547D01*
X115942619Y-107047023D01*
X115851904Y-107077261D01*
X115791428Y-107077261D01*
X116668333Y-107077261D02*
X116305476Y-107077261D01*
X116486904Y-107077261D02*
X116486904Y-106442261D01*
X116426428Y-106532976D01*
X116365952Y-106593452D01*
X116305476Y-106623690D01*
%TO.C,C1*%
X123026785Y-106895833D02*
X123057023Y-106926071D01*
X123087261Y-107016785D01*
X123087261Y-107077261D01*
X123057023Y-107167976D01*
X122996547Y-107228452D01*
X122936071Y-107258690D01*
X122815119Y-107288928D01*
X122724404Y-107288928D01*
X122603452Y-107258690D01*
X122542976Y-107228452D01*
X122482500Y-107167976D01*
X122452261Y-107077261D01*
X122452261Y-107016785D01*
X122482500Y-106926071D01*
X122512738Y-106895833D01*
X123087261Y-106291071D02*
X123087261Y-106653928D01*
X123087261Y-106472500D02*
X122452261Y-106472500D01*
X122542976Y-106532976D01*
X122603452Y-106593452D01*
X122633690Y-106653928D01*
%TO.C,C3*%
X131106785Y-94885833D02*
X131137023Y-94916071D01*
X131167261Y-95006785D01*
X131167261Y-95067261D01*
X131137023Y-95157976D01*
X131076547Y-95218452D01*
X131016071Y-95248690D01*
X130895119Y-95278928D01*
X130804404Y-95278928D01*
X130683452Y-95248690D01*
X130622976Y-95218452D01*
X130562500Y-95157976D01*
X130532261Y-95067261D01*
X130532261Y-95006785D01*
X130562500Y-94916071D01*
X130592738Y-94885833D01*
X130532261Y-94674166D02*
X130532261Y-94281071D01*
X130774166Y-94492738D01*
X130774166Y-94402023D01*
X130804404Y-94341547D01*
X130834642Y-94311309D01*
X130895119Y-94281071D01*
X131046309Y-94281071D01*
X131106785Y-94311309D01*
X131137023Y-94341547D01*
X131167261Y-94402023D01*
X131167261Y-94583452D01*
X131137023Y-94643928D01*
X131106785Y-94674166D01*
%TO.C,C2*%
X131104166Y-91826785D02*
X131073928Y-91857023D01*
X130983214Y-91887261D01*
X130922738Y-91887261D01*
X130832023Y-91857023D01*
X130771547Y-91796547D01*
X130741309Y-91736071D01*
X130711071Y-91615119D01*
X130711071Y-91524404D01*
X130741309Y-91403452D01*
X130771547Y-91342976D01*
X130832023Y-91282500D01*
X130922738Y-91252261D01*
X130983214Y-91252261D01*
X131073928Y-91282500D01*
X131104166Y-91312738D01*
X131346071Y-91312738D02*
X131376309Y-91282500D01*
X131436785Y-91252261D01*
X131587976Y-91252261D01*
X131648452Y-91282500D01*
X131678690Y-91312738D01*
X131708928Y-91373214D01*
X131708928Y-91433690D01*
X131678690Y-91524404D01*
X131315833Y-91887261D01*
X131708928Y-91887261D01*
%TO.C,R11*%
X152017260Y-101038211D02*
X151714879Y-101249877D01*
X152017260Y-101401068D02*
X151382260Y-101401068D01*
X151382260Y-101159163D01*
X151412499Y-101098687D01*
X151442737Y-101068449D01*
X151503213Y-101038211D01*
X151593927Y-101038211D01*
X151654403Y-101068449D01*
X151684641Y-101098687D01*
X151714879Y-101159163D01*
X151714879Y-101401068D01*
X152017260Y-100433449D02*
X152017260Y-100796306D01*
X152017260Y-100614877D02*
X151382260Y-100614877D01*
X151472975Y-100675354D01*
X151533451Y-100735830D01*
X151563689Y-100796306D01*
X152017260Y-99828687D02*
X152017260Y-100191544D01*
X152017260Y-100010116D02*
X151382260Y-100010116D01*
X151472975Y-100070592D01*
X151533451Y-100131068D01*
X151563689Y-100191544D01*
%TO.C,R10*%
X149797261Y-99978214D02*
X149494880Y-100189880D01*
X149797261Y-100341071D02*
X149162261Y-100341071D01*
X149162261Y-100099166D01*
X149192500Y-100038690D01*
X149222738Y-100008452D01*
X149283214Y-99978214D01*
X149373928Y-99978214D01*
X149434404Y-100008452D01*
X149464642Y-100038690D01*
X149494880Y-100099166D01*
X149494880Y-100341071D01*
X149797261Y-99373452D02*
X149797261Y-99736309D01*
X149797261Y-99554880D02*
X149162261Y-99554880D01*
X149252976Y-99615357D01*
X149313452Y-99675833D01*
X149343690Y-99736309D01*
X149162261Y-98980357D02*
X149162261Y-98919880D01*
X149192500Y-98859404D01*
X149222738Y-98829166D01*
X149283214Y-98798928D01*
X149404166Y-98768690D01*
X149555357Y-98768690D01*
X149676309Y-98798928D01*
X149736785Y-98829166D01*
X149767023Y-98859404D01*
X149797261Y-98919880D01*
X149797261Y-98980357D01*
X149767023Y-99040833D01*
X149736785Y-99071071D01*
X149676309Y-99101309D01*
X149555357Y-99131547D01*
X149404166Y-99131547D01*
X149283214Y-99101309D01*
X149222738Y-99071071D01*
X149192500Y-99040833D01*
X149162261Y-98980357D01*
%TO.C,R8*%
X148437261Y-93695833D02*
X148134880Y-93907500D01*
X148437261Y-94058690D02*
X147802261Y-94058690D01*
X147802261Y-93816785D01*
X147832500Y-93756309D01*
X147862738Y-93726071D01*
X147923214Y-93695833D01*
X148013928Y-93695833D01*
X148074404Y-93726071D01*
X148104642Y-93756309D01*
X148134880Y-93816785D01*
X148134880Y-94058690D01*
X148074404Y-93332976D02*
X148044166Y-93393452D01*
X148013928Y-93423690D01*
X147953452Y-93453928D01*
X147923214Y-93453928D01*
X147862738Y-93423690D01*
X147832500Y-93393452D01*
X147802261Y-93332976D01*
X147802261Y-93212023D01*
X147832500Y-93151547D01*
X147862738Y-93121309D01*
X147923214Y-93091071D01*
X147953452Y-93091071D01*
X148013928Y-93121309D01*
X148044166Y-93151547D01*
X148074404Y-93212023D01*
X148074404Y-93332976D01*
X148104642Y-93393452D01*
X148134880Y-93423690D01*
X148195357Y-93453928D01*
X148316309Y-93453928D01*
X148376785Y-93423690D01*
X148407023Y-93393452D01*
X148437261Y-93332976D01*
X148437261Y-93212023D01*
X148407023Y-93151547D01*
X148376785Y-93121309D01*
X148316309Y-93091071D01*
X148195357Y-93091071D01*
X148134880Y-93121309D01*
X148104642Y-93151547D01*
X148074404Y-93212023D01*
%TO.C,R7*%
X152057261Y-92335833D02*
X151754880Y-92547500D01*
X152057261Y-92698690D02*
X151422261Y-92698690D01*
X151422261Y-92456785D01*
X151452500Y-92396309D01*
X151482738Y-92366071D01*
X151543214Y-92335833D01*
X151633928Y-92335833D01*
X151694404Y-92366071D01*
X151724642Y-92396309D01*
X151754880Y-92456785D01*
X151754880Y-92698690D01*
X151422261Y-92124166D02*
X151422261Y-91700833D01*
X152057261Y-91972976D01*
%TO.C,U1*%
X131496189Y-93252259D02*
X131496189Y-93766307D01*
X131526427Y-93826783D01*
X131556665Y-93857021D01*
X131617141Y-93887259D01*
X131738094Y-93887259D01*
X131798570Y-93857021D01*
X131828808Y-93826783D01*
X131859046Y-93766307D01*
X131859046Y-93252259D01*
X132494046Y-93887259D02*
X132131189Y-93887259D01*
X132312618Y-93887259D02*
X132312618Y-93252259D01*
X132252141Y-93342974D01*
X132191665Y-93403450D01*
X132131189Y-93433688D01*
%TO.C,R14*%
X162061785Y-89497261D02*
X161850119Y-89194880D01*
X161698928Y-89497261D02*
X161698928Y-88862261D01*
X161940833Y-88862261D01*
X162001309Y-88892500D01*
X162031547Y-88922738D01*
X162061785Y-88983214D01*
X162061785Y-89073928D01*
X162031547Y-89134404D01*
X162001309Y-89164642D01*
X161940833Y-89194880D01*
X161698928Y-89194880D01*
X162666547Y-89497261D02*
X162303690Y-89497261D01*
X162485119Y-89497261D02*
X162485119Y-88862261D01*
X162424642Y-88952976D01*
X162364166Y-89013452D01*
X162303690Y-89043690D01*
X163210833Y-89073928D02*
X163210833Y-89497261D01*
X163059642Y-88832023D02*
X162908452Y-89285595D01*
X163301547Y-89285595D01*
%TO.C,R13*%
X158790396Y-104010109D02*
X158488015Y-104221775D01*
X158790396Y-104372966D02*
X158155396Y-104372966D01*
X158155396Y-104131061D01*
X158185635Y-104070585D01*
X158215873Y-104040347D01*
X158276349Y-104010109D01*
X158367063Y-104010109D01*
X158427539Y-104040347D01*
X158457777Y-104070585D01*
X158488015Y-104131061D01*
X158488015Y-104372966D01*
X158790396Y-103405347D02*
X158790396Y-103768204D01*
X158790396Y-103586775D02*
X158155396Y-103586775D01*
X158246111Y-103647252D01*
X158306587Y-103707728D01*
X158336825Y-103768204D01*
X158155396Y-103193680D02*
X158155396Y-102800585D01*
X158397301Y-103012252D01*
X158397301Y-102921537D01*
X158427539Y-102861061D01*
X158457777Y-102830823D01*
X158518254Y-102800585D01*
X158669444Y-102800585D01*
X158729920Y-102830823D01*
X158760158Y-102861061D01*
X158790396Y-102921537D01*
X158790396Y-103102966D01*
X158760158Y-103163442D01*
X158729920Y-103193680D01*
%TO.C,R12*%
X164277261Y-97838214D02*
X163974880Y-98049880D01*
X164277261Y-98201071D02*
X163642261Y-98201071D01*
X163642261Y-97959166D01*
X163672500Y-97898690D01*
X163702738Y-97868452D01*
X163763214Y-97838214D01*
X163853928Y-97838214D01*
X163914404Y-97868452D01*
X163944642Y-97898690D01*
X163974880Y-97959166D01*
X163974880Y-98201071D01*
X164277261Y-97233452D02*
X164277261Y-97596309D01*
X164277261Y-97414880D02*
X163642261Y-97414880D01*
X163732976Y-97475357D01*
X163793452Y-97535833D01*
X163823690Y-97596309D01*
X163702738Y-96991547D02*
X163672500Y-96961309D01*
X163642261Y-96900833D01*
X163642261Y-96749642D01*
X163672500Y-96689166D01*
X163702738Y-96658928D01*
X163763214Y-96628690D01*
X163823690Y-96628690D01*
X163914404Y-96658928D01*
X164277261Y-97021785D01*
X164277261Y-96628690D01*
%TO.C,R9*%
X164267261Y-93385833D02*
X163964880Y-93597500D01*
X164267261Y-93748690D02*
X163632261Y-93748690D01*
X163632261Y-93506785D01*
X163662500Y-93446309D01*
X163692738Y-93416071D01*
X163753214Y-93385833D01*
X163843928Y-93385833D01*
X163904404Y-93416071D01*
X163934642Y-93446309D01*
X163964880Y-93506785D01*
X163964880Y-93748690D01*
X164267261Y-93083452D02*
X164267261Y-92962500D01*
X164237023Y-92902023D01*
X164206785Y-92871785D01*
X164116071Y-92811309D01*
X163995119Y-92781071D01*
X163753214Y-92781071D01*
X163692738Y-92811309D01*
X163662500Y-92841547D01*
X163632261Y-92902023D01*
X163632261Y-93022976D01*
X163662500Y-93083452D01*
X163692738Y-93113690D01*
X163753214Y-93143928D01*
X163904404Y-93143928D01*
X163964880Y-93113690D01*
X163995119Y-93083452D01*
X164025357Y-93022976D01*
X164025357Y-92902023D01*
X163995119Y-92841547D01*
X163964880Y-92811309D01*
X163904404Y-92781071D01*
%TO.C,R5*%
X145057261Y-100605833D02*
X144754880Y-100817500D01*
X145057261Y-100968690D02*
X144422261Y-100968690D01*
X144422261Y-100726785D01*
X144452500Y-100666309D01*
X144482738Y-100636071D01*
X144543214Y-100605833D01*
X144633928Y-100605833D01*
X144694404Y-100636071D01*
X144724642Y-100666309D01*
X144754880Y-100726785D01*
X144754880Y-100968690D01*
X144422261Y-100031309D02*
X144422261Y-100333690D01*
X144724642Y-100363928D01*
X144694404Y-100333690D01*
X144664166Y-100273214D01*
X144664166Y-100122023D01*
X144694404Y-100061547D01*
X144724642Y-100031309D01*
X144785119Y-100001071D01*
X144936309Y-100001071D01*
X144996785Y-100031309D01*
X145027023Y-100061547D01*
X145057261Y-100122023D01*
X145057261Y-100273214D01*
X145027023Y-100333690D01*
X144996785Y-100363928D01*
%TO.C,R6*%
X142967261Y-102565833D02*
X142664880Y-102777500D01*
X142967261Y-102928690D02*
X142332261Y-102928690D01*
X142332261Y-102686785D01*
X142362500Y-102626309D01*
X142392738Y-102596071D01*
X142453214Y-102565833D01*
X142543928Y-102565833D01*
X142604404Y-102596071D01*
X142634642Y-102626309D01*
X142664880Y-102686785D01*
X142664880Y-102928690D01*
X142332261Y-102021547D02*
X142332261Y-102142500D01*
X142362500Y-102202976D01*
X142392738Y-102233214D01*
X142483452Y-102293690D01*
X142604404Y-102323928D01*
X142846309Y-102323928D01*
X142906785Y-102293690D01*
X142937023Y-102263452D01*
X142967261Y-102202976D01*
X142967261Y-102082023D01*
X142937023Y-102021547D01*
X142906785Y-101991309D01*
X142846309Y-101961071D01*
X142695119Y-101961071D01*
X142634642Y-101991309D01*
X142604404Y-102021547D01*
X142574166Y-102082023D01*
X142574166Y-102202976D01*
X142604404Y-102263452D01*
X142634642Y-102293690D01*
X142695119Y-102323928D01*
%TO.C,Q4*%
X160419523Y-100137738D02*
X160359047Y-100107500D01*
X160298571Y-100047023D01*
X160207857Y-99956309D01*
X160147380Y-99926071D01*
X160086904Y-99926071D01*
X160117142Y-100077261D02*
X160056666Y-100047023D01*
X159996190Y-99986547D01*
X159965952Y-99865595D01*
X159965952Y-99653928D01*
X159996190Y-99532976D01*
X160056666Y-99472500D01*
X160117142Y-99442261D01*
X160238095Y-99442261D01*
X160298571Y-99472500D01*
X160359047Y-99532976D01*
X160389285Y-99653928D01*
X160389285Y-99865595D01*
X160359047Y-99986547D01*
X160298571Y-100047023D01*
X160238095Y-100077261D01*
X160117142Y-100077261D01*
X160933571Y-99653928D02*
X160933571Y-100077261D01*
X160782380Y-99412023D02*
X160631190Y-99865595D01*
X161024285Y-99865595D01*
%TO.C,Q3*%
X156229523Y-100107738D02*
X156169047Y-100077500D01*
X156108571Y-100017023D01*
X156017857Y-99926309D01*
X155957380Y-99896071D01*
X155896904Y-99896071D01*
X155927142Y-100047261D02*
X155866666Y-100017023D01*
X155806190Y-99956547D01*
X155775952Y-99835595D01*
X155775952Y-99623928D01*
X155806190Y-99502976D01*
X155866666Y-99442500D01*
X155927142Y-99412261D01*
X156048095Y-99412261D01*
X156108571Y-99442500D01*
X156169047Y-99502976D01*
X156199285Y-99623928D01*
X156199285Y-99835595D01*
X156169047Y-99956547D01*
X156108571Y-100017023D01*
X156048095Y-100047261D01*
X155927142Y-100047261D01*
X156410952Y-99412261D02*
X156804047Y-99412261D01*
X156592380Y-99654166D01*
X156683095Y-99654166D01*
X156743571Y-99684404D01*
X156773809Y-99714642D01*
X156804047Y-99775119D01*
X156804047Y-99926309D01*
X156773809Y-99986785D01*
X156743571Y-100017023D01*
X156683095Y-100047261D01*
X156501666Y-100047261D01*
X156441190Y-100017023D01*
X156410952Y-99986785D01*
%TO.C,Q2*%
X160319523Y-91277738D02*
X160259047Y-91247500D01*
X160198571Y-91187023D01*
X160107857Y-91096309D01*
X160047380Y-91066071D01*
X159986904Y-91066071D01*
X160017142Y-91217261D02*
X159956666Y-91187023D01*
X159896190Y-91126547D01*
X159865952Y-91005595D01*
X159865952Y-90793928D01*
X159896190Y-90672976D01*
X159956666Y-90612500D01*
X160017142Y-90582261D01*
X160138095Y-90582261D01*
X160198571Y-90612500D01*
X160259047Y-90672976D01*
X160289285Y-90793928D01*
X160289285Y-91005595D01*
X160259047Y-91126547D01*
X160198571Y-91187023D01*
X160138095Y-91217261D01*
X160017142Y-91217261D01*
X160531190Y-90642738D02*
X160561428Y-90612500D01*
X160621904Y-90582261D01*
X160773095Y-90582261D01*
X160833571Y-90612500D01*
X160863809Y-90642738D01*
X160894047Y-90703214D01*
X160894047Y-90763690D01*
X160863809Y-90854404D01*
X160500952Y-91217261D01*
X160894047Y-91217261D01*
%TO.C,Q1*%
X156139523Y-91237738D02*
X156079047Y-91207500D01*
X156018571Y-91147023D01*
X155927857Y-91056309D01*
X155867380Y-91026071D01*
X155806904Y-91026071D01*
X155837142Y-91177261D02*
X155776666Y-91147023D01*
X155716190Y-91086547D01*
X155685952Y-90965595D01*
X155685952Y-90753928D01*
X155716190Y-90632976D01*
X155776666Y-90572500D01*
X155837142Y-90542261D01*
X155958095Y-90542261D01*
X156018571Y-90572500D01*
X156079047Y-90632976D01*
X156109285Y-90753928D01*
X156109285Y-90965595D01*
X156079047Y-91086547D01*
X156018571Y-91147023D01*
X155958095Y-91177261D01*
X155837142Y-91177261D01*
X156714047Y-91177261D02*
X156351190Y-91177261D01*
X156532619Y-91177261D02*
X156532619Y-90542261D01*
X156472142Y-90632976D01*
X156411666Y-90693452D01*
X156351190Y-90723690D01*
%TD*%
M02*
