<?xml version="1.0" standalone="no"?>
 <!DOCTYPE svg PUBLIC "-//W3C//DTD SVG 1.1//EN" 
 "http://www.w3.org/Graphics/SVG/1.1/DTD/svg11.dtd"> 
<svg
  xmlns:svg="http://www.w3.org/2000/svg"
  xmlns="http://www.w3.org/2000/svg"
  xmlns:xlink="http://www.w3.org/1999/xlink"
  version="1.1"
  width="3.395980cm" height="3.822700cm" viewBox="0 0 13370 15050">
<title>SVG Picture created as motorDriver-brd.svg date 2021/09/05 18:01:35 </title>
  <desc>Picture generated by PCBNEW </desc>
<g style="fill:#000000; fill-opacity:1;stroke:#000000; stroke-opacity:1;
stroke-linecap:round; stroke-linejoin:round;"
 transform="translate(0 0) scale(1 1)">
</g>
<g style="fill:#000000; fill-opacity:0.0; 
stroke:#000000; stroke-width:-0.000393701; stroke-opacity:1; 
stroke-linecap:round; stroke-linejoin:round;">
<g >
</g>
<g style="fill:#848400; fill-opacity:0.0; 
stroke:#848400; stroke-width:-0.000393701; stroke-opacity:1; 
stroke-linecap:round; stroke-linejoin:round;">
</g>
<g style="fill:#848400; fill-opacity:1.0; 
stroke:#848400; stroke-width:0; stroke-opacity:1; 
stroke-linecap:round; stroke-linejoin:round;">
<circle cx="9109.83" cy="12409.8" r="334.646" /> 
<path style="fill:#848400; fill-opacity:1.0; 
stroke:#848400; stroke-width:0; stroke-opacity:1; 
stroke-linecap:round; stroke-linejoin:round;fill-rule:evenodd;"
d="M 8444.47,12744.5
7775.18,12744.5
7775.18,12075.2
8444.47,12075.2
Z" /> 
</g>
<g >
</g>
<g style="fill:#848400; fill-opacity:1.0; 
stroke:#848400; stroke-width:0; stroke-opacity:1; 
stroke-linecap:round; stroke-linejoin:round;">
<circle cx="2644.83" cy="5629.83" r="334.646" /> 
<circle cx="2644.83" cy="6629.83" r="334.646" /> 
<circle cx="2644.83" cy="7629.83" r="334.646" /> 
<path style="fill:#848400; fill-opacity:1.0; 
stroke:#848400; stroke-width:0; stroke-opacity:1; 
stroke-linecap:round; stroke-linejoin:round;fill-rule:evenodd;"
d="M 2979.47,8295.18
2979.47,8964.47
2310.18,8964.47
2310.18,8295.18
Z" /> 
</g>
<g >
</g>
<g style="fill:#848400; fill-opacity:1.0; 
stroke:#848400; stroke-width:0; stroke-opacity:1; 
stroke-linecap:round; stroke-linejoin:round;">
<circle cx="7224.83" cy="2644.83" r="334.646" /> 
<circle cx="8224.83" cy="2644.83" r="334.646" /> 
<path style="fill:#848400; fill-opacity:1.0; 
stroke:#848400; stroke-width:0; stroke-opacity:1; 
stroke-linecap:round; stroke-linejoin:round;fill-rule:evenodd;"
d="M 8890.18,2310.18
9559.47,2310.18
9559.47,2979.47
8890.18,2979.47
Z" /> 
</g>
<g >
</g>
<g style="fill:#840000; fill-opacity:1.0; 
stroke:#840000; stroke-width:0; stroke-opacity:1; 
stroke-linecap:round; stroke-linejoin:round;">
<path style="fill:#840000; fill-opacity:1.0; 
stroke:#840000; stroke-width:0; stroke-opacity:1; 
stroke-linecap:round; stroke-linejoin:round;fill-rule:evenodd;"
d="M 9395.38,6303.76
9395.38,6795.89
9001.68,6795.89
9001.68,6303.76
Z" /> 
<path style="fill:#840000; fill-opacity:1.0; 
stroke:#840000; stroke-width:0; stroke-opacity:1; 
stroke-linecap:round; stroke-linejoin:round;fill-rule:evenodd;"
d="M 8607.98,6303.76
8607.98,6795.89
8214.27,6795.89
8214.27,6303.76
Z" /> 
</g>
<g >
</g>
<g style="fill:#840000; fill-opacity:1.0; 
stroke:#840000; stroke-width:0; stroke-opacity:1; 
stroke-linecap:round; stroke-linejoin:round;">
<path style="fill:#840000; fill-opacity:1.0; 
stroke:#840000; stroke-width:0; stroke-opacity:1; 
stroke-linecap:round; stroke-linejoin:round;fill-rule:evenodd;"
d="M 9817.42,6764.79
9817.42,6134.86
10211.1,6134.86
10211.1,6764.79
Z" /> 
<path style="fill:#840000; fill-opacity:1.0; 
stroke:#840000; stroke-width:0; stroke-opacity:1; 
stroke-linecap:round; stroke-linejoin:round;fill-rule:evenodd;"
d="M 10998.5,6764.79
10998.5,6134.86
11392.2,6134.86
11392.2,6764.79
Z" /> 
</g>
<g >
</g>
<g style="fill:#840000; fill-opacity:1.0; 
stroke:#840000; stroke-width:0; stroke-opacity:1; 
stroke-linecap:round; stroke-linejoin:round;">
<path style="fill:#840000; fill-opacity:1.0; 
stroke:#840000; stroke-width:0; stroke-opacity:1; 
stroke-linecap:round; stroke-linejoin:round;fill-rule:evenodd;"
d="M 6258.76,8259.27
6750.89,8259.27
6750.89,8652.98
6258.76,8652.98
Z" /> 
<path style="fill:#840000; fill-opacity:1.0; 
stroke:#840000; stroke-width:0; stroke-opacity:1; 
stroke-linecap:round; stroke-linejoin:round;fill-rule:evenodd;"
d="M 6258.76,9046.68
6750.89,9046.68
6750.89,9440.38
6258.76,9440.38
Z" /> 
</g>
<g >
</g>
<g style="fill:#840000; fill-opacity:1.0; 
stroke:#840000; stroke-width:0; stroke-opacity:1; 
stroke-linecap:round; stroke-linejoin:round;">
<path style="fill:#840000; fill-opacity:1.0; 
stroke:#840000; stroke-width:0; stroke-opacity:1; 
stroke-linecap:round; stroke-linejoin:round;fill-rule:evenodd;"
d="M 10289.9,8262.42
10919.8,8262.42
10919.8,8656.12
10289.9,8656.12
Z" /> 
<path style="fill:#840000; fill-opacity:1.0; 
stroke:#840000; stroke-width:0; stroke-opacity:1; 
stroke-linecap:round; stroke-linejoin:round;fill-rule:evenodd;"
d="M 10289.9,9443.53
10919.8,9443.53
10919.8,9837.23
10289.9,9837.23
Z" /> 
</g>
<g >
</g>
<g style="fill:#840000; fill-opacity:1.0; 
stroke:#840000; stroke-width:0; stroke-opacity:1; 
stroke-linecap:round; stroke-linejoin:round;">
<path style="fill:#840000; fill-opacity:1.0; 
stroke:#840000; stroke-width:0; stroke-opacity:1; 
stroke-linecap:round; stroke-linejoin:round;fill-rule:evenodd;"
d="M 7204.83,7419.83
7704.83,7419.83
7704.83,7579.83
7204.83,7579.83
Z" /> 
<path style="fill:#840000; fill-opacity:1.0; 
stroke:#840000; stroke-width:0; stroke-opacity:1; 
stroke-linecap:round; stroke-linejoin:round;fill-rule:evenodd;"
d="M 7204.83,7669.83
7704.83,7669.83
7704.83,7829.83
7204.83,7829.83
Z" /> 
<path style="fill:#840000; fill-opacity:1.0; 
stroke:#840000; stroke-width:0; stroke-opacity:1; 
stroke-linecap:round; stroke-linejoin:round;fill-rule:evenodd;"
d="M 7204.83,7929.83
7704.83,7929.83
7704.83,8089.83
7204.83,8089.83
Z" /> 
<path style="fill:#840000; fill-opacity:1.0; 
stroke:#840000; stroke-width:0; stroke-opacity:1; 
stroke-linecap:round; stroke-linejoin:round;fill-rule:evenodd;"
d="M 7204.83,8189.83
7704.83,8189.83
7704.83,8349.83
7204.83,8349.83
Z" /> 
<path style="fill:#840000; fill-opacity:1.0; 
stroke:#840000; stroke-width:0; stroke-opacity:1; 
stroke-linecap:round; stroke-linejoin:round;fill-rule:evenodd;"
d="M 7204.83,8439.83
7704.83,8439.83
7704.83,8599.83
7204.83,8599.83
Z" /> 
<path style="fill:#840000; fill-opacity:1.0; 
stroke:#840000; stroke-width:0; stroke-opacity:1; 
stroke-linecap:round; stroke-linejoin:round;fill-rule:evenodd;"
d="M 7204.83,8699.83
7704.83,8699.83
7704.83,8859.83
7204.83,8859.83
Z" /> 
<path style="fill:#840000; fill-opacity:1.0; 
stroke:#840000; stroke-width:0; stroke-opacity:1; 
stroke-linecap:round; stroke-linejoin:round;fill-rule:evenodd;"
d="M 7204.83,8959.83
7704.83,8959.83
7704.83,9119.83
7204.83,9119.83
Z" /> 
<path style="fill:#840000; fill-opacity:1.0; 
stroke:#840000; stroke-width:0; stroke-opacity:1; 
stroke-linecap:round; stroke-linejoin:round;fill-rule:evenodd;"
d="M 7204.83,9209.83
7704.83,9209.83
7704.83,9369.83
7204.83,9369.83
Z" /> 
<path style="fill:#840000; fill-opacity:1.0; 
stroke:#840000; stroke-width:0; stroke-opacity:1; 
stroke-linecap:round; stroke-linejoin:round;fill-rule:evenodd;"
d="M 7204.83,9469.83
7704.83,9469.83
7704.83,9629.83
7204.83,9629.83
Z" /> 
<path style="fill:#840000; fill-opacity:1.0; 
stroke:#840000; stroke-width:0; stroke-opacity:1; 
stroke-linecap:round; stroke-linejoin:round;fill-rule:evenodd;"
d="M 7204.83,9719.83
7704.83,9719.83
7704.83,9879.83
7204.83,9879.83
Z" /> 
<path style="fill:#840000; fill-opacity:1.0; 
stroke:#840000; stroke-width:0; stroke-opacity:1; 
stroke-linecap:round; stroke-linejoin:round;fill-rule:evenodd;"
d="M 9304.83,9719.83
9804.83,9719.83
9804.83,9879.83
9304.83,9879.83
Z" /> 
<path style="fill:#840000; fill-opacity:1.0; 
stroke:#840000; stroke-width:0; stroke-opacity:1; 
stroke-linecap:round; stroke-linejoin:round;fill-rule:evenodd;"
d="M 9304.83,9469.83
9804.83,9469.83
9804.83,9629.83
9304.83,9629.83
Z" /> 
<path style="fill:#840000; fill-opacity:1.0; 
stroke:#840000; stroke-width:0; stroke-opacity:1; 
stroke-linecap:round; stroke-linejoin:round;fill-rule:evenodd;"
d="M 9304.83,9209.83
9804.83,9209.83
9804.83,9369.83
9304.83,9369.83
Z" /> 
<path style="fill:#840000; fill-opacity:1.0; 
stroke:#840000; stroke-width:0; stroke-opacity:1; 
stroke-linecap:round; stroke-linejoin:round;fill-rule:evenodd;"
d="M 9304.83,8959.83
9804.83,8959.83
9804.83,9119.83
9304.83,9119.83
Z" /> 
<path style="fill:#840000; fill-opacity:1.0; 
stroke:#840000; stroke-width:0; stroke-opacity:1; 
stroke-linecap:round; stroke-linejoin:round;fill-rule:evenodd;"
d="M 9304.83,8699.83
9804.83,8699.83
9804.83,8859.83
9304.83,8859.83
Z" /> 
<path style="fill:#840000; fill-opacity:1.0; 
stroke:#840000; stroke-width:0; stroke-opacity:1; 
stroke-linecap:round; stroke-linejoin:round;fill-rule:evenodd;"
d="M 9304.83,8439.83
9804.83,8439.83
9804.83,8599.83
9304.83,8599.83
Z" /> 
<path style="fill:#840000; fill-opacity:1.0; 
stroke:#840000; stroke-width:0; stroke-opacity:1; 
stroke-linecap:round; stroke-linejoin:round;fill-rule:evenodd;"
d="M 9304.83,8189.83
9804.83,8189.83
9804.83,8349.83
9304.83,8349.83
Z" /> 
<path style="fill:#840000; fill-opacity:1.0; 
stroke:#840000; stroke-width:0; stroke-opacity:1; 
stroke-linecap:round; stroke-linejoin:round;fill-rule:evenodd;"
d="M 9304.83,7929.83
9804.83,7929.83
9804.83,8089.83
9304.83,8089.83
Z" /> 
<path style="fill:#840000; fill-opacity:1.0; 
stroke:#840000; stroke-width:0; stroke-opacity:1; 
stroke-linecap:round; stroke-linejoin:round;fill-rule:evenodd;"
d="M 9304.83,7669.83
9804.83,7669.83
9804.83,7829.83
9304.83,7829.83
Z" /> 
<path style="fill:#840000; fill-opacity:1.0; 
stroke:#840000; stroke-width:0; stroke-opacity:1; 
stroke-linecap:round; stroke-linejoin:round;fill-rule:evenodd;"
d="M 9304.83,7419.83
9804.83,7419.83
9804.83,7579.83
9304.83,7579.83
Z" /> 
</g>
<g >
</g>
<g style="fill:#840000; fill-opacity:1.0; 
stroke:#840000; stroke-width:0; stroke-opacity:1; 
stroke-linecap:round; stroke-linejoin:round;">
<path style="fill:#840000; fill-opacity:1.0; 
stroke:#840000; stroke-width:0; stroke-opacity:1; 
stroke-linecap:round; stroke-linejoin:round;fill-rule:evenodd;"
d="M 8018.83,4000.83
8490.83,4000.83
8490.83,4472.83
8018.83,4472.83
Z" /> 
<path style="fill:#840000; fill-opacity:1.0; 
stroke:#840000; stroke-width:0; stroke-opacity:1; 
stroke-linecap:round; stroke-linejoin:round;fill-rule:evenodd;"
d="M 8018.83,4826.83
8490.83,4826.83
8490.83,5298.83
8018.83,5298.83
Z" /> 
</g>
<g >
</g>
<g style="fill:#840000; fill-opacity:1.0; 
stroke:#840000; stroke-width:0; stroke-opacity:1; 
stroke-linecap:round; stroke-linejoin:round;">
<path style="fill:#840000; fill-opacity:1.0; 
stroke:#840000; stroke-width:0; stroke-opacity:1; 
stroke-linecap:round; stroke-linejoin:round;fill-rule:evenodd;"
d="M 9368.83,4000.83
9840.83,4000.83
9840.83,4472.83
9368.83,4472.83
Z" /> 
<path style="fill:#840000; fill-opacity:1.0; 
stroke:#840000; stroke-width:0; stroke-opacity:1; 
stroke-linecap:round; stroke-linejoin:round;fill-rule:evenodd;"
d="M 9368.83,4826.83
9840.83,4826.83
9840.83,5298.83
9368.83,5298.83
Z" /> 
</g>
<g >
</g>
<g style="fill:#840000; fill-opacity:1.0; 
stroke:#840000; stroke-width:0; stroke-opacity:1; 
stroke-linecap:round; stroke-linejoin:round;">
<path style="fill:#840000; fill-opacity:1.0; 
stroke:#840000; stroke-width:0; stroke-opacity:1; 
stroke-linecap:round; stroke-linejoin:round;fill-rule:evenodd;"
d="M 4005.83,8835.83
4005.83,8363.83
4477.83,8363.83
4477.83,8835.83
Z" /> 
<path style="fill:#840000; fill-opacity:1.0; 
stroke:#840000; stroke-width:0; stroke-opacity:1; 
stroke-linecap:round; stroke-linejoin:round;fill-rule:evenodd;"
d="M 4831.83,8835.83
4831.83,8363.83
5303.83,8363.83
5303.83,8835.83
Z" /> 
</g>
<g >
</g>
<g style="fill:#840000; fill-opacity:1.0; 
stroke:#840000; stroke-width:0; stroke-opacity:1; 
stroke-linecap:round; stroke-linejoin:round;">
<path style="fill:#840000; fill-opacity:1.0; 
stroke:#840000; stroke-width:0; stroke-opacity:1; 
stroke-linecap:round; stroke-linejoin:round;fill-rule:evenodd;"
d="M 4005.83,7835.83
4005.83,7363.83
4477.83,7363.83
4477.83,7835.83
Z" /> 
<path style="fill:#840000; fill-opacity:1.0; 
stroke:#840000; stroke-width:0; stroke-opacity:1; 
stroke-linecap:round; stroke-linejoin:round;fill-rule:evenodd;"
d="M 4831.83,7835.83
4831.83,7363.83
5303.83,7363.83
5303.83,7835.83
Z" /> 
</g>
<g >
</g>
<g style="fill:#840000; fill-opacity:1.0; 
stroke:#840000; stroke-width:0; stroke-opacity:1; 
stroke-linecap:round; stroke-linejoin:round;">
<path style="fill:#840000; fill-opacity:1.0; 
stroke:#840000; stroke-width:0; stroke-opacity:1; 
stroke-linecap:round; stroke-linejoin:round;fill-rule:evenodd;"
d="M 4005.83,6835.83
4005.83,6363.83
4477.83,6363.83
4477.83,6835.83
Z" /> 
<path style="fill:#840000; fill-opacity:1.0; 
stroke:#840000; stroke-width:0; stroke-opacity:1; 
stroke-linecap:round; stroke-linejoin:round;fill-rule:evenodd;"
d="M 4831.83,6835.83
4831.83,6363.83
5303.83,6363.83
5303.83,6835.83
Z" /> 
</g>
<g >
</g>
<g >
</g>
<g >
</g>
<g >
</g>
<g >
</g>
<g >
</g>
<g style="fill:#840000; fill-opacity:1.0; 
stroke:#840000; stroke-width:0; stroke-opacity:1; 
stroke-linecap:round; stroke-linejoin:round;">
<path style="fill:#840000; fill-opacity:1.0; 
stroke:#840000; stroke-width:0; stroke-opacity:1; 
stroke-linecap:round; stroke-linejoin:round;fill-rule:evenodd;"
d="M 10578.1,7755.73
10578.1,7243.92
11168.6,7243.92
11168.6,7755.73
Z" /> 
<path style="fill:#840000; fill-opacity:1.0; 
stroke:#840000; stroke-width:0; stroke-opacity:1; 
stroke-linecap:round; stroke-linejoin:round;fill-rule:evenodd;"
d="M 11641,7755.73
11641,7243.92
12231.6,7243.92
12231.6,7755.73
Z" /> 
</g>
<g >
</g>
<g >
</g>
<g >
</g>
</g>
<g style="fill:#000000; fill-opacity:1.0; 
stroke:#000000; stroke-width:0; stroke-opacity:1; 
stroke-linecap:round; stroke-linejoin:round;">
</g>
<g style="fill:#008484; fill-opacity:1.0; 
stroke:#008484; stroke-width:0; stroke-opacity:1; 
stroke-linecap:round; stroke-linejoin:round;">
</g>
<g style="fill:#008484; fill-opacity:0.0; 
stroke:#008484; stroke-width:0; stroke-opacity:1; 
stroke-linecap:round; stroke-linejoin:round;">
</g>
<g style="fill:#008484; fill-opacity:0.0; 
stroke:#008484; stroke-width:50; stroke-opacity:1; 
stroke-linecap:round; stroke-linejoin:round;">
<text x="8404.83" y="10799.8"
textLength="3765" font-size="400" lengthAdjust="spacingAndGlyphs"
text-anchor="middle" opacity="0">Motor Controller</text>
<path d="M6626 10785
L6626 10485
L6726 10699
L6826 10485
L6826 10785
" />
<path d="M7011 10785
L6983 10771
L6969 10756
L6954 10728
L6954 10642
L6969 10614
L6983 10599
L7011 10585
L7054 10585
L7083 10599
L7097 10614
L7111 10642
L7111 10728
L7097 10756
L7083 10771
L7054 10785
L7011 10785
" />
<path d="M7197 10585
L7311 10585
" />
<path d="M7240 10485
L7240 10742
L7254 10771
L7283 10785
L7311 10785
" />
<path d="M7454 10785
L7426 10771
L7411 10756
L7397 10728
L7397 10642
L7411 10614
L7426 10599
L7454 10585
L7497 10585
L7526 10599
L7540 10614
L7554 10642
L7554 10728
L7540 10756
L7526 10771
L7497 10785
L7454 10785
" />
<path d="M7683 10785
L7683 10585
" />
<path d="M7683 10642
L7697 10614
L7711 10599
L7740 10585
L7769 10585
" />
<path d="M8269 10756
L8254 10771
L8211 10785
L8183 10785
L8140 10771
L8111 10742
L8097 10714
L8083 10656
L8083 10614
L8097 10556
L8111 10528
L8140 10499
L8183 10485
L8211 10485
L8254 10499
L8269 10514
" />
<path d="M8440 10785
L8411 10771
L8397 10756
L8383 10728
L8383 10642
L8397 10614
L8411 10599
L8440 10585
L8483 10585
L8511 10599
L8526 10614
L8540 10642
L8540 10728
L8526 10756
L8511 10771
L8483 10785
L8440 10785
" />
<path d="M8669 10585
L8669 10785
" />
<path d="M8669 10614
L8683 10599
L8711 10585
L8754 10585
L8783 10599
L8797 10628
L8797 10785
" />
<path d="M8897 10585
L9011 10585
" />
<path d="M8940 10485
L8940 10742
L8954 10771
L8983 10785
L9011 10785
" />
<path d="M9111 10785
L9111 10585
" />
<path d="M9111 10642
L9126 10614
L9140 10599
L9169 10585
L9197 10585
" />
<path d="M9340 10785
L9311 10771
L9297 10756
L9283 10728
L9283 10642
L9297 10614
L9311 10599
L9340 10585
L9383 10585
L9411 10599
L9426 10614
L9440 10642
L9440 10728
L9426 10756
L9411 10771
L9383 10785
L9340 10785
" />
<path d="M9611 10785
L9583 10771
L9569 10742
L9569 10485
" />
<path d="M9769 10785
L9740 10771
L9726 10742
L9726 10485
" />
<path d="M9997 10771
L9969 10785
L9911 10785
L9883 10771
L9869 10742
L9869 10628
L9883 10599
L9911 10585
L9969 10585
L9997 10599
L10011 10628
L10011 10656
L9869 10685
" />
<path d="M10140 10785
L10140 10585
" />
<path d="M10140 10642
L10154 10614
L10169 10599
L10197 10585
L10226 10585
" />
<text x="8404.83" y="11299.8"
textLength="3322.14" font-size="400" lengthAdjust="spacingAndGlyphs"
text-anchor="middle" opacity="0">2L.3-b33e3c8</text>
<path d="M6833 11014
L6847 10999
L6876 10985
L6947 10985
L6976 10999
L6990 11014
L7004 11042
L7004 11071
L6990 11114
L6819 11285
L7004 11285
" />
<path d="M7276 11285
L7133 11285
L7133 10985
" />
<path d="M7376 11256
L7390 11271
L7376 11285
L7361 11271
L7376 11256
L7376 11285
" />
<path d="M7490 10985
L7676 10985
L7576 11099
L7619 11099
L7647 11114
L7661 11128
L7676 11156
L7676 11228
L7661 11256
L7647 11271
L7619 11285
L7533 11285
L7504 11271
L7490 11256
" />
<path d="M7804 11171
L8033 11171
" />
<path d="M8176 11285
L8176 10985
" />
<path d="M8176 11099
L8204 11085
L8261 11085
L8290 11099
L8304 11114
L8319 11142
L8319 11228
L8304 11256
L8290 11271
L8261 11285
L8204 11285
L8176 11271
" />
<path d="M8419 10985
L8604 10985
L8504 11099
L8547 11099
L8576 11114
L8590 11128
L8604 11156
L8604 11228
L8590 11256
L8576 11271
L8547 11285
L8461 11285
L8433 11271
L8419 11256
" />
<path d="M8704 10985
L8890 10985
L8790 11099
L8833 11099
L8861 11114
L8876 11128
L8890 11156
L8890 11228
L8876 11256
L8861 11271
L8833 11285
L8747 11285
L8719 11271
L8704 11256
" />
<path d="M9133 11271
L9104 11285
L9047 11285
L9019 11271
L9004 11242
L9004 11128
L9019 11099
L9047 11085
L9104 11085
L9133 11099
L9147 11128
L9147 11156
L9004 11185
" />
<path d="M9247 10985
L9433 10985
L9333 11099
L9376 11099
L9404 11114
L9419 11128
L9433 11156
L9433 11228
L9419 11256
L9404 11271
L9376 11285
L9290 11285
L9261 11271
L9247 11256
" />
<path d="M9690 11271
L9661 11285
L9604 11285
L9576 11271
L9561 11256
L9547 11228
L9547 11142
L9561 11114
L9576 11099
L9604 11085
L9661 11085
L9690 11099
" />
<path d="M9861 11114
L9833 11099
L9819 11085
L9804 11056
L9804 11042
L9819 11014
L9833 10999
L9861 10985
L9919 10985
L9947 10999
L9961 11014
L9976 11042
L9976 11056
L9961 11085
L9947 11099
L9919 11114
L9861 11114
L9833 11128
L9819 11142
L9804 11171
L9804 11228
L9819 11256
L9833 11271
L9861 11285
L9919 11285
L9947 11271
L9961 11256
L9976 11228
L9976 11171
L9961 11142
L9947 11128
L9919 11114
" />
<text x="6854.83" y="3699.83"
textLength="979.286" font-size="400" lengthAdjust="spacingAndGlyphs"
text-anchor="start" opacity="0">GND</text>
<path d="M7115 3399
L7087 3385
L7044 3385
L7001 3399
L6973 3428
L6958 3456
L6944 3514
L6944 3556
L6958 3614
L6973 3642
L7001 3671
L7044 3685
L7073 3685
L7115 3671
L7130 3656
L7130 3556
L7073 3556
" />
<path d="M7258 3685
L7258 3385
L7430 3685
L7430 3385
" />
<path d="M7573 3685
L7573 3385
L7644 3385
L7687 3399
L7715 3428
L7730 3456
L7744 3514
L7744 3556
L7730 3614
L7715 3642
L7687 3671
L7644 3685
L7573 3685
" />
<text x="8004.83" y="3699.83"
textLength="1665" font-size="400" lengthAdjust="spacingAndGlyphs"
text-anchor="start" opacity="0">Vcc VM</text>
<path d="M8065 3385
L8165 3685
L8265 3385
" />
<path d="M8494 3671
L8465 3685
L8408 3685
L8380 3671
L8365 3656
L8351 3628
L8351 3542
L8365 3514
L8380 3499
L8408 3485
L8465 3485
L8494 3499
" />
<path d="M8751 3671
L8723 3685
L8665 3685
L8637 3671
L8623 3656
L8608 3628
L8608 3542
L8623 3514
L8637 3499
L8665 3485
L8723 3485
L8751 3499
" />
<path d="M9065 3385
L9165 3685
L9265 3385
" />
<path d="M9365 3685
L9365 3385
L9465 3599
L9565 3385
L9565 3685
" />
<text x="7604.83" y="12799.8"
textLength="1950.71" font-size="400" lengthAdjust="spacingAndGlyphs"
text-anchor="start" opacity="0">O1   O2</text>
<path d="M7765 12485
L7823 12485
L7851 12499
L7880 12528
L7894 12585
L7894 12685
L7880 12742
L7851 12771
L7823 12785
L7765 12785
L7737 12771
L7708 12742
L7694 12685
L7694 12585
L7708 12528
L7737 12499
L7765 12485
" />
<path d="M8180 12785
L8008 12785
" />
<path d="M8094 12785
L8094 12485
L8065 12528
L8037 12556
L8008 12571
" />
<path d="M9051 12485
L9108 12485
L9137 12499
L9165 12528
L9180 12585
L9180 12685
L9165 12742
L9137 12771
L9108 12785
L9051 12785
L9023 12771
L8994 12742
L8980 12685
L8980 12585
L8994 12528
L9023 12499
L9051 12485
" />
<path d="M9294 12514
L9308 12499
L9337 12485
L9408 12485
L9437 12499
L9451 12514
L9465 12542
L9465 12571
L9451 12614
L9280 12785
L9465 12785
" />
<g transform="rotate(-90 3404.83 9049.83)">
<text x="3404.83" y="9199.83"
textLength="1136.43" font-size="400" lengthAdjust="spacingAndGlyphs"
text-anchor="start" opacity="0">STBY</text>
</g>
<path d="M3526 8960
L3540 8917
L3540 8845
L3526 8817
L3511 8803
L3483 8788
L3454 8788
L3426 8803
L3411 8817
L3397 8845
L3383 8903
L3369 8931
L3354 8945
L3326 8960
L3297 8960
L3269 8945
L3254 8931
L3240 8903
L3240 8831
L3254 8788
" />
<path d="M3240 8703
L3240 8531
" />
<path d="M3540 8617
L3240 8617
" />
<path d="M3383 8331
L3397 8288
L3411 8274
L3440 8260
L3483 8260
L3511 8274
L3526 8288
L3540 8317
L3540 8431
L3240 8431
L3240 8331
L3254 8303
L3269 8288
L3297 8274
L3326 8274
L3354 8288
L3369 8303
L3383 8331
L3383 8431
" />
<path d="M3397 8074
L3540 8074
" />
<path d="M3240 8174
L3397 8074
L3240 7974
" />
<g transform="rotate(-90 3404.83 5949.83)">
<text x="3404.83" y="6099.83"
textLength="1050.71" font-size="400" lengthAdjust="spacingAndGlyphs"
text-anchor="start" opacity="0">PWM</text>
</g>
<path d="M3540 5845
L3240 5845
L3240 5731
L3254 5703
L3269 5688
L3297 5674
L3340 5674
L3369 5688
L3383 5703
L3397 5731
L3397 5845
" />
<path d="M3240 5574
L3540 5503
L3326 5445
L3540 5388
L3240 5317
" />
<path d="M3540 5203
L3240 5203
L3454 5103
L3240 5003
L3540 5003
" />
</g>
<g style="fill:#008484; fill-opacity:0.0; 
stroke:#008484; stroke-width:47.2441; stroke-opacity:1; 
stroke-linecap:round; stroke-linejoin:round;">
<path d="M7586 12933
L7586 12409
" />
<path d="M8109 12933
L7586 12933
" />
<path d="M8609 12933
L8609 11886
" />
<path d="M8609 11886
L9633 11886
" />
<path d="M8609 12933
L9633 12933
" />
<path d="M9633 12933
L9633 11886
" />
<path d="M3168 9153
L2644 9153
" />
<path d="M3168 8629
L3168 9153
" />
<path d="M3168 8129
L2121 8129
" />
<path d="M2121 8129
L2121 5106
" />
<path d="M3168 8129
L3168 5106
" />
<path d="M3168 5106
L2121 5106
" />
<path d="M9748 2121
L9748 2644
" />
<path d="M9224 2121
L9748 2121
" />
<path d="M8724 2121
L8724 3168
" />
<path d="M8724 3168
L6701 3168
" />
<path d="M8724 2121
L6701 2121
" />
<path d="M6701 2121
L6701 3168
" />
</g>
<g style="fill:#008484; fill-opacity:0.0; 
stroke:#008484; stroke-width:59.0551; stroke-opacity:1; 
stroke-linecap:round; stroke-linejoin:round;">
<path d="M8607 6884
L9001 6884
" />
<path d="M9001 6215
L8607 6215
" />
<path d="M10998 6046
L10211 6046
" />
<path d="M10211 6853
L10998 6853
" />
<path d="M6839 9046
L6839 8652
" />
<path d="M6170 8652
L6170 9046
" />
<path d="M11008 9443
L11008 8656
" />
<path d="M10201 8656
L10201 9443
" />
<path d="M9204 10149
L9204 7149
" />
<path d="M7804 7149
L7804 10149
" />
<path d="M9204 10149
L7804 10149
" />
<path d="M7804 7149
L9204 7149
" />
<circle cx="8004.83" cy="7349.83" r="141.421" /> 
<path d="M8754 7149
L8754 7449
" />
<path d="M8754 7449
L8254 7449
" />
<path d="M8254 7449
L8254 7149
" />
<path d="M8550 5279
L8550 4216
" />
<path d="M7959 5279
L7959 4216
" />
<path d="M8313 4689
L8215 4689
" />
<path d="M8215 4689
L8274 4748
" />
<path d="M8117 4787
L8392 4787
" />
<path d="M8254 4649
L8254 4512
" />
<path d="M8254 4787
L8117 4649
" />
<path d="M8117 4649
L8392 4649
" />
<path d="M8392 4649
L8254 4787
" />
<path d="M9900 5279
L9900 4216
" />
<path d="M9309 5279
L9309 4216
" />
<path d="M9663 4689
L9565 4689
" />
<path d="M9565 4689
L9624 4748
" />
<path d="M9467 4787
L9742 4787
" />
<path d="M9604 4649
L9604 4512
" />
<path d="M9604 4787
L9467 4649
" />
<path d="M9467 4649
L9742 4649
" />
<path d="M9742 4649
L9604 4787
" />
<path d="M5284 8304
L4221 8304
" />
<path d="M5284 8895
L4221 8895
" />
<path d="M4694 8540
L4694 8639
" />
<path d="M4694 8639
L4753 8580
" />
<path d="M4792 8737
L4792 8462
" />
<path d="M4654 8599
L4517 8599
" />
<path d="M4792 8599
L4654 8737
" />
<path d="M4654 8737
L4654 8462
" />
<path d="M4654 8462
L4792 8599
" />
<path d="M5284 7304
L4221 7304
" />
<path d="M5284 7895
L4221 7895
" />
<path d="M4694 7540
L4694 7639
" />
<path d="M4694 7639
L4753 7580
" />
<path d="M4792 7737
L4792 7462
" />
<path d="M4654 7599
L4517 7599
" />
<path d="M4792 7599
L4654 7737
" />
<path d="M4654 7737
L4654 7462
" />
<path d="M4654 7462
L4792 7599
" />
<path d="M5284 6304
L4221 6304
" />
<path d="M5284 6895
L4221 6895
" />
<path d="M4694 6540
L4694 6639
" />
<path d="M4694 6639
L4753 6580
" />
<path d="M4792 6737
L4792 6462
" />
<path d="M4654 6599
L4517 6599
" />
<path d="M4792 6599
L4654 6737
" />
<path d="M4654 6737
L4654 6462
" />
<path d="M4654 6462
L4792 6599
" />
<path d="M11641 7844
L11168 7844
" />
<path d="M11168 7155
L11641 7155
" />
<g transform="rotate(-90 7192.5 12409.8)">
<text x="7192.5" y="12606.7"
textLength="833.654" font-size="524.934" lengthAdjust="spacingAndGlyphs"
text-anchor="middle" opacity="0">P3</text>
</g>
<path d="M7370 12700
L6976 12700
L6976 12550
L6995 12512
L7014 12494
L7051 12475
L7108 12475
L7145 12494
L7164 12512
L7183 12550
L7183 12700
" />
<path d="M6976 12344
L6976 12100
L7126 12231
L7126 12175
L7145 12137
L7164 12119
L7201 12100
L7295 12100
L7333 12119
L7351 12137
L7370 12175
L7370 12287
L7351 12325
L7333 12344
" />
<text x="2644.83" y="9744"
textLength="845.426" font-size="524.934" lengthAdjust="spacingAndGlyphs"
text-anchor="middle" opacity="0">P2</text>
<path d="M2354 9725
L2354 9331
L2504 9331
L2541 9350
L2560 9369
L2579 9406
L2579 9462
L2560 9500
L2541 9519
L2504 9537
L2354 9537
" />
<path d="M2729 9369
L2747 9350
L2785 9331
L2879 9331
L2916 9350
L2935 9369
L2954 9406
L2954 9444
L2935 9500
L2710 9725
L2954 9725
" />
<g transform="rotate(-90 10142.1 2644.83)">
<text x="10142.1" y="2841.68"
textLength="845.426" font-size="524.934" lengthAdjust="spacingAndGlyphs"
text-anchor="middle" opacity="0">P1</text>
</g>
<path d="M10320 2935
L9926 2935
L9926 2785
L9945 2747
L9964 2729
L10001 2710
L10057 2710
L10095 2729
L10114 2747
L10132 2785
L10132 2935
" />
<path d="M10320 2335
L10320 2560
" />
<path d="M10320 2447
L9926 2447
L9982 2485
L10020 2522
L10039 2560
" />
</g>
<g style="fill:#008484; fill-opacity:0.0; 
stroke:#008484; stroke-width:50; stroke-opacity:1; 
stroke-linecap:round; stroke-linejoin:round;">
<text x="7804.83" y="6749.83"
textLength="662.486" font-size="400" lengthAdjust="spacingAndGlyphs"
text-anchor="middle" opacity="0">C1</text>
<path d="M7754 6706
L7740 6721
L7697 6735
L7669 6735
L7626 6721
L7597 6692
L7583 6664
L7569 6606
L7569 6564
L7583 6506
L7597 6478
L7626 6449
L7669 6435
L7697 6435
L7740 6449
L7754 6464
" />
<path d="M8040 6735
L7869 6735
" />
<path d="M7954 6735
L7954 6435
L7926 6478
L7897 6506
L7869 6521
" />
<text x="11154.8" y="5899.83"
textLength="650.714" font-size="400" lengthAdjust="spacingAndGlyphs"
text-anchor="middle" opacity="0">C2</text>
<path d="M11104 5856
L11090 5871
L11047 5885
L11019 5885
L10976 5871
L10947 5842
L10933 5814
L10919 5756
L10919 5714
L10933 5656
L10947 5628
L10976 5599
L11019 5585
L11047 5585
L11090 5599
L11104 5614
" />
<path d="M11219 5614
L11233 5599
L11261 5585
L11333 5585
L11361 5599
L11376 5614
L11390 5642
L11390 5671
L11376 5714
L11204 5885
L11390 5885
" />
<g transform="rotate(-90 6604.83 9949.83)">
<text x="6604.83" y="10099.8"
textLength="650.714" font-size="400" lengthAdjust="spacingAndGlyphs"
text-anchor="middle" opacity="0">C3</text>
</g>
<path d="M6711 9999
L6726 10014
L6740 10056
L6740 10085
L6726 10128
L6697 10156
L6669 10171
L6611 10185
L6569 10185
L6511 10171
L6483 10156
L6454 10128
L6440 10085
L6440 10056
L6454 10014
L6469 9999
" />
<path d="M6440 9899
L6440 9714
L6554 9814
L6554 9771
L6569 9742
L6583 9728
L6611 9714
L6683 9714
L6711 9728
L6726 9742
L6740 9771
L6740 9856
L6726 9885
L6711 9899
" />
<g transform="rotate(-90 11304.8 8999.83)">
<text x="11304.8" y="9149.83"
textLength="650.714" font-size="400" lengthAdjust="spacingAndGlyphs"
text-anchor="middle" opacity="0">C4</text>
</g>
<path d="M11411 9049
L11426 9064
L11440 9106
L11440 9135
L11426 9178
L11397 9206
L11369 9221
L11311 9235
L11269 9235
L11211 9221
L11183 9206
L11154 9178
L11140 9135
L11140 9106
L11154 9064
L11169 9049
" />
<path d="M11240 8792
L11440 8792
" />
<path d="M11126 8864
L11340 8935
L11340 8749
" />
<text x="7454.83" y="7249.83"
textLength="665" font-size="400" lengthAdjust="spacingAndGlyphs"
text-anchor="middle" opacity="0">U1</text>
<path d="M7226 6935
L7226 7178
L7240 7206
L7254 7221
L7283 7235
L7340 7235
L7369 7221
L7383 7206
L7397 7178
L7397 6935
" />
<path d="M7697 7235
L7526 7235
" />
<path d="M7611 7235
L7611 6935
L7583 6978
L7554 7006
L7526 7021
" />
<g transform="rotate(-90 7565.85 4649.83)">
<text x="7565.85" y="4799.83"
textLength="650.714" font-size="400" lengthAdjust="spacingAndGlyphs"
text-anchor="middle" opacity="0">D1</text>
</g>
<path d="M7701 4871
L7401 4871
L7401 4799
L7415 4756
L7444 4728
L7472 4714
L7530 4699
L7572 4699
L7630 4714
L7658 4728
L7687 4756
L7701 4799
L7701 4871
" />
<path d="M7701 4414
L7701 4585
" />
<path d="M7701 4499
L7401 4499
L7444 4528
L7472 4556
L7487 4585
" />
<g transform="rotate(-90 8915.85 4649.83)">
<text x="8915.85" y="4799.83"
textLength="650.714" font-size="400" lengthAdjust="spacingAndGlyphs"
text-anchor="middle" opacity="0">D2</text>
</g>
<path d="M9051 4871
L8751 4871
L8751 4799
L8765 4756
L8794 4728
L8822 4714
L8880 4699
L8922 4699
L8980 4714
L9008 4728
L9037 4756
L9051 4799
L9051 4871
" />
<path d="M8780 4585
L8765 4571
L8751 4542
L8751 4471
L8765 4442
L8780 4428
L8808 4414
L8837 4414
L8880 4428
L9051 4599
L9051 4414
" />
<g transform="rotate(-90 3404.83 7549.83)">
<text x="3404.83" y="7699.83"
textLength="807.857" font-size="400" lengthAdjust="spacingAndGlyphs"
text-anchor="middle" opacity="0">IN1</text>
</g>
<path d="M3540 7849
L3240 7849
" />
<path d="M3540 7706
L3240 7706
L3540 7535
L3240 7535
" />
<path d="M3540 7235
L3540 7406
" />
<path d="M3540 7321
L3240 7321
L3283 7349
L3311 7378
L3326 7406
" />
<g transform="rotate(-90 3404.83 6549.83)">
<text x="3404.83" y="6699.83"
textLength="807.857" font-size="400" lengthAdjust="spacingAndGlyphs"
text-anchor="middle" opacity="0">IN2</text>
</g>
<path d="M3540 6849
L3240 6849
" />
<path d="M3540 6706
L3240 6706
L3540 6535
L3240 6535
" />
<path d="M3269 6406
L3254 6392
L3240 6364
L3240 6292
L3254 6264
L3269 6249
L3297 6235
L3326 6235
L3369 6249
L3540 6421
L3540 6235
" />
<text x="12054.8" y="6949.83"
textLength="650.714" font-size="400" lengthAdjust="spacingAndGlyphs"
text-anchor="middle" opacity="0">R6</text>
<path d="M12004 6935
L11904 6792
" />
<path d="M11833 6935
L11833 6635
L11947 6635
L11976 6649
L11990 6664
L12004 6692
L12004 6735
L11990 6764
L11976 6778
L11947 6792
L11833 6792
" />
<path d="M12261 6635
L12204 6635
L12176 6649
L12161 6664
L12133 6706
L12119 6764
L12119 6878
L12133 6906
L12147 6921
L12176 6935
L12233 6935
L12261 6921
L12276 6906
L12290 6878
L12290 6806
L12276 6778
L12261 6764
L12233 6749
L12176 6749
L12147 6764
L12133 6778
L12119 6806
" />
<g >
</g>
</g>
<g style="fill:#000000; fill-opacity:0.0; 
stroke:#000000; stroke-width:50; stroke-opacity:1; 
stroke-linecap:round; stroke-linejoin:round;">
</g>
<g style="fill:#C2C200; fill-opacity:0.0; 
stroke:#C2C200; stroke-width:50; stroke-opacity:1; 
stroke-linecap:round; stroke-linejoin:round;">
</g>
<g style="fill:#C2C200; fill-opacity:0.0; 
stroke:#C2C200; stroke-width:39.3701; stroke-opacity:1; 
stroke-linecap:round; stroke-linejoin:round;">
<path d="M1754 13149
L1754 1849
" />
<path d="M13354 13149
L1754 13149
" />
<path d="M13354 1849
L13354 13149
" />
<path d="M1754 1849
L13354 1849
" />
<g >
</g>
<g >
</g>
<g >
</g>
<g >
</g>
<g >
</g>
<g >
</g>
<g >
</g>
<g >
</g>
<g >
</g>
<g >
</g>
<g >
</g>
<g >
</g>
<g >
</g>
<g >
</g>
<g >
</g>
<g >
</g>
<g >
</g>
<g >
</g>
<g >
</g>
<g >
</g>
</g> 
</svg>
