<?xml version="1.0" encoding="UTF-8" standalone="no"?>
<svg height="28.966585mm" id="svg8" version="1.1" viewBox="0 0 29.728584 28.966585" width="29.728584mm" xmlns="http://www.w3.org/2000/svg" xmlns:cc="http://creativecommons.org/ns#" xmlns:dc="http://purl.org/dc/elements/1.1/" xmlns:rdf="http://www.w3.org/1999/02/22-rdf-syntax-ns#" xmlns:svg="http://www.w3.org/2000/svg">
   <g id="breadboard" transform="translate(-38.808328,-129.14766)">
      <rect height="28.702002" id="rect1710" width="29.464001" x="38.94062" y="129.27995"/>
      <circle cx="57.041656" cy="155.59109" id="circle18" r="0.85000086"/>
      <path d="m 55.35164,156.44124 h -1.699997 v -1.70002 h 1.699997 z" id="path20"/>
      <circle cx="40.620552" cy="138.36996" id="circle24" r="0.85000086"/>
      <circle cx="40.620552" cy="140.90997" id="circle26" r="0.85000086"/>
      <circle cx="40.620552" cy="143.44997" id="circle28" r="0.85000086"/>
      <path d="m 41.47054,145.13997 v 1.69999 h -1.699997 v -1.69999 z" id="path30"/>
      <circle cx="52.253754" cy="130.78807" id="circle34" r="0.85000086"/>
      <circle cx="54.793755" cy="130.78807" id="circle36" r="0.85000086"/>
      <path d="m 56.483743,129.93807 h 1.699997 v 1.69999 h -1.699997 z" id="path38"/>
      <circle cx="40.620552" cy="138.36996" id="circle1118" r="0.32150331"/>
      <circle cx="40.620552" cy="140.90997" id="circle1120" r="0.32150331"/>
      <circle cx="40.620552" cy="143.44997" id="circle1122" r="0.32150331"/>
      <circle cx="40.620537" cy="145.98996" id="circle1124" r="0.32150331"/>
      <circle cx="54.50164" cy="155.59122" id="circle1126" r="0.32150331"/>
      <circle cx="57.041656" cy="155.59109" id="circle1128" r="0.32150331"/>
      <circle cx="57.33374" cy="130.78806" id="circle1130" r="0.32150331"/>
      <circle cx="54.793755" cy="130.78807" id="circle1132" r="0.32150331"/>
      <circle cx="52.253754" cy="130.78807" id="circle1134" r="0.32150331"/>
      <text fill="#008484" fill-opacity="1" font-family="ocra10" font-size="5" id="text904" lengthAdjust="spacingAndGlyphs" x="50.680988" y="133.46773">GND Vcc VM</text>
      <text fill="#008484" fill-opacity="1" font-family="ocra10" font-size="5" id="text908" lengthAdjust="spacingAndGlyphs" transform="rotate(-90)" x="-147.33081" y="42.901024">STBY IN1 IN2 PWM</text>
      <g id="g1671" transform="translate(36.569197,4.9136905)">
         <rect height="7.6199999" id="rect1741" width="3.556" x="18.271051" y="136.41917"/>
         <rect height="7.6199999" id="rect1745" width="1.651403" x="18.271051" y="136.41917"/>
         <rect height="7.6497593" id="rect1743" width="2.2664292" x="18.915836" y="136.4043"/>
         <rect height="0.40547103" id="rect1747" width="1.4024093" x="16.963692" y="137.10609"/>
         <rect height="0.40547103" id="rect1749" width="1.4024093" x="16.963692" y="137.74591"/>
         <rect height="0.40547103" id="rect1751" width="1.4024093" x="16.963692" y="138.40152"/>
         <rect height="0.40547103" id="rect1753" width="1.4024093" x="16.963692" y="139.07111"/>
         <rect height="0.40547103" id="rect1755" width="1.4024093" x="16.963692" y="139.70349"/>
         <rect height="0.40547103" id="rect1757" width="1.4024093" x="16.963692" y="140.36565"/>
         <rect height="0.40547103" id="rect1759" width="1.4024093" x="16.963692" y="141.02779"/>
         <rect height="0.40547103" id="rect1761" width="1.4024093" x="16.963692" y="141.65273"/>
         <rect height="0.40547103" id="rect1763" width="1.4024093" x="16.963692" y="142.31796"/>
         <rect height="0.40547103" id="rect1765" width="1.4024093" x="16.963692" y="142.95079"/>
         <rect height="0.40547103" id="rect1767" width="1.4024093" x="21.699375" y="137.10609"/>
         <rect height="0.40547103" id="rect1769" width="1.4024093" x="21.699375" y="137.74591"/>
         <rect height="0.40547103" id="rect1771" width="1.4024093" x="21.699375" y="138.40152"/>
         <rect height="0.40547103" id="rect1773" width="1.4024093" x="21.699375" y="139.07111"/>
         <rect height="0.40547103" id="rect1775" width="1.4024093" x="21.699375" y="139.70349"/>
         <rect height="0.40547103" id="rect1777" width="1.4024093" x="21.699375" y="140.36565"/>
         <rect height="0.40547103" id="rect1779" width="1.4024093" x="21.699375" y="141.02779"/>
         <rect height="0.40547103" id="rect1781" width="1.4024093" x="21.699375" y="141.65273"/>
         <rect height="0.40547103" id="rect1783" width="1.4024093" x="21.699375" y="142.31796"/>
         <rect height="0.40547103" id="rect1785" width="1.4024093" x="21.699375" y="142.95079"/>
      </g>
      <text fill="#008484" fill-opacity="1" font-family="ocra10" font-size="5" id="text1675" lengthAdjust="spacingAndGlyphs" x="54.20372" y="150.52628">MotorControler&gt;</text>
      <text fill="#008484" fill-opacity="1" font-family="ocra10" font-size="5" id="text1683" lengthAdjust="spacingAndGlyphs" transform="rotate(-90)" x="-144.89532" y="56.935555">TB6593FNG</text>
      <text fill="#008484" fill-opacity="1" font-family="ocra10" font-size="5" id="text990" lengthAdjust="spacingAndGlyphs" x="54.20372" y="151.65607">2L.3</text>
      <rect height="10.122675" id="rect1687" width="2.468657" x="39.401134" y="137.05992"/>
      <rect height="1.9243444" id="rect1689" width="2.1700053" x="39.535549" y="137.40779"/>
      <g id="g1727">
         <g id="g1719">
            <path d="m 39.535549,139.33214 h 2.170004 l -1.080584,-0.97005 z" id="path1705"/>
            <path d="m 41.705555,139.33214 v -1.92435 l -1.079138,0.95826 z" id="path1707"/>
            <path d="m 41.705556,137.40533 h -2.17001 l 1.08059,0.97005 z" id="path1709"/>
            <path d="m 39.547279,139.33214 v -1.92435 l 1.079138,0.95826 z" id="path1711"/>
         </g>
         <rect height="1.1364914" id="rect1713" width="1.2918823" x="39.978783" y="137.79935"/>
      </g>
      <g id="g1741" transform="translate(0,2.5412381)">
         <g id="g1737">
            <path d="m 39.535549,139.33214 h 2.170004 l -1.080584,-0.97005 z" id="path1729"/>
            <path d="m 41.705555,139.33214 v -1.92435 l -1.079138,0.95826 z" id="path1731"/>
            <path d="m 41.705556,137.40533 h -2.17001 l 1.08059,0.97005 z" id="path1733"/>
            <path d="m 39.547279,139.33214 v -1.92435 l 1.079138,0.95826 z" id="path1735"/>
         </g>
         <rect height="1.1364914" id="rect1739" width="1.2918823" x="39.978783" y="137.79935"/>
      </g>
      <circle cx="40.620552" cy="143.44997" id="circle1743" r="0.85000086"/>
      <g id="g1758" transform="translate(1.0629883e-6,5.0812314)">
         <g id="g1753">
            <path d="m 39.535549,139.33214 h 2.170004 l -1.080584,-0.97005 z" id="path1745"/>
            <path d="m 41.705555,139.33214 v -1.92435 l -1.079138,0.95826 z" id="path1747"/>
            <path d="m 41.705556,137.40533 h -2.17001 l 1.08059,0.97005 z" id="path1749"/>
            <path d="m 39.547279,139.33214 v -1.92435 l 1.079138,0.95826 z" id="path1751"/>
         </g>
         <rect height="1.1364914" id="rect1756" width="1.2918823" x="39.978783" y="137.79935"/>
      </g>
      <circle cx="40.620541" cy="145.98996" id="circle1760" r="0.85000086"/>
      <circle cx="40.620541" cy="145.98996" id="circle1762" r="0.85000086"/>
      <g id="g1776" transform="translate(-9.5e-6,7.62123)">
         <g id="g1772">
            <path d="m 39.535549,139.33214 h 2.170004 l -1.080584,-0.97005 z" id="path1764"/>
            <path d="m 41.705555,139.33214 v -1.92435 l -1.079138,0.95826 z" id="path1766"/>
            <path d="m 41.705556,137.40533 h -2.17001 l 1.08059,0.97005 z" id="path1768"/>
            <path d="m 39.547279,139.33214 v -1.92435 l 1.079138,0.95826 z" id="path1770"/>
         </g>
         <rect height="1.1364914" id="rect1774" width="1.2918823" x="39.978783" y="137.79935"/>
      </g>
      <g id="g1790" transform="translate(-9.5e-6,7.62123)">
         <g id="g1786">
            <path d="m 39.535549,139.33214 h 2.170004 l -1.080584,-0.97005 z" id="path1778"/>
            <path d="m 41.705555,139.33214 v -1.92435 l -1.079138,0.95826 z" id="path1780"/>
            <path d="m 41.705556,137.40533 h -2.17001 l 1.08059,0.97005 z" id="path1782"/>
            <path d="m 39.547279,139.33214 v -1.92435 l 1.079138,0.95826 z" id="path1784"/>
         </g>
         <rect height="1.1364914" id="rect1788" width="1.2918823" x="39.978783" y="137.79935"/>
      </g>
      <rect height="5.3507252" id="rect1882" transform="rotate(90)" width="2.468657" x="154.35234" y="-58.453499"/>
      <g id="g1804" transform="translate(13.88109,17.222495)">
         <g id="g1800">
            <path d="m 39.535549,139.33214 h 2.170004 l -1.080584,-0.97005 z" id="path1792"/>
            <path d="m 41.705555,139.33214 v -1.92435 l -1.079138,0.95826 z" id="path1794"/>
            <path d="m 41.705556,137.40533 h -2.17001 l 1.08059,0.97005 z" id="path1796"/>
            <path d="m 39.547279,139.33214 v -1.92435 l 1.079138,0.95826 z" id="path1798"/>
         </g>
         <rect height="1.1364914" id="rect1802" width="1.2918823" x="39.978783" y="137.79935"/>
      </g>
      <path d="m 57.891655,156.4411 h -1.699997 v -1.70002 h 1.699997 z" id="path1806"/>
      <g id="g1820" transform="translate(16.421105,17.22236)">
         <g id="g1816">
            <path d="m 39.535549,139.33214 h 2.170004 l -1.080584,-0.97005 z" id="path1808"/>
            <path d="m 41.705555,139.33214 v -1.92435 l -1.079138,0.95826 z" id="path1810"/>
            <path d="m 41.705556,137.40533 h -2.17001 l 1.08059,0.97005 z" id="path1812"/>
            <path d="m 39.547279,139.33214 v -1.92435 l 1.079138,0.95826 z" id="path1814"/>
         </g>
         <rect height="1.1364914" id="rect1818" width="1.2918823" x="39.978783" y="137.79935"/>
      </g>
      <circle cx="52.253754" cy="130.78807" id="circle1822" r="0.85000086"/>
      <path d="m 53.103752,131.63808 h -1.699997 v -1.70002 h 1.699997 z" id="path1824"/>
      <rect height="7.6893334" id="rect1884" transform="rotate(90)" width="2.468657" x="129.62631" y="-58.599075"/>
      <g id="g1838" transform="translate(11.633203,-7.5806643)">
         <g id="g1834">
            <path d="m 39.535549,139.33214 h 2.170004 l -1.080584,-0.97005 z" id="path1826"/>
            <path d="m 41.705555,139.33214 v -1.92435 l -1.079138,0.95826 z" id="path1828"/>
            <path d="m 41.705556,137.40533 h -2.17001 l 1.08059,0.97005 z" id="path1830"/>
            <path d="m 39.547279,139.33214 v -1.92435 l 1.079138,0.95826 z" id="path1832"/>
         </g>
         <rect height="1.1364914" id="rect1836" width="1.2918823" x="39.978783" y="137.79935"/>
      </g>
      <circle cx="54.793755" cy="130.78807" id="circle1840" r="0.85000086"/>
      <circle cx="54.793755" cy="130.78807" id="circle1842" r="0.85000086"/>
      <path d="m 55.643753,131.63808 h -1.699997 v -1.70002 h 1.699997 z" id="path1844"/>
      <g id="g1858" transform="translate(14.173204,-7.5806643)">
         <g id="g1854">
            <path d="m 39.535549,139.33214 h 2.170004 l -1.080584,-0.97005 z" id="path1846"/>
            <path d="m 41.705555,139.33214 v -1.92435 l -1.079138,0.95826 z" id="path1848"/>
            <path d="m 41.705556,137.40533 h -2.17001 l 1.08059,0.97005 z" id="path1850"/>
            <path d="m 39.547279,139.33214 v -1.92435 l 1.079138,0.95826 z" id="path1852"/>
         </g>
         <rect height="1.1364914" id="rect1856" width="1.2918823" x="39.978783" y="137.79935"/>
      </g>
      <circle cx="57.33374" cy="130.78807" id="circle1860" r="0.85000086"/>
      <circle cx="57.33374" cy="130.78807" id="circle1862" r="0.85000086"/>
      <circle cx="57.33374" cy="130.78807" id="circle1864" r="0.85000086"/>
      <path d="m 58.18374,131.63808 h -1.699997 v -1.70002 h 1.699997 z" id="path1866"/>
      <g id="g1880" transform="translate(16.71319,-7.58067)">
         <g id="g1876">
            <path d="m 39.535549,139.33214 h 2.170004 l -1.080584,-0.97005 z" id="path1868"/>
            <path d="m 41.705555,139.33214 v -1.92435 l -1.079138,0.95826 z" id="path1870"/>
            <path d="m 41.705556,137.40533 h -2.17001 l 1.08059,0.97005 z" id="path1872"/>
            <path d="m 39.547279,139.33214 v -1.92435 l 1.079138,0.95826 z" id="path1874"/>
         </g>
         <rect height="1.1364914" id="rect1878" width="1.2918823" x="39.978783" y="137.79935"/>
      </g>
   </g>
   <metadata id="metadata975">
      <rdf:RDF>
         <cc:Work rdf:about="">
            <dc:title/>
         </cc:Work>
      </rdf:RDF>
   </metadata>
</svg>