<?xml version='1.0' encoding='utf-8'?>
<!DOCTYPE svg>
<!-- Generator: Adobe Illustrator 16.0.0, SVG Export Plug-In . SVG Version: 6.00 Build 0)  -->
<svg xmlns="http://www.w3.org/2000/svg" viewBox="0 0 103.465 50.598" xmlns:xml="http://www.w3.org/XML/1998/namespace" x="0px"  width="1.43701in" gorn="0" version="1.1" xml:space="preserve" enable-background="new 0 0 103.465 50.598" height="0.70275in" id="_x30_" y="0px">
    <desc  id="desc3">
        <referenceFile  id="referenceFile5">Teensy_3.0_breadboard.svg</referenceFile>
    </desc>
    <g  gorn="0.1" id="breadboard">
        <path d="M2.835,0v50.598h100.63V0H2.835z M42.349,1.906c0.998,0,1.812,0.813,1.812,1.813s-0.814,1.813-1.812,1.813c-1,0-1.812-0.813-1.812-1.813C40.538,2.72,41.349,1.906,42.349,1.906z M42.349,10.133c0.998,0,1.812,0.813,1.812,1.813s-0.813,1.813-1.812,1.813c-1,0-1.812-0.813-1.812-1.813C40.538,10.948,41.349,10.133,42.349,10.133z M6.348,48.682c-1,0-1.812-0.811-1.812-1.811c0-0.998,0.812-1.813,1.812-1.813c0.998,0,1.812,0.813,1.812,1.813S7.346,48.682,6.348,48.682z M6.348,5.531c-1,0-1.812-0.813-1.812-1.813c0-0.998,0.812-1.813,1.812-1.813c0.998,0,1.812,0.813,1.812,1.813S7.346,5.531,6.348,5.531z M13.549,48.682c-1,0-1.812-0.811-1.812-1.811c0-0.998,0.812-1.813,1.812-1.813c0.998,0,1.812,0.813,1.812,1.813S14.547,48.682,13.549,48.682z M13.549,13.758c-1,0-1.812-0.813-1.812-1.813c0-0.994,0.812-1.813,1.812-1.813c0.998,0,1.812,0.813,1.812,1.813S14.547,13.758,13.549,13.758z M13.549,5.531c-1,0-1.812-0.813-1.812-1.813c0-0.998,0.812-1.813,1.812-1.813c0.998,0,1.812,0.813,1.812,1.813S14.547,5.531,13.549,5.531z M20.749,48.682c-1,0-1.812-0.811-1.812-1.811c0-0.998,0.812-1.813,1.812-1.813c0.998,0,1.812,0.813,1.812,1.813S21.747,48.682,20.749,48.682z M20.749,5.531c-1,0-1.812-0.813-1.812-1.813c0-0.998,0.812-1.813,1.812-1.813c0.998,0,1.812,0.813,1.812,1.813S21.747,5.531,20.749,5.531z M27.949,48.682c-1,0-1.812-0.811-1.812-1.811c0-0.998,0.812-1.813,1.812-1.813c0.998,0,1.812,0.813,1.812,1.813S28.947,48.682,27.949,48.682z M27.949,13.758c-1,0-1.812-0.813-1.812-1.813c0-0.994,0.812-1.813,1.812-1.813c0.998,0,1.812,0.813,1.812,1.813S28.947,13.758,27.949,13.758z M27.949,5.531c-1,0-1.812-0.813-1.812-1.813c0-0.998,0.812-1.813,1.812-1.813c0.998,0,1.812,0.813,1.812,1.813S28.947,5.531,27.949,5.531z M35.149,48.682c-1,0-1.812-0.811-1.812-1.811c0-0.998,0.812-1.813,1.812-1.813c0.998,0,1.812,0.813,1.812,1.813S36.147,48.682,35.149,48.682z M35.149,13.758c-1,0-1.812-0.813-1.812-1.813c0-0.994,0.812-1.813,1.812-1.813c0.998,0,1.812,0.813,1.812,1.813S36.147,13.758,35.149,13.758z M35.149,5.531c-1,0-1.812-0.813-1.812-1.813c0-0.998,0.812-1.813,1.812-1.813c0.998,0,1.812,0.813,1.812,1.813S36.147,5.531,35.149,5.531z M39.087,22.723c0-0.533,0.433-0.968,0.967-0.968c0.533,0,0.968,0.434,0.968,0.968s-0.435,0.968-0.968,0.968C39.52,23.69,39.087,23.257,39.087,22.723z M42.349,48.682c-1,0-1.812-0.811-1.812-1.811c0-0.998,0.812-1.813,1.812-1.813c0.998,0,1.812,0.813,1.812,1.813S43.347,48.682,42.349,48.682z M43.901,23.69c-0.534,0-0.968-0.434-0.968-0.968c0-0.533,0.434-0.968,0.968-0.968c0.533,0,0.967,0.434,0.967,0.968S44.433,23.69,43.901,23.69z M49.55,48.682c-1,0-1.812-0.811-1.812-1.811c0-0.998,0.812-1.813,1.812-1.813c0.998,0,1.812,0.813,1.812,1.813S50.548,48.682,49.55,48.682z M49.55,5.531c-1,0-1.812-0.813-1.812-1.813c0-0.998,0.812-1.813,1.812-1.813c0.998,0,1.812,0.813,1.812,1.813S50.548,5.531,49.55,5.531z M56.75,48.682c-1,0-1.813-0.811-1.813-1.811c0-0.998,0.813-1.813,1.813-1.813c0.998,0,1.813,0.813,1.813,1.813S57.748,48.682,56.75,48.682z M56.75,5.531c-1,0-1.813-0.813-1.813-1.813c0-0.998,0.813-1.813,1.813-1.813c0.998,0,1.813,0.813,1.813,1.813S57.748,5.531,56.75,5.531z M63.95,48.682c-1,0-1.812-0.811-1.812-1.811c0-0.998,0.812-1.813,1.812-1.813c0.997,0,1.812,0.813,1.812,1.813S64.947,48.682,63.95,48.682z M63.95,5.531c-1,0-1.812-0.813-1.812-1.813c0-0.998,0.812-1.813,1.812-1.813c0.997,0,1.812,0.813,1.812,1.813S64.947,5.531,63.95,5.531z M71.15,48.682c-1,0-1.813-0.811-1.813-1.811c0-0.998,0.813-1.813,1.813-1.813c0.998,0,1.812,0.813,1.812,1.813S72.148,48.682,71.15,48.682z M71.15,5.531c-1,0-1.813-0.813-1.813-1.813c0-0.998,0.813-1.813,1.813-1.813c0.998,0,1.812,0.813,1.812,1.813S72.148,5.531,71.15,5.531z M78.352,48.682c-1,0-1.813-0.811-1.813-1.811c0-0.998,0.813-1.813,1.813-1.813c0.998,0,1.813,0.813,1.813,1.813S79.35,48.682,78.352,48.682z M78.352,5.531c-1,0-1.813-0.813-1.813-1.813c0-0.998,0.813-1.813,1.813-1.813c0.998,0,1.813,0.813,1.813,1.813S79.35,5.531,78.352,5.531z M85.551,48.682c-1,0-1.811-0.811-1.811-1.811c0-0.998,0.811-1.813,1.811-1.813c0.998,0,1.813,0.813,1.813,1.813S86.549,48.682,85.551,48.682z M85.551,5.531c-1,0-1.811-0.813-1.811-1.813c0-0.998,0.811-1.813,1.811-1.813c0.998,0,1.813,0.813,1.813,1.813S86.549,5.531,85.551,5.531z M92.752,48.682c-1,0-1.813-0.811-1.813-1.811c0-0.998,0.813-1.813,1.813-1.813c0.998,0,1.811,0.813,1.811,1.813S93.75,48.682,92.752,48.682z M92.752,5.531c-1,0-1.813-0.813-1.813-1.813c0-0.998,0.813-1.813,1.813-1.813c0.998,0,1.811,0.813,1.811,1.813S93.75,5.531,92.752,5.531z M99.951,48.682c-1,0-1.811-0.811-1.811-1.811c0-0.998,0.811-1.813,1.811-1.813c0.998,0,1.813,0.813,1.813,1.813S100.949,48.682,99.951,48.682z M99.951,41.531c-1,0-1.811-0.813-1.811-1.813c0-0.998,0.811-1.813,1.811-1.813c0.998,0,1.813,0.813,1.813,1.813S100.949,41.531,99.951,41.531z M99.951,34.331c-1,0-1.811-0.813-1.811-1.813c0-0.998,0.811-1.813,1.811-1.813c0.998,0,1.813,0.813,1.813,1.813S100.949,34.331,99.951,34.331z M99.951,27.129c-1,0-1.811-0.813-1.811-1.813c0-0.998,0.811-1.813,1.811-1.813c0.998,0,1.813,0.813,1.813,1.813S100.949,27.129,99.951,27.129z M99.951,19.93c-1,0-1.811-0.811-1.811-1.811c0-0.998,0.811-1.813,1.811-1.813c0.998,0,1.813,0.813,1.813,1.813S100.949,19.93,99.951,19.93z M99.951,12.729c-1,0-1.811-0.811-1.811-1.811c0-0.998,0.811-1.813,1.811-1.813c0.998,0,1.813,0.813,1.813,1.813S100.949,12.729,99.951,12.729z M99.951,5.531c-1,0-1.811-0.813-1.811-1.813c0-0.998,0.811-1.813,1.811-1.813c0.998,0,1.813,0.813,1.813,1.813S100.949,5.531,99.951,5.531z" fill="#1A1A1A"  gorn="0.1.0" id="_x30_.1"/>
        <g  gorn="0.1.1" id="_x30_.2">
            <g  gorn="0.1.1.0" id="_x30_.2.0">
                <g  gorn="0.1.1.0.0" id="_x30_.2.0.0">
                    <path d="M6.348,1.167c-1.405,0-2.554,1.146-2.554,2.555c0,1.406,1.146,2.555,2.554,2.555c1.408,0,2.554-1.146,2.554-2.555C8.901,2.313,7.757,1.167,6.348,1.167z M6.348,5.531c-1,0-1.812-0.813-1.812-1.813c0-0.998,0.812-1.813,1.812-1.813c0.998,0,1.812,0.813,1.812,1.813S7.346,5.531,6.348,5.531z" fill="#9A916C"  gorn="0.1.1.0.0.0" id="_x30_.2.0.0.0"/>
                </g>
                <g  gorn="0.1.1.0.1" id="_x30_.2.0.1">
                    <path d="M13.549,1.167c-1.405,0-2.554,1.146-2.554,2.555c0,1.406,1.146,2.555,2.554,2.555c1.408,0,2.554-1.146,2.554-2.555C16.101,2.313,14.957,1.167,13.549,1.167z M13.549,5.531c-1,0-1.812-0.813-1.812-1.813c0-0.998,0.812-1.813,1.812-1.813c0.998,0,1.812,0.813,1.812,1.813S14.547,5.531,13.549,5.531z" fill="#9A916C"  gorn="0.1.1.0.1.0" id="_x30_.2.0.1.0"/>
                </g>
                <g  gorn="0.1.1.0.2" id="_x30_.2.0.2">
                    <path d="M20.749,1.167c-1.405,0-2.554,1.146-2.554,2.555c0,1.406,1.146,2.555,2.554,2.555s2.554-1.146,2.554-2.555C23.302,2.313,22.157,1.167,20.749,1.167z M20.749,5.531c-1,0-1.812-0.813-1.812-1.813c0-0.998,0.812-1.813,1.812-1.813c0.998,0,1.812,0.813,1.812,1.813S21.747,5.531,20.749,5.531z" fill="#9A916C"  gorn="0.1.1.0.2.0" id="_x30_.2.0.2.0"/>
                </g>
                <g  gorn="0.1.1.0.3" id="_x30_.2.0.3">
                    <path d="M27.949,1.167c-1.405,0-2.554,1.146-2.554,2.555c0,1.406,1.146,2.555,2.554,2.555c1.408,0,2.554-1.146,2.554-2.555C30.502,2.313,29.357,1.167,27.949,1.167z M27.949,5.531c-1,0-1.812-0.813-1.812-1.813c0-0.998,0.812-1.813,1.812-1.813c0.998,0,1.812,0.813,1.812,1.813S28.947,5.531,27.949,5.531z" fill="#9A916C"  gorn="0.1.1.0.3.0" id="_x30_.2.0.3.0"/>
                </g>
                <g  gorn="0.1.1.0.4" id="_x30_.2.0.4">
                    <path d="M35.149,1.167c-1.405,0-2.554,1.146-2.554,2.555c0,1.406,1.146,2.555,2.554,2.555c1.408,0,2.554-1.146,2.554-2.555C37.702,2.313,36.557,1.167,35.149,1.167z M35.149,5.531c-1,0-1.812-0.813-1.812-1.813c0-0.998,0.812-1.813,1.812-1.813c0.998,0,1.812,0.813,1.812,1.813S36.147,5.531,35.149,5.531z" fill="#9A916C"  gorn="0.1.1.0.4.0" id="_x30_.2.0.4.0"/>
                </g>
                <g  gorn="0.1.1.0.5" id="_x30_.2.0.5">
                    <path d="M42.349,1.167c-1.405,0-2.554,1.146-2.554,2.555c0,1.406,1.146,2.555,2.554,2.555c1.408,0,2.554-1.146,2.554-2.555C44.902,2.313,43.758,1.167,42.349,1.167z M42.349,5.531c-1,0-1.812-0.813-1.812-1.813c0-0.998,0.812-1.813,1.812-1.813c0.998,0,1.812,0.813,1.812,1.813S43.347,5.531,42.349,5.531z" fill="#9A916C"  gorn="0.1.1.0.5.0" id="_x30_.2.0.5.0"/>
                </g>
                <g  gorn="0.1.1.0.6" id="_x30_.2.0.6">
                    <path d="M49.55,1.167c-1.405,0-2.554,1.146-2.554,2.555c0,1.406,1.146,2.555,2.554,2.555c1.408,0,2.554-1.146,2.554-2.555C52.102,2.313,50.958,1.167,49.55,1.167z M49.55,5.531c-1,0-1.812-0.813-1.812-1.813c0-0.998,0.812-1.813,1.812-1.813c0.998,0,1.812,0.813,1.812,1.813S50.548,5.531,49.55,5.531z" fill="#9A916C"  gorn="0.1.1.0.6.0" id="_x30_.2.0.6.0"/>
                </g>
                <g  gorn="0.1.1.0.7" id="_x30_.2.0.7">
                    <path d="M56.75,1.167c-1.404,0-2.555,1.146-2.555,2.555c0,1.406,1.146,2.555,2.555,2.555s2.555-1.146,2.555-2.555C59.303,2.313,58.158,1.167,56.75,1.167z M56.75,5.531c-1,0-1.813-0.813-1.813-1.813c0-0.998,0.813-1.813,1.813-1.813c0.998,0,1.813,0.813,1.813,1.813S57.748,5.531,56.75,5.531z" fill="#9A916C"  gorn="0.1.1.0.7.0" id="_x30_.2.0.7.0"/>
                </g>
                <g  gorn="0.1.1.0.8" id="_x30_.2.0.8">
                    <path d="M63.95,1.167c-1.405,0-2.554,1.146-2.554,2.555c0,1.406,1.146,2.555,2.554,2.555c1.407,0,2.554-1.146,2.554-2.555C66.503,2.313,65.357,1.167,63.95,1.167z M63.95,5.531c-1,0-1.812-0.813-1.812-1.813c0-0.998,0.812-1.813,1.812-1.813c0.997,0,1.812,0.813,1.812,1.813S64.947,5.531,63.95,5.531z" fill="#9A916C"  gorn="0.1.1.0.8.0" id="_x30_.2.0.8.0"/>
                </g>
                <g  gorn="0.1.1.0.9" id="_x30_.2.0.9">
                    <path d="M71.15,1.167c-1.405,0-2.555,1.146-2.555,2.555c0,1.406,1.146,2.555,2.555,2.555c1.408,0,2.554-1.146,2.554-2.555C73.703,2.313,72.559,1.167,71.15,1.167z M71.15,5.531c-1,0-1.813-0.813-1.813-1.813c0-0.998,0.813-1.813,1.813-1.813c0.998,0,1.812,0.813,1.812,1.813S72.148,5.531,71.15,5.531z" fill="#9A916C"  gorn="0.1.1.0.9.0" id="_x30_.2.0.9.0"/>
                </g>
                <g  gorn="0.1.1.0.10" id="_x30_.2.0.10">
                    <path d="M78.352,1.167c-1.406,0-2.555,1.146-2.555,2.555c0,1.406,1.146,2.555,2.555,2.555c1.41,0,2.553-1.146,2.553-2.555S79.76,1.167,78.352,1.167z M78.352,5.531c-1,0-1.813-0.813-1.813-1.813c0-0.998,0.813-1.813,1.813-1.813c0.998,0,1.813,0.813,1.813,1.813S79.35,5.531,78.352,5.531z" fill="#9A916C"  gorn="0.1.1.0.10.0" id="_x30_.2.0.10.0"/>
                </g>
                <g  gorn="0.1.1.0.11" id="_x30_.2.0.11">
                    <path d="M85.551,1.167c-1.404,0-2.553,1.146-2.553,2.555c0,1.406,1.146,2.555,2.553,2.555c1.408,0,2.555-1.146,2.555-2.555C88.104,2.313,86.959,1.167,85.551,1.167z M85.551,5.531c-1,0-1.811-0.813-1.811-1.813c0-0.998,0.811-1.813,1.811-1.813c0.998,0,1.813,0.813,1.813,1.813S86.549,5.531,85.551,5.531z" fill="#9A916C"  gorn="0.1.1.0.11.0" id="_x30_.2.0.11.0"/>
                </g>
                <g  gorn="0.1.1.0.12" id="_x30_.2.0.12">
                    <path d="M92.752,1.167c-1.406,0-2.555,1.146-2.555,2.555c0,1.406,1.146,2.555,2.555,2.555s2.553-1.146,2.553-2.555S94.16,1.167,92.752,1.167z M92.752,5.531c-1,0-1.813-0.813-1.813-1.813c0-0.998,0.813-1.813,1.813-1.813c0.998,0,1.811,0.813,1.811,1.813S93.75,5.531,92.752,5.531z" fill="#9A916C"  gorn="0.1.1.0.12.0" id="_x30_.2.0.12.0"/>
                </g>
                <g  gorn="0.1.1.0.13" id="_x30_.2.0.13">
                    <path d="M99.951,1.167c-1.404,0-2.553,1.146-2.553,2.555c0,1.406,1.146,2.555,2.553,2.555c1.408,0,2.555-1.146,2.555-2.555C102.504,2.313,101.359,1.167,99.951,1.167z M99.951,5.531c-1,0-1.811-0.813-1.811-1.813c0-0.998,0.811-1.813,1.811-1.813c0.998,0,1.813,0.813,1.813,1.813S100.949,5.531,99.951,5.531z" fill="#9A916C"  gorn="0.1.1.0.13.0" id="_x30_.2.0.13.0"/>
                </g>
                <g  gorn="0.1.1.0.14" id="_x30_.2.0.14">
                    <path d="M13.549,9.395c-1.405,0-2.554,1.146-2.554,2.559c0,1.402,1.146,2.555,2.554,2.555c1.408,0,2.554-1.146,2.554-2.555C16.101,10.541,14.957,9.395,13.549,9.395z M13.549,13.758c-1,0-1.812-0.813-1.812-1.813c0-0.994,0.812-1.813,1.812-1.813c0.998,0,1.812,0.813,1.812,1.813S14.547,13.758,13.549,13.758z" fill="#9A916C"  gorn="0.1.1.0.14.0" id="_x30_.2.0.14.0"/>
                </g>
                <g  gorn="0.1.1.0.15" id="_x30_.2.0.15">
                    <path d="M27.949,9.395c-1.405,0-2.554,1.146-2.554,2.559c0,1.402,1.146,2.555,2.554,2.555c1.408,0,2.554-1.146,2.554-2.555C30.502,10.541,29.357,9.395,27.949,9.395z M27.949,13.758c-1,0-1.812-0.813-1.812-1.813c0-0.994,0.812-1.813,1.812-1.813c0.998,0,1.812,0.813,1.812,1.813S28.947,13.758,27.949,13.758z" fill="#9A916C"  gorn="0.1.1.0.15.0" id="_x30_.2.0.15.0"/>
                </g>
                <g  gorn="0.1.1.0.16" id="_x30_.2.0.16">
                    <path d="M35.149,9.395c-1.405,0-2.554,1.146-2.554,2.559c0,1.402,1.146,2.555,2.554,2.555c1.408,0,2.554-1.146,2.554-2.555C37.702,10.541,36.557,9.395,35.149,9.395z M35.149,13.758c-1,0-1.812-0.813-1.812-1.813c0-0.994,0.812-1.813,1.812-1.813c0.998,0,1.812,0.813,1.812,1.813S36.147,13.758,35.149,13.758z" fill="#9A916C"  gorn="0.1.1.0.16.0" id="_x30_.2.0.16.0"/>
                </g>
                <g  gorn="0.1.1.0.17" id="_x30_.2.0.17">
                    <path d="M42.349,9.395c-1.405,0-2.554,1.146-2.554,2.559c0,1.402,1.146,2.555,2.554,2.555c1.408,0,2.554-1.146,2.554-2.555C44.902,10.541,43.758,9.395,42.349,9.395z M42.349,13.758c-1,0-1.812-0.813-1.812-1.813c0-0.994,0.812-1.813,1.812-1.813c0.998,0,1.812,0.813,1.812,1.813S43.347,13.758,42.349,13.758z" fill="#9A916C"  gorn="0.1.1.0.17.0" id="_x30_.2.0.17.0"/>
                </g>
                <g  gorn="0.1.1.0.18" id="_x30_.2.0.18">
                    <path d="M40.054,21.36c-0.75,0-1.364,0.612-1.364,1.364c0,0.751,0.612,1.364,1.364,1.364c0.752,0,1.364-0.612,1.364-1.364C41.418,21.973,40.807,21.36,40.054,21.36z M40.054,23.69c-0.534,0-0.967-0.434-0.967-0.968c0-0.533,0.433-0.968,0.967-0.968c0.533,0,0.968,0.434,0.968,0.968S40.588,23.69,40.054,23.69z" fill="#9A916C"  gorn="0.1.1.0.18.0" id="_x30_.2.0.18.0"/>
                </g>
                <g  gorn="0.1.1.0.19" id="_x30_.2.0.19">
                    <path d="M43.901,21.36c-0.751,0-1.364,0.612-1.364,1.364c0,0.751,0.612,1.364,1.364,1.364s1.364-0.612,1.364-1.364C45.264,21.973,44.653,21.36,43.901,21.36z M43.901,23.69c-0.534,0-0.968-0.434-0.968-0.968c0-0.533,0.434-0.968,0.968-0.968c0.533,0,0.967,0.434,0.967,0.968S44.433,23.69,43.901,23.69z" fill="#9A916C"  gorn="0.1.1.0.19.0" id="_x30_.2.0.19.0"/>
                </g>
            </g>
            <g  gorn="0.1.1.1" id="_x30_.2.1">
                <g  gorn="0.1.1.1.0" id="_x30_.2.1.0">
                    <path d="M99.951,37.168c-1.404,0-2.553,1.146-2.553,2.555c0,1.406,1.146,2.555,2.553,2.555c1.408,0,2.555-1.146,2.555-2.555C102.504,38.313,101.359,37.168,99.951,37.168z M99.951,41.531c-1,0-1.811-0.813-1.811-1.813c0-0.998,0.811-1.813,1.811-1.813c0.998,0,1.813,0.813,1.813,1.813S100.949,41.531,99.951,41.531z" fill="#9A916C"  gorn="0.1.1.1.0.0" id="_x30_.2.1.0.0"/>
                </g>
                <g  gorn="0.1.1.1.1" id="_x30_.2.1.1">
                    <path d="M99.951,29.969c-1.404,0-2.553,1.146-2.553,2.555c0,1.406,1.146,2.559,2.553,2.559c1.408,0,2.555-1.146,2.555-2.559C102.504,31.115,101.359,29.969,99.951,29.969z M99.951,34.331c-1,0-1.811-0.813-1.811-1.813c0-0.998,0.811-1.813,1.811-1.813c0.998,0,1.813,0.813,1.813,1.813S100.949,34.331,99.951,34.331z" fill="#9A916C"  gorn="0.1.1.1.1.0" id="_x30_.2.1.1.0"/>
                </g>
                <g  gorn="0.1.1.1.2" id="_x30_.2.1.2">
                    <path d="M99.951,22.769c-1.404,0-2.553,1.146-2.553,2.559c0,1.402,1.146,2.554,2.553,2.554c1.408,0,2.555-1.146,2.555-2.554C102.504,23.913,101.359,22.769,99.951,22.769z M99.951,27.129c-1,0-1.811-0.813-1.811-1.813c0-0.998,0.811-1.813,1.811-1.813c0.998,0,1.813,0.813,1.813,1.813S100.949,27.129,99.951,27.129z" fill="#9A916C"  gorn="0.1.1.1.2.0" id="_x30_.2.1.2.0"/>
                </g>
                <g  gorn="0.1.1.1.3" id="_x30_.2.1.3">
                    <path d="M99.951,15.568c-1.404,0-2.553,1.146-2.553,2.559c0,1.402,1.146,2.555,2.553,2.555c1.408,0,2.555-1.146,2.555-2.555C102.504,16.713,101.359,15.568,99.951,15.568z M99.951,19.93c-1,0-1.811-0.811-1.811-1.811c0-0.998,0.811-1.813,1.811-1.813c0.998,0,1.813,0.813,1.813,1.813S100.949,19.93,99.951,19.93z" fill="#9A916C"  gorn="0.1.1.1.3.0" id="_x30_.2.1.3.0"/>
                </g>
                <g  gorn="0.1.1.1.4" id="_x30_.2.1.4">
                    <path d="M99.951,8.368c-1.404,0-2.553,1.146-2.553,2.555c0,1.406,1.146,2.555,2.553,2.555c1.408,0,2.555-1.146,2.555-2.555C102.504,9.513,101.359,8.368,99.951,8.368z M99.951,12.729c-1,0-1.811-0.811-1.811-1.811c0-0.998,0.811-1.813,1.811-1.813c0.998,0,1.813,0.813,1.813,1.813S100.949,12.729,99.951,12.729z" fill="#9A916C"  gorn="0.1.1.1.4.0" id="_x30_.2.1.4.0"/>
                </g>
            </g>
            <g  gorn="0.1.1.2" id="_x30_.2.2">
                <g  gorn="0.1.1.2.0" id="_x30_.2.2.0">
                    <path d="M6.348,44.321c-1.405,0-2.554,1.146-2.554,2.559c0,1.406,1.146,2.555,2.554,2.555c1.408,0,2.554-1.146,2.554-2.555C8.901,45.465,7.757,44.321,6.348,44.321z M6.348,48.682c-1,0-1.812-0.811-1.812-1.811c0-0.998,0.812-1.813,1.812-1.813c0.998,0,1.812,0.813,1.812,1.813S7.346,48.682,6.348,48.682z" fill="#9A916C"  gorn="0.1.1.2.0.0" id="_x30_.2.2.0.0"/>
                </g>
                <g  gorn="0.1.1.2.1" id="_x30_.2.2.1">
                    <path d="M13.549,44.321c-1.405,0-2.554,1.146-2.554,2.559c0,1.406,1.146,2.555,2.554,2.555c1.408,0,2.554-1.146,2.554-2.555C16.101,45.465,14.957,44.321,13.549,44.321z M13.549,48.682c-1,0-1.812-0.811-1.812-1.811c0-0.998,0.812-1.813,1.812-1.813c0.998,0,1.812,0.813,1.812,1.813S14.547,48.682,13.549,48.682z" fill="#9A916C"  gorn="0.1.1.2.1.0" id="_x30_.2.2.1.0"/>
                </g>
                <g  gorn="0.1.1.2.2" id="_x30_.2.2.2">
                    <path d="M20.749,44.321c-1.405,0-2.554,1.146-2.554,2.559c0,1.406,1.146,2.555,2.554,2.555s2.554-1.146,2.554-2.555C23.302,45.465,22.157,44.321,20.749,44.321z M20.749,48.682c-1,0-1.812-0.811-1.812-1.811c0-0.998,0.812-1.813,1.812-1.813c0.998,0,1.812,0.813,1.812,1.813S21.747,48.682,20.749,48.682z" fill="#9A916C"  gorn="0.1.1.2.2.0" id="_x30_.2.2.2.0"/>
                </g>
                <g  gorn="0.1.1.2.3" id="_x30_.2.2.3">
                    <path d="M27.949,44.321c-1.405,0-2.554,1.146-2.554,2.559c0,1.406,1.146,2.555,2.554,2.555c1.408,0,2.554-1.146,2.554-2.555C30.502,45.465,29.357,44.321,27.949,44.321z M27.949,48.682c-1,0-1.812-0.811-1.812-1.811c0-0.998,0.812-1.813,1.812-1.813c0.998,0,1.812,0.813,1.812,1.813S28.947,48.682,27.949,48.682z" fill="#9A916C"  gorn="0.1.1.2.3.0" id="_x30_.2.2.3.0"/>
                </g>
                <g  gorn="0.1.1.2.4" id="_x30_.2.2.4">
                    <path d="M35.149,44.321c-1.405,0-2.554,1.146-2.554,2.559c0,1.406,1.146,2.555,2.554,2.555c1.408,0,2.554-1.146,2.554-2.555C37.702,45.465,36.557,44.321,35.149,44.321z M35.149,48.682c-1,0-1.812-0.811-1.812-1.811c0-0.998,0.812-1.813,1.812-1.813c0.998,0,1.812,0.813,1.812,1.813S36.147,48.682,35.149,48.682z" fill="#9A916C"  gorn="0.1.1.2.4.0" id="_x30_.2.2.4.0"/>
                </g>
                <g  gorn="0.1.1.2.5" id="_x30_.2.2.5">
                    <path d="M42.349,44.321c-1.405,0-2.554,1.146-2.554,2.559c0,1.406,1.146,2.555,2.554,2.555c1.408,0,2.554-1.146,2.554-2.555C44.902,45.465,43.758,44.321,42.349,44.321z M42.349,48.682c-1,0-1.812-0.811-1.812-1.811c0-0.998,0.812-1.813,1.812-1.813c0.998,0,1.812,0.813,1.812,1.813S43.347,48.682,42.349,48.682z" fill="#9A916C"  gorn="0.1.1.2.5.0" id="_x30_.2.2.5.0"/>
                </g>
                <g  gorn="0.1.1.2.6" id="_x30_.2.2.6">
                    <path d="M49.55,44.321c-1.405,0-2.554,1.146-2.554,2.559c0,1.406,1.146,2.555,2.554,2.555c1.408,0,2.554-1.146,2.554-2.555C52.102,45.465,50.958,44.321,49.55,44.321z M49.55,48.682c-1,0-1.812-0.811-1.812-1.811c0-0.998,0.812-1.813,1.812-1.813c0.998,0,1.812,0.813,1.812,1.813S50.548,48.682,49.55,48.682z" fill="#9A916C"  gorn="0.1.1.2.6.0" id="_x30_.2.2.6.0"/>
                </g>
                <g  gorn="0.1.1.2.7" id="_x30_.2.2.7">
                    <path d="M56.75,44.321c-1.404,0-2.555,1.146-2.555,2.559c0,1.406,1.146,2.555,2.555,2.555s2.555-1.146,2.555-2.555C59.303,45.465,58.158,44.321,56.75,44.321z M56.75,48.682c-1,0-1.813-0.811-1.813-1.811c0-0.998,0.813-1.813,1.813-1.813c0.998,0,1.813,0.813,1.813,1.813S57.748,48.682,56.75,48.682z" fill="#9A916C"  gorn="0.1.1.2.7.0" id="_x30_.2.2.7.0"/>
                </g>
                <g  gorn="0.1.1.2.8" id="_x30_.2.2.8">
                    <path d="M63.95,44.321c-1.405,0-2.554,1.146-2.554,2.559c0,1.406,1.146,2.555,2.554,2.555c1.407,0,2.554-1.146,2.554-2.555C66.503,45.465,65.357,44.321,63.95,44.321z M63.95,48.682c-1,0-1.812-0.811-1.812-1.811c0-0.998,0.812-1.813,1.812-1.813c0.997,0,1.812,0.813,1.812,1.813S64.947,48.682,63.95,48.682z" fill="#9A916C"  gorn="0.1.1.2.8.0" id="_x30_.2.2.8.0"/>
                </g>
                <g  gorn="0.1.1.2.9" id="_x30_.2.2.9">
                    <path d="M71.15,44.321c-1.405,0-2.555,1.146-2.555,2.559c0,1.406,1.146,2.555,2.555,2.555c1.408,0,2.554-1.146,2.554-2.555C73.703,45.465,72.559,44.321,71.15,44.321z M71.15,48.682c-1,0-1.813-0.811-1.813-1.811c0-0.998,0.813-1.813,1.813-1.813c0.998,0,1.812,0.813,1.812,1.813S72.148,48.682,71.15,48.682z" fill="#9A916C"  gorn="0.1.1.2.9.0" id="_x30_.2.2.9.0"/>
                </g>
                <g  gorn="0.1.1.2.10" id="_x30_.2.2.10">
                    <path d="M78.352,44.321c-1.406,0-2.555,1.146-2.555,2.559c0,1.406,1.146,2.555,2.555,2.555c1.41,0,2.553-1.146,2.553-2.555C80.904,45.465,79.76,44.321,78.352,44.321z M78.352,48.682c-1,0-1.813-0.811-1.813-1.811c0-0.998,0.813-1.813,1.813-1.813c0.998,0,1.813,0.813,1.813,1.813S79.35,48.682,78.352,48.682z" fill="#9A916C"  gorn="0.1.1.2.10.0" id="_x30_.2.2.10.0"/>
                </g>
                <g  gorn="0.1.1.2.11" id="_x30_.2.2.11">
                    <path d="M85.551,44.321c-1.404,0-2.553,1.146-2.553,2.559c0,1.406,1.146,2.555,2.553,2.555c1.408,0,2.555-1.146,2.555-2.555C88.104,45.465,86.959,44.321,85.551,44.321z M85.551,48.682c-1,0-1.811-0.811-1.811-1.811c0-0.998,0.811-1.813,1.811-1.813c0.998,0,1.813,0.813,1.813,1.813S86.549,48.682,85.551,48.682z" fill="#9A916C"  gorn="0.1.1.2.11.0" id="_x30_.2.2.11.0"/>
                </g>
                <g  gorn="0.1.1.2.12" id="_x30_.2.2.12">
                    <path d="M92.752,44.321c-1.406,0-2.555,1.146-2.555,2.559c0,1.406,1.146,2.555,2.555,2.555s2.553-1.146,2.553-2.555C95.305,45.465,94.16,44.321,92.752,44.321z M92.752,48.682c-1,0-1.813-0.811-1.813-1.811c0-0.998,0.813-1.813,1.813-1.813c0.998,0,1.811,0.813,1.811,1.813S93.75,48.682,92.752,48.682z" fill="#9A916C"  gorn="0.1.1.2.12.0" id="_x30_.2.2.12.0"/>
                </g>
                <g  gorn="0.1.1.2.13" id="_x30_.2.2.13">
                    <path d="M99.951,44.321c-1.404,0-2.553,1.146-2.553,2.559c0,1.406,1.146,2.555,2.553,2.555c1.408,0,2.555-1.146,2.555-2.555C102.504,45.465,101.359,44.321,99.951,44.321z M99.951,48.682c-1,0-1.811-0.811-1.811-1.811c0-0.998,0.811-1.813,1.811-1.813c0.998,0,1.813,0.813,1.813,1.813S100.949,48.682,99.951,48.682z" fill="#9A916C"  gorn="0.1.1.2.13.0" id="_x30_.2.2.13.0"/>
                </g>
            </g>
        </g>
        <g  gorn="0.1.2" id="_x30_.3">
            <polygon points="0.035,34.735 0.035,15.892 17.16,15.892 17.16,34.737 " fill="#B3B3B3"  gorn="0.1.2.0" id="_x30_.3.0"/>
            <rect x="7.504" fill="#666666"  width="3.041" gorn="0.1.2.1" height="1.83" id="_x30_.3.1" y="34.936"/>
            <rect x="7.504" fill="#666666"  width="3.041" gorn="0.1.2.2" height="1.829" id="_x30_.3.2" y="13.832"/>
            <rect x="17.03" fill="#CCCCCC"  width="0.13" gorn="0.1.2.3" height="18.845" id="_x30_.3.3" y="15.892"/>
            <rect x="0.307" fill="#333333"  width="16.853" gorn="0.1.2.4" height="10.292" id="_x30_.3.4" y="20.152"/>
            <rect fill="#B3B3B3"  width="0.576" gorn="0.1.2.5" height="1.003" id="_x30_.3.5" y="14.658"/>
            <rect fill="#CCCCCC"  width="0.576" gorn="0.1.2.6" height="0.646" id="_x30_.3.6" y="15.021"/>
            <rect fill="#B3B3B3"  width="0.576" gorn="0.1.2.7" height="1.002" id="_x30_.3.7" y="34.934"/>
            <rect fill="#CCCCCC"  width="0.576" gorn="0.1.2.8" height="0.646" id="_x30_.3.8" y="34.934"/>
            <path d="M16.593,15.661l0.567,0.229v2.534c0,0-0.113-2.302-0.283-2.384s-0.284,0.106-0.284,0.106V15.661z" fill="#CCCCCC"  gorn="0.1.2.9" id="_x30_.3.9"/>
            <path d="M16.593,34.936l0.566-0.229v-2.533c0,0-0.113,2.301-0.283,2.383s-0.283-0.105-0.283-0.105V34.936z" fill="#CCCCCC"  gorn="0.1.2.10" id="_x30_.3.10"/>
            <path d="M16.593,31.547h-1.066v-1.605h1.634v-0.461h-0.566v-8.36h0.566v-0.525h-1.635V18.99h1.067v-3.321H0.153v19.271h16.44V31.547z M3.303,20.592H2.489v-1.593H3.37c0.277-0.426,0.76-0.708,1.307-0.708c0.598,0,1.105,0.219,1.369,0.708l0,0h4.48v1.592H6.043c-0.264,0.488-0.773,0.825-1.371,0.825C4.076,21.416,3.567,21.08,3.303,20.592z M3.303,31.479H2.489v-1.592H3.37c0.277-0.426,0.76-0.707,1.307-0.707c0.598,0,1.105,0.217,1.369,0.707l0,0h4.48v1.592H6.043c-0.264,0.49-0.773,0.826-1.371,0.826C4.076,32.305,3.567,31.971,3.303,31.479z" fill="#E6E6E6"  gorn="0.1.2.11" id="_x30_.3.11"/>
            <polygon points="0.151,16.066 0.151,15.661 16.593,15.661 16.593,17.191 " fill="#F2F2F2"  gorn="0.1.2.12" id="_x30_.3.12"/>
            <polygon points="0.151,34.936 11.129,34.368 16.593,33.799 16.593,34.936 " fill="#999999"  gorn="0.1.2.13" id="_x30_.3.13"/>
            <rect x="10.395" fill="#CCCCCC"  width="0.131" gorn="0.1.2.14" height="1.592" id="_x30_.3.14" y="18.999"/>
            <rect x="10.395" fill="#CCCCCC"  width="0.131" gorn="0.1.2.15" height="1.592" id="_x30_.3.15" y="29.889"/>
            <rect x="0.354" fill="#B3B3B3"  width="0.66" gorn="0.1.2.16" height="17.391" id="_x30_.3.16" y="16.605"/>
            <rect x="0.151" fill="#CCCCCC"  width="0.313" gorn="0.1.2.17" height="17.391" id="_x30_.3.17" y="16.605"/>
        </g>
        <rect x="51.449" fill="#333333"  width="28.347" gorn="0.1.3" height="28.351" id="_x30_.5" y="11.149"/>
        <rect x="90.197" fill="#333333"  width="5.779" gorn="0.1.4" height="5.773" id="_x30_.6" y="36.834"/>
        <rect x="17.86" fill="#333333"  width="5.778" gorn="0.1.5" height="5.778" id="_x30_.7" y="9.311"/>
        <rect x="17.86" fill="#333333"  width="11.14" gorn="0.1.6" height="11.139" id="_x30_.8" y="30.007"/>
        <rect x="84.005" fill="#333333"  width="2.101" gorn="0.1.7" height="4.289" id="_x30_.9" y="37.168"/>
        <rect x="78.791" fill="#333333"  width="4.289" gorn="0.1.8" height="2.101" id="_x30_.10" y="40.408"/>
        <rect x="88.887" fill="#333333"  width="4.289" gorn="0.1.9" height="2.104" id="_x30_.11" y="11.149"/>
        <rect x="48.692" fill="#333333"  width="2.101" gorn="0.1.10" height="3.729" id="_x30_.12" y="7.416"/>
        <rect x="45.946" fill="#333333"  width="2.101" gorn="0.1.11" height="3.729" id="_x30_.13" y="7.416"/>
        <rect x="30.05" fill="#333333"  width="2.101" gorn="0.1.12" height="3.729" id="_x30_.14" y="38.542"/>
        <g  gorn="0.1.13" id="_x30_.15">
            <g  gorn="0.1.13.0" id="_x30_.15.0">
                <rect x="27.949" fill="#333333"  width="2.101" gorn="0.1.13.0.0" height="3.733" id="_x30_.15.0.0" y="17.146"/>
            </g>
            <g  gorn="0.1.13.1" id="_x30_.15.1">
                <rect x="18.702" fill="#333333"  width="2.101" gorn="0.1.13.1.0" height="6.221" id="_x30_.15.1.0" y="21.128"/>
            </g>
            <g  gorn="0.1.13.2" id="_x30_.15.2">
                <rect x="31.925" fill="#333333"  width="2.101" gorn="0.1.13.2.0" height="3.733" id="_x30_.15.2.0" y="17.146"/>
            </g>
            <g  gorn="0.1.13.3" id="_x30_.15.3">
                <rect x="35.901" fill="#333333"  width="2.101" gorn="0.1.13.3.0" height="4.703" id="_x30_.15.3.0" y="17.146"/>
            </g>
            <g  gorn="0.1.13.4" id="_x30_.15.4">
                <rect x="39.877" fill="#333333"  width="2.101" gorn="0.1.13.4.0" height="3.733" id="_x30_.15.4.0" y="17.146"/>
            </g>
            <g  gorn="0.1.13.5" id="_x30_.15.5">
                <rect x="43.853" fill="#333333"  width="2.101" gorn="0.1.13.5.0" height="3.733" id="_x30_.15.5.0" y="17.146"/>
            </g>
        </g>
        <rect x="88.887" fill="#333333"  width="5.704" gorn="0.1.14" height="2.101" id="_x30_.16" y="8.368"/>
        <rect x="82.203" fill="#333333"  width="5.704" gorn="0.1.15" height="2.101" id="_x30_.17" y="8.368"/>
        <rect x="18.702" fill="#333333"  width="4.093" gorn="0.1.16" height="2.104" id="_x30_.18" y="16.141"/>
        <rect x="34.379" fill="#333333"  width="11.586" gorn="0.1.17" height="6.088" id="_x30_.19" y="33.554"/>
        <rect x="22.139" fill="#333333"  width="4.093" gorn="0.1.18" height="2.101" id="_x30_.20" y="21.198"/>
        <rect x="22.139" fill="#333333"  width="4.093" gorn="0.1.19" height="2.101" id="_x30_.21" y="24.339"/>
        <rect x="5.742" fill="#333333"  width="4.093" gorn="0.1.20" height="2.102" id="_x30_.22" y="38.672"/>
        <rect x="41.853" fill="#333333"  width="4.093" gorn="0.1.21" height="2.102" id="_x30_.23" y="30.007"/>
        <g  gorn="0.1.22" id="_x30_.24">
            <polygon points="88.785,23.096 88.932,23.096 88.932,27.503 88.785,27.503 88.785,30.833 95.088,30.833 95.088,19.766 88.785,19.766 " fill="#CCCCCC"  gorn="0.1.22.0" id="_x30_.24.0"/>
            <polygon points="96.098,27.503 95.953,27.503 95.953,23.096 96.098,23.096 96.098,19.766 89.842,19.766 89.842,30.833 96.098,30.833 " fill="#CCCCCC"  gorn="0.1.22.1" id="_x30_.24.1"/>
            <circle r="2.316" cy="25.3"  gorn="0.1.22.2" cx="92.441" id="_x30_.24.2"/>
            <path d="M92.553,27.617c1.281,0,2.318-1.038,2.318-2.316c0-1.279-1.037-2.316-2.318-2.316h-0.111c1.281,0,2.316,1.036,2.316,2.316c0,1.278-1.035,2.316-2.316,2.316H92.553z"  gorn="0.1.22.3" opacity="0.2" enable-background="new    " id="_x30_.24.3"/>
            <circle r="2.232" fill="#1A1A1A" cy="25.3"  gorn="0.1.22.4" cx="92.441" id="_x30_.24.4"/>
            <circle r="2.232" fill="#333333" cy="25.3"  gorn="0.1.22.5" cx="92.389" id="_x30_.24.5"/>
            <path d="M92.494,27.532c1.232,0,2.232-0.999,2.232-2.231c0-1.233-1-2.233-2.232-2.233h-0.105c1.232,0,2.232,1.001,2.232,2.233s-1,2.231-2.232,2.231H92.494z"  gorn="0.1.22.6" opacity="0.2" enable-background="new    " id="_x30_.24.6"/>
            <path d="M92.494,23.067c-1.232,0-2.232,1.001-2.232,2.233s1,2.231,2.232,2.231h-0.105c-1.23,0-2.229-0.999-2.229-2.231c0-1.233,0.999-2.233,2.229-2.233H92.494z" fill="#FFFFFF"  gorn="0.1.22.7" opacity="0.2" enable-background="new    " id="_x30_.24.7"/>
            <rect x="88.785" fill="#FFFFFF"  width="0.146" gorn="0.1.22.8" opacity="0.2" enable-background="new    " height="3.331" id="_x30_.24.8" y="19.765"/>
            <rect x="88.785" fill="#FFFFFF"  width="0.146" gorn="0.1.22.9" opacity="0.2" enable-background="new    " height="3.33" id="_x30_.24.9" y="27.503"/>
            <rect x="88.932" fill="#FFFFFF"  width="0.146" gorn="0.1.22.10" opacity="0.2" enable-background="new    " height="4.407" id="_x30_.24.10" y="23.096"/>
            <rect x="95.945"  width="0.146" gorn="0.1.22.11" opacity="0.2" enable-background="new    " height="3.331" id="_x30_.24.11" y="19.765"/>
            <rect x="95.945"  width="0.146" gorn="0.1.22.12" opacity="0.2" enable-background="new    " height="3.33" id="_x30_.24.12" y="27.503"/>
            <rect x="95.799"  width="0.146" gorn="0.1.22.13" opacity="0.2" enable-background="new    " height="4.407" id="_x30_.24.13" y="23.096"/>
        </g>
        <g  gorn="0.1.23" id="_x30_.26">
            <circle r="1.908" fill="none" cy="3.723" stroke="#9A916C"  gorn="0.1.23.0" cx="99.941" stroke-width="1.224" id="connector19pin"/>
            <circle r="1.908" fill="none" cy="3.723" stroke="#9A916C"  gorn="0.1.23.1" cx="92.742" stroke-width="1.224" id="connector20pin"/>
            <circle r="1.908" fill="none" cy="3.723" stroke="#9A916C"  gorn="0.1.23.2" cx="85.542" stroke-width="1.224" id="connector21pin"/>
            <circle r="1.908" fill="none" cy="3.723" stroke="#9A916C"  gorn="0.1.23.3" cx="78.342" stroke-width="1.224" id="connector22pin"/>
            <circle r="1.908" fill="none" cy="3.723" stroke="#9A916C"  gorn="0.1.23.4" cx="71.143" stroke-width="1.224" id="connector23pin"/>
            <circle r="1.908" fill="none" cy="3.723" stroke="#9A916C"  gorn="0.1.23.5" cx="63.941" stroke-width="1.224" id="connector24pin"/>
            <circle r="1.908" fill="none" cy="3.723" stroke="#9A916C"  gorn="0.1.23.6" cx="56.743" stroke-width="1.224" id="connector25pin"/>
            <circle r="1.908" fill="none" cy="3.723" stroke="#9A916C"  gorn="0.1.23.7" cx="49.542" stroke-width="1.224" id="connector26pin"/>
            <circle r="1.908" fill="none" cy="3.723" stroke="#9A916C"  gorn="0.1.23.8" cx="42.342" stroke-width="1.224" id="connector27pin"/>
            <circle r="1.908" fill="none" cy="3.723" stroke="#9A916C"  gorn="0.1.23.9" cx="35.143" stroke-width="1.224" id="connector28pin"/>
            <circle r="1.908" fill="none" cy="3.723" stroke="#9A916C"  gorn="0.1.23.10" cx="27.942" stroke-width="1.224" id="connector29pin"/>
            <circle r="1.908" fill="none" cy="3.723" stroke="#9A916C"  gorn="0.1.23.11" cx="20.742" stroke-width="1.224" id="connector30pin"/>
            <circle r="1.908" fill="none" cy="3.723" stroke="#9A916C"  gorn="0.1.23.12" cx="13.542" stroke-width="1.224" id="connector31pin"/>
            <circle r="1.908" fill="none" cy="3.723" stroke="#9A916C"  gorn="0.1.23.13" cx="6.342" stroke-width="1.224" id="connector32pin"/>
            <circle r="1.908" fill="none" cy="11.949" stroke="#9A916C"  gorn="0.1.23.14" cx="13.542" stroke-width="1.224" id="connector36pin"/>
            <circle r="1.908" fill="none" cy="11.949" stroke="#9A916C"  gorn="0.1.23.15" cx="35.149" stroke-width="1.224" id="connector34pin"/>
            <circle r="1.908" fill="none" cy="11.949" stroke="#9A916C"  gorn="0.1.23.16" cx="27.942" stroke-width="1.224" id="connector35pin"/>
            <circle r="1.908" fill="none" cy="46.922" stroke="#9A916C"  gorn="0.1.23.17" cx="99.941" stroke-width="1.224" id="connector13pin"/>
            <circle r="1.908" fill="none" cy="46.922" stroke="#9A916C"  gorn="0.1.23.18" cx="92.742" stroke-width="1.224" id="connector12pin"/>
            <circle r="1.908" fill="none" cy="46.922" stroke="#9A916C"  gorn="0.1.23.19" cx="85.542" stroke-width="1.224" id="connector11pin"/>
            <circle r="1.908" fill="none" cy="46.922" stroke="#9A916C"  gorn="0.1.23.20" cx="78.342" stroke-width="1.224" id="connector10pin"/>
            <circle r="1.908" fill="none" cy="46.922" stroke="#9A916C"  gorn="0.1.23.21" cx="71.143" stroke-width="1.224" id="connector9pin"/>
            <circle r="1.908" fill="none" cy="46.922" stroke="#9A916C"  gorn="0.1.23.22" cx="63.941" stroke-width="1.224" id="connector8pin"/>
            <circle r="1.908" fill="none" cy="46.922" stroke="#9A916C"  gorn="0.1.23.23" cx="56.743" stroke-width="1.224" id="connector7pin"/>
            <circle r="1.908" fill="none" cy="46.922" stroke="#9A916C"  gorn="0.1.23.24" cx="49.542" stroke-width="1.224" id="connector6pin"/>
            <circle r="1.908" fill="none" cy="46.922" stroke="#9A916C"  gorn="0.1.23.25" cx="42.342" stroke-width="1.224" id="connector5pin"/>
            <circle r="1.908" fill="none" cy="46.922" stroke="#9A916C"  gorn="0.1.23.26" cx="35.143" stroke-width="1.224" id="connector4pin"/>
            <circle r="1.908" fill="none" cy="46.922" stroke="#9A916C"  gorn="0.1.23.27" cx="27.942" stroke-width="1.224" id="connector3pin"/>
            <circle r="1.908" fill="none" cy="46.922" stroke="#9A916C"  gorn="0.1.23.28" cx="20.742" stroke-width="1.224" id="connector2pin"/>
            <circle r="1.908" fill="none" cy="46.922" stroke="#9A916C"  gorn="0.1.23.29" cx="13.542" stroke-width="1.224" id="connector1pin"/>
            <circle r="1.908" fill="none" cy="46.922" stroke="#9A916C"  gorn="0.1.23.30" cx="6.342" stroke-width="1.224" id="connector0pin"/>
            <circle r="1.908" fill="none" cy="11.95" stroke="#9A916C"  gorn="0.1.23.31" cx="42.349" stroke-width="1.224" id="connector33pin"/>
            <circle r="1.908" fill="none" cy="32.523" stroke="#9A916C"  gorn="0.1.23.32" cx="99.943" stroke-width="1.224" id="connector15pin"/>
            <circle r="1.908" fill="none" cy="39.723" stroke="#9A916C"  gorn="0.1.23.33" cx="99.941" stroke-width="1.224" id="connector14pin"/>
            <circle r="1.908" fill="none" cy="25.323" stroke="#9A916C"  gorn="0.1.23.34" cx="99.943" stroke-width="1.224" id="connector16pin"/>
            <circle r="1.908" fill="none" cy="10.923" stroke="#9A916C"  gorn="0.1.23.35" cx="99.941" stroke-width="1.224" id="connector18pin"/>
            <circle r="1.908" fill="none" cy="18.122" stroke="#9A916C"  gorn="0.1.23.36" cx="99.943" stroke-width="1.224" id="connector17pin"/>
            <circle r="1.417" fill="none" cy="22.724" stroke="#9A916C"  gorn="0.1.23.37" cx="40.054" stroke-width="0.5" id="_x30_.26.37"/>
            <circle r="1.417" fill="none" cy="22.724" stroke="#9A916C"  gorn="0.1.23.38" cx="43.901" stroke-width="0.5" id="connector16pin_1_"/>
        </g>
        <g  transform="matrix(1 0 0 1 53.1504 43.1858)">
            <g >
                <g >
                    <g >
                        <g >
                            <g >
                                <g >
                                    <g >
                                        <g  gorn="0.1.24.0.0.0.0.0.0.0.0" id="g156">
                                            <g  gorn="0.1.24.0.0.0.0.0.0.0.0.0" id="g158">
                                                <g  gorn="0.1.24.0.0.0.0.0.0.0.0.0.0" id="_x30_.25_1_">
                                                    <g  gorn="0.1.24.0.0.0.0.0.0.0.0.0.0.0" id="_x30_.25">
                                                        <g  gorn="0.1.24.0.0.0.0.0.0.0.0.0.0.0.0" id="_x30_.25.0">
                                                            <g  transform="matrix(1 0 0 1 0 -6.2002)">
                                                                <g >
                                                                    <g >
                                                                        <g >
                                                                            <text font-family="'OCRA'" fill="#C8C8C8"  gorn="0.1.24.0.0.0.0.0.0.0.0.0.0.0.0.0.0.0.0.0" font-size="3.8634" id="_x30_.25.0.0">teensy3.1</text>
                                                                        </g>
                                                                    </g>
                                                                </g>
                                                            </g>
                                                        </g>
                                                    </g>
                                                </g>
                                            </g>
                                        </g>
                                    </g>
                                </g>
                            </g>
                        </g>
                    </g>
                </g>
            </g>
        </g>
    </g>
</svg>
